<svg width="360" height="80" viewBox="0 0 360 80" fill="none" xmlns="http://www.w3.org/2000/svg">
<rect width="100" height="80" rx="6" fill="#939AAD"/>
<path d="M120.992 17.128C120.192 17.128 119.424 17.0107 118.688 16.776C117.963 16.5307 117.381 16.2053 116.944 15.8C116.784 15.6507 116.704 15.464 116.704 15.24C116.704 15.0907 116.747 14.9627 116.832 14.856C116.917 14.7387 117.019 14.68 117.136 14.68C117.275 14.68 117.424 14.7387 117.584 14.856C118.576 15.624 119.707 16.008 120.976 16.008C121.893 16.008 122.597 15.832 123.088 15.48C123.579 15.128 123.824 14.6267 123.824 13.976C123.824 13.6027 123.707 13.304 123.472 13.08C123.237 12.8453 122.928 12.6587 122.544 12.52C122.16 12.3813 121.643 12.2373 120.992 12.088C120.117 11.8853 119.397 11.672 118.832 11.448C118.277 11.224 117.824 10.904 117.472 10.488C117.131 10.072 116.96 9.528 116.96 8.856C116.96 8.216 117.131 7.65067 117.472 7.16C117.824 6.65867 118.309 6.27467 118.928 6.008C119.557 5.73067 120.272 5.592 121.072 5.592C121.819 5.592 122.512 5.70933 123.152 5.944C123.803 6.168 124.347 6.49333 124.784 6.92C124.955 7.09067 125.04 7.27733 125.04 7.48C125.04 7.62933 124.997 7.76267 124.912 7.88C124.827 7.98667 124.725 8.04 124.608 8.04C124.491 8.04 124.336 7.98133 124.144 7.864C123.621 7.43733 123.136 7.13867 122.688 6.968C122.24 6.79733 121.701 6.712 121.072 6.712C120.187 6.712 119.499 6.89867 119.008 7.272C118.517 7.63467 118.272 8.14667 118.272 8.808C118.272 9.37333 118.485 9.8 118.912 10.088C119.349 10.3653 120.016 10.6107 120.912 10.824C121.883 11.0587 122.645 11.2773 123.2 11.48C123.755 11.672 124.213 11.9653 124.576 12.36C124.949 12.7547 125.136 13.2827 125.136 13.944C125.136 14.5733 124.96 15.128 124.608 15.608C124.267 16.088 123.781 16.4613 123.152 16.728C122.523 16.9947 121.803 17.128 120.992 17.128ZM133.107 15.192C133.224 15.192 133.326 15.24 133.411 15.336C133.496 15.432 133.539 15.5547 133.539 15.704C133.539 15.9707 133.352 16.216 132.979 16.44C132.595 16.664 132.19 16.8347 131.763 16.952C131.336 17.0587 130.92 17.112 130.515 17.112C129.31 17.112 128.355 16.7547 127.651 16.04C126.958 15.3253 126.611 14.3387 126.611 13.08C126.611 12.28 126.766 11.576 127.075 10.968C127.384 10.3493 127.816 9.86933 128.371 9.528C128.936 9.18667 129.576 9.016 130.291 9.016C131.304 9.016 132.11 9.34667 132.707 10.008C133.304 10.6693 133.603 11.5653 133.603 12.696C133.603 12.9093 133.56 13.064 133.475 13.16C133.39 13.256 133.251 13.304 133.059 13.304H127.907C128.003 15.1387 128.872 16.056 130.515 16.056C130.931 16.056 131.288 16.0027 131.587 15.896C131.886 15.7787 132.206 15.624 132.547 15.432C132.824 15.272 133.011 15.192 133.107 15.192ZM130.307 10.024C129.624 10.024 129.075 10.2373 128.659 10.664C128.254 11.0907 128.014 11.6933 127.939 12.472H132.467C132.446 11.6827 132.248 11.08 131.875 10.664C131.502 10.2373 130.979 10.024 130.307 10.024ZM141.769 5.64C141.971 5.64 142.131 5.69867 142.249 5.816C142.366 5.93333 142.425 6.08267 142.425 6.264V16.44C142.425 16.632 142.366 16.7867 142.249 16.904C142.131 17.0213 141.971 17.08 141.769 17.08C141.566 17.08 141.406 17.0213 141.289 16.904C141.182 16.7867 141.129 16.632 141.129 16.44V15.576C140.894 16.0667 140.547 16.4453 140.089 16.712C139.641 16.9787 139.113 17.112 138.505 17.112C137.822 17.112 137.219 16.9413 136.697 16.6C136.174 16.2587 135.769 15.784 135.481 15.176C135.193 14.5573 135.049 13.8427 135.049 13.032C135.049 12.232 135.193 11.528 135.481 10.92C135.769 10.312 136.174 9.84267 136.697 9.512C137.219 9.18133 137.822 9.016 138.505 9.016C139.113 9.016 139.641 9.14933 140.089 9.416C140.547 9.68267 140.894 10.0613 141.129 10.552V6.264C141.129 6.072 141.182 5.92267 141.289 5.816C141.406 5.69867 141.566 5.64 141.769 5.64ZM138.761 16.04C139.518 16.04 140.099 15.784 140.505 15.272C140.921 14.7493 141.129 14.0133 141.129 13.064C141.129 12.1147 140.921 11.384 140.505 10.872C140.099 10.36 139.518 10.104 138.761 10.104C138.003 10.104 137.411 10.36 136.985 10.872C136.569 11.384 136.361 12.104 136.361 13.032C136.361 13.9813 136.569 14.7227 136.985 15.256C137.411 15.7787 138.003 16.04 138.761 16.04ZM152.134 9.016C154.086 9.016 155.062 10.04 155.062 12.088V16.44C155.062 16.632 155.003 16.7867 154.886 16.904C154.779 17.0213 154.63 17.08 154.438 17.08C154.246 17.08 154.091 17.0213 153.974 16.904C153.857 16.7867 153.798 16.632 153.798 16.44V15.672C153.595 16.1307 153.286 16.488 152.87 16.744C152.454 16.9893 151.974 17.112 151.43 17.112C150.929 17.112 150.465 17.0107 150.038 16.808C149.622 16.6053 149.291 16.3227 149.046 15.96C148.801 15.5973 148.678 15.1973 148.678 14.76C148.678 14.1733 148.827 13.72 149.126 13.4C149.425 13.0693 149.915 12.8347 150.598 12.696C151.281 12.5467 152.23 12.472 153.446 12.472H153.798V11.944C153.798 11.304 153.665 10.8347 153.398 10.536C153.142 10.2373 152.721 10.088 152.134 10.088C151.409 10.088 150.673 10.2853 149.926 10.68C149.638 10.8613 149.435 10.952 149.318 10.952C149.19 10.952 149.083 10.904 148.998 10.808C148.913 10.712 148.87 10.5893 148.87 10.44C148.87 10.2907 148.913 10.1627 148.998 10.056C149.094 9.93867 149.243 9.82133 149.446 9.704C149.819 9.49067 150.241 9.32533 150.71 9.208C151.19 9.08 151.665 9.016 152.134 9.016ZM151.606 16.088C152.246 16.088 152.769 15.8747 153.174 15.448C153.59 15.0107 153.798 14.4507 153.798 13.768V13.304H153.51C152.571 13.304 151.857 13.3467 151.366 13.432C150.875 13.5067 150.523 13.64 150.31 13.832C150.107 14.0133 150.006 14.2853 150.006 14.648C150.006 15.064 150.155 15.4107 150.454 15.688C150.763 15.9547 151.147 16.088 151.606 16.088ZM162.215 17.08C162.023 17.08 161.863 17.0267 161.735 16.92C161.618 16.8027 161.559 16.6427 161.559 16.44V6.28C161.559 6.07733 161.618 5.92267 161.735 5.816C161.863 5.69867 162.023 5.64 162.215 5.64C162.397 5.64 162.546 5.69867 162.663 5.816C162.791 5.92267 162.855 6.07733 162.855 6.28V16.44C162.855 16.6427 162.791 16.8027 162.663 16.92C162.546 17.0267 162.397 17.08 162.215 17.08ZM168.462 9.016C170.414 9.016 171.39 10.04 171.39 12.088V16.44C171.39 16.632 171.331 16.7867 171.214 16.904C171.107 17.0213 170.958 17.08 170.766 17.08C170.574 17.08 170.419 17.0213 170.302 16.904C170.185 16.7867 170.126 16.632 170.126 16.44V15.672C169.923 16.1307 169.614 16.488 169.198 16.744C168.782 16.9893 168.302 17.112 167.758 17.112C167.257 17.112 166.793 17.0107 166.366 16.808C165.95 16.6053 165.619 16.3227 165.374 15.96C165.129 15.5973 165.006 15.1973 165.006 14.76C165.006 14.1733 165.155 13.72 165.454 13.4C165.753 13.0693 166.243 12.8347 166.926 12.696C167.609 12.5467 168.558 12.472 169.774 12.472H170.126V11.944C170.126 11.304 169.993 10.8347 169.726 10.536C169.47 10.2373 169.049 10.088 168.462 10.088C167.737 10.088 167.001 10.2853 166.254 10.68C165.966 10.8613 165.763 10.952 165.646 10.952C165.518 10.952 165.411 10.904 165.326 10.808C165.241 10.712 165.198 10.5893 165.198 10.44C165.198 10.2907 165.241 10.1627 165.326 10.056C165.422 9.93867 165.571 9.82133 165.774 9.704C166.147 9.49067 166.569 9.32533 167.038 9.208C167.518 9.08 167.993 9.016 168.462 9.016ZM167.934 16.088C168.574 16.088 169.097 15.8747 169.502 15.448C169.918 15.0107 170.126 14.4507 170.126 13.768V13.304H169.838C168.899 13.304 168.185 13.3467 167.694 13.432C167.203 13.5067 166.851 13.64 166.638 13.832C166.435 14.0133 166.334 14.2853 166.334 14.648C166.334 15.064 166.483 15.4107 166.782 15.688C167.091 15.9547 167.475 16.088 167.934 16.088ZM176.995 17.112C176.259 17.112 175.608 16.9467 175.043 16.616C174.488 16.2853 174.056 15.816 173.747 15.208C173.448 14.5893 173.299 13.8747 173.299 13.064C173.299 12.2533 173.448 11.544 173.747 10.936C174.056 10.3173 174.488 9.84267 175.043 9.512C175.608 9.18133 176.259 9.016 176.995 9.016C177.731 9.016 178.381 9.18133 178.947 9.512C179.512 9.84267 179.944 10.3173 180.243 10.936C180.552 11.544 180.707 12.2533 180.707 13.064C180.707 13.8747 180.552 14.5893 180.243 15.208C179.944 15.816 179.512 16.2853 178.947 16.616C178.381 16.9467 177.731 17.112 176.995 17.112ZM176.995 16.04C177.763 16.04 178.349 15.7893 178.755 15.288C179.171 14.776 179.379 14.0347 179.379 13.064C179.379 12.1147 179.171 11.384 178.755 10.872C178.339 10.3493 177.752 10.088 176.995 10.088C176.237 10.088 175.651 10.3493 175.235 10.872C174.819 11.384 174.611 12.1147 174.611 13.064C174.611 14.024 174.813 14.76 175.219 15.272C175.635 15.784 176.227 16.04 176.995 16.04ZM186.494 9.048C186.942 9.016 187.166 9.19733 187.166 9.592C187.166 9.76267 187.118 9.90133 187.022 10.008C186.926 10.104 186.76 10.1627 186.526 10.184L186.046 10.232C185.331 10.296 184.798 10.552 184.446 11C184.104 11.4373 183.934 11.9547 183.934 12.552V16.44C183.934 16.6533 183.875 16.8133 183.758 16.92C183.64 17.0267 183.486 17.08 183.294 17.08C183.102 17.08 182.942 17.0267 182.814 16.92C182.696 16.8027 182.638 16.6427 182.638 16.44V9.688C182.638 9.48533 182.702 9.33067 182.83 9.224C182.958 9.10667 183.112 9.048 183.294 9.048C183.464 9.048 183.608 9.10667 183.726 9.224C183.843 9.33067 183.902 9.48 183.902 9.672V10.568C184.126 10.0987 184.44 9.74133 184.846 9.496C185.262 9.25067 185.736 9.10667 186.27 9.064L186.494 9.048ZM194.154 15.192C194.271 15.192 194.373 15.24 194.458 15.336C194.543 15.432 194.586 15.5547 194.586 15.704C194.586 15.9707 194.399 16.216 194.026 16.44C193.642 16.664 193.237 16.8347 192.81 16.952C192.383 17.0587 191.967 17.112 191.562 17.112C190.357 17.112 189.402 16.7547 188.698 16.04C188.005 15.3253 187.658 14.3387 187.658 13.08C187.658 12.28 187.813 11.576 188.122 10.968C188.431 10.3493 188.863 9.86933 189.418 9.528C189.983 9.18667 190.623 9.016 191.338 9.016C192.351 9.016 193.157 9.34667 193.754 10.008C194.351 10.6693 194.65 11.5653 194.65 12.696C194.65 12.9093 194.607 13.064 194.522 13.16C194.437 13.256 194.298 13.304 194.106 13.304H188.954C189.05 15.1387 189.919 16.056 191.562 16.056C191.978 16.056 192.335 16.0027 192.634 15.896C192.933 15.7787 193.253 15.624 193.594 15.432C193.871 15.272 194.058 15.192 194.154 15.192ZM191.354 10.024C190.671 10.024 190.122 10.2373 189.706 10.664C189.301 11.0907 189.061 11.6933 188.986 12.472H193.514C193.493 11.6827 193.295 11.08 192.922 10.664C192.549 10.2373 192.026 10.024 191.354 10.024ZM202.591 15.192C202.709 15.192 202.81 15.24 202.895 15.336C202.981 15.432 203.023 15.5547 203.023 15.704C203.023 15.9707 202.837 16.216 202.463 16.44C202.079 16.664 201.674 16.8347 201.247 16.952C200.821 17.0587 200.405 17.112 199.999 17.112C198.794 17.112 197.839 16.7547 197.135 16.04C196.442 15.3253 196.095 14.3387 196.095 13.08C196.095 12.28 196.25 11.576 196.559 10.968C196.869 10.3493 197.301 9.86933 197.855 9.528C198.421 9.18667 199.061 9.016 199.775 9.016C200.789 9.016 201.594 9.34667 202.191 10.008C202.789 10.6693 203.087 11.5653 203.087 12.696C203.087 12.9093 203.045 13.064 202.959 13.16C202.874 13.256 202.735 13.304 202.543 13.304H197.391C197.487 15.1387 198.357 16.056 199.999 16.056C200.415 16.056 200.773 16.0027 201.071 15.896C201.37 15.7787 201.69 15.624 202.031 15.432C202.309 15.272 202.495 15.192 202.591 15.192ZM199.791 10.024C199.109 10.024 198.559 10.2373 198.143 10.664C197.738 11.0907 197.498 11.6933 197.423 12.472H201.951C201.93 11.6827 201.733 11.08 201.359 10.664C200.986 10.2373 200.463 10.024 199.791 10.024ZM208.55 16.056C208.923 16.088 209.11 16.2587 209.11 16.568C209.11 16.7493 209.041 16.888 208.902 16.984C208.774 17.0693 208.577 17.1013 208.31 17.08L207.878 17.048C207.025 16.984 206.395 16.728 205.99 16.28C205.585 15.832 205.382 15.1547 205.382 14.248V10.232H204.31C204.129 10.232 203.985 10.1893 203.878 10.104C203.782 10.008 203.734 9.88533 203.734 9.736C203.734 9.576 203.782 9.448 203.878 9.352C203.985 9.256 204.129 9.208 204.31 9.208H205.382V7.4C205.382 7.19733 205.441 7.04267 205.558 6.936C205.675 6.81867 205.835 6.76 206.038 6.76C206.23 6.76 206.385 6.81867 206.502 6.936C206.619 7.04267 206.678 7.19733 206.678 7.4V9.208H208.454C208.625 9.208 208.758 9.256 208.854 9.352C208.961 9.448 209.014 9.576 209.014 9.736C209.014 9.88533 208.961 10.008 208.854 10.104C208.758 10.1893 208.625 10.232 208.454 10.232H206.678V14.312C206.678 14.8987 206.795 15.3253 207.03 15.592C207.275 15.848 207.638 15.992 208.118 16.024L208.55 16.056ZM220.545 15.192C220.662 15.192 220.763 15.24 220.849 15.336C220.934 15.432 220.977 15.5547 220.977 15.704C220.977 15.9707 220.79 16.216 220.417 16.44C220.033 16.664 219.627 16.8347 219.201 16.952C218.774 17.0587 218.358 17.112 217.953 17.112C216.747 17.112 215.793 16.7547 215.089 16.04C214.395 15.3253 214.049 14.3387 214.049 13.08C214.049 12.28 214.203 11.576 214.513 10.968C214.822 10.3493 215.254 9.86933 215.809 9.528C216.374 9.18667 217.014 9.016 217.729 9.016C218.742 9.016 219.547 9.34667 220.145 10.008C220.742 10.6693 221.041 11.5653 221.041 12.696C221.041 12.9093 220.998 13.064 220.913 13.16C220.827 13.256 220.689 13.304 220.497 13.304H215.345C215.441 15.1387 216.31 16.056 217.953 16.056C218.369 16.056 218.726 16.0027 219.025 15.896C219.323 15.7787 219.643 15.624 219.985 15.432C220.262 15.272 220.449 15.192 220.545 15.192ZM217.745 10.024C217.062 10.024 216.513 10.2373 216.097 10.664C215.691 11.0907 215.451 11.6933 215.377 12.472H219.905C219.883 11.6827 219.686 11.08 219.313 10.664C218.939 10.2373 218.417 10.024 217.745 10.024ZM226.806 9.048C227.254 9.016 227.478 9.19733 227.478 9.592C227.478 9.76267 227.43 9.90133 227.334 10.008C227.238 10.104 227.073 10.1627 226.838 10.184L226.358 10.232C225.643 10.296 225.11 10.552 224.758 11C224.417 11.4373 224.246 11.9547 224.246 12.552V16.44C224.246 16.6533 224.187 16.8133 224.07 16.92C223.953 17.0267 223.798 17.08 223.606 17.08C223.414 17.08 223.254 17.0267 223.126 16.92C223.009 16.8027 222.95 16.6427 222.95 16.44V9.688C222.95 9.48533 223.014 9.33067 223.142 9.224C223.27 9.10667 223.425 9.048 223.606 9.048C223.777 9.048 223.921 9.10667 224.038 9.224C224.155 9.33067 224.214 9.48 224.214 9.672V10.568C224.438 10.0987 224.753 9.74133 225.158 9.496C225.574 9.25067 226.049 9.10667 226.582 9.064L226.806 9.048ZM231.712 9.016C233.664 9.016 234.64 10.04 234.64 12.088V16.44C234.64 16.632 234.581 16.7867 234.464 16.904C234.357 17.0213 234.208 17.08 234.016 17.08C233.824 17.08 233.669 17.0213 233.552 16.904C233.435 16.7867 233.376 16.632 233.376 16.44V15.672C233.173 16.1307 232.864 16.488 232.448 16.744C232.032 16.9893 231.552 17.112 231.008 17.112C230.507 17.112 230.043 17.0107 229.616 16.808C229.2 16.6053 228.869 16.3227 228.624 15.96C228.379 15.5973 228.256 15.1973 228.256 14.76C228.256 14.1733 228.405 13.72 228.704 13.4C229.003 13.0693 229.493 12.8347 230.176 12.696C230.859 12.5467 231.808 12.472 233.024 12.472H233.376V11.944C233.376 11.304 233.243 10.8347 232.976 10.536C232.72 10.2373 232.299 10.088 231.712 10.088C230.987 10.088 230.251 10.2853 229.504 10.68C229.216 10.8613 229.013 10.952 228.896 10.952C228.768 10.952 228.661 10.904 228.576 10.808C228.491 10.712 228.448 10.5893 228.448 10.44C228.448 10.2907 228.491 10.1627 228.576 10.056C228.672 9.93867 228.821 9.82133 229.024 9.704C229.397 9.49067 229.819 9.32533 230.288 9.208C230.768 9.08 231.243 9.016 231.712 9.016ZM231.184 16.088C231.824 16.088 232.347 15.8747 232.752 15.448C233.168 15.0107 233.376 14.4507 233.376 13.768V13.304H233.088C232.149 13.304 231.435 13.3467 230.944 13.432C230.453 13.5067 230.101 13.64 229.888 13.832C229.685 14.0133 229.584 14.2853 229.584 14.648C229.584 15.064 229.733 15.4107 230.032 15.688C230.341 15.9547 230.725 16.088 231.184 16.088ZM240.613 16.056C240.986 16.088 241.173 16.2587 241.173 16.568C241.173 16.7493 241.103 16.888 240.965 16.984C240.837 17.0693 240.639 17.1013 240.373 17.08L239.941 17.048C239.087 16.984 238.458 16.728 238.053 16.28C237.647 15.832 237.445 15.1547 237.445 14.248V10.232H236.373C236.191 10.232 236.047 10.1893 235.941 10.104C235.845 10.008 235.796 9.88533 235.796 9.736C235.796 9.576 235.845 9.448 235.941 9.352C236.047 9.256 236.191 9.208 236.373 9.208H237.445V7.4C237.445 7.19733 237.503 7.04267 237.621 6.936C237.738 6.81867 237.898 6.76 238.101 6.76C238.293 6.76 238.447 6.81867 238.565 6.936C238.682 7.04267 238.741 7.19733 238.741 7.4V9.208H240.516C240.687 9.208 240.821 9.256 240.917 9.352C241.023 9.448 241.077 9.576 241.077 9.736C241.077 9.88533 241.023 10.008 240.917 10.104C240.821 10.1893 240.687 10.232 240.516 10.232H238.741V14.312C238.741 14.8987 238.858 15.3253 239.093 15.592C239.338 15.848 239.701 15.992 240.181 16.024L240.613 16.056ZM243.277 15.272C243.543 15.272 243.757 15.3787 243.917 15.592C244.087 15.7947 244.173 16.104 244.173 16.52C244.173 17.3627 243.901 18.072 243.357 18.648C243.25 18.7653 243.127 18.824 242.989 18.824C242.882 18.824 242.786 18.7813 242.701 18.696C242.615 18.6213 242.573 18.5307 242.573 18.424C242.573 18.3067 242.615 18.2053 242.701 18.12C242.978 17.832 243.154 17.4747 243.229 17.048C242.994 17.0267 242.797 16.9413 242.637 16.792C242.487 16.632 242.413 16.4293 242.413 16.184C242.413 15.9173 242.493 15.6987 242.653 15.528C242.823 15.3573 243.031 15.272 243.277 15.272ZM251.106 17.08C250.914 17.08 250.754 17.0267 250.626 16.92C250.509 16.8027 250.45 16.6427 250.45 16.44V9.688C250.45 9.48533 250.509 9.33067 250.626 9.224C250.754 9.10667 250.914 9.048 251.106 9.048C251.298 9.048 251.453 9.10667 251.57 9.224C251.687 9.33067 251.746 9.48533 251.746 9.688V16.44C251.746 16.6533 251.687 16.8133 251.57 16.92C251.453 17.0267 251.298 17.08 251.106 17.08ZM251.106 7.368C250.85 7.368 250.642 7.29333 250.482 7.144C250.322 6.99467 250.242 6.79733 250.242 6.552C250.242 6.31733 250.322 6.12533 250.482 5.976C250.642 5.82667 250.85 5.752 251.106 5.752C251.362 5.752 251.57 5.82667 251.73 5.976C251.89 6.12533 251.97 6.31733 251.97 6.552C251.97 6.79733 251.89 6.99467 251.73 7.144C251.57 7.29333 251.362 7.368 251.106 7.368ZM258.089 9.016C259.955 9.016 260.889 10.0453 260.889 12.104V16.44C260.889 16.6427 260.83 16.8027 260.713 16.92C260.606 17.0267 260.451 17.08 260.249 17.08C260.046 17.08 259.886 17.0267 259.769 16.92C259.651 16.8027 259.593 16.6427 259.593 16.44V12.184C259.593 11.4587 259.449 10.9307 259.161 10.6C258.883 10.2693 258.435 10.104 257.817 10.104C257.102 10.104 256.531 10.3227 256.105 10.76C255.678 11.1973 255.465 11.7893 255.465 12.536V16.44C255.465 16.6427 255.406 16.8027 255.289 16.92C255.182 17.0267 255.027 17.08 254.825 17.08C254.622 17.08 254.462 17.0267 254.345 16.92C254.227 16.8027 254.169 16.6427 254.169 16.44V9.688C254.169 9.496 254.227 9.34133 254.345 9.224C254.462 9.10667 254.622 9.048 254.825 9.048C255.017 9.048 255.166 9.10667 255.273 9.224C255.39 9.34133 255.449 9.49067 255.449 9.672V10.488C255.705 10.008 256.062 9.64533 256.521 9.4C256.979 9.144 257.502 9.016 258.089 9.016ZM273.004 9.448C273.121 9.192 273.308 9.064 273.564 9.064C273.724 9.064 273.868 9.11733 273.996 9.224C274.124 9.33067 274.188 9.464 274.188 9.624C274.188 9.72 274.166 9.80533 274.124 9.88L271.004 16.6C270.94 16.7387 270.844 16.8507 270.716 16.936C270.588 17.0107 270.449 17.048 270.299 17.048C270.161 17.048 270.028 17.0107 269.9 16.936C269.772 16.8507 269.67 16.7387 269.596 16.6L266.492 9.88C266.449 9.80533 266.428 9.72533 266.428 9.64C266.428 9.48 266.497 9.34133 266.636 9.224C266.785 9.10667 266.945 9.048 267.116 9.048C267.222 9.048 267.324 9.08 267.42 9.144C267.526 9.208 267.606 9.29867 267.66 9.416L270.332 15.416L273.004 9.448ZM281.545 15.192C281.662 15.192 281.763 15.24 281.849 15.336C281.934 15.432 281.977 15.5547 281.977 15.704C281.977 15.9707 281.79 16.216 281.417 16.44C281.033 16.664 280.627 16.8347 280.201 16.952C279.774 17.0587 279.358 17.112 278.953 17.112C277.747 17.112 276.793 16.7547 276.089 16.04C275.395 15.3253 275.049 14.3387 275.049 13.08C275.049 12.28 275.203 11.576 275.513 10.968C275.822 10.3493 276.254 9.86933 276.809 9.528C277.374 9.18667 278.014 9.016 278.729 9.016C279.742 9.016 280.547 9.34667 281.145 10.008C281.742 10.6693 282.041 11.5653 282.041 12.696C282.041 12.9093 281.998 13.064 281.913 13.16C281.827 13.256 281.689 13.304 281.497 13.304H276.345C276.441 15.1387 277.31 16.056 278.953 16.056C279.369 16.056 279.726 16.0027 280.025 15.896C280.323 15.7787 280.643 15.624 280.985 15.432C281.262 15.272 281.449 15.192 281.545 15.192ZM278.745 10.024C278.062 10.024 277.513 10.2373 277.097 10.664C276.691 11.0907 276.451 11.6933 276.377 12.472H280.905C280.883 11.6827 280.686 11.08 280.313 10.664C279.939 10.2373 279.417 10.024 278.745 10.024ZM287.886 9.016C288.803 9.016 289.497 9.27733 289.966 9.8C290.435 10.312 290.67 11.08 290.67 12.104V16.44C290.67 16.6427 290.611 16.8027 290.494 16.92C290.377 17.0267 290.222 17.08 290.03 17.08C289.827 17.08 289.667 17.0267 289.55 16.92C289.433 16.8027 289.374 16.6427 289.374 16.44V12.136C289.374 11.4427 289.23 10.9307 288.942 10.6C288.665 10.2693 288.217 10.104 287.598 10.104C286.883 10.104 286.313 10.3227 285.886 10.76C285.459 11.1973 285.246 11.7893 285.246 12.536V16.44C285.246 16.6427 285.187 16.8027 285.07 16.92C284.963 17.0267 284.809 17.08 284.606 17.08C284.403 17.08 284.243 17.0267 284.126 16.92C284.009 16.8027 283.95 16.6427 283.95 16.44V6.264C283.95 6.08267 284.009 5.93333 284.126 5.816C284.254 5.69867 284.414 5.64 284.606 5.64C284.809 5.64 284.963 5.69867 285.07 5.816C285.187 5.92267 285.246 6.072 285.246 6.264V10.456C285.502 9.98667 285.859 9.62933 286.318 9.384C286.777 9.13867 287.299 9.016 287.886 9.016ZM293.7 17.08C293.508 17.08 293.348 17.0267 293.22 16.92C293.102 16.8027 293.044 16.6427 293.044 16.44V9.688C293.044 9.48533 293.102 9.33067 293.22 9.224C293.348 9.10667 293.508 9.048 293.7 9.048C293.892 9.048 294.046 9.10667 294.164 9.224C294.281 9.33067 294.34 9.48533 294.34 9.688V16.44C294.34 16.6533 294.281 16.8133 294.164 16.92C294.046 17.0267 293.892 17.08 293.7 17.08ZM293.7 7.368C293.444 7.368 293.236 7.29333 293.076 7.144C292.916 6.99467 292.836 6.79733 292.836 6.552C292.836 6.31733 292.916 6.12533 293.076 5.976C293.236 5.82667 293.444 5.752 293.7 5.752C293.956 5.752 294.164 5.82667 294.324 5.976C294.484 6.12533 294.564 6.31733 294.564 6.552C294.564 6.79733 294.484 6.99467 294.324 7.144C294.164 7.29333 293.956 7.368 293.7 7.368ZM299.979 17.112C299.253 17.112 298.608 16.9467 298.043 16.616C297.488 16.2853 297.056 15.816 296.747 15.208C296.448 14.6 296.299 13.896 296.299 13.096C296.299 12.296 296.453 11.5867 296.763 10.968C297.083 10.3493 297.525 9.86933 298.091 9.528C298.656 9.18667 299.307 9.016 300.043 9.016C300.448 9.016 300.848 9.07467 301.243 9.192C301.648 9.29867 302 9.45867 302.299 9.672C302.491 9.8 302.624 9.928 302.699 10.056C302.784 10.1733 302.827 10.3067 302.827 10.456C302.827 10.6053 302.784 10.728 302.699 10.824C302.624 10.92 302.523 10.968 302.395 10.968C302.32 10.968 302.24 10.9467 302.155 10.904C302.069 10.8613 301.995 10.8187 301.931 10.776C301.877 10.7333 301.84 10.7067 301.819 10.696C301.541 10.5147 301.275 10.3707 301.019 10.264C300.773 10.1573 300.469 10.104 300.107 10.104C299.328 10.104 298.72 10.3707 298.283 10.904C297.856 11.4267 297.643 12.1573 297.643 13.096C297.643 14.0347 297.856 14.76 298.283 15.272C298.72 15.784 299.328 16.04 300.107 16.04C300.469 16.04 300.779 15.9867 301.035 15.88C301.301 15.7733 301.568 15.6293 301.835 15.448C301.952 15.3733 302.064 15.3093 302.171 15.256C302.277 15.2027 302.368 15.176 302.443 15.176C302.56 15.176 302.656 15.224 302.731 15.32C302.816 15.416 302.859 15.5387 302.859 15.688C302.859 15.8267 302.821 15.9547 302.747 16.072C302.672 16.1787 302.533 16.3013 302.331 16.44C302.032 16.6427 301.669 16.808 301.243 16.936C300.827 17.0533 300.405 17.112 299.979 17.112ZM310.339 9.048C310.541 9.048 310.696 9.10667 310.803 9.224C310.92 9.34133 310.979 9.496 310.979 9.688V16.456C310.979 16.6373 310.92 16.7867 310.803 16.904C310.696 17.0213 310.541 17.08 310.339 17.08C310.147 17.08 309.992 17.0267 309.875 16.92C309.768 16.8027 309.715 16.6533 309.715 16.472V15.672C309.469 16.1413 309.123 16.4987 308.675 16.744C308.237 16.9893 307.741 17.112 307.187 17.112C306.259 17.112 305.56 16.856 305.091 16.344C304.621 15.8213 304.387 15.0533 304.387 14.04V9.688C304.387 9.496 304.445 9.34133 304.563 9.224C304.68 9.10667 304.84 9.048 305.043 9.048C305.245 9.048 305.4 9.10667 305.507 9.224C305.624 9.34133 305.683 9.496 305.683 9.688V14.008C305.683 14.7013 305.821 15.2133 306.099 15.544C306.376 15.864 306.813 16.024 307.411 16.024C308.093 16.024 308.643 15.8053 309.059 15.368C309.475 14.92 309.683 14.3333 309.683 13.608V9.688C309.683 9.496 309.741 9.34133 309.859 9.224C309.976 9.10667 310.136 9.048 310.339 9.048ZM314.044 17.08C313.852 17.08 313.692 17.0267 313.564 16.92C313.446 16.8027 313.388 16.6427 313.388 16.44V6.28C313.388 6.07733 313.446 5.92267 313.564 5.816C313.692 5.69867 313.852 5.64 314.044 5.64C314.225 5.64 314.374 5.69867 314.492 5.816C314.62 5.92267 314.684 6.07733 314.684 6.28V16.44C314.684 16.6427 314.62 16.8027 314.492 16.92C314.374 17.0267 314.225 17.08 314.044 17.08ZM320.29 9.016C322.242 9.016 323.218 10.04 323.218 12.088V16.44C323.218 16.632 323.16 16.7867 323.042 16.904C322.936 17.0213 322.786 17.08 322.594 17.08C322.402 17.08 322.248 17.0213 322.13 16.904C322.013 16.7867 321.954 16.632 321.954 16.44V15.672C321.752 16.1307 321.442 16.488 321.026 16.744C320.61 16.9893 320.13 17.112 319.586 17.112C319.085 17.112 318.621 17.0107 318.194 16.808C317.778 16.6053 317.448 16.3227 317.202 15.96C316.957 15.5973 316.834 15.1973 316.834 14.76C316.834 14.1733 316.984 13.72 317.282 13.4C317.581 13.0693 318.072 12.8347 318.754 12.696C319.437 12.5467 320.386 12.472 321.602 12.472H321.954V11.944C321.954 11.304 321.821 10.8347 321.554 10.536C321.298 10.2373 320.877 10.088 320.29 10.088C319.565 10.088 318.829 10.2853 318.082 10.68C317.794 10.8613 317.592 10.952 317.474 10.952C317.346 10.952 317.24 10.904 317.154 10.808C317.069 10.712 317.026 10.5893 317.026 10.44C317.026 10.2907 317.069 10.1627 317.154 10.056C317.25 9.93867 317.4 9.82133 317.602 9.704C317.976 9.49067 318.397 9.32533 318.866 9.208C319.346 9.08 319.821 9.016 320.29 9.016ZM319.762 16.088C320.402 16.088 320.925 15.8747 321.33 15.448C321.746 15.0107 321.954 14.4507 321.954 13.768V13.304H321.666C320.728 13.304 320.013 13.3467 319.522 13.432C319.032 13.5067 318.68 13.64 318.466 13.832C318.264 14.0133 318.162 14.2853 318.162 14.648C318.162 15.064 318.312 15.4107 318.61 15.688C318.92 15.9547 319.304 16.088 319.762 16.088ZM123.232 39.192C123.349 39.192 123.451 39.24 123.536 39.336C123.621 39.432 123.664 39.5547 123.664 39.704C123.664 39.9707 123.477 40.216 123.104 40.44C122.72 40.664 122.315 40.8347 121.888 40.952C121.461 41.0587 121.045 41.112 120.64 41.112C119.435 41.112 118.48 40.7547 117.776 40.04C117.083 39.3253 116.736 38.3387 116.736 37.08C116.736 36.28 116.891 35.576 117.2 34.968C117.509 34.3493 117.941 33.8693 118.496 33.528C119.061 33.1867 119.701 33.016 120.416 33.016C121.429 33.016 122.235 33.3467 122.832 34.008C123.429 34.6693 123.728 35.5653 123.728 36.696C123.728 36.9093 123.685 37.064 123.6 37.16C123.515 37.256 123.376 37.304 123.184 37.304H118.032C118.128 39.1387 118.997 40.056 120.64 40.056C121.056 40.056 121.413 40.0027 121.712 39.896C122.011 39.7787 122.331 39.624 122.672 39.432C122.949 39.272 123.136 39.192 123.232 39.192ZM120.432 34.024C119.749 34.024 119.2 34.2373 118.784 34.664C118.379 35.0907 118.139 35.6933 118.064 36.472H122.592C122.571 35.6827 122.373 35.08 122 34.664C121.627 34.2373 121.104 34.024 120.432 34.024ZM129.494 33.048C129.942 33.016 130.166 33.1973 130.166 33.592C130.166 33.7627 130.118 33.9013 130.022 34.008C129.926 34.104 129.76 34.1627 129.526 34.184L129.046 34.232C128.331 34.296 127.798 34.552 127.446 35C127.104 35.4373 126.934 35.9547 126.934 36.552V40.44C126.934 40.6533 126.875 40.8133 126.758 40.92C126.64 41.0267 126.486 41.08 126.294 41.08C126.102 41.08 125.942 41.0267 125.814 40.92C125.696 40.8027 125.638 40.6427 125.638 40.44V33.688C125.638 33.4853 125.702 33.3307 125.83 33.224C125.958 33.1067 126.112 33.048 126.294 33.048C126.464 33.048 126.608 33.1067 126.726 33.224C126.843 33.3307 126.902 33.48 126.902 33.672V34.568C127.126 34.0987 127.44 33.7413 127.846 33.496C128.262 33.2507 128.736 33.1067 129.27 33.064L129.494 33.048ZM134.4 33.016C136.352 33.016 137.328 34.04 137.328 36.088V40.44C137.328 40.632 137.269 40.7867 137.152 40.904C137.045 41.0213 136.896 41.08 136.704 41.08C136.512 41.08 136.357 41.0213 136.24 40.904C136.122 40.7867 136.064 40.632 136.064 40.44V39.672C135.861 40.1307 135.552 40.488 135.136 40.744C134.72 40.9893 134.24 41.112 133.696 41.112C133.194 41.112 132.73 41.0107 132.304 40.808C131.888 40.6053 131.557 40.3227 131.312 39.96C131.066 39.5973 130.944 39.1973 130.944 38.76C130.944 38.1733 131.093 37.72 131.392 37.4C131.69 37.0693 132.181 36.8347 132.864 36.696C133.546 36.5467 134.496 36.472 135.712 36.472H136.064V35.944C136.064 35.304 135.93 34.8347 135.664 34.536C135.408 34.2373 134.986 34.088 134.4 34.088C133.674 34.088 132.938 34.2853 132.192 34.68C131.904 34.8613 131.701 34.952 131.584 34.952C131.456 34.952 131.349 34.904 131.264 34.808C131.178 34.712 131.136 34.5893 131.136 34.44C131.136 34.2907 131.178 34.1627 131.264 34.056C131.36 33.9387 131.509 33.8213 131.712 33.704C132.085 33.4907 132.506 33.3253 132.976 33.208C133.456 33.08 133.93 33.016 134.4 33.016ZM133.872 40.088C134.512 40.088 135.034 39.8747 135.44 39.448C135.856 39.0107 136.064 38.4507 136.064 37.768V37.304H135.776C134.837 37.304 134.122 37.3467 133.632 37.432C133.141 37.5067 132.789 37.64 132.576 37.832C132.373 38.0133 132.272 38.2853 132.272 38.648C132.272 39.064 132.421 39.4107 132.72 39.688C133.029 39.9547 133.413 40.088 133.872 40.088ZM143.3 40.056C143.673 40.088 143.86 40.2587 143.86 40.568C143.86 40.7493 143.791 40.888 143.652 40.984C143.524 41.0693 143.327 41.1013 143.06 41.08L142.628 41.048C141.775 40.984 141.145 40.728 140.74 40.28C140.335 39.832 140.132 39.1547 140.132 38.248V34.232H139.06C138.879 34.232 138.735 34.1893 138.628 34.104C138.532 34.008 138.484 33.8853 138.484 33.736C138.484 33.576 138.532 33.448 138.628 33.352C138.735 33.256 138.879 33.208 139.06 33.208H140.132V31.4C140.132 31.1973 140.191 31.0427 140.308 30.936C140.425 30.8187 140.585 30.76 140.788 30.76C140.98 30.76 141.135 30.8187 141.252 30.936C141.369 31.0427 141.428 31.1973 141.428 31.4V33.208H143.204C143.375 33.208 143.508 33.256 143.604 33.352C143.711 33.448 143.764 33.576 143.764 33.736C143.764 33.8853 143.711 34.008 143.604 34.104C143.508 34.1893 143.375 34.232 143.204 34.232H141.428V38.312C141.428 38.8987 141.545 39.3253 141.78 39.592C142.025 39.848 142.388 39.992 142.868 40.024L143.3 40.056ZM145.996 41.08C145.74 41.08 145.527 41 145.356 40.84C145.186 40.6693 145.1 40.4507 145.1 40.184C145.1 39.9173 145.186 39.6987 145.356 39.528C145.527 39.3573 145.74 39.272 145.996 39.272C146.242 39.272 146.444 39.3573 146.604 39.528C146.775 39.6987 146.86 39.9173 146.86 40.184C146.86 40.4507 146.775 40.6693 146.604 40.84C146.444 41 146.242 41.08 145.996 41.08Z" fill="#191F33"/>
<path d="M117.806 75C117.629 75 117.484 74.9487 117.372 74.846C117.269 74.7433 117.218 74.608 117.218 74.44V65.69C117.218 65.522 117.269 65.3867 117.372 65.284C117.484 65.1813 117.629 65.13 117.806 65.13H120.536C122.113 65.13 123.331 65.5593 124.19 66.418C125.058 67.2673 125.492 68.4807 125.492 70.058C125.492 71.6353 125.058 72.8533 124.19 73.712C123.322 74.5707 122.104 75 120.536 75H117.806ZM120.466 74.02C123.023 74.02 124.302 72.6993 124.302 70.058C124.302 67.426 123.023 66.11 120.466 66.11H118.366V74.02H120.466ZM132.678 73.418C132.78 73.418 132.869 73.46 132.944 73.544C133.018 73.628 133.056 73.7353 133.056 73.866C133.056 74.0993 132.892 74.314 132.566 74.51C132.23 74.706 131.875 74.8553 131.502 74.958C131.128 75.0513 130.764 75.098 130.41 75.098C129.355 75.098 128.52 74.7853 127.904 74.16C127.297 73.5347 126.994 72.6713 126.994 71.57C126.994 70.87 127.129 70.254 127.4 69.722C127.67 69.1807 128.048 68.7607 128.534 68.462C129.028 68.1633 129.588 68.014 130.214 68.014C131.1 68.014 131.805 68.3033 132.328 68.882C132.85 69.4607 133.112 70.2447 133.112 71.234C133.112 71.4207 133.074 71.556 133 71.64C132.925 71.724 132.804 71.766 132.636 71.766H128.128C128.212 73.3713 128.972 74.174 130.41 74.174C130.774 74.174 131.086 74.1273 131.348 74.034C131.609 73.9313 131.889 73.796 132.188 73.628C132.43 73.488 132.594 73.418 132.678 73.418ZM130.228 68.896C129.63 68.896 129.15 69.0827 128.786 69.456C128.431 69.8293 128.221 70.3567 128.156 71.038H132.118C132.099 70.3473 131.926 69.82 131.6 69.456C131.273 69.0827 130.816 68.896 130.228 68.896ZM137.596 75.098C136.962 75.098 136.397 74.9533 135.902 74.664C135.417 74.3747 135.039 73.964 134.768 73.432C134.507 72.9 134.376 72.284 134.376 71.584C134.376 70.884 134.512 70.2633 134.782 69.722C135.062 69.1807 135.45 68.7607 135.944 68.462C136.439 68.1633 137.008 68.014 137.652 68.014C138.007 68.014 138.357 68.0653 138.702 68.168C139.057 68.2613 139.365 68.4013 139.626 68.588C139.794 68.7 139.911 68.812 139.976 68.924C140.051 69.0267 140.088 69.1433 140.088 69.274C140.088 69.4047 140.051 69.512 139.976 69.596C139.911 69.68 139.822 69.722 139.71 69.722C139.645 69.722 139.575 69.7033 139.5 69.666C139.426 69.6287 139.36 69.5913 139.304 69.554C139.258 69.5167 139.225 69.4933 139.206 69.484C138.964 69.3253 138.73 69.1993 138.506 69.106C138.292 69.0127 138.026 68.966 137.708 68.966C137.027 68.966 136.495 69.1993 136.112 69.666C135.739 70.1233 135.552 70.7627 135.552 71.584C135.552 72.4053 135.739 73.04 136.112 73.488C136.495 73.936 137.027 74.16 137.708 74.16C138.026 74.16 138.296 74.1133 138.52 74.02C138.754 73.9267 138.987 73.8007 139.22 73.642C139.323 73.5767 139.421 73.5207 139.514 73.474C139.608 73.4273 139.687 73.404 139.752 73.404C139.855 73.404 139.939 73.446 140.004 73.53C140.079 73.614 140.116 73.7213 140.116 73.852C140.116 73.9733 140.084 74.0853 140.018 74.188C139.953 74.2813 139.832 74.3887 139.654 74.51C139.393 74.6873 139.076 74.832 138.702 74.944C138.338 75.0467 137.97 75.098 137.596 75.098ZM150.929 74.034C151.097 74.034 151.228 74.076 151.321 74.16C151.414 74.244 151.461 74.3607 151.461 74.51C151.461 74.6687 151.414 74.79 151.321 74.874C151.237 74.958 151.106 75 150.929 75H146.295C146.118 75 145.982 74.958 145.889 74.874C145.805 74.79 145.763 74.6687 145.763 74.51C145.763 74.3607 145.81 74.244 145.903 74.16C145.996 74.076 146.127 74.034 146.295 74.034H148.031V66.53L146.505 67.524C146.43 67.5707 146.356 67.594 146.281 67.594C146.15 67.594 146.034 67.5333 145.931 67.412C145.838 67.2907 145.791 67.16 145.791 67.02C145.791 66.824 145.866 66.684 146.015 66.6L148.143 65.214C148.302 65.1113 148.465 65.06 148.633 65.06C148.792 65.06 148.922 65.1113 149.025 65.214C149.128 65.3167 149.179 65.4613 149.179 65.648V74.034H150.929ZM157.014 68.812C157.639 68.812 158.185 68.9427 158.652 69.204C159.128 69.4653 159.492 69.834 159.744 70.31C160.005 70.7767 160.136 71.318 160.136 71.934C160.136 72.55 159.996 73.1007 159.716 73.586C159.436 74.062 159.044 74.4353 158.54 74.706C158.045 74.9673 157.471 75.098 156.818 75.098C156.239 75.098 155.674 74.9953 155.124 74.79C154.573 74.5847 154.106 74.3047 153.724 73.95C153.574 73.81 153.5 73.6513 153.5 73.474C153.5 73.334 153.537 73.2173 153.612 73.124C153.686 73.0307 153.775 72.984 153.878 72.984C154.008 72.984 154.139 73.0353 154.27 73.138C154.68 73.474 155.091 73.726 155.502 73.894C155.912 74.0527 156.342 74.132 156.79 74.132C157.48 74.132 158.022 73.936 158.414 73.544C158.806 73.152 159.002 72.62 159.002 71.948C159.002 71.2947 158.806 70.7673 158.414 70.366C158.022 69.9647 157.494 69.764 156.832 69.764C155.982 69.764 155.292 70.0907 154.76 70.744C154.629 70.884 154.47 70.954 154.284 70.954C154.153 70.954 154.041 70.9167 153.948 70.842C153.864 70.758 153.822 70.646 153.822 70.506V65.676C153.822 65.5173 153.868 65.3867 153.962 65.284C154.064 65.1813 154.204 65.13 154.382 65.13H159.31C159.478 65.13 159.608 65.172 159.702 65.256C159.804 65.34 159.856 65.4567 159.856 65.606C159.856 65.7553 159.804 65.872 159.702 65.956C159.608 66.04 159.478 66.082 159.31 66.082H154.956V69.596C155.217 69.344 155.52 69.1527 155.866 69.022C156.22 68.882 156.603 68.812 157.014 68.812ZM162.412 73.488C162.645 73.488 162.832 73.5813 162.972 73.768C163.121 73.9453 163.196 74.216 163.196 74.58C163.196 75.3173 162.958 75.938 162.482 76.442C162.389 76.5447 162.281 76.596 162.16 76.596C162.067 76.596 161.983 76.5587 161.908 76.484C161.833 76.4187 161.796 76.3393 161.796 76.246C161.796 76.1433 161.833 76.0547 161.908 75.98C162.151 75.728 162.305 75.4153 162.37 75.042C162.165 75.0233 161.992 74.9487 161.852 74.818C161.721 74.678 161.656 74.5007 161.656 74.286C161.656 74.0527 161.726 73.8613 161.866 73.712C162.015 73.5627 162.197 73.488 162.412 73.488ZM174.751 74.034C174.919 74.034 175.049 74.076 175.143 74.16C175.236 74.244 175.283 74.3607 175.283 74.51C175.283 74.8367 175.105 75 174.751 75H169.263C169.104 75 168.973 74.9533 168.871 74.86C168.768 74.7573 168.717 74.636 168.717 74.496C168.717 74.3187 168.782 74.1647 168.913 74.034L172.287 70.324C172.753 69.8013 173.089 69.3347 173.295 68.924C173.509 68.504 173.617 68.084 173.617 67.664C173.617 67.1227 173.458 66.7073 173.141 66.418C172.833 66.1287 172.394 65.984 171.825 65.984C171.377 65.984 170.947 66.068 170.537 66.236C170.126 66.3947 169.715 66.642 169.305 66.978C169.165 67.09 169.034 67.146 168.913 67.146C168.81 67.146 168.721 67.0993 168.647 67.006C168.572 66.9033 168.535 66.782 168.535 66.642C168.535 66.446 168.609 66.2873 168.759 66.166C169.141 65.8113 169.608 65.5313 170.159 65.326C170.709 65.1207 171.274 65.018 171.853 65.018C172.739 65.018 173.444 65.2513 173.967 65.718C174.499 66.1847 174.765 66.8147 174.765 67.608C174.765 68.1773 174.634 68.7233 174.373 69.246C174.121 69.7687 173.701 70.352 173.113 70.996L170.313 74.034H174.751ZM180.233 75.112C179.104 75.112 178.245 74.6827 177.657 73.824C177.069 72.9653 176.775 71.7147 176.775 70.072C176.775 68.42 177.069 67.1647 177.657 66.306C178.245 65.4473 179.104 65.018 180.233 65.018C181.363 65.018 182.221 65.4473 182.809 66.306C183.397 67.1553 183.691 68.406 183.691 70.058C183.691 71.71 183.397 72.9653 182.809 73.824C182.221 74.6827 181.363 75.112 180.233 75.112ZM180.233 74.146C181.017 74.146 181.596 73.8147 181.969 73.152C182.343 72.4893 182.529 71.458 182.529 70.058C182.529 68.6487 182.343 67.6173 181.969 66.964C181.605 66.3107 181.027 65.984 180.233 65.984C179.449 65.984 178.871 66.3153 178.497 66.978C178.124 67.6313 177.937 68.658 177.937 70.058C177.937 71.458 178.124 72.4893 178.497 73.152C178.871 73.8147 179.449 74.146 180.233 74.146ZM191.54 74.034C191.708 74.034 191.838 74.076 191.932 74.16C192.025 74.244 192.072 74.3607 192.072 74.51C192.072 74.8367 191.894 75 191.54 75H186.052C185.893 75 185.762 74.9533 185.66 74.86C185.557 74.7573 185.506 74.636 185.506 74.496C185.506 74.3187 185.571 74.1647 185.702 74.034L189.076 70.324C189.542 69.8013 189.878 69.3347 190.084 68.924C190.298 68.504 190.406 68.084 190.406 67.664C190.406 67.1227 190.247 66.7073 189.93 66.418C189.622 66.1287 189.183 65.984 188.614 65.984C188.166 65.984 187.736 66.068 187.326 66.236C186.915 66.3947 186.504 66.642 186.094 66.978C185.954 67.09 185.823 67.146 185.702 67.146C185.599 67.146 185.51 67.0993 185.436 67.006C185.361 66.9033 185.324 66.782 185.324 66.642C185.324 66.446 185.398 66.2873 185.548 66.166C185.93 65.8113 186.397 65.5313 186.948 65.326C187.498 65.1207 188.063 65.018 188.642 65.018C189.528 65.018 190.233 65.2513 190.756 65.718C191.288 66.1847 191.554 66.8147 191.554 67.608C191.554 68.1773 191.423 68.7233 191.162 69.246C190.91 69.7687 190.49 70.352 189.902 70.996L187.102 74.034H191.54ZM199.71 74.034C199.878 74.034 200.009 74.076 200.102 74.16C200.196 74.244 200.242 74.3607 200.242 74.51C200.242 74.6687 200.196 74.79 200.102 74.874C200.018 74.958 199.888 75 199.71 75H195.076C194.899 75 194.764 74.958 194.67 74.874C194.586 74.79 194.544 74.6687 194.544 74.51C194.544 74.3607 194.591 74.244 194.684 74.16C194.778 74.076 194.908 74.034 195.076 74.034H196.812V66.53L195.286 67.524C195.212 67.5707 195.137 67.594 195.062 67.594C194.932 67.594 194.815 67.5333 194.712 67.412C194.619 67.2907 194.572 67.16 194.572 67.02C194.572 66.824 194.647 66.684 194.796 66.6L196.924 65.214C197.083 65.1113 197.246 65.06 197.414 65.06C197.573 65.06 197.704 65.1113 197.806 65.214C197.909 65.3167 197.96 65.4613 197.96 65.648V74.034H199.71Z" fill="#767E94"/>
<path d="M213.668 73.768C213.22 73.768 212.8 73.6607 212.408 73.446C212.016 73.222 211.703 72.9233 211.47 72.55C211.246 72.1673 211.134 71.7473 211.134 71.29C211.134 70.8607 211.241 70.4547 211.456 70.072C211.68 69.6893 211.983 69.3813 212.366 69.148C212.758 68.9147 213.192 68.798 213.668 68.798C214.116 68.798 214.531 68.91 214.914 69.134C215.306 69.3487 215.619 69.6473 215.852 70.03C216.085 70.4033 216.202 70.8233 216.202 71.29C216.202 71.738 216.085 72.1533 215.852 72.536C215.628 72.9093 215.32 73.208 214.928 73.432C214.545 73.656 214.125 73.768 213.668 73.768Z" fill="#767E94"/>
<path d="M233.462 71.906C233.63 71.906 233.761 71.9527 233.854 72.046C233.947 72.13 233.994 72.242 233.994 72.382C233.994 72.6993 233.817 72.858 233.462 72.858H232.412V74.482C232.412 74.6687 232.356 74.8133 232.244 74.916C232.141 75.0187 232.006 75.07 231.838 75.07C231.67 75.07 231.535 75.0187 231.432 74.916C231.329 74.8133 231.278 74.6687 231.278 74.482V72.858H227.134C226.966 72.858 226.835 72.8113 226.742 72.718C226.649 72.6247 226.602 72.508 226.602 72.368C226.602 72.2373 226.653 72.0927 226.756 71.934L231.334 65.312C231.465 65.144 231.633 65.06 231.838 65.06C231.997 65.06 232.132 65.1113 232.244 65.214C232.356 65.3167 232.412 65.4613 232.412 65.648V71.906H233.462ZM227.904 71.906H231.278V67.048L227.904 71.906ZM241.437 65.13C241.605 65.13 241.731 65.1767 241.815 65.27C241.908 65.354 241.955 65.466 241.955 65.606C241.955 65.7367 241.913 65.8813 241.829 66.04L237.181 74.79C237.069 74.9953 236.905 75.098 236.691 75.098C236.541 75.098 236.406 75.0467 236.285 74.944C236.173 74.8413 236.117 74.7153 236.117 74.566C236.117 74.4633 236.149 74.3607 236.215 74.258L240.583 66.096H235.753C235.585 66.096 235.454 66.054 235.361 65.97C235.277 65.886 235.235 65.7693 235.235 65.62C235.235 65.4613 235.277 65.34 235.361 65.256C235.454 65.172 235.585 65.13 235.753 65.13H241.437ZM251.802 75.112C250.869 75.112 250.062 74.9113 249.38 74.51C248.699 74.0993 248.172 73.516 247.798 72.76C247.434 71.9947 247.252 71.094 247.252 70.058C247.252 69.0313 247.434 68.14 247.798 67.384C248.172 66.6187 248.699 66.0353 249.38 65.634C250.062 65.2233 250.869 65.018 251.802 65.018C252.428 65.018 253.016 65.1207 253.566 65.326C254.126 65.522 254.612 65.8067 255.022 66.18C255.172 66.32 255.246 66.4833 255.246 66.67C255.246 66.8007 255.209 66.9173 255.134 67.02C255.06 67.1133 254.971 67.16 254.868 67.16C254.756 67.16 254.621 67.1087 254.462 67.006C253.986 66.6327 253.552 66.3713 253.16 66.222C252.778 66.0727 252.334 65.998 251.83 65.998C250.748 65.998 249.912 66.3527 249.324 67.062C248.746 67.762 248.456 68.7607 248.456 70.058C248.456 71.3647 248.746 72.3727 249.324 73.082C249.912 73.782 250.748 74.132 251.83 74.132C252.325 74.132 252.768 74.0573 253.16 73.908C253.552 73.7587 253.986 73.4973 254.462 73.124C254.621 73.0213 254.756 72.97 254.868 72.97C254.971 72.97 255.06 73.0167 255.134 73.11C255.209 73.2033 255.246 73.32 255.246 73.46C255.246 73.6467 255.172 73.81 255.022 73.95C254.612 74.3233 254.126 74.6127 253.566 74.818C253.016 75.014 252.428 75.112 251.802 75.112ZM259.614 75.098C258.97 75.098 258.401 74.9533 257.906 74.664C257.421 74.3747 257.043 73.964 256.772 73.432C256.511 72.8907 256.38 72.2653 256.38 71.556C256.38 70.8467 256.511 70.226 256.772 69.694C257.043 69.1527 257.421 68.7373 257.906 68.448C258.401 68.1587 258.97 68.014 259.614 68.014C260.258 68.014 260.828 68.1587 261.322 68.448C261.817 68.7373 262.195 69.1527 262.456 69.694C262.727 70.226 262.862 70.8467 262.862 71.556C262.862 72.2653 262.727 72.8907 262.456 73.432C262.195 73.964 261.817 74.3747 261.322 74.664C260.828 74.9533 260.258 75.098 259.614 75.098ZM259.614 74.16C260.286 74.16 260.8 73.9407 261.154 73.502C261.518 73.054 261.7 72.4053 261.7 71.556C261.7 70.7253 261.518 70.086 261.154 69.638C260.79 69.1807 260.277 68.952 259.614 68.952C258.952 68.952 258.438 69.1807 258.074 69.638C257.71 70.086 257.528 70.7253 257.528 71.556C257.528 72.396 257.706 73.04 258.06 73.488C258.424 73.936 258.942 74.16 259.614 74.16ZM272.14 68.014C273.652 68.014 274.408 68.9147 274.408 70.716V74.51C274.408 74.6873 274.357 74.8273 274.254 74.93C274.151 75.0233 274.016 75.07 273.848 75.07C273.68 75.07 273.54 75.0233 273.428 74.93C273.325 74.8273 273.274 74.6873 273.274 74.51V70.744C273.274 70.1187 273.162 69.666 272.938 69.386C272.714 69.106 272.364 68.966 271.888 68.966C271.319 68.966 270.871 69.1573 270.544 69.54C270.217 69.9227 270.054 70.4407 270.054 71.094V74.51C270.054 74.6873 269.998 74.8273 269.886 74.93C269.783 75.0233 269.648 75.07 269.48 75.07C269.312 75.07 269.177 75.0233 269.074 74.93C268.971 74.8273 268.92 74.6873 268.92 74.51V70.744C268.92 70.1187 268.808 69.666 268.584 69.386C268.36 69.106 268.005 68.966 267.52 68.966C266.96 68.966 266.512 69.1573 266.176 69.54C265.849 69.9227 265.686 70.4407 265.686 71.094V74.51C265.686 74.6873 265.635 74.8273 265.532 74.93C265.429 75.0233 265.294 75.07 265.126 75.07C264.958 75.07 264.818 75.0233 264.706 74.93C264.603 74.8273 264.552 74.6873 264.552 74.51V68.602C264.552 68.434 264.603 68.2987 264.706 68.196C264.818 68.0933 264.958 68.042 265.126 68.042C265.285 68.042 265.415 68.0933 265.518 68.196C265.621 68.2893 265.672 68.42 265.672 68.588V69.26C265.877 68.8587 266.162 68.5507 266.526 68.336C266.89 68.1213 267.31 68.014 267.786 68.014C268.85 68.014 269.545 68.462 269.872 69.358C270.068 68.9473 270.367 68.6207 270.768 68.378C271.169 68.1353 271.627 68.014 272.14 68.014ZM284.062 68.014C285.574 68.014 286.33 68.9147 286.33 70.716V74.51C286.33 74.6873 286.278 74.8273 286.176 74.93C286.073 75.0233 285.938 75.07 285.77 75.07C285.602 75.07 285.462 75.0233 285.35 74.93C285.247 74.8273 285.196 74.6873 285.196 74.51V70.744C285.196 70.1187 285.084 69.666 284.86 69.386C284.636 69.106 284.286 68.966 283.81 68.966C283.24 68.966 282.792 69.1573 282.466 69.54C282.139 69.9227 281.976 70.4407 281.976 71.094V74.51C281.976 74.6873 281.92 74.8273 281.808 74.93C281.705 75.0233 281.57 75.07 281.402 75.07C281.234 75.07 281.098 75.0233 280.996 74.93C280.893 74.8273 280.842 74.6873 280.842 74.51V70.744C280.842 70.1187 280.73 69.666 280.506 69.386C280.282 69.106 279.927 68.966 279.442 68.966C278.882 68.966 278.434 69.1573 278.098 69.54C277.771 69.9227 277.608 70.4407 277.608 71.094V74.51C277.608 74.6873 277.556 74.8273 277.454 74.93C277.351 75.0233 277.216 75.07 277.048 75.07C276.88 75.07 276.74 75.0233 276.628 74.93C276.525 74.8273 276.474 74.6873 276.474 74.51V68.602C276.474 68.434 276.525 68.2987 276.628 68.196C276.74 68.0933 276.88 68.042 277.048 68.042C277.206 68.042 277.337 68.0933 277.44 68.196C277.542 68.2893 277.594 68.42 277.594 68.588V69.26C277.799 68.8587 278.084 68.5507 278.448 68.336C278.812 68.1213 279.232 68.014 279.708 68.014C280.772 68.014 281.467 68.462 281.794 69.358C281.99 68.9473 282.288 68.6207 282.69 68.378C283.091 68.1353 283.548 68.014 284.062 68.014ZM293.674 73.418C293.776 73.418 293.865 73.46 293.94 73.544C294.014 73.628 294.052 73.7353 294.052 73.866C294.052 74.0993 293.888 74.314 293.562 74.51C293.226 74.706 292.871 74.8553 292.498 74.958C292.124 75.0513 291.76 75.098 291.406 75.098C290.351 75.098 289.516 74.7853 288.9 74.16C288.293 73.5347 287.99 72.6713 287.99 71.57C287.99 70.87 288.125 70.254 288.396 69.722C288.666 69.1807 289.044 68.7607 289.53 68.462C290.024 68.1633 290.584 68.014 291.21 68.014C292.096 68.014 292.801 68.3033 293.324 68.882C293.846 69.4607 294.108 70.2447 294.108 71.234C294.108 71.4207 294.07 71.556 293.996 71.64C293.921 71.724 293.8 71.766 293.632 71.766H289.124C289.208 73.3713 289.968 74.174 291.406 74.174C291.77 74.174 292.082 74.1273 292.344 74.034C292.605 73.9313 292.885 73.796 293.184 73.628C293.426 73.488 293.59 73.418 293.674 73.418ZM291.224 68.896C290.626 68.896 290.146 69.0827 289.782 69.456C289.427 69.8293 289.217 70.3567 289.152 71.038H293.114C293.095 70.3473 292.922 69.82 292.596 69.456C292.269 69.0827 291.812 68.896 291.224 68.896ZM299.209 68.014C300.842 68.014 301.659 68.9147 301.659 70.716V74.51C301.659 74.6873 301.607 74.8273 301.505 74.93C301.411 75.0233 301.276 75.07 301.099 75.07C300.921 75.07 300.781 75.0233 300.679 74.93C300.576 74.8273 300.525 74.6873 300.525 74.51V70.786C300.525 70.1513 300.399 69.6893 300.147 69.4C299.904 69.1107 299.512 68.966 298.971 68.966C298.345 68.966 297.846 69.1573 297.473 69.54C297.099 69.9227 296.913 70.4407 296.913 71.094V74.51C296.913 74.6873 296.861 74.8273 296.759 74.93C296.665 75.0233 296.53 75.07 296.353 75.07C296.175 75.07 296.035 75.0233 295.933 74.93C295.83 74.8273 295.779 74.6873 295.779 74.51V68.602C295.779 68.434 295.83 68.2987 295.933 68.196C296.035 68.0933 296.175 68.042 296.353 68.042C296.521 68.042 296.651 68.0933 296.745 68.196C296.847 68.2987 296.899 68.4293 296.899 68.588V69.302C297.123 68.882 297.435 68.5647 297.837 68.35C298.238 68.126 298.695 68.014 299.209 68.014ZM306.886 74.174C307.212 74.202 307.376 74.3513 307.376 74.622C307.376 74.7807 307.315 74.902 307.194 74.986C307.082 75.0607 306.909 75.0887 306.676 75.07L306.298 75.042C305.551 74.986 305 74.762 304.646 74.37C304.291 73.978 304.114 73.3853 304.114 72.592V69.078H303.176C303.017 69.078 302.891 69.0407 302.798 68.966C302.714 68.882 302.672 68.7747 302.672 68.644C302.672 68.504 302.714 68.392 302.798 68.308C302.891 68.224 303.017 68.182 303.176 68.182H304.114V66.6C304.114 66.4227 304.165 66.2873 304.268 66.194C304.37 66.0913 304.51 66.04 304.688 66.04C304.856 66.04 304.991 66.0913 305.094 66.194C305.196 66.2873 305.248 66.4227 305.248 66.6V68.182H306.802C306.951 68.182 307.068 68.224 307.152 68.308C307.245 68.392 307.292 68.504 307.292 68.644C307.292 68.7747 307.245 68.882 307.152 68.966C307.068 69.0407 306.951 69.078 306.802 69.078H305.248V72.648C305.248 73.1613 305.35 73.5347 305.556 73.768C305.77 73.992 306.088 74.118 306.508 74.146L306.886 74.174ZM310.789 75.098C310.36 75.098 309.949 75.0467 309.557 74.944C309.175 74.8413 308.834 74.6967 308.535 74.51C308.367 74.398 308.246 74.2953 308.171 74.202C308.106 74.0993 308.073 73.978 308.073 73.838C308.073 73.7167 308.106 73.6187 308.171 73.544C308.246 73.46 308.339 73.418 308.451 73.418C308.563 73.418 308.727 73.488 308.941 73.628C309.221 73.796 309.497 73.9313 309.767 74.034C310.047 74.1273 310.393 74.174 310.803 74.174C311.307 74.174 311.699 74.0853 311.979 73.908C312.259 73.7307 312.399 73.474 312.399 73.138C312.399 72.9327 312.348 72.7693 312.245 72.648C312.143 72.5173 311.965 72.4053 311.713 72.312C311.461 72.2093 311.093 72.1067 310.607 72.004C309.786 71.8267 309.198 71.5887 308.843 71.29C308.489 70.9913 308.311 70.5853 308.311 70.072C308.311 69.6707 308.423 69.316 308.647 69.008C308.871 68.7 309.179 68.4573 309.571 68.28C309.973 68.1027 310.425 68.014 310.929 68.014C311.293 68.014 311.643 68.0653 311.979 68.168C312.325 68.2613 312.628 68.3967 312.889 68.574C313.207 68.798 313.365 69.0313 313.365 69.274C313.365 69.3953 313.328 69.498 313.253 69.582C313.179 69.666 313.09 69.708 312.987 69.708C312.875 69.708 312.707 69.6287 312.483 69.47C312.222 69.302 311.975 69.1713 311.741 69.078C311.508 68.9847 311.219 68.938 310.873 68.938C310.435 68.938 310.08 69.036 309.809 69.232C309.548 69.428 309.417 69.6893 309.417 70.016C309.417 70.2213 309.464 70.3893 309.557 70.52C309.66 70.6413 309.823 70.7533 310.047 70.856C310.281 70.9493 310.612 71.0427 311.041 71.136C311.676 71.276 312.166 71.43 312.511 71.598C312.866 71.766 313.118 71.9713 313.267 72.214C313.417 72.4567 313.491 72.7647 313.491 73.138C313.491 73.726 313.244 74.202 312.749 74.566C312.255 74.9207 311.601 75.098 310.789 75.098Z" fill="#767E94"/>
</svg>
