<svg width="360" height="80" viewBox="0 0 360 80" fill="none" xmlns="http://www.w3.org/2000/svg">
<rect width="100" height="80" rx="6" fill="#939AAD"/>
<path d="M118.048 17.08C117.845 17.08 117.685 17.0213 117.568 16.904C117.451 16.776 117.392 16.6107 117.392 16.408V6.312C117.392 6.10933 117.451 5.94933 117.568 5.832C117.685 5.704 117.845 5.64 118.048 5.64C118.251 5.64 118.411 5.704 118.528 5.832C118.645 5.94933 118.704 6.10933 118.704 6.312V16.408C118.704 16.6107 118.645 16.776 118.528 16.904C118.411 17.0213 118.251 17.08 118.048 17.08ZM125.214 9.016C127.08 9.016 128.014 10.0453 128.014 12.104V16.44C128.014 16.6427 127.955 16.8027 127.838 16.92C127.731 17.0267 127.576 17.08 127.374 17.08C127.171 17.08 127.011 17.0267 126.894 16.92C126.776 16.8027 126.718 16.6427 126.718 16.44V12.184C126.718 11.4587 126.574 10.9307 126.286 10.6C126.008 10.2693 125.56 10.104 124.942 10.104C124.227 10.104 123.656 10.3227 123.23 10.76C122.803 11.1973 122.59 11.7893 122.59 12.536V16.44C122.59 16.6427 122.531 16.8027 122.414 16.92C122.307 17.0267 122.152 17.08 121.95 17.08C121.747 17.08 121.587 17.0267 121.47 16.92C121.352 16.8027 121.294 16.6427 121.294 16.44V9.688C121.294 9.496 121.352 9.34133 121.47 9.224C121.587 9.10667 121.747 9.048 121.95 9.048C122.142 9.048 122.291 9.10667 122.398 9.224C122.515 9.34133 122.574 9.49067 122.574 9.672V10.488C122.83 10.008 123.187 9.64533 123.646 9.4C124.104 9.144 124.627 9.016 125.214 9.016ZM133.988 16.056C134.361 16.088 134.548 16.2587 134.548 16.568C134.548 16.7493 134.478 16.888 134.34 16.984C134.212 17.0693 134.014 17.1013 133.748 17.08L133.316 17.048C132.462 16.984 131.833 16.728 131.428 16.28C131.022 15.832 130.82 15.1547 130.82 14.248V10.232H129.748C129.566 10.232 129.422 10.1893 129.316 10.104C129.22 10.008 129.171 9.88533 129.171 9.736C129.171 9.576 129.22 9.448 129.316 9.352C129.422 9.256 129.566 9.208 129.748 9.208H130.82V7.4C130.82 7.19733 130.878 7.04267 130.996 6.936C131.113 6.81867 131.273 6.76 131.476 6.76C131.668 6.76 131.822 6.81867 131.94 6.936C132.057 7.04267 132.116 7.19733 132.116 7.4V9.208H133.891C134.062 9.208 134.196 9.256 134.292 9.352C134.398 9.448 134.452 9.576 134.452 9.736C134.452 9.88533 134.398 10.008 134.292 10.104C134.196 10.1893 134.062 10.232 133.891 10.232H132.116V14.312C132.116 14.8987 132.233 15.3253 132.468 15.592C132.713 15.848 133.076 15.992 133.556 16.024L133.988 16.056ZM141.857 15.192C141.974 15.192 142.076 15.24 142.161 15.336C142.246 15.432 142.289 15.5547 142.289 15.704C142.289 15.9707 142.102 16.216 141.729 16.44C141.345 16.664 140.94 16.8347 140.513 16.952C140.086 17.0587 139.67 17.112 139.265 17.112C138.06 17.112 137.105 16.7547 136.401 16.04C135.708 15.3253 135.361 14.3387 135.361 13.08C135.361 12.28 135.516 11.576 135.825 10.968C136.134 10.3493 136.566 9.86933 137.121 9.528C137.686 9.18667 138.326 9.016 139.041 9.016C140.054 9.016 140.86 9.34667 141.457 10.008C142.054 10.6693 142.353 11.5653 142.353 12.696C142.353 12.9093 142.31 13.064 142.225 13.16C142.14 13.256 142.001 13.304 141.809 13.304H136.657C136.753 15.1387 137.622 16.056 139.265 16.056C139.681 16.056 140.038 16.0027 140.337 15.896C140.636 15.7787 140.956 15.624 141.297 15.432C141.574 15.272 141.761 15.192 141.857 15.192ZM139.057 10.024C138.374 10.024 137.825 10.2373 137.409 10.664C137.004 11.0907 136.764 11.6933 136.689 12.472H141.217C141.196 11.6827 140.998 11.08 140.625 10.664C140.252 10.2373 139.729 10.024 139.057 10.024ZM150.583 9.048C150.785 9.048 150.945 9.10667 151.062 9.224C151.18 9.34133 151.239 9.496 151.239 9.688V16.472C151.239 17.6347 150.94 18.5093 150.343 19.096C149.745 19.6933 148.86 19.992 147.687 19.992C146.545 19.992 145.596 19.768 144.839 19.32C144.455 19.1067 144.263 18.8613 144.263 18.584C144.263 18.4347 144.3 18.312 144.375 18.216C144.46 18.12 144.567 18.072 144.695 18.072C144.801 18.072 144.993 18.1467 145.271 18.296C145.644 18.488 146.012 18.6427 146.375 18.76C146.737 18.8773 147.169 18.936 147.671 18.936C148.428 18.936 148.999 18.7333 149.383 18.328C149.767 17.9333 149.959 17.352 149.959 16.584V15.208C149.735 15.7093 149.388 16.0933 148.919 16.36C148.46 16.6267 147.916 16.76 147.286 16.76C146.604 16.76 145.996 16.6 145.463 16.28C144.94 15.96 144.529 15.5067 144.231 14.92C143.943 14.3333 143.799 13.656 143.799 12.888C143.799 12.12 143.943 11.4427 144.231 10.856C144.529 10.2693 144.94 9.816 145.463 9.496C145.996 9.176 146.604 9.016 147.286 9.016C147.905 9.016 148.444 9.14933 148.903 9.416C149.361 9.68267 149.708 10.0613 149.943 10.552V9.688C149.943 9.496 149.996 9.34133 150.103 9.224C150.22 9.10667 150.38 9.048 150.583 9.048ZM147.543 15.688C148.289 15.688 148.876 15.4427 149.303 14.952C149.729 14.4507 149.943 13.7627 149.943 12.888C149.943 12.024 149.729 11.3467 149.303 10.856C148.887 10.3547 148.3 10.104 147.543 10.104C146.785 10.104 146.188 10.3547 145.751 10.856C145.324 11.3467 145.111 12.024 145.111 12.888C145.111 13.7627 145.324 14.4507 145.751 14.952C146.188 15.4427 146.785 15.688 147.543 15.688ZM159.67 15.192C159.787 15.192 159.888 15.24 159.974 15.336C160.059 15.432 160.102 15.5547 160.102 15.704C160.102 15.9707 159.915 16.216 159.542 16.44C159.158 16.664 158.752 16.8347 158.326 16.952C157.899 17.0587 157.483 17.112 157.078 17.112C155.872 17.112 154.918 16.7547 154.214 16.04C153.52 15.3253 153.174 14.3387 153.174 13.08C153.174 12.28 153.328 11.576 153.638 10.968C153.947 10.3493 154.379 9.86933 154.934 9.528C155.499 9.18667 156.139 9.016 156.854 9.016C157.867 9.016 158.672 9.34667 159.27 10.008C159.867 10.6693 160.166 11.5653 160.166 12.696C160.166 12.9093 160.123 13.064 160.038 13.16C159.952 13.256 159.814 13.304 159.622 13.304H154.47C154.566 15.1387 155.435 16.056 157.078 16.056C157.494 16.056 157.851 16.0027 158.15 15.896C158.448 15.7787 158.768 15.624 159.11 15.432C159.387 15.272 159.574 15.192 159.67 15.192ZM156.87 10.024C156.187 10.024 155.638 10.2373 155.222 10.664C154.816 11.0907 154.576 11.6933 154.502 12.472H159.03C159.008 11.6827 158.811 11.08 158.438 10.664C158.064 10.2373 157.542 10.024 156.87 10.024ZM165.931 9.048C166.379 9.016 166.603 9.19733 166.603 9.592C166.603 9.76267 166.555 9.90133 166.459 10.008C166.363 10.104 166.198 10.1627 165.963 10.184L165.483 10.232C164.768 10.296 164.235 10.552 163.883 11C163.542 11.4373 163.371 11.9547 163.371 12.552V16.44C163.371 16.6533 163.312 16.8133 163.195 16.92C163.078 17.0267 162.923 17.08 162.731 17.08C162.539 17.08 162.379 17.0267 162.251 16.92C162.134 16.8027 162.075 16.6427 162.075 16.44V9.688C162.075 9.48533 162.139 9.33067 162.267 9.224C162.395 9.10667 162.55 9.048 162.731 9.048C162.902 9.048 163.046 9.10667 163.163 9.224C163.28 9.33067 163.339 9.48 163.339 9.672V10.568C163.563 10.0987 163.878 9.74133 164.283 9.496C164.699 9.25067 165.174 9.10667 165.707 9.064L165.931 9.048ZM180.513 9.016C182.241 9.016 183.105 10.0453 183.105 12.104V16.44C183.105 16.6427 183.046 16.8027 182.929 16.92C182.811 17.0267 182.657 17.08 182.465 17.08C182.273 17.08 182.113 17.0267 181.985 16.92C181.867 16.8027 181.809 16.6427 181.809 16.44V12.136C181.809 11.4213 181.681 10.904 181.425 10.584C181.169 10.264 180.769 10.104 180.225 10.104C179.574 10.104 179.062 10.3227 178.689 10.76C178.315 11.1973 178.129 11.7893 178.129 12.536V16.44C178.129 16.6427 178.065 16.8027 177.937 16.92C177.819 17.0267 177.665 17.08 177.473 17.08C177.281 17.08 177.126 17.0267 177.009 16.92C176.891 16.8027 176.833 16.6427 176.833 16.44V12.136C176.833 11.4213 176.705 10.904 176.449 10.584C176.193 10.264 175.787 10.104 175.233 10.104C174.593 10.104 174.081 10.3227 173.697 10.76C173.323 11.1973 173.137 11.7893 173.137 12.536V16.44C173.137 16.6427 173.078 16.8027 172.961 16.92C172.843 17.0267 172.689 17.08 172.497 17.08C172.305 17.08 172.145 17.0267 172.017 16.92C171.899 16.8027 171.841 16.6427 171.841 16.44V9.688C171.841 9.496 171.899 9.34133 172.017 9.224C172.145 9.10667 172.305 9.048 172.497 9.048C172.678 9.048 172.827 9.10667 172.945 9.224C173.062 9.33067 173.121 9.48 173.121 9.672V10.44C173.355 9.98133 173.681 9.62933 174.097 9.384C174.513 9.13867 174.993 9.016 175.537 9.016C176.753 9.016 177.547 9.528 177.921 10.552C178.145 10.0827 178.486 9.70933 178.945 9.432C179.403 9.15467 179.926 9.016 180.513 9.016ZM188.65 9.016C190.602 9.016 191.578 10.04 191.578 12.088V16.44C191.578 16.632 191.519 16.7867 191.402 16.904C191.295 17.0213 191.146 17.08 190.954 17.08C190.762 17.08 190.607 17.0213 190.49 16.904C190.372 16.7867 190.314 16.632 190.314 16.44V15.672C190.111 16.1307 189.802 16.488 189.386 16.744C188.97 16.9893 188.49 17.112 187.946 17.112C187.444 17.112 186.98 17.0107 186.554 16.808C186.138 16.6053 185.807 16.3227 185.562 15.96C185.316 15.5973 185.194 15.1973 185.194 14.76C185.194 14.1733 185.343 13.72 185.642 13.4C185.94 13.0693 186.431 12.8347 187.114 12.696C187.796 12.5467 188.746 12.472 189.962 12.472H190.314V11.944C190.314 11.304 190.18 10.8347 189.914 10.536C189.658 10.2373 189.236 10.088 188.65 10.088C187.924 10.088 187.188 10.2853 186.442 10.68C186.154 10.8613 185.951 10.952 185.834 10.952C185.706 10.952 185.599 10.904 185.514 10.808C185.428 10.712 185.386 10.5893 185.386 10.44C185.386 10.2907 185.428 10.1627 185.514 10.056C185.61 9.93867 185.759 9.82133 185.962 9.704C186.335 9.49067 186.756 9.32533 187.226 9.208C187.706 9.08 188.18 9.016 188.65 9.016ZM188.122 16.088C188.762 16.088 189.284 15.8747 189.69 15.448C190.106 15.0107 190.314 14.4507 190.314 13.768V13.304H190.026C189.087 13.304 188.372 13.3467 187.882 13.432C187.391 13.5067 187.039 13.64 186.826 13.832C186.623 14.0133 186.522 14.2853 186.522 14.648C186.522 15.064 186.671 15.4107 186.97 15.688C187.279 15.9547 187.663 16.088 188.122 16.088ZM194.606 17.08C194.414 17.08 194.254 17.0267 194.126 16.92C194.009 16.8027 193.95 16.6427 193.95 16.44V6.28C193.95 6.07733 194.009 5.92267 194.126 5.816C194.254 5.69867 194.414 5.64 194.606 5.64C194.787 5.64 194.937 5.69867 195.054 5.816C195.182 5.92267 195.246 6.07733 195.246 6.28V16.44C195.246 16.6427 195.182 16.8027 195.054 16.92C194.937 17.0267 194.787 17.08 194.606 17.08ZM203.701 15.192C203.818 15.192 203.919 15.24 204.005 15.336C204.09 15.432 204.133 15.5547 204.133 15.704C204.133 15.9707 203.946 16.216 203.573 16.44C203.189 16.664 202.783 16.8347 202.357 16.952C201.93 17.0587 201.514 17.112 201.109 17.112C199.903 17.112 198.949 16.7547 198.245 16.04C197.551 15.3253 197.205 14.3387 197.205 13.08C197.205 12.28 197.359 11.576 197.669 10.968C197.978 10.3493 198.41 9.86933 198.965 9.528C199.53 9.18667 200.17 9.016 200.885 9.016C201.898 9.016 202.703 9.34667 203.301 10.008C203.898 10.6693 204.197 11.5653 204.197 12.696C204.197 12.9093 204.154 13.064 204.069 13.16C203.983 13.256 203.845 13.304 203.653 13.304H198.501C198.597 15.1387 199.466 16.056 201.109 16.056C201.525 16.056 201.882 16.0027 202.181 15.896C202.479 15.7787 202.799 15.624 203.141 15.432C203.418 15.272 203.605 15.192 203.701 15.192ZM200.901 10.024C200.218 10.024 199.669 10.2373 199.253 10.664C198.847 11.0907 198.607 11.6933 198.533 12.472H203.061C203.039 11.6827 202.842 11.08 202.469 10.664C202.095 10.2373 201.573 10.024 200.901 10.024ZM208.73 17.112C208.24 17.112 207.77 17.0533 207.322 16.936C206.885 16.8187 206.496 16.6533 206.154 16.44C205.962 16.312 205.824 16.1947 205.738 16.088C205.664 15.9707 205.626 15.832 205.626 15.672C205.626 15.5333 205.664 15.4213 205.738 15.336C205.824 15.24 205.93 15.192 206.058 15.192C206.186 15.192 206.373 15.272 206.618 15.432C206.938 15.624 207.253 15.7787 207.562 15.896C207.882 16.0027 208.277 16.056 208.746 16.056C209.322 16.056 209.77 15.9547 210.09 15.752C210.41 15.5493 210.57 15.256 210.57 14.872C210.57 14.6373 210.512 14.4507 210.394 14.312C210.277 14.1627 210.074 14.0347 209.786 13.928C209.498 13.8107 209.077 13.6933 208.522 13.576C207.584 13.3733 206.912 13.1013 206.506 12.76C206.101 12.4187 205.898 11.9547 205.898 11.368C205.898 10.9093 206.026 10.504 206.282 10.152C206.538 9.8 206.89 9.52267 207.338 9.32C207.797 9.11733 208.314 9.016 208.89 9.016C209.306 9.016 209.706 9.07467 210.09 9.192C210.485 9.29867 210.832 9.45333 211.13 9.656C211.493 9.912 211.674 10.1787 211.674 10.456C211.674 10.5947 211.632 10.712 211.546 10.808C211.461 10.904 211.36 10.952 211.242 10.952C211.114 10.952 210.922 10.8613 210.666 10.68C210.368 10.488 210.085 10.3387 209.818 10.232C209.552 10.1253 209.221 10.072 208.826 10.072C208.325 10.072 207.92 10.184 207.61 10.408C207.312 10.632 207.162 10.9307 207.162 11.304C207.162 11.5387 207.216 11.7307 207.322 11.88C207.44 12.0187 207.626 12.1467 207.882 12.264C208.149 12.3707 208.528 12.4773 209.018 12.584C209.744 12.744 210.304 12.92 210.698 13.112C211.104 13.304 211.392 13.5387 211.562 13.816C211.733 14.0933 211.818 14.4453 211.818 14.872C211.818 15.544 211.536 16.088 210.97 16.504C210.405 16.9093 209.658 17.112 208.73 17.112ZM219.714 9.048C219.916 9.048 220.071 9.10667 220.178 9.224C220.295 9.34133 220.354 9.496 220.354 9.688V16.456C220.354 16.6373 220.295 16.7867 220.178 16.904C220.071 17.0213 219.916 17.08 219.714 17.08C219.522 17.08 219.367 17.0267 219.25 16.92C219.143 16.8027 219.09 16.6533 219.09 16.472V15.672C218.844 16.1413 218.498 16.4987 218.05 16.744C217.612 16.9893 217.116 17.112 216.562 17.112C215.634 17.112 214.935 16.856 214.466 16.344C213.996 15.8213 213.762 15.0533 213.762 14.04V9.688C213.762 9.496 213.82 9.34133 213.938 9.224C214.055 9.10667 214.215 9.048 214.418 9.048C214.62 9.048 214.775 9.10667 214.882 9.224C214.999 9.34133 215.058 9.496 215.058 9.688V14.008C215.058 14.7013 215.196 15.2133 215.474 15.544C215.751 15.864 216.188 16.024 216.786 16.024C217.468 16.024 218.018 15.8053 218.434 15.368C218.85 14.92 219.058 14.3333 219.058 13.608V9.688C219.058 9.496 219.116 9.34133 219.234 9.224C219.351 9.10667 219.511 9.048 219.714 9.048ZM225.947 9.016C227.899 9.016 228.875 10.04 228.875 12.088V16.44C228.875 16.632 228.816 16.7867 228.699 16.904C228.592 17.0213 228.443 17.08 228.251 17.08C228.059 17.08 227.904 17.0213 227.787 16.904C227.669 16.7867 227.611 16.632 227.611 16.44V15.672C227.408 16.1307 227.099 16.488 226.683 16.744C226.267 16.9893 225.787 17.112 225.243 17.112C224.741 17.112 224.277 17.0107 223.851 16.808C223.435 16.6053 223.104 16.3227 222.859 15.96C222.613 15.5973 222.491 15.1973 222.491 14.76C222.491 14.1733 222.64 13.72 222.939 13.4C223.237 13.0693 223.728 12.8347 224.411 12.696C225.093 12.5467 226.043 12.472 227.259 12.472H227.611V11.944C227.611 11.304 227.477 10.8347 227.211 10.536C226.955 10.2373 226.533 10.088 225.947 10.088C225.221 10.088 224.485 10.2853 223.739 10.68C223.451 10.8613 223.248 10.952 223.131 10.952C223.003 10.952 222.896 10.904 222.811 10.808C222.725 10.712 222.683 10.5893 222.683 10.44C222.683 10.2907 222.725 10.1627 222.811 10.056C222.907 9.93867 223.056 9.82133 223.259 9.704C223.632 9.49067 224.053 9.32533 224.523 9.208C225.003 9.08 225.477 9.016 225.947 9.016ZM225.419 16.088C226.059 16.088 226.581 15.8747 226.987 15.448C227.403 15.0107 227.611 14.4507 227.611 13.768V13.304H227.323C226.384 13.304 225.669 13.3467 225.179 13.432C224.688 13.5067 224.336 13.64 224.123 13.832C223.92 14.0133 223.819 14.2853 223.819 14.648C223.819 15.064 223.968 15.4107 224.267 15.688C224.576 15.9547 224.96 16.088 225.419 16.088ZM237.503 5.64C237.706 5.64 237.866 5.69867 237.983 5.816C238.1 5.93333 238.159 6.08267 238.159 6.264V16.44C238.159 16.632 238.1 16.7867 237.983 16.904C237.866 17.0213 237.706 17.08 237.503 17.08C237.3 17.08 237.14 17.0213 237.023 16.904C236.916 16.7867 236.863 16.632 236.863 16.44V15.576C236.628 16.0667 236.282 16.4453 235.823 16.712C235.375 16.9787 234.847 17.112 234.239 17.112C233.556 17.112 232.954 16.9413 232.431 16.6C231.908 16.2587 231.503 15.784 231.215 15.176C230.927 14.5573 230.783 13.8427 230.783 13.032C230.783 12.232 230.927 11.528 231.215 10.92C231.503 10.312 231.908 9.84267 232.431 9.512C232.954 9.18133 233.556 9.016 234.239 9.016C234.847 9.016 235.375 9.14933 235.823 9.416C236.282 9.68267 236.628 10.0613 236.863 10.552V6.264C236.863 6.072 236.916 5.92267 237.023 5.816C237.14 5.69867 237.3 5.64 237.503 5.64ZM234.495 16.04C235.252 16.04 235.834 15.784 236.239 15.272C236.655 14.7493 236.863 14.0133 236.863 13.064C236.863 12.1147 236.655 11.384 236.239 10.872C235.834 10.36 235.252 10.104 234.495 10.104C233.738 10.104 233.146 10.36 232.719 10.872C232.303 11.384 232.095 12.104 232.095 13.032C232.095 13.9813 232.303 14.7227 232.719 15.256C233.146 15.7787 233.738 16.04 234.495 16.04ZM243.743 9.016C245.695 9.016 246.671 10.04 246.671 12.088V16.44C246.671 16.632 246.613 16.7867 246.495 16.904C246.389 17.0213 246.239 17.08 246.047 17.08C245.855 17.08 245.701 17.0213 245.583 16.904C245.466 16.7867 245.407 16.632 245.407 16.44V15.672C245.205 16.1307 244.895 16.488 244.479 16.744C244.063 16.9893 243.583 17.112 243.039 17.112C242.538 17.112 242.074 17.0107 241.647 16.808C241.231 16.6053 240.901 16.3227 240.655 15.96C240.41 15.5973 240.287 15.1973 240.287 14.76C240.287 14.1733 240.437 13.72 240.735 13.4C241.034 13.0693 241.525 12.8347 242.207 12.696C242.89 12.5467 243.839 12.472 245.055 12.472H245.407V11.944C245.407 11.304 245.274 10.8347 245.007 10.536C244.751 10.2373 244.33 10.088 243.743 10.088C243.018 10.088 242.282 10.2853 241.535 10.68C241.247 10.8613 241.045 10.952 240.927 10.952C240.799 10.952 240.693 10.904 240.607 10.808C240.522 10.712 240.479 10.5893 240.479 10.44C240.479 10.2907 240.522 10.1627 240.607 10.056C240.703 9.93867 240.853 9.82133 241.055 9.704C241.429 9.49067 241.85 9.32533 242.319 9.208C242.799 9.08 243.274 9.016 243.743 9.016ZM243.215 16.088C243.855 16.088 244.378 15.8747 244.783 15.448C245.199 15.0107 245.407 14.4507 245.407 13.768V13.304H245.119C244.181 13.304 243.466 13.3467 242.975 13.432C242.485 13.5067 242.133 13.64 241.919 13.832C241.717 14.0133 241.615 14.2853 241.615 14.648C241.615 15.064 241.765 15.4107 242.063 15.688C242.373 15.9547 242.757 16.088 243.215 16.088ZM256.401 17.112C255.665 17.112 255.014 16.9467 254.449 16.616C253.894 16.2853 253.462 15.816 253.153 15.208C252.854 14.5893 252.705 13.8747 252.705 13.064C252.705 12.2533 252.854 11.544 253.153 10.936C253.462 10.3173 253.894 9.84267 254.449 9.512C255.014 9.18133 255.665 9.016 256.401 9.016C257.137 9.016 257.787 9.18133 258.353 9.512C258.918 9.84267 259.35 10.3173 259.649 10.936C259.958 11.544 260.113 12.2533 260.113 13.064C260.113 13.8747 259.958 14.5893 259.649 15.208C259.35 15.816 258.918 16.2853 258.353 16.616C257.787 16.9467 257.137 17.112 256.401 17.112ZM256.401 16.04C257.169 16.04 257.755 15.7893 258.161 15.288C258.577 14.776 258.785 14.0347 258.785 13.064C258.785 12.1147 258.577 11.384 258.161 10.872C257.745 10.3493 257.158 10.088 256.401 10.088C255.643 10.088 255.057 10.3493 254.641 10.872C254.225 11.384 254.017 12.1147 254.017 13.064C254.017 14.024 254.219 14.76 254.625 15.272C255.041 15.784 255.633 16.04 256.401 16.04ZM265.9 9.048C266.348 9.016 266.572 9.19733 266.572 9.592C266.572 9.76267 266.524 9.90133 266.428 10.008C266.332 10.104 266.166 10.1627 265.932 10.184L265.452 10.232C264.737 10.296 264.204 10.552 263.852 11C263.51 11.4373 263.34 11.9547 263.34 12.552V16.44C263.34 16.6533 263.281 16.8133 263.164 16.92C263.046 17.0267 262.892 17.08 262.7 17.08C262.508 17.08 262.348 17.0267 262.22 16.92C262.102 16.8027 262.044 16.6427 262.044 16.44V9.688C262.044 9.48533 262.108 9.33067 262.236 9.224C262.364 9.10667 262.518 9.048 262.7 9.048C262.87 9.048 263.014 9.10667 263.132 9.224C263.249 9.33067 263.308 9.48 263.308 9.672V10.568C263.532 10.0987 263.846 9.74133 264.252 9.496C264.668 9.25067 265.142 9.10667 265.676 9.064L265.9 9.048ZM271.604 9.016C273.471 9.016 274.404 10.0453 274.404 12.104V16.44C274.404 16.6427 274.346 16.8027 274.228 16.92C274.122 17.0267 273.967 17.08 273.764 17.08C273.562 17.08 273.402 17.0267 273.284 16.92C273.167 16.8027 273.108 16.6427 273.108 16.44V12.184C273.108 11.4587 272.964 10.9307 272.676 10.6C272.399 10.2693 271.951 10.104 271.332 10.104C270.618 10.104 270.047 10.3227 269.62 10.76C269.194 11.1973 268.98 11.7893 268.98 12.536V16.44C268.98 16.6427 268.922 16.8027 268.804 16.92C268.698 17.0267 268.543 17.08 268.34 17.08C268.138 17.08 267.978 17.0267 267.86 16.92C267.743 16.8027 267.684 16.6427 267.684 16.44V9.688C267.684 9.496 267.743 9.34133 267.86 9.224C267.978 9.10667 268.138 9.048 268.34 9.048C268.532 9.048 268.682 9.10667 268.788 9.224C268.906 9.34133 268.964 9.49067 268.964 9.672V10.488C269.22 10.008 269.578 9.64533 270.036 9.4C270.495 9.144 271.018 9.016 271.604 9.016ZM279.962 9.016C281.914 9.016 282.89 10.04 282.89 12.088V16.44C282.89 16.632 282.831 16.7867 282.714 16.904C282.607 17.0213 282.458 17.08 282.266 17.08C282.074 17.08 281.919 17.0213 281.802 16.904C281.685 16.7867 281.626 16.632 281.626 16.44V15.672C281.423 16.1307 281.114 16.488 280.698 16.744C280.282 16.9893 279.802 17.112 279.258 17.112C278.757 17.112 278.293 17.0107 277.866 16.808C277.45 16.6053 277.119 16.3227 276.874 15.96C276.629 15.5973 276.506 15.1973 276.506 14.76C276.506 14.1733 276.655 13.72 276.954 13.4C277.253 13.0693 277.743 12.8347 278.426 12.696C279.109 12.5467 280.058 12.472 281.274 12.472H281.626V11.944C281.626 11.304 281.493 10.8347 281.226 10.536C280.97 10.2373 280.549 10.088 279.962 10.088C279.237 10.088 278.501 10.2853 277.754 10.68C277.466 10.8613 277.263 10.952 277.146 10.952C277.018 10.952 276.911 10.904 276.826 10.808C276.741 10.712 276.698 10.5893 276.698 10.44C276.698 10.2907 276.741 10.1627 276.826 10.056C276.922 9.93867 277.071 9.82133 277.274 9.704C277.647 9.49067 278.069 9.32533 278.538 9.208C279.018 9.08 279.493 9.016 279.962 9.016ZM279.434 16.088C280.074 16.088 280.597 15.8747 281.002 15.448C281.418 15.0107 281.626 14.4507 281.626 13.768V13.304H281.338C280.399 13.304 279.685 13.3467 279.194 13.432C278.703 13.5067 278.351 13.64 278.138 13.832C277.935 14.0133 277.834 14.2853 277.834 14.648C277.834 15.064 277.983 15.4107 278.282 15.688C278.591 15.9547 278.975 16.088 279.434 16.088ZM289.119 9.048C289.567 9.016 289.791 9.19733 289.791 9.592C289.791 9.76267 289.743 9.90133 289.647 10.008C289.551 10.104 289.385 10.1627 289.151 10.184L288.671 10.232C287.956 10.296 287.423 10.552 287.071 11C286.729 11.4373 286.559 11.9547 286.559 12.552V16.44C286.559 16.6533 286.5 16.8133 286.383 16.92C286.265 17.0267 286.111 17.08 285.919 17.08C285.727 17.08 285.567 17.0267 285.439 16.92C285.321 16.8027 285.263 16.6427 285.263 16.44V9.688C285.263 9.48533 285.327 9.33067 285.455 9.224C285.583 9.10667 285.737 9.048 285.919 9.048C286.089 9.048 286.233 9.10667 286.351 9.224C286.468 9.33067 286.527 9.48 286.527 9.672V10.568C286.751 10.0987 287.065 9.74133 287.471 9.496C287.887 9.25067 288.361 9.10667 288.895 9.064L289.119 9.048ZM296.779 15.192C296.896 15.192 296.998 15.24 297.083 15.336C297.168 15.432 297.211 15.5547 297.211 15.704C297.211 15.9707 297.024 16.216 296.651 16.44C296.267 16.664 295.862 16.8347 295.435 16.952C295.008 17.0587 294.592 17.112 294.187 17.112C292.982 17.112 292.027 16.7547 291.323 16.04C290.63 15.3253 290.283 14.3387 290.283 13.08C290.283 12.28 290.438 11.576 290.747 10.968C291.056 10.3493 291.488 9.86933 292.043 9.528C292.608 9.18667 293.248 9.016 293.963 9.016C294.976 9.016 295.782 9.34667 296.379 10.008C296.976 10.6693 297.275 11.5653 297.275 12.696C297.275 12.9093 297.232 13.064 297.147 13.16C297.062 13.256 296.923 13.304 296.731 13.304H291.579C291.675 15.1387 292.544 16.056 294.187 16.056C294.603 16.056 294.96 16.0027 295.259 15.896C295.558 15.7787 295.878 15.624 296.219 15.432C296.496 15.272 296.683 15.192 296.779 15.192ZM293.979 10.024C293.296 10.024 292.747 10.2373 292.331 10.664C291.926 11.0907 291.686 11.6933 291.611 12.472H296.139C296.118 11.6827 295.92 11.08 295.547 10.664C295.174 10.2373 294.651 10.024 293.979 10.024ZM306.909 16.056C307.283 16.088 307.469 16.2587 307.469 16.568C307.469 16.7493 307.4 16.888 307.261 16.984C307.133 17.0693 306.936 17.1013 306.669 17.08L306.237 17.048C305.384 16.984 304.755 16.728 304.349 16.28C303.944 15.832 303.741 15.1547 303.741 14.248V10.232H302.669C302.488 10.232 302.344 10.1893 302.237 10.104C302.141 10.008 302.093 9.88533 302.093 9.736C302.093 9.576 302.141 9.448 302.237 9.352C302.344 9.256 302.488 9.208 302.669 9.208H303.741V7.4C303.741 7.19733 303.8 7.04267 303.917 6.936C304.035 6.81867 304.195 6.76 304.397 6.76C304.589 6.76 304.744 6.81867 304.861 6.936C304.979 7.04267 305.037 7.19733 305.037 7.4V9.208H306.813C306.984 9.208 307.117 9.256 307.213 9.352C307.32 9.448 307.373 9.576 307.373 9.736C307.373 9.88533 307.32 10.008 307.213 10.104C307.117 10.1893 306.984 10.232 306.813 10.232H305.037V14.312C305.037 14.8987 305.155 15.3253 305.389 15.592C305.635 15.848 305.997 15.992 306.477 16.024L306.909 16.056ZM312.603 9.048C313.051 9.016 313.275 9.19733 313.275 9.592C313.275 9.76267 313.227 9.90133 313.131 10.008C313.035 10.104 312.87 10.1627 312.635 10.184L312.155 10.232C311.44 10.296 310.907 10.552 310.555 11C310.214 11.4373 310.043 11.9547 310.043 12.552V16.44C310.043 16.6533 309.984 16.8133 309.867 16.92C309.75 17.0267 309.595 17.08 309.403 17.08C309.211 17.08 309.051 17.0267 308.923 16.92C308.806 16.8027 308.747 16.6427 308.747 16.44V9.688C308.747 9.48533 308.811 9.33067 308.939 9.224C309.067 9.10667 309.222 9.048 309.403 9.048C309.574 9.048 309.718 9.10667 309.835 9.224C309.952 9.33067 310.011 9.48 310.011 9.672V10.568C310.235 10.0987 310.55 9.74133 310.955 9.496C311.371 9.25067 311.846 9.10667 312.379 9.064L312.603 9.048ZM315.044 17.08C314.852 17.08 314.692 17.0267 314.564 16.92C314.446 16.8027 314.388 16.6427 314.388 16.44V9.688C314.388 9.48533 314.446 9.33067 314.564 9.224C314.692 9.10667 314.852 9.048 315.044 9.048C315.236 9.048 315.39 9.10667 315.508 9.224C315.625 9.33067 315.684 9.48533 315.684 9.688V16.44C315.684 16.6533 315.625 16.8133 315.508 16.92C315.39 17.0267 315.236 17.08 315.044 17.08ZM315.044 7.368C314.788 7.368 314.58 7.29333 314.42 7.144C314.26 6.99467 314.18 6.79733 314.18 6.552C314.18 6.31733 314.26 6.12533 314.42 5.976C314.58 5.82667 314.788 5.752 315.044 5.752C315.3 5.752 315.508 5.82667 315.668 5.976C315.828 6.12533 315.908 6.31733 315.908 6.552C315.908 6.79733 315.828 6.99467 315.668 7.144C315.508 7.29333 315.3 7.368 315.044 7.368ZM321.831 16.056C322.205 16.088 322.391 16.2587 322.391 16.568C322.391 16.7493 322.322 16.888 322.183 16.984C322.055 17.0693 321.858 17.1013 321.591 17.08L321.159 17.048C320.306 16.984 319.677 16.728 319.271 16.28C318.866 15.832 318.663 15.1547 318.663 14.248V10.232H317.591C317.41 10.232 317.266 10.1893 317.159 10.104C317.063 10.008 317.015 9.88533 317.015 9.736C317.015 9.576 317.063 9.448 317.159 9.352C317.266 9.256 317.41 9.208 317.591 9.208H318.663V7.4C318.663 7.19733 318.722 7.04267 318.839 6.936C318.957 6.81867 319.117 6.76 319.319 6.76C319.511 6.76 319.666 6.81867 319.783 6.936C319.901 7.04267 319.959 7.19733 319.959 7.4V9.208H321.735C321.906 9.208 322.039 9.256 322.135 9.352C322.242 9.448 322.295 9.576 322.295 9.736C322.295 9.88533 322.242 10.008 322.135 10.104C322.039 10.1893 321.906 10.232 321.735 10.232H319.959V14.312C319.959 14.8987 320.077 15.3253 320.311 15.592C320.557 15.848 320.919 15.992 321.399 16.024L321.831 16.056ZM324.325 17.08C324.133 17.08 323.973 17.0267 323.845 16.92C323.727 16.8027 323.669 16.6427 323.669 16.44V9.688C323.669 9.48533 323.727 9.33067 323.845 9.224C323.973 9.10667 324.133 9.048 324.325 9.048C324.517 9.048 324.671 9.10667 324.789 9.224C324.906 9.33067 324.965 9.48533 324.965 9.688V16.44C324.965 16.6533 324.906 16.8133 324.789 16.92C324.671 17.0267 324.517 17.08 324.325 17.08ZM324.325 7.368C324.069 7.368 323.861 7.29333 323.701 7.144C323.541 6.99467 323.461 6.79733 323.461 6.552C323.461 6.31733 323.541 6.12533 323.701 5.976C323.861 5.82667 324.069 5.752 324.325 5.752C324.581 5.752 324.789 5.82667 324.949 5.976C325.109 6.12533 325.189 6.31733 325.189 6.552C325.189 6.79733 325.109 6.99467 324.949 7.144C324.789 7.29333 324.581 7.368 324.325 7.368ZM333.644 9.048C333.846 9.048 334.006 9.10667 334.124 9.224C334.241 9.34133 334.3 9.496 334.3 9.688V19.336C334.3 19.5173 334.241 19.6667 334.124 19.784C334.006 19.9013 333.846 19.96 333.644 19.96C333.441 19.96 333.281 19.9013 333.164 19.784C333.057 19.6773 333.004 19.528 333.004 19.336V15.576C332.769 16.0667 332.422 16.4453 331.964 16.712C331.516 16.9787 330.988 17.112 330.38 17.112C329.686 17.112 329.078 16.9467 328.556 16.616C328.044 16.2853 327.644 15.8213 327.356 15.224C327.068 14.616 326.924 13.9067 326.924 13.096C326.924 12.2853 327.068 11.576 327.356 10.968C327.644 10.3493 328.049 9.86933 328.572 9.528C329.094 9.18667 329.697 9.016 330.38 9.016C330.988 9.016 331.516 9.14933 331.964 9.416C332.422 9.68267 332.769 10.0613 333.004 10.552V9.688C333.004 9.496 333.057 9.34133 333.164 9.224C333.281 9.10667 333.441 9.048 333.644 9.048ZM330.636 16.04C331.393 16.04 331.974 15.784 332.38 15.272C332.796 14.7493 333.004 14.0133 333.004 13.064C333.004 12.1147 332.796 11.384 332.38 10.872C331.974 10.36 331.393 10.104 330.636 10.104C329.878 10.104 329.286 10.3707 328.86 10.904C328.444 11.4267 328.236 12.1573 328.236 13.096C328.236 14.0347 328.444 14.76 328.86 15.272C329.286 15.784 329.878 16.04 330.636 16.04ZM342.62 9.048C342.823 9.048 342.977 9.10667 343.084 9.224C343.201 9.34133 343.26 9.496 343.26 9.688V16.456C343.26 16.6373 343.201 16.7867 343.084 16.904C342.977 17.0213 342.823 17.08 342.62 17.08C342.428 17.08 342.273 17.0267 342.156 16.92C342.049 16.8027 341.996 16.6533 341.996 16.472V15.672C341.751 16.1413 341.404 16.4987 340.956 16.744C340.519 16.9893 340.023 17.112 339.468 17.112C338.54 17.112 337.841 16.856 337.372 16.344C336.903 15.8213 336.668 15.0533 336.668 14.04V9.688C336.668 9.496 336.727 9.34133 336.844 9.224C336.961 9.10667 337.121 9.048 337.324 9.048C337.527 9.048 337.681 9.10667 337.788 9.224C337.905 9.34133 337.964 9.496 337.964 9.688V14.008C337.964 14.7013 338.103 15.2133 338.38 15.544C338.657 15.864 339.095 16.024 339.692 16.024C340.375 16.024 340.924 15.8053 341.34 15.368C341.756 14.92 341.964 14.3333 341.964 13.608V9.688C341.964 9.496 342.023 9.34133 342.14 9.224C342.257 9.10667 342.417 9.048 342.62 9.048ZM351.701 15.192C351.818 15.192 351.919 15.24 352.005 15.336C352.09 15.432 352.133 15.5547 352.133 15.704C352.133 15.9707 351.946 16.216 351.573 16.44C351.189 16.664 350.783 16.8347 350.357 16.952C349.93 17.0587 349.514 17.112 349.109 17.112C347.903 17.112 346.949 16.7547 346.245 16.04C345.551 15.3253 345.205 14.3387 345.205 13.08C345.205 12.28 345.359 11.576 345.669 10.968C345.978 10.3493 346.41 9.86933 346.965 9.528C347.53 9.18667 348.17 9.016 348.885 9.016C349.898 9.016 350.703 9.34667 351.301 10.008C351.898 10.6693 352.197 11.5653 352.197 12.696C352.197 12.9093 352.154 13.064 352.069 13.16C351.983 13.256 351.845 13.304 351.653 13.304H346.501C346.597 15.1387 347.466 16.056 349.109 16.056C349.525 16.056 349.882 16.0027 350.181 15.896C350.479 15.7787 350.799 15.624 351.141 15.432C351.418 15.272 351.605 15.192 351.701 15.192ZM348.901 10.024C348.218 10.024 347.669 10.2373 347.253 10.664C346.847 11.0907 346.607 11.6933 346.533 12.472H351.061C351.039 11.6827 350.842 11.08 350.469 10.664C350.095 10.2373 349.573 10.024 348.901 10.024ZM354.746 17.08C354.49 17.08 354.277 17 354.106 16.84C353.936 16.6693 353.85 16.4507 353.85 16.184C353.85 15.9173 353.936 15.6987 354.106 15.528C354.277 15.3573 354.49 15.272 354.746 15.272C354.992 15.272 355.194 15.3573 355.354 15.528C355.525 15.6987 355.61 15.9173 355.61 16.184C355.61 16.4507 355.525 16.6693 355.354 16.84C355.194 17 354.992 17.08 354.746 17.08ZM122.176 41.128C121.109 41.128 120.187 40.8987 119.408 40.44C118.629 39.9707 118.027 39.304 117.6 38.44C117.184 37.5653 116.976 36.536 116.976 35.352C116.976 34.1787 117.184 33.16 117.6 32.296C118.027 31.4213 118.629 30.7547 119.408 30.296C120.187 29.8267 121.109 29.592 122.176 29.592C122.891 29.592 123.563 29.7093 124.192 29.944C124.832 30.168 125.387 30.4933 125.856 30.92C126.027 31.08 126.112 31.2667 126.112 31.48C126.112 31.6293 126.069 31.7627 125.984 31.88C125.899 31.9867 125.797 32.04 125.68 32.04C125.552 32.04 125.397 31.9813 125.216 31.864C124.672 31.4373 124.176 31.1387 123.728 30.968C123.291 30.7973 122.784 30.712 122.208 30.712C120.971 30.712 120.016 31.1173 119.344 31.928C118.683 32.728 118.352 33.8693 118.352 35.352C118.352 36.8453 118.683 37.9973 119.344 38.808C120.016 39.608 120.971 40.008 122.208 40.008C122.773 40.008 123.28 39.9227 123.728 39.752C124.176 39.5813 124.672 39.2827 125.216 38.856C125.397 38.7387 125.552 38.68 125.68 38.68C125.797 38.68 125.899 38.7333 125.984 38.84C126.069 38.9467 126.112 39.08 126.112 39.24C126.112 39.4533 126.027 39.64 125.856 39.8C125.387 40.2267 124.832 40.5573 124.192 40.792C123.563 41.016 122.891 41.128 122.176 41.128ZM128.684 41.08C128.492 41.08 128.332 41.0267 128.204 40.92C128.087 40.8027 128.028 40.6427 128.028 40.44V30.28C128.028 30.0773 128.087 29.9227 128.204 29.816C128.332 29.6987 128.492 29.64 128.684 29.64C128.865 29.64 129.015 29.6987 129.132 29.816C129.26 29.9227 129.324 30.0773 129.324 30.28V40.44C129.324 40.6427 129.26 40.8027 129.132 40.92C129.015 41.0267 128.865 41.08 128.684 41.08ZM134.931 33.016C136.883 33.016 137.859 34.04 137.859 36.088V40.44C137.859 40.632 137.8 40.7867 137.683 40.904C137.576 41.0213 137.427 41.08 137.235 41.08C137.043 41.08 136.888 41.0213 136.771 40.904C136.654 40.7867 136.595 40.632 136.595 40.44V39.672C136.392 40.1307 136.083 40.488 135.667 40.744C135.251 40.9893 134.771 41.112 134.227 41.112C133.726 41.112 133.262 41.0107 132.835 40.808C132.419 40.6053 132.088 40.3227 131.843 39.96C131.598 39.5973 131.475 39.1973 131.475 38.76C131.475 38.1733 131.624 37.72 131.923 37.4C132.222 37.0693 132.712 36.8347 133.395 36.696C134.078 36.5467 135.027 36.472 136.243 36.472H136.595V35.944C136.595 35.304 136.462 34.8347 136.195 34.536C135.939 34.2373 135.518 34.088 134.931 34.088C134.206 34.088 133.47 34.2853 132.723 34.68C132.435 34.8613 132.232 34.952 132.115 34.952C131.987 34.952 131.88 34.904 131.795 34.808C131.71 34.712 131.667 34.5893 131.667 34.44C131.667 34.2907 131.71 34.1627 131.795 34.056C131.891 33.9387 132.04 33.8213 132.243 33.704C132.616 33.4907 133.038 33.3253 133.507 33.208C133.987 33.08 134.462 33.016 134.931 33.016ZM134.403 40.088C135.043 40.088 135.566 39.8747 135.971 39.448C136.387 39.0107 136.595 38.4507 136.595 37.768V37.304H136.307C135.368 37.304 134.654 37.3467 134.163 37.432C133.672 37.5067 133.32 37.64 133.107 37.832C132.904 38.0133 132.803 38.2853 132.803 38.648C132.803 39.064 132.952 39.4107 133.251 39.688C133.56 39.9547 133.944 40.088 134.403 40.088ZM142.855 41.112C142.365 41.112 141.895 41.0533 141.447 40.936C141.01 40.8187 140.621 40.6533 140.279 40.44C140.087 40.312 139.949 40.1947 139.863 40.088C139.789 39.9707 139.751 39.832 139.751 39.672C139.751 39.5333 139.789 39.4213 139.863 39.336C139.949 39.24 140.055 39.192 140.183 39.192C140.311 39.192 140.498 39.272 140.743 39.432C141.063 39.624 141.378 39.7787 141.687 39.896C142.007 40.0027 142.402 40.056 142.871 40.056C143.447 40.056 143.895 39.9547 144.215 39.752C144.535 39.5493 144.695 39.256 144.695 38.872C144.695 38.6373 144.637 38.4507 144.519 38.312C144.402 38.1627 144.199 38.0347 143.911 37.928C143.623 37.8107 143.202 37.6933 142.647 37.576C141.709 37.3733 141.037 37.1013 140.631 36.76C140.226 36.4187 140.023 35.9547 140.023 35.368C140.023 34.9093 140.151 34.504 140.407 34.152C140.663 33.8 141.015 33.5227 141.463 33.32C141.922 33.1173 142.439 33.016 143.015 33.016C143.431 33.016 143.831 33.0747 144.215 33.192C144.61 33.2987 144.957 33.4533 145.255 33.656C145.618 33.912 145.799 34.1787 145.799 34.456C145.799 34.5947 145.757 34.712 145.671 34.808C145.586 34.904 145.485 34.952 145.367 34.952C145.239 34.952 145.047 34.8613 144.791 34.68C144.493 34.488 144.21 34.3387 143.943 34.232C143.677 34.1253 143.346 34.072 142.951 34.072C142.45 34.072 142.045 34.184 141.735 34.408C141.437 34.632 141.287 34.9307 141.287 35.304C141.287 35.5387 141.341 35.7307 141.447 35.88C141.565 36.0187 141.751 36.1467 142.007 36.264C142.274 36.3707 142.653 36.4773 143.143 36.584C143.869 36.744 144.429 36.92 144.823 37.112C145.229 37.304 145.517 37.5387 145.687 37.816C145.858 38.0933 145.943 38.4453 145.943 38.872C145.943 39.544 145.661 40.088 145.095 40.504C144.53 40.9093 143.783 41.112 142.855 41.112ZM150.543 41.112C150.052 41.112 149.583 41.0533 149.135 40.936C148.697 40.8187 148.308 40.6533 147.967 40.44C147.775 40.312 147.636 40.1947 147.551 40.088C147.476 39.9707 147.439 39.832 147.439 39.672C147.439 39.5333 147.476 39.4213 147.551 39.336C147.636 39.24 147.743 39.192 147.871 39.192C147.999 39.192 148.185 39.272 148.431 39.432C148.751 39.624 149.065 39.7787 149.375 39.896C149.695 40.0027 150.089 40.056 150.559 40.056C151.135 40.056 151.583 39.9547 151.903 39.752C152.223 39.5493 152.383 39.256 152.383 38.872C152.383 38.6373 152.324 38.4507 152.207 38.312C152.089 38.1627 151.887 38.0347 151.599 37.928C151.311 37.8107 150.889 37.6933 150.335 37.576C149.396 37.3733 148.724 37.1013 148.319 36.76C147.913 36.4187 147.711 35.9547 147.711 35.368C147.711 34.9093 147.839 34.504 148.095 34.152C148.351 33.8 148.703 33.5227 149.151 33.32C149.609 33.1173 150.127 33.016 150.703 33.016C151.119 33.016 151.519 33.0747 151.903 33.192C152.297 33.2987 152.644 33.4533 152.943 33.656C153.305 33.912 153.487 34.1787 153.487 34.456C153.487 34.5947 153.444 34.712 153.359 34.808C153.273 34.904 153.172 34.952 153.055 34.952C152.927 34.952 152.735 34.8613 152.479 34.68C152.18 34.488 151.897 34.3387 151.631 34.232C151.364 34.1253 151.033 34.072 150.639 34.072C150.137 34.072 149.732 34.184 149.423 34.408C149.124 34.632 148.975 34.9307 148.975 35.304C148.975 35.5387 149.028 35.7307 149.135 35.88C149.252 36.0187 149.439 36.1467 149.695 36.264C149.961 36.3707 150.34 36.4773 150.831 36.584C151.556 36.744 152.116 36.92 152.511 37.112C152.916 37.304 153.204 37.5387 153.375 37.816C153.545 38.0933 153.631 38.4453 153.631 38.872C153.631 39.544 153.348 40.088 152.783 40.504C152.217 40.9093 151.471 41.112 150.543 41.112ZM162.915 33.016C164.867 33.016 165.843 34.04 165.843 36.088V40.44C165.843 40.632 165.785 40.7867 165.667 40.904C165.561 41.0213 165.411 41.08 165.219 41.08C165.027 41.08 164.873 41.0213 164.755 40.904C164.638 40.7867 164.579 40.632 164.579 40.44V39.672C164.377 40.1307 164.067 40.488 163.651 40.744C163.235 40.9893 162.755 41.112 162.211 41.112C161.71 41.112 161.246 41.0107 160.819 40.808C160.403 40.6053 160.073 40.3227 159.827 39.96C159.582 39.5973 159.459 39.1973 159.459 38.76C159.459 38.1733 159.609 37.72 159.907 37.4C160.206 37.0693 160.697 36.8347 161.379 36.696C162.062 36.5467 163.011 36.472 164.227 36.472H164.579V35.944C164.579 35.304 164.446 34.8347 164.179 34.536C163.923 34.2373 163.502 34.088 162.915 34.088C162.19 34.088 161.454 34.2853 160.707 34.68C160.419 34.8613 160.217 34.952 160.099 34.952C159.971 34.952 159.865 34.904 159.779 34.808C159.694 34.712 159.651 34.5893 159.651 34.44C159.651 34.2907 159.694 34.1627 159.779 34.056C159.875 33.9387 160.025 33.8213 160.227 33.704C160.601 33.4907 161.022 33.3253 161.491 33.208C161.971 33.08 162.446 33.016 162.915 33.016ZM162.387 40.088C163.027 40.088 163.55 39.8747 163.955 39.448C164.371 39.0107 164.579 38.4507 164.579 37.768V37.304H164.291C163.353 37.304 162.638 37.3467 162.147 37.432C161.657 37.5067 161.305 37.64 161.091 37.832C160.889 38.0133 160.787 38.2853 160.787 38.648C160.787 39.064 160.937 39.4107 161.235 39.688C161.545 39.9547 161.929 40.088 162.387 40.088ZM172.136 33.016C172.818 33.016 173.421 33.1867 173.944 33.528C174.466 33.8693 174.872 34.3493 175.16 34.968C175.448 35.576 175.592 36.2853 175.592 37.096C175.592 37.9067 175.448 38.616 175.16 39.224C174.872 39.8213 174.466 40.2853 173.944 40.616C173.432 40.9467 172.829 41.112 172.136 41.112C171.528 41.112 170.994 40.9787 170.536 40.712C170.088 40.4453 169.746 40.0667 169.512 39.576V43.336C169.512 43.528 169.453 43.6773 169.336 43.784C169.229 43.9013 169.074 43.96 168.872 43.96C168.669 43.96 168.509 43.9013 168.392 43.784C168.274 43.6667 168.216 43.5173 168.216 43.336V33.688C168.216 33.496 168.274 33.3413 168.392 33.224C168.509 33.1067 168.669 33.048 168.872 33.048C169.074 33.048 169.229 33.1067 169.336 33.224C169.453 33.3413 169.512 33.496 169.512 33.688V34.552C169.746 34.0613 170.088 33.6827 170.536 33.416C170.994 33.1493 171.528 33.016 172.136 33.016ZM171.88 40.04C172.637 40.04 173.224 39.784 173.64 39.272C174.056 38.76 174.264 38.0347 174.264 37.096C174.264 36.1573 174.056 35.4267 173.64 34.904C173.224 34.3707 172.637 34.104 171.88 34.104C171.122 34.104 170.536 34.36 170.12 34.872C169.714 35.384 169.512 36.1147 169.512 37.064C169.512 38.0133 169.714 38.7493 170.12 39.272C170.536 39.784 171.122 40.04 171.88 40.04ZM181.113 40.056C181.486 40.088 181.673 40.2587 181.673 40.568C181.673 40.7493 181.603 40.888 181.465 40.984C181.337 41.0693 181.139 41.1013 180.873 41.08L180.441 41.048C179.587 40.984 178.958 40.728 178.553 40.28C178.147 39.832 177.945 39.1547 177.945 38.248V34.232H176.873C176.691 34.232 176.547 34.1893 176.441 34.104C176.345 34.008 176.296 33.8853 176.296 33.736C176.296 33.576 176.345 33.448 176.441 33.352C176.547 33.256 176.691 33.208 176.873 33.208H177.945V31.4C177.945 31.1973 178.003 31.0427 178.121 30.936C178.238 30.8187 178.398 30.76 178.601 30.76C178.793 30.76 178.947 30.8187 179.065 30.936C179.182 31.0427 179.241 31.1973 179.241 31.4V33.208H181.016C181.187 33.208 181.321 33.256 181.417 33.352C181.523 33.448 181.577 33.576 181.577 33.736C181.577 33.8853 181.523 34.008 181.417 34.104C181.321 34.1893 181.187 34.232 181.016 34.232H179.241V38.312C179.241 38.8987 179.358 39.3253 179.593 39.592C179.838 39.848 180.201 39.992 180.681 40.024L181.113 40.056ZM188.982 39.192C189.099 39.192 189.201 39.24 189.286 39.336C189.371 39.432 189.414 39.5547 189.414 39.704C189.414 39.9707 189.227 40.216 188.854 40.44C188.47 40.664 188.065 40.8347 187.638 40.952C187.211 41.0587 186.795 41.112 186.39 41.112C185.185 41.112 184.23 40.7547 183.526 40.04C182.833 39.3253 182.486 38.3387 182.486 37.08C182.486 36.28 182.641 35.576 182.95 34.968C183.259 34.3493 183.691 33.8693 184.246 33.528C184.811 33.1867 185.451 33.016 186.166 33.016C187.179 33.016 187.985 33.3467 188.582 34.008C189.179 34.6693 189.478 35.5653 189.478 36.696C189.478 36.9093 189.435 37.064 189.35 37.16C189.265 37.256 189.126 37.304 188.934 37.304H183.782C183.878 39.1387 184.747 40.056 186.39 40.056C186.806 40.056 187.163 40.0027 187.462 39.896C187.761 39.7787 188.081 39.624 188.422 39.432C188.699 39.272 188.886 39.192 188.982 39.192ZM186.182 34.024C185.499 34.024 184.95 34.2373 184.534 34.664C184.129 35.0907 183.889 35.6933 183.814 36.472H188.342C188.321 35.6827 188.123 35.08 187.75 34.664C187.377 34.2373 186.854 34.024 186.182 34.024ZM195.308 33.016C197.174 33.016 198.108 34.0453 198.108 36.104V40.44C198.108 40.6427 198.049 40.8027 197.932 40.92C197.825 41.0267 197.67 41.08 197.468 41.08C197.265 41.08 197.105 41.0267 196.988 40.92C196.87 40.8027 196.812 40.6427 196.812 40.44V36.184C196.812 35.4587 196.668 34.9307 196.38 34.6C196.102 34.2693 195.654 34.104 195.036 34.104C194.321 34.104 193.75 34.3227 193.324 34.76C192.897 35.1973 192.684 35.7893 192.684 36.536V40.44C192.684 40.6427 192.625 40.8027 192.508 40.92C192.401 41.0267 192.246 41.08 192.044 41.08C191.841 41.08 191.681 41.0267 191.564 40.92C191.446 40.8027 191.388 40.6427 191.388 40.44V33.688C191.388 33.496 191.446 33.3413 191.564 33.224C191.681 33.1067 191.841 33.048 192.044 33.048C192.236 33.048 192.385 33.1067 192.492 33.224C192.609 33.3413 192.668 33.4907 192.668 33.672V34.488C192.924 34.008 193.281 33.6453 193.74 33.4C194.198 33.144 194.721 33.016 195.308 33.016ZM204.081 40.056C204.455 40.088 204.641 40.2587 204.641 40.568C204.641 40.7493 204.572 40.888 204.433 40.984C204.305 41.0693 204.108 41.1013 203.841 41.08L203.409 41.048C202.556 40.984 201.927 40.728 201.521 40.28C201.116 39.832 200.913 39.1547 200.913 38.248V34.232H199.841C199.66 34.232 199.516 34.1893 199.409 34.104C199.313 34.008 199.265 33.8853 199.265 33.736C199.265 33.576 199.313 33.448 199.409 33.352C199.516 33.256 199.66 33.208 199.841 33.208H200.913V31.4C200.913 31.1973 200.972 31.0427 201.089 30.936C201.207 30.8187 201.367 30.76 201.569 30.76C201.761 30.76 201.916 30.8187 202.033 30.936C202.151 31.0427 202.209 31.1973 202.209 31.4V33.208H203.985C204.156 33.208 204.289 33.256 204.385 33.352C204.492 33.448 204.545 33.576 204.545 33.736C204.545 33.8853 204.492 34.008 204.385 34.104C204.289 34.1893 204.156 34.232 203.985 34.232H202.209V38.312C202.209 38.8987 202.327 39.3253 202.561 39.592C202.807 39.848 203.169 39.992 203.649 40.024L204.081 40.056ZM213.644 40.056C214.017 40.088 214.204 40.2587 214.204 40.568C214.204 40.7493 214.134 40.888 213.996 40.984C213.868 41.0693 213.67 41.1013 213.404 41.08L212.972 41.048C212.118 40.984 211.489 40.728 211.084 40.28C210.678 39.832 210.476 39.1547 210.476 38.248V34.232H209.404C209.222 34.232 209.078 34.1893 208.972 34.104C208.876 34.008 208.828 33.8853 208.828 33.736C208.828 33.576 208.876 33.448 208.972 33.352C209.078 33.256 209.222 33.208 209.404 33.208H210.476V31.4C210.476 31.1973 210.534 31.0427 210.652 30.936C210.769 30.8187 210.929 30.76 211.132 30.76C211.324 30.76 211.478 30.8187 211.596 30.936C211.713 31.0427 211.772 31.1973 211.772 31.4V33.208H213.548C213.718 33.208 213.852 33.256 213.948 33.352C214.054 33.448 214.108 33.576 214.108 33.736C214.108 33.8853 214.054 34.008 213.948 34.104C213.852 34.1893 213.718 34.232 213.548 34.232H211.772V38.312C211.772 38.8987 211.889 39.3253 212.124 39.592C212.369 39.848 212.732 39.992 213.212 40.024L213.644 40.056ZM218.665 33.016C220.617 33.016 221.593 34.04 221.593 36.088V40.44C221.593 40.632 221.535 40.7867 221.417 40.904C221.311 41.0213 221.161 41.08 220.969 41.08C220.777 41.08 220.623 41.0213 220.505 40.904C220.388 40.7867 220.329 40.632 220.329 40.44V39.672C220.127 40.1307 219.817 40.488 219.401 40.744C218.985 40.9893 218.505 41.112 217.961 41.112C217.46 41.112 216.996 41.0107 216.569 40.808C216.153 40.6053 215.823 40.3227 215.577 39.96C215.332 39.5973 215.209 39.1973 215.209 38.76C215.209 38.1733 215.359 37.72 215.657 37.4C215.956 37.0693 216.447 36.8347 217.129 36.696C217.812 36.5467 218.761 36.472 219.977 36.472H220.329V35.944C220.329 35.304 220.196 34.8347 219.929 34.536C219.673 34.2373 219.252 34.088 218.665 34.088C217.94 34.088 217.204 34.2853 216.457 34.68C216.169 34.8613 215.967 34.952 215.849 34.952C215.721 34.952 215.615 34.904 215.529 34.808C215.444 34.712 215.401 34.5893 215.401 34.44C215.401 34.2907 215.444 34.1627 215.529 34.056C215.625 33.9387 215.775 33.8213 215.977 33.704C216.351 33.4907 216.772 33.3253 217.241 33.208C217.721 33.08 218.196 33.016 218.665 33.016ZM218.137 40.088C218.777 40.088 219.3 39.8747 219.705 39.448C220.121 39.0107 220.329 38.4507 220.329 37.768V37.304H220.041C219.103 37.304 218.388 37.3467 217.897 37.432C217.407 37.5067 217.055 37.64 216.841 37.832C216.639 38.0133 216.537 38.2853 216.537 38.648C216.537 39.064 216.687 39.4107 216.985 39.688C217.295 39.9547 217.679 40.088 218.137 40.088ZM227.182 41.112C226.456 41.112 225.811 40.9467 225.246 40.616C224.691 40.2853 224.259 39.816 223.95 39.208C223.651 38.6 223.502 37.896 223.502 37.096C223.502 36.296 223.656 35.5867 223.966 34.968C224.286 34.3493 224.728 33.8693 225.294 33.528C225.859 33.1867 226.51 33.016 227.246 33.016C227.651 33.016 228.051 33.0747 228.446 33.192C228.851 33.2987 229.203 33.4587 229.502 33.672C229.694 33.8 229.827 33.928 229.902 34.056C229.987 34.1733 230.03 34.3067 230.03 34.456C230.03 34.6053 229.987 34.728 229.902 34.824C229.827 34.92 229.726 34.968 229.598 34.968C229.523 34.968 229.443 34.9467 229.358 34.904C229.272 34.8613 229.198 34.8187 229.134 34.776C229.08 34.7333 229.043 34.7067 229.022 34.696C228.744 34.5147 228.478 34.3707 228.222 34.264C227.976 34.1573 227.672 34.104 227.31 34.104C226.531 34.104 225.923 34.3707 225.486 34.904C225.059 35.4267 224.846 36.1573 224.846 37.096C224.846 38.0347 225.059 38.76 225.486 39.272C225.923 39.784 226.531 40.04 227.31 40.04C227.672 40.04 227.982 39.9867 228.238 39.88C228.504 39.7733 228.771 39.6293 229.038 39.448C229.155 39.3733 229.267 39.3093 229.374 39.256C229.48 39.2027 229.571 39.176 229.646 39.176C229.763 39.176 229.859 39.224 229.934 39.32C230.019 39.416 230.062 39.5387 230.062 39.688C230.062 39.8267 230.024 39.9547 229.95 40.072C229.875 40.1787 229.736 40.3013 229.534 40.44C229.235 40.6427 228.872 40.808 228.446 40.936C228.03 41.0533 227.608 41.112 227.182 41.112ZM232.278 41.08C232.086 41.08 231.926 41.0267 231.798 40.92C231.681 40.8027 231.622 40.6427 231.622 40.44V33.688C231.622 33.4853 231.681 33.3307 231.798 33.224C231.926 33.1067 232.086 33.048 232.278 33.048C232.47 33.048 232.625 33.1067 232.742 33.224C232.859 33.3307 232.918 33.4853 232.918 33.688V40.44C232.918 40.6533 232.859 40.8133 232.742 40.92C232.625 41.0267 232.47 41.08 232.278 41.08ZM232.278 31.368C232.022 31.368 231.814 31.2933 231.654 31.144C231.494 30.9947 231.414 30.7973 231.414 30.552C231.414 30.3173 231.494 30.1253 231.654 29.976C231.814 29.8267 232.022 29.752 232.278 29.752C232.534 29.752 232.742 29.8267 232.902 29.976C233.062 30.1253 233.142 30.3173 233.142 30.552C233.142 30.7973 233.062 30.9947 232.902 31.144C232.742 31.2933 232.534 31.368 232.278 31.368ZM239.066 40.056C239.439 40.088 239.626 40.2587 239.626 40.568C239.626 40.7493 239.556 40.888 239.418 40.984C239.29 41.0693 239.092 41.1013 238.826 41.08L238.394 41.048C237.54 40.984 236.911 40.728 236.506 40.28C236.1 39.832 235.898 39.1547 235.898 38.248V34.232H234.826C234.644 34.232 234.5 34.1893 234.394 34.104C234.298 34.008 234.25 33.8853 234.25 33.736C234.25 33.576 234.298 33.448 234.394 33.352C234.5 33.256 234.644 33.208 234.826 33.208H235.898V31.4C235.898 31.1973 235.956 31.0427 236.074 30.936C236.191 30.8187 236.351 30.76 236.554 30.76C236.746 30.76 236.9 30.8187 237.018 30.936C237.135 31.0427 237.194 31.1973 237.194 31.4V33.208H238.97C239.14 33.208 239.274 33.256 239.37 33.352C239.476 33.448 239.53 33.576 239.53 33.736C239.53 33.8853 239.476 34.008 239.37 34.104C239.274 34.1893 239.14 34.232 238.97 34.232H237.194V38.312C237.194 38.8987 237.311 39.3253 237.546 39.592C237.791 39.848 238.154 39.992 238.634 40.024L239.066 40.056ZM241.559 41.08C241.367 41.08 241.207 41.0267 241.079 40.92C240.962 40.8027 240.903 40.6427 240.903 40.44V33.688C240.903 33.4853 240.962 33.3307 241.079 33.224C241.207 33.1067 241.367 33.048 241.559 33.048C241.751 33.048 241.906 33.1067 242.023 33.224C242.14 33.3307 242.199 33.4853 242.199 33.688V40.44C242.199 40.6533 242.14 40.8133 242.023 40.92C241.906 41.0267 241.751 41.08 241.559 41.08ZM241.559 31.368C241.303 31.368 241.095 31.2933 240.935 31.144C240.775 30.9947 240.695 30.7973 240.695 30.552C240.695 30.3173 240.775 30.1253 240.935 29.976C241.095 29.8267 241.303 29.752 241.559 29.752C241.815 29.752 242.023 29.8267 242.183 29.976C242.343 30.1253 242.423 30.3173 242.423 30.552C242.423 30.7973 242.343 30.9947 242.183 31.144C242.023 31.2933 241.815 31.368 241.559 31.368ZM245.262 41.08C245.006 41.08 244.793 41 244.622 40.84C244.451 40.6693 244.366 40.4507 244.366 40.184C244.366 39.9173 244.451 39.6987 244.622 39.528C244.793 39.3573 245.006 39.272 245.262 39.272C245.507 39.272 245.71 39.3573 245.87 39.528C246.041 39.6987 246.126 39.9173 246.126 40.184C246.126 40.4507 246.041 40.6693 245.87 40.84C245.71 41 245.507 41.08 245.262 41.08Z" fill="#191F33"/>
<path d="M117.806 75C117.629 75 117.484 74.9487 117.372 74.846C117.269 74.7433 117.218 74.608 117.218 74.44V65.69C117.218 65.522 117.269 65.3867 117.372 65.284C117.484 65.1813 117.629 65.13 117.806 65.13H120.536C122.113 65.13 123.331 65.5593 124.19 66.418C125.058 67.2673 125.492 68.4807 125.492 70.058C125.492 71.6353 125.058 72.8533 124.19 73.712C123.322 74.5707 122.104 75 120.536 75H117.806ZM120.466 74.02C123.023 74.02 124.302 72.6993 124.302 70.058C124.302 67.426 123.023 66.11 120.466 66.11H118.366V74.02H120.466ZM132.678 73.418C132.78 73.418 132.869 73.46 132.944 73.544C133.018 73.628 133.056 73.7353 133.056 73.866C133.056 74.0993 132.892 74.314 132.566 74.51C132.23 74.706 131.875 74.8553 131.502 74.958C131.128 75.0513 130.764 75.098 130.41 75.098C129.355 75.098 128.52 74.7853 127.904 74.16C127.297 73.5347 126.994 72.6713 126.994 71.57C126.994 70.87 127.129 70.254 127.4 69.722C127.67 69.1807 128.048 68.7607 128.534 68.462C129.028 68.1633 129.588 68.014 130.214 68.014C131.1 68.014 131.805 68.3033 132.328 68.882C132.85 69.4607 133.112 70.2447 133.112 71.234C133.112 71.4207 133.074 71.556 133 71.64C132.925 71.724 132.804 71.766 132.636 71.766H128.128C128.212 73.3713 128.972 74.174 130.41 74.174C130.774 74.174 131.086 74.1273 131.348 74.034C131.609 73.9313 131.889 73.796 132.188 73.628C132.43 73.488 132.594 73.418 132.678 73.418ZM130.228 68.896C129.63 68.896 129.15 69.0827 128.786 69.456C128.431 69.8293 128.221 70.3567 128.156 71.038H132.118C132.099 70.3473 131.926 69.82 131.6 69.456C131.273 69.0827 130.816 68.896 130.228 68.896ZM137.596 75.098C136.962 75.098 136.397 74.9533 135.902 74.664C135.417 74.3747 135.039 73.964 134.768 73.432C134.507 72.9 134.376 72.284 134.376 71.584C134.376 70.884 134.512 70.2633 134.782 69.722C135.062 69.1807 135.45 68.7607 135.944 68.462C136.439 68.1633 137.008 68.014 137.652 68.014C138.007 68.014 138.357 68.0653 138.702 68.168C139.057 68.2613 139.365 68.4013 139.626 68.588C139.794 68.7 139.911 68.812 139.976 68.924C140.051 69.0267 140.088 69.1433 140.088 69.274C140.088 69.4047 140.051 69.512 139.976 69.596C139.911 69.68 139.822 69.722 139.71 69.722C139.645 69.722 139.575 69.7033 139.5 69.666C139.426 69.6287 139.36 69.5913 139.304 69.554C139.258 69.5167 139.225 69.4933 139.206 69.484C138.964 69.3253 138.73 69.1993 138.506 69.106C138.292 69.0127 138.026 68.966 137.708 68.966C137.027 68.966 136.495 69.1993 136.112 69.666C135.739 70.1233 135.552 70.7627 135.552 71.584C135.552 72.4053 135.739 73.04 136.112 73.488C136.495 73.936 137.027 74.16 137.708 74.16C138.026 74.16 138.296 74.1133 138.52 74.02C138.754 73.9267 138.987 73.8007 139.22 73.642C139.323 73.5767 139.421 73.5207 139.514 73.474C139.608 73.4273 139.687 73.404 139.752 73.404C139.855 73.404 139.939 73.446 140.004 73.53C140.079 73.614 140.116 73.7213 140.116 73.852C140.116 73.9733 140.084 74.0853 140.018 74.188C139.953 74.2813 139.832 74.3887 139.654 74.51C139.393 74.6873 139.076 74.832 138.702 74.944C138.338 75.0467 137.97 75.098 137.596 75.098ZM150.929 74.034C151.097 74.034 151.228 74.076 151.321 74.16C151.414 74.244 151.461 74.3607 151.461 74.51C151.461 74.6687 151.414 74.79 151.321 74.874C151.237 74.958 151.106 75 150.929 75H146.295C146.118 75 145.982 74.958 145.889 74.874C145.805 74.79 145.763 74.6687 145.763 74.51C145.763 74.3607 145.81 74.244 145.903 74.16C145.996 74.076 146.127 74.034 146.295 74.034H148.031V66.53L146.505 67.524C146.43 67.5707 146.356 67.594 146.281 67.594C146.15 67.594 146.034 67.5333 145.931 67.412C145.838 67.2907 145.791 67.16 145.791 67.02C145.791 66.824 145.866 66.684 146.015 66.6L148.143 65.214C148.302 65.1113 148.465 65.06 148.633 65.06C148.792 65.06 148.922 65.1113 149.025 65.214C149.128 65.3167 149.179 65.4613 149.179 65.648V74.034H150.929ZM157.014 68.812C157.639 68.812 158.185 68.9427 158.652 69.204C159.128 69.4653 159.492 69.834 159.744 70.31C160.005 70.7767 160.136 71.318 160.136 71.934C160.136 72.55 159.996 73.1007 159.716 73.586C159.436 74.062 159.044 74.4353 158.54 74.706C158.045 74.9673 157.471 75.098 156.818 75.098C156.239 75.098 155.674 74.9953 155.124 74.79C154.573 74.5847 154.106 74.3047 153.724 73.95C153.574 73.81 153.5 73.6513 153.5 73.474C153.5 73.334 153.537 73.2173 153.612 73.124C153.686 73.0307 153.775 72.984 153.878 72.984C154.008 72.984 154.139 73.0353 154.27 73.138C154.68 73.474 155.091 73.726 155.502 73.894C155.912 74.0527 156.342 74.132 156.79 74.132C157.48 74.132 158.022 73.936 158.414 73.544C158.806 73.152 159.002 72.62 159.002 71.948C159.002 71.2947 158.806 70.7673 158.414 70.366C158.022 69.9647 157.494 69.764 156.832 69.764C155.982 69.764 155.292 70.0907 154.76 70.744C154.629 70.884 154.47 70.954 154.284 70.954C154.153 70.954 154.041 70.9167 153.948 70.842C153.864 70.758 153.822 70.646 153.822 70.506V65.676C153.822 65.5173 153.868 65.3867 153.962 65.284C154.064 65.1813 154.204 65.13 154.382 65.13H159.31C159.478 65.13 159.608 65.172 159.702 65.256C159.804 65.34 159.856 65.4567 159.856 65.606C159.856 65.7553 159.804 65.872 159.702 65.956C159.608 66.04 159.478 66.082 159.31 66.082H154.956V69.596C155.217 69.344 155.52 69.1527 155.866 69.022C156.22 68.882 156.603 68.812 157.014 68.812ZM162.412 73.488C162.645 73.488 162.832 73.5813 162.972 73.768C163.121 73.9453 163.196 74.216 163.196 74.58C163.196 75.3173 162.958 75.938 162.482 76.442C162.389 76.5447 162.281 76.596 162.16 76.596C162.067 76.596 161.983 76.5587 161.908 76.484C161.833 76.4187 161.796 76.3393 161.796 76.246C161.796 76.1433 161.833 76.0547 161.908 75.98C162.151 75.728 162.305 75.4153 162.37 75.042C162.165 75.0233 161.992 74.9487 161.852 74.818C161.721 74.678 161.656 74.5007 161.656 74.286C161.656 74.0527 161.726 73.8613 161.866 73.712C162.015 73.5627 162.197 73.488 162.412 73.488ZM174.751 74.034C174.919 74.034 175.049 74.076 175.143 74.16C175.236 74.244 175.283 74.3607 175.283 74.51C175.283 74.8367 175.105 75 174.751 75H169.263C169.104 75 168.973 74.9533 168.871 74.86C168.768 74.7573 168.717 74.636 168.717 74.496C168.717 74.3187 168.782 74.1647 168.913 74.034L172.287 70.324C172.753 69.8013 173.089 69.3347 173.295 68.924C173.509 68.504 173.617 68.084 173.617 67.664C173.617 67.1227 173.458 66.7073 173.141 66.418C172.833 66.1287 172.394 65.984 171.825 65.984C171.377 65.984 170.947 66.068 170.537 66.236C170.126 66.3947 169.715 66.642 169.305 66.978C169.165 67.09 169.034 67.146 168.913 67.146C168.81 67.146 168.721 67.0993 168.647 67.006C168.572 66.9033 168.535 66.782 168.535 66.642C168.535 66.446 168.609 66.2873 168.759 66.166C169.141 65.8113 169.608 65.5313 170.159 65.326C170.709 65.1207 171.274 65.018 171.853 65.018C172.739 65.018 173.444 65.2513 173.967 65.718C174.499 66.1847 174.765 66.8147 174.765 67.608C174.765 68.1773 174.634 68.7233 174.373 69.246C174.121 69.7687 173.701 70.352 173.113 70.996L170.313 74.034H174.751ZM180.233 75.112C179.104 75.112 178.245 74.6827 177.657 73.824C177.069 72.9653 176.775 71.7147 176.775 70.072C176.775 68.42 177.069 67.1647 177.657 66.306C178.245 65.4473 179.104 65.018 180.233 65.018C181.363 65.018 182.221 65.4473 182.809 66.306C183.397 67.1553 183.691 68.406 183.691 70.058C183.691 71.71 183.397 72.9653 182.809 73.824C182.221 74.6827 181.363 75.112 180.233 75.112ZM180.233 74.146C181.017 74.146 181.596 73.8147 181.969 73.152C182.343 72.4893 182.529 71.458 182.529 70.058C182.529 68.6487 182.343 67.6173 181.969 66.964C181.605 66.3107 181.027 65.984 180.233 65.984C179.449 65.984 178.871 66.3153 178.497 66.978C178.124 67.6313 177.937 68.658 177.937 70.058C177.937 71.458 178.124 72.4893 178.497 73.152C178.871 73.8147 179.449 74.146 180.233 74.146ZM191.54 74.034C191.708 74.034 191.838 74.076 191.932 74.16C192.025 74.244 192.072 74.3607 192.072 74.51C192.072 74.8367 191.894 75 191.54 75H186.052C185.893 75 185.762 74.9533 185.66 74.86C185.557 74.7573 185.506 74.636 185.506 74.496C185.506 74.3187 185.571 74.1647 185.702 74.034L189.076 70.324C189.542 69.8013 189.878 69.3347 190.084 68.924C190.298 68.504 190.406 68.084 190.406 67.664C190.406 67.1227 190.247 66.7073 189.93 66.418C189.622 66.1287 189.183 65.984 188.614 65.984C188.166 65.984 187.736 66.068 187.326 66.236C186.915 66.3947 186.504 66.642 186.094 66.978C185.954 67.09 185.823 67.146 185.702 67.146C185.599 67.146 185.51 67.0993 185.436 67.006C185.361 66.9033 185.324 66.782 185.324 66.642C185.324 66.446 185.398 66.2873 185.548 66.166C185.93 65.8113 186.397 65.5313 186.948 65.326C187.498 65.1207 188.063 65.018 188.642 65.018C189.528 65.018 190.233 65.2513 190.756 65.718C191.288 66.1847 191.554 66.8147 191.554 67.608C191.554 68.1773 191.423 68.7233 191.162 69.246C190.91 69.7687 190.49 70.352 189.902 70.996L187.102 74.034H191.54ZM199.71 74.034C199.878 74.034 200.009 74.076 200.102 74.16C200.196 74.244 200.242 74.3607 200.242 74.51C200.242 74.6687 200.196 74.79 200.102 74.874C200.018 74.958 199.888 75 199.71 75H195.076C194.899 75 194.764 74.958 194.67 74.874C194.586 74.79 194.544 74.6687 194.544 74.51C194.544 74.3607 194.591 74.244 194.684 74.16C194.778 74.076 194.908 74.034 195.076 74.034H196.812V66.53L195.286 67.524C195.212 67.5707 195.137 67.594 195.062 67.594C194.932 67.594 194.815 67.5333 194.712 67.412C194.619 67.2907 194.572 67.16 194.572 67.02C194.572 66.824 194.647 66.684 194.796 66.6L196.924 65.214C197.083 65.1113 197.246 65.06 197.414 65.06C197.573 65.06 197.704 65.1113 197.806 65.214C197.909 65.3167 197.96 65.4613 197.96 65.648V74.034H199.71Z" fill="#767E94"/>
<path d="M213.668 73.768C213.22 73.768 212.8 73.6607 212.408 73.446C212.016 73.222 211.703 72.9233 211.47 72.55C211.246 72.1673 211.134 71.7473 211.134 71.29C211.134 70.8607 211.241 70.4547 211.456 70.072C211.68 69.6893 211.983 69.3813 212.366 69.148C212.758 68.9147 213.192 68.798 213.668 68.798C214.116 68.798 214.531 68.91 214.914 69.134C215.306 69.3487 215.619 69.6473 215.852 70.03C216.085 70.4033 216.202 70.8233 216.202 71.29C216.202 71.738 216.085 72.1533 215.852 72.536C215.628 72.9093 215.32 73.208 214.928 73.432C214.545 73.656 214.125 73.768 213.668 73.768Z" fill="#767E94"/>
<path d="M233.462 71.906C233.63 71.906 233.761 71.9527 233.854 72.046C233.947 72.13 233.994 72.242 233.994 72.382C233.994 72.6993 233.817 72.858 233.462 72.858H232.412V74.482C232.412 74.6687 232.356 74.8133 232.244 74.916C232.141 75.0187 232.006 75.07 231.838 75.07C231.67 75.07 231.535 75.0187 231.432 74.916C231.329 74.8133 231.278 74.6687 231.278 74.482V72.858H227.134C226.966 72.858 226.835 72.8113 226.742 72.718C226.649 72.6247 226.602 72.508 226.602 72.368C226.602 72.2373 226.653 72.0927 226.756 71.934L231.334 65.312C231.465 65.144 231.633 65.06 231.838 65.06C231.997 65.06 232.132 65.1113 232.244 65.214C232.356 65.3167 232.412 65.4613 232.412 65.648V71.906H233.462ZM227.904 71.906H231.278V67.048L227.904 71.906ZM241.437 65.13C241.605 65.13 241.731 65.1767 241.815 65.27C241.908 65.354 241.955 65.466 241.955 65.606C241.955 65.7367 241.913 65.8813 241.829 66.04L237.181 74.79C237.069 74.9953 236.905 75.098 236.691 75.098C236.541 75.098 236.406 75.0467 236.285 74.944C236.173 74.8413 236.117 74.7153 236.117 74.566C236.117 74.4633 236.149 74.3607 236.215 74.258L240.583 66.096H235.753C235.585 66.096 235.454 66.054 235.361 65.97C235.277 65.886 235.235 65.7693 235.235 65.62C235.235 65.4613 235.277 65.34 235.361 65.256C235.454 65.172 235.585 65.13 235.753 65.13H241.437ZM251.802 75.112C250.869 75.112 250.062 74.9113 249.38 74.51C248.699 74.0993 248.172 73.516 247.798 72.76C247.434 71.9947 247.252 71.094 247.252 70.058C247.252 69.0313 247.434 68.14 247.798 67.384C248.172 66.6187 248.699 66.0353 249.38 65.634C250.062 65.2233 250.869 65.018 251.802 65.018C252.428 65.018 253.016 65.1207 253.566 65.326C254.126 65.522 254.612 65.8067 255.022 66.18C255.172 66.32 255.246 66.4833 255.246 66.67C255.246 66.8007 255.209 66.9173 255.134 67.02C255.06 67.1133 254.971 67.16 254.868 67.16C254.756 67.16 254.621 67.1087 254.462 67.006C253.986 66.6327 253.552 66.3713 253.16 66.222C252.778 66.0727 252.334 65.998 251.83 65.998C250.748 65.998 249.912 66.3527 249.324 67.062C248.746 67.762 248.456 68.7607 248.456 70.058C248.456 71.3647 248.746 72.3727 249.324 73.082C249.912 73.782 250.748 74.132 251.83 74.132C252.325 74.132 252.768 74.0573 253.16 73.908C253.552 73.7587 253.986 73.4973 254.462 73.124C254.621 73.0213 254.756 72.97 254.868 72.97C254.971 72.97 255.06 73.0167 255.134 73.11C255.209 73.2033 255.246 73.32 255.246 73.46C255.246 73.6467 255.172 73.81 255.022 73.95C254.612 74.3233 254.126 74.6127 253.566 74.818C253.016 75.014 252.428 75.112 251.802 75.112ZM259.614 75.098C258.97 75.098 258.401 74.9533 257.906 74.664C257.421 74.3747 257.043 73.964 256.772 73.432C256.511 72.8907 256.38 72.2653 256.38 71.556C256.38 70.8467 256.511 70.226 256.772 69.694C257.043 69.1527 257.421 68.7373 257.906 68.448C258.401 68.1587 258.97 68.014 259.614 68.014C260.258 68.014 260.828 68.1587 261.322 68.448C261.817 68.7373 262.195 69.1527 262.456 69.694C262.727 70.226 262.862 70.8467 262.862 71.556C262.862 72.2653 262.727 72.8907 262.456 73.432C262.195 73.964 261.817 74.3747 261.322 74.664C260.828 74.9533 260.258 75.098 259.614 75.098ZM259.614 74.16C260.286 74.16 260.8 73.9407 261.154 73.502C261.518 73.054 261.7 72.4053 261.7 71.556C261.7 70.7253 261.518 70.086 261.154 69.638C260.79 69.1807 260.277 68.952 259.614 68.952C258.952 68.952 258.438 69.1807 258.074 69.638C257.71 70.086 257.528 70.7253 257.528 71.556C257.528 72.396 257.706 73.04 258.06 73.488C258.424 73.936 258.942 74.16 259.614 74.16ZM272.14 68.014C273.652 68.014 274.408 68.9147 274.408 70.716V74.51C274.408 74.6873 274.357 74.8273 274.254 74.93C274.151 75.0233 274.016 75.07 273.848 75.07C273.68 75.07 273.54 75.0233 273.428 74.93C273.325 74.8273 273.274 74.6873 273.274 74.51V70.744C273.274 70.1187 273.162 69.666 272.938 69.386C272.714 69.106 272.364 68.966 271.888 68.966C271.319 68.966 270.871 69.1573 270.544 69.54C270.217 69.9227 270.054 70.4407 270.054 71.094V74.51C270.054 74.6873 269.998 74.8273 269.886 74.93C269.783 75.0233 269.648 75.07 269.48 75.07C269.312 75.07 269.177 75.0233 269.074 74.93C268.971 74.8273 268.92 74.6873 268.92 74.51V70.744C268.92 70.1187 268.808 69.666 268.584 69.386C268.36 69.106 268.005 68.966 267.52 68.966C266.96 68.966 266.512 69.1573 266.176 69.54C265.849 69.9227 265.686 70.4407 265.686 71.094V74.51C265.686 74.6873 265.635 74.8273 265.532 74.93C265.429 75.0233 265.294 75.07 265.126 75.07C264.958 75.07 264.818 75.0233 264.706 74.93C264.603 74.8273 264.552 74.6873 264.552 74.51V68.602C264.552 68.434 264.603 68.2987 264.706 68.196C264.818 68.0933 264.958 68.042 265.126 68.042C265.285 68.042 265.415 68.0933 265.518 68.196C265.621 68.2893 265.672 68.42 265.672 68.588V69.26C265.877 68.8587 266.162 68.5507 266.526 68.336C266.89 68.1213 267.31 68.014 267.786 68.014C268.85 68.014 269.545 68.462 269.872 69.358C270.068 68.9473 270.367 68.6207 270.768 68.378C271.169 68.1353 271.627 68.014 272.14 68.014ZM284.062 68.014C285.574 68.014 286.33 68.9147 286.33 70.716V74.51C286.33 74.6873 286.278 74.8273 286.176 74.93C286.073 75.0233 285.938 75.07 285.77 75.07C285.602 75.07 285.462 75.0233 285.35 74.93C285.247 74.8273 285.196 74.6873 285.196 74.51V70.744C285.196 70.1187 285.084 69.666 284.86 69.386C284.636 69.106 284.286 68.966 283.81 68.966C283.24 68.966 282.792 69.1573 282.466 69.54C282.139 69.9227 281.976 70.4407 281.976 71.094V74.51C281.976 74.6873 281.92 74.8273 281.808 74.93C281.705 75.0233 281.57 75.07 281.402 75.07C281.234 75.07 281.098 75.0233 280.996 74.93C280.893 74.8273 280.842 74.6873 280.842 74.51V70.744C280.842 70.1187 280.73 69.666 280.506 69.386C280.282 69.106 279.927 68.966 279.442 68.966C278.882 68.966 278.434 69.1573 278.098 69.54C277.771 69.9227 277.608 70.4407 277.608 71.094V74.51C277.608 74.6873 277.556 74.8273 277.454 74.93C277.351 75.0233 277.216 75.07 277.048 75.07C276.88 75.07 276.74 75.0233 276.628 74.93C276.525 74.8273 276.474 74.6873 276.474 74.51V68.602C276.474 68.434 276.525 68.2987 276.628 68.196C276.74 68.0933 276.88 68.042 277.048 68.042C277.206 68.042 277.337 68.0933 277.44 68.196C277.542 68.2893 277.594 68.42 277.594 68.588V69.26C277.799 68.8587 278.084 68.5507 278.448 68.336C278.812 68.1213 279.232 68.014 279.708 68.014C280.772 68.014 281.467 68.462 281.794 69.358C281.99 68.9473 282.288 68.6207 282.69 68.378C283.091 68.1353 283.548 68.014 284.062 68.014ZM293.674 73.418C293.776 73.418 293.865 73.46 293.94 73.544C294.014 73.628 294.052 73.7353 294.052 73.866C294.052 74.0993 293.888 74.314 293.562 74.51C293.226 74.706 292.871 74.8553 292.498 74.958C292.124 75.0513 291.76 75.098 291.406 75.098C290.351 75.098 289.516 74.7853 288.9 74.16C288.293 73.5347 287.99 72.6713 287.99 71.57C287.99 70.87 288.125 70.254 288.396 69.722C288.666 69.1807 289.044 68.7607 289.53 68.462C290.024 68.1633 290.584 68.014 291.21 68.014C292.096 68.014 292.801 68.3033 293.324 68.882C293.846 69.4607 294.108 70.2447 294.108 71.234C294.108 71.4207 294.07 71.556 293.996 71.64C293.921 71.724 293.8 71.766 293.632 71.766H289.124C289.208 73.3713 289.968 74.174 291.406 74.174C291.77 74.174 292.082 74.1273 292.344 74.034C292.605 73.9313 292.885 73.796 293.184 73.628C293.426 73.488 293.59 73.418 293.674 73.418ZM291.224 68.896C290.626 68.896 290.146 69.0827 289.782 69.456C289.427 69.8293 289.217 70.3567 289.152 71.038H293.114C293.095 70.3473 292.922 69.82 292.596 69.456C292.269 69.0827 291.812 68.896 291.224 68.896ZM299.209 68.014C300.842 68.014 301.659 68.9147 301.659 70.716V74.51C301.659 74.6873 301.607 74.8273 301.505 74.93C301.411 75.0233 301.276 75.07 301.099 75.07C300.921 75.07 300.781 75.0233 300.679 74.93C300.576 74.8273 300.525 74.6873 300.525 74.51V70.786C300.525 70.1513 300.399 69.6893 300.147 69.4C299.904 69.1107 299.512 68.966 298.971 68.966C298.345 68.966 297.846 69.1573 297.473 69.54C297.099 69.9227 296.913 70.4407 296.913 71.094V74.51C296.913 74.6873 296.861 74.8273 296.759 74.93C296.665 75.0233 296.53 75.07 296.353 75.07C296.175 75.07 296.035 75.0233 295.933 74.93C295.83 74.8273 295.779 74.6873 295.779 74.51V68.602C295.779 68.434 295.83 68.2987 295.933 68.196C296.035 68.0933 296.175 68.042 296.353 68.042C296.521 68.042 296.651 68.0933 296.745 68.196C296.847 68.2987 296.899 68.4293 296.899 68.588V69.302C297.123 68.882 297.435 68.5647 297.837 68.35C298.238 68.126 298.695 68.014 299.209 68.014ZM306.886 74.174C307.212 74.202 307.376 74.3513 307.376 74.622C307.376 74.7807 307.315 74.902 307.194 74.986C307.082 75.0607 306.909 75.0887 306.676 75.07L306.298 75.042C305.551 74.986 305 74.762 304.646 74.37C304.291 73.978 304.114 73.3853 304.114 72.592V69.078H303.176C303.017 69.078 302.891 69.0407 302.798 68.966C302.714 68.882 302.672 68.7747 302.672 68.644C302.672 68.504 302.714 68.392 302.798 68.308C302.891 68.224 303.017 68.182 303.176 68.182H304.114V66.6C304.114 66.4227 304.165 66.2873 304.268 66.194C304.37 66.0913 304.51 66.04 304.688 66.04C304.856 66.04 304.991 66.0913 305.094 66.194C305.196 66.2873 305.248 66.4227 305.248 66.6V68.182H306.802C306.951 68.182 307.068 68.224 307.152 68.308C307.245 68.392 307.292 68.504 307.292 68.644C307.292 68.7747 307.245 68.882 307.152 68.966C307.068 69.0407 306.951 69.078 306.802 69.078H305.248V72.648C305.248 73.1613 305.35 73.5347 305.556 73.768C305.77 73.992 306.088 74.118 306.508 74.146L306.886 74.174ZM310.789 75.098C310.36 75.098 309.949 75.0467 309.557 74.944C309.175 74.8413 308.834 74.6967 308.535 74.51C308.367 74.398 308.246 74.2953 308.171 74.202C308.106 74.0993 308.073 73.978 308.073 73.838C308.073 73.7167 308.106 73.6187 308.171 73.544C308.246 73.46 308.339 73.418 308.451 73.418C308.563 73.418 308.727 73.488 308.941 73.628C309.221 73.796 309.497 73.9313 309.767 74.034C310.047 74.1273 310.393 74.174 310.803 74.174C311.307 74.174 311.699 74.0853 311.979 73.908C312.259 73.7307 312.399 73.474 312.399 73.138C312.399 72.9327 312.348 72.7693 312.245 72.648C312.143 72.5173 311.965 72.4053 311.713 72.312C311.461 72.2093 311.093 72.1067 310.607 72.004C309.786 71.8267 309.198 71.5887 308.843 71.29C308.489 70.9913 308.311 70.5853 308.311 70.072C308.311 69.6707 308.423 69.316 308.647 69.008C308.871 68.7 309.179 68.4573 309.571 68.28C309.973 68.1027 310.425 68.014 310.929 68.014C311.293 68.014 311.643 68.0653 311.979 68.168C312.325 68.2613 312.628 68.3967 312.889 68.574C313.207 68.798 313.365 69.0313 313.365 69.274C313.365 69.3953 313.328 69.498 313.253 69.582C313.179 69.666 313.09 69.708 312.987 69.708C312.875 69.708 312.707 69.6287 312.483 69.47C312.222 69.302 311.975 69.1713 311.741 69.078C311.508 68.9847 311.219 68.938 310.873 68.938C310.435 68.938 310.08 69.036 309.809 69.232C309.548 69.428 309.417 69.6893 309.417 70.016C309.417 70.2213 309.464 70.3893 309.557 70.52C309.66 70.6413 309.823 70.7533 310.047 70.856C310.281 70.9493 310.612 71.0427 311.041 71.136C311.676 71.276 312.166 71.43 312.511 71.598C312.866 71.766 313.118 71.9713 313.267 72.214C313.417 72.4567 313.491 72.7647 313.491 73.138C313.491 73.726 313.244 74.202 312.749 74.566C312.255 74.9207 311.601 75.098 310.789 75.098Z" fill="#767E94"/>
</svg>
