<svg width="360" height="80" viewBox="0 0 360 80" fill="none" xmlns="http://www.w3.org/2000/svg">
<rect width="100" height="80" rx="6" fill="#939AAD"/>
<path d="M125.664 5.976C125.717 5.85867 125.792 5.768 125.888 5.704C125.995 5.64 126.107 5.608 126.224 5.608C126.395 5.608 126.544 5.66667 126.672 5.784C126.811 5.89067 126.88 6.024 126.88 6.184C126.88 6.26933 126.859 6.35467 126.816 6.44L122.224 16.648C122.16 16.7867 122.064 16.8933 121.936 16.968C121.808 17.0427 121.669 17.08 121.52 17.08C121.371 17.08 121.232 17.0427 121.104 16.968C120.976 16.8933 120.88 16.7867 120.816 16.648L116.24 6.44C116.208 6.35467 116.192 6.27467 116.192 6.2C116.192 6.02933 116.261 5.89067 116.4 5.784C116.539 5.66667 116.693 5.608 116.864 5.608C117.12 5.608 117.307 5.73067 117.424 5.976L121.552 15.304L125.664 5.976ZM129.794 17.08C129.602 17.08 129.442 17.0267 129.314 16.92C129.196 16.8027 129.138 16.6427 129.138 16.44V9.688C129.138 9.48533 129.196 9.33067 129.314 9.224C129.442 9.10667 129.602 9.048 129.794 9.048C129.986 9.048 130.14 9.10667 130.258 9.224C130.375 9.33067 130.434 9.48533 130.434 9.688V16.44C130.434 16.6533 130.375 16.8133 130.258 16.92C130.14 17.0267 129.986 17.08 129.794 17.08ZM129.794 7.368C129.538 7.368 129.33 7.29333 129.17 7.144C129.01 6.99467 128.93 6.79733 128.93 6.552C128.93 6.31733 129.01 6.12533 129.17 5.976C129.33 5.82667 129.538 5.752 129.794 5.752C130.05 5.752 130.258 5.82667 130.418 5.976C130.578 6.12533 130.658 6.31733 130.658 6.552C130.658 6.79733 130.578 6.99467 130.418 7.144C130.258 7.29333 130.05 7.368 129.794 7.368ZM138.472 9.448C138.59 9.192 138.776 9.064 139.032 9.064C139.192 9.064 139.336 9.11733 139.464 9.224C139.592 9.33067 139.656 9.464 139.656 9.624C139.656 9.72 139.635 9.80533 139.592 9.88L136.472 16.6C136.408 16.7387 136.312 16.8507 136.184 16.936C136.056 17.0107 135.918 17.048 135.768 17.048C135.63 17.048 135.496 17.0107 135.368 16.936C135.24 16.8507 135.139 16.7387 135.064 16.6L131.96 9.88C131.918 9.80533 131.896 9.72533 131.896 9.64C131.896 9.48 131.966 9.34133 132.104 9.224C132.254 9.10667 132.414 9.048 132.584 9.048C132.691 9.048 132.792 9.08 132.888 9.144C132.995 9.208 133.075 9.29867 133.128 9.416L135.8 15.416L138.472 9.448ZM144.118 9.016C146.07 9.016 147.046 10.04 147.046 12.088V16.44C147.046 16.632 146.988 16.7867 146.87 16.904C146.764 17.0213 146.614 17.08 146.422 17.08C146.23 17.08 146.076 17.0213 145.958 16.904C145.841 16.7867 145.782 16.632 145.782 16.44V15.672C145.58 16.1307 145.27 16.488 144.854 16.744C144.438 16.9893 143.958 17.112 143.414 17.112C142.913 17.112 142.449 17.0107 142.022 16.808C141.606 16.6053 141.276 16.3227 141.03 15.96C140.785 15.5973 140.662 15.1973 140.662 14.76C140.662 14.1733 140.812 13.72 141.11 13.4C141.409 13.0693 141.9 12.8347 142.582 12.696C143.265 12.5467 144.214 12.472 145.43 12.472H145.782V11.944C145.782 11.304 145.649 10.8347 145.382 10.536C145.126 10.2373 144.705 10.088 144.118 10.088C143.393 10.088 142.657 10.2853 141.91 10.68C141.622 10.8613 141.42 10.952 141.302 10.952C141.174 10.952 141.068 10.904 140.982 10.808C140.897 10.712 140.854 10.5893 140.854 10.44C140.854 10.2907 140.897 10.1627 140.982 10.056C141.078 9.93867 141.228 9.82133 141.43 9.704C141.804 9.49067 142.225 9.32533 142.694 9.208C143.174 9.08 143.649 9.016 144.118 9.016ZM143.59 16.088C144.23 16.088 144.753 15.8747 145.158 15.448C145.574 15.0107 145.782 14.4507 145.782 13.768V13.304H145.494C144.556 13.304 143.841 13.3467 143.35 13.432C142.86 13.5067 142.508 13.64 142.294 13.832C142.092 14.0133 141.99 14.2853 141.99 14.648C141.99 15.064 142.14 15.4107 142.438 15.688C142.748 15.9547 143.132 16.088 143.59 16.088ZM158.091 9.016C159.819 9.016 160.683 10.0453 160.683 12.104V16.44C160.683 16.6427 160.624 16.8027 160.507 16.92C160.389 17.0267 160.235 17.08 160.043 17.08C159.851 17.08 159.691 17.0267 159.563 16.92C159.445 16.8027 159.387 16.6427 159.387 16.44V12.136C159.387 11.4213 159.259 10.904 159.003 10.584C158.747 10.264 158.347 10.104 157.803 10.104C157.152 10.104 156.64 10.3227 156.267 10.76C155.893 11.1973 155.707 11.7893 155.707 12.536V16.44C155.707 16.6427 155.643 16.8027 155.515 16.92C155.397 17.0267 155.243 17.08 155.051 17.08C154.859 17.08 154.704 17.0267 154.587 16.92C154.469 16.8027 154.411 16.6427 154.411 16.44V12.136C154.411 11.4213 154.283 10.904 154.027 10.584C153.771 10.264 153.365 10.104 152.811 10.104C152.171 10.104 151.659 10.3227 151.275 10.76C150.901 11.1973 150.715 11.7893 150.715 12.536V16.44C150.715 16.6427 150.656 16.8027 150.539 16.92C150.421 17.0267 150.267 17.08 150.075 17.08C149.883 17.08 149.723 17.0267 149.595 16.92C149.477 16.8027 149.419 16.6427 149.419 16.44V9.688C149.419 9.496 149.477 9.34133 149.595 9.224C149.723 9.10667 149.883 9.048 150.075 9.048C150.256 9.048 150.405 9.10667 150.523 9.224C150.64 9.33067 150.699 9.48 150.699 9.672V10.44C150.933 9.98133 151.259 9.62933 151.675 9.384C152.091 9.13867 152.571 9.016 153.115 9.016C154.331 9.016 155.125 9.528 155.499 10.552C155.723 10.0827 156.064 9.70933 156.523 9.432C156.981 9.15467 157.504 9.016 158.091 9.016ZM168.964 9.048C169.166 9.048 169.321 9.10667 169.428 9.224C169.545 9.34133 169.604 9.496 169.604 9.688V16.456C169.604 16.6373 169.545 16.7867 169.428 16.904C169.321 17.0213 169.166 17.08 168.964 17.08C168.772 17.08 168.617 17.0267 168.5 16.92C168.393 16.8027 168.34 16.6533 168.34 16.472V15.672C168.094 16.1413 167.748 16.4987 167.3 16.744C166.862 16.9893 166.366 17.112 165.812 17.112C164.884 17.112 164.185 16.856 163.716 16.344C163.246 15.8213 163.012 15.0533 163.012 14.04V9.688C163.012 9.496 163.07 9.34133 163.188 9.224C163.305 9.10667 163.465 9.048 163.668 9.048C163.87 9.048 164.025 9.10667 164.132 9.224C164.249 9.34133 164.308 9.496 164.308 9.688V14.008C164.308 14.7013 164.446 15.2133 164.724 15.544C165.001 15.864 165.438 16.024 166.036 16.024C166.718 16.024 167.268 15.8053 167.684 15.368C168.1 14.92 168.308 14.3333 168.308 13.608V9.688C168.308 9.496 168.366 9.34133 168.484 9.224C168.601 9.10667 168.761 9.048 168.964 9.048ZM174.637 17.112C174.146 17.112 173.677 17.0533 173.229 16.936C172.791 16.8187 172.402 16.6533 172.061 16.44C171.869 16.312 171.73 16.1947 171.645 16.088C171.57 15.9707 171.533 15.832 171.533 15.672C171.533 15.5333 171.57 15.4213 171.645 15.336C171.73 15.24 171.837 15.192 171.965 15.192C172.093 15.192 172.279 15.272 172.525 15.432C172.845 15.624 173.159 15.7787 173.469 15.896C173.789 16.0027 174.183 16.056 174.653 16.056C175.229 16.056 175.677 15.9547 175.997 15.752C176.317 15.5493 176.477 15.256 176.477 14.872C176.477 14.6373 176.418 14.4507 176.301 14.312C176.183 14.1627 175.981 14.0347 175.693 13.928C175.405 13.8107 174.983 13.6933 174.429 13.576C173.49 13.3733 172.818 13.1013 172.413 12.76C172.007 12.4187 171.805 11.9547 171.805 11.368C171.805 10.9093 171.933 10.504 172.189 10.152C172.445 9.8 172.797 9.52267 173.245 9.32C173.703 9.11733 174.221 9.016 174.797 9.016C175.213 9.016 175.613 9.07467 175.997 9.192C176.391 9.29867 176.738 9.45333 177.037 9.656C177.399 9.912 177.581 10.1787 177.581 10.456C177.581 10.5947 177.538 10.712 177.453 10.808C177.367 10.904 177.266 10.952 177.149 10.952C177.021 10.952 176.829 10.8613 176.573 10.68C176.274 10.488 175.991 10.3387 175.725 10.232C175.458 10.1253 175.127 10.072 174.733 10.072C174.231 10.072 173.826 10.184 173.517 10.408C173.218 10.632 173.069 10.9307 173.069 11.304C173.069 11.5387 173.122 11.7307 173.229 11.88C173.346 12.0187 173.533 12.1467 173.789 12.264C174.055 12.3707 174.434 12.4773 174.924 12.584C175.65 12.744 176.21 12.92 176.605 13.112C177.01 13.304 177.298 13.5387 177.469 13.816C177.639 14.0933 177.725 14.4453 177.725 14.872C177.725 15.544 177.442 16.088 176.877 16.504C176.311 16.9093 175.565 17.112 174.637 17.112ZM187.009 9.016C188.961 9.016 189.937 10.04 189.937 12.088V16.44C189.937 16.632 189.878 16.7867 189.761 16.904C189.654 17.0213 189.505 17.08 189.313 17.08C189.121 17.08 188.966 17.0213 188.849 16.904C188.732 16.7867 188.673 16.632 188.673 16.44V15.672C188.47 16.1307 188.161 16.488 187.745 16.744C187.329 16.9893 186.849 17.112 186.305 17.112C185.804 17.112 185.34 17.0107 184.913 16.808C184.497 16.6053 184.166 16.3227 183.921 15.96C183.676 15.5973 183.553 15.1973 183.553 14.76C183.553 14.1733 183.702 13.72 184.001 13.4C184.3 13.0693 184.79 12.8347 185.473 12.696C186.156 12.5467 187.105 12.472 188.321 12.472H188.673V11.944C188.673 11.304 188.54 10.8347 188.273 10.536C188.017 10.2373 187.596 10.088 187.009 10.088C186.284 10.088 185.548 10.2853 184.801 10.68C184.513 10.8613 184.31 10.952 184.193 10.952C184.065 10.952 183.958 10.904 183.873 10.808C183.788 10.712 183.745 10.5893 183.745 10.44C183.745 10.2907 183.788 10.1627 183.873 10.056C183.969 9.93867 184.118 9.82133 184.321 9.704C184.694 9.49067 185.116 9.32533 185.585 9.208C186.065 9.08 186.54 9.016 187.009 9.016ZM186.481 16.088C187.121 16.088 187.644 15.8747 188.049 15.448C188.465 15.0107 188.673 14.4507 188.673 13.768V13.304H188.385C187.446 13.304 186.732 13.3467 186.241 13.432C185.75 13.5067 185.398 13.64 185.185 13.832C184.982 14.0133 184.881 14.2853 184.881 14.648C184.881 15.064 185.03 15.4107 185.329 15.688C185.638 15.9547 186.022 16.088 186.481 16.088ZM202.05 9.448C202.168 9.192 202.354 9.064 202.61 9.064C202.77 9.064 202.914 9.11733 203.042 9.224C203.17 9.33067 203.234 9.464 203.234 9.624C203.234 9.72 203.213 9.80533 203.17 9.88L200.05 16.6C199.986 16.7387 199.89 16.8507 199.762 16.936C199.634 17.0107 199.496 17.048 199.346 17.048C199.208 17.048 199.074 17.0107 198.946 16.936C198.818 16.8507 198.717 16.7387 198.642 16.6L195.538 9.88C195.496 9.80533 195.474 9.72533 195.474 9.64C195.474 9.48 195.544 9.34133 195.682 9.224C195.832 9.10667 195.992 9.048 196.162 9.048C196.269 9.048 196.37 9.08 196.466 9.144C196.573 9.208 196.653 9.29867 196.706 9.416L199.378 15.416L202.05 9.448ZM205.512 17.08C205.32 17.08 205.16 17.0267 205.032 16.92C204.915 16.8027 204.856 16.6427 204.856 16.44V9.688C204.856 9.48533 204.915 9.33067 205.032 9.224C205.16 9.10667 205.32 9.048 205.512 9.048C205.704 9.048 205.859 9.10667 205.976 9.224C206.094 9.33067 206.152 9.48533 206.152 9.688V16.44C206.152 16.6533 206.094 16.8133 205.976 16.92C205.859 17.0267 205.704 17.08 205.512 17.08ZM205.512 7.368C205.256 7.368 205.048 7.29333 204.888 7.144C204.728 6.99467 204.648 6.79733 204.648 6.552C204.648 6.31733 204.728 6.12533 204.888 5.976C205.048 5.82667 205.256 5.752 205.512 5.752C205.768 5.752 205.976 5.82667 206.136 5.976C206.296 6.12533 206.376 6.31733 206.376 6.552C206.376 6.79733 206.296 6.99467 206.136 7.144C205.976 7.29333 205.768 7.368 205.512 7.368ZM214.191 9.448C214.308 9.192 214.495 9.064 214.751 9.064C214.911 9.064 215.055 9.11733 215.183 9.224C215.311 9.33067 215.375 9.464 215.375 9.624C215.375 9.72 215.354 9.80533 215.311 9.88L212.191 16.6C212.127 16.7387 212.031 16.8507 211.903 16.936C211.775 17.0107 211.636 17.048 211.487 17.048C211.348 17.048 211.215 17.0107 211.087 16.936C210.959 16.8507 210.858 16.7387 210.783 16.6L207.679 9.88C207.636 9.80533 207.615 9.72533 207.615 9.64C207.615 9.48 207.684 9.34133 207.823 9.224C207.972 9.10667 208.132 9.048 208.303 9.048C208.41 9.048 208.511 9.08 208.607 9.144C208.714 9.208 208.794 9.29867 208.847 9.416L211.519 15.416L214.191 9.448ZM222.732 15.192C222.849 15.192 222.951 15.24 223.036 15.336C223.121 15.432 223.164 15.5547 223.164 15.704C223.164 15.9707 222.977 16.216 222.604 16.44C222.22 16.664 221.815 16.8347 221.388 16.952C220.961 17.0587 220.545 17.112 220.14 17.112C218.935 17.112 217.98 16.7547 217.276 16.04C216.583 15.3253 216.236 14.3387 216.236 13.08C216.236 12.28 216.391 11.576 216.7 10.968C217.009 10.3493 217.441 9.86933 217.996 9.528C218.561 9.18667 219.201 9.016 219.916 9.016C220.929 9.016 221.735 9.34667 222.332 10.008C222.929 10.6693 223.228 11.5653 223.228 12.696C223.228 12.9093 223.185 13.064 223.1 13.16C223.015 13.256 222.876 13.304 222.684 13.304H217.532C217.628 15.1387 218.497 16.056 220.14 16.056C220.556 16.056 220.913 16.0027 221.212 15.896C221.511 15.7787 221.831 15.624 222.172 15.432C222.449 15.272 222.636 15.192 222.732 15.192ZM219.932 10.024C219.249 10.024 218.7 10.2373 218.284 10.664C217.879 11.0907 217.639 11.6933 217.564 12.472H222.092C222.071 11.6827 221.873 11.08 221.5 10.664C221.127 10.2373 220.604 10.024 219.932 10.024ZM228.994 9.048C229.442 9.016 229.666 9.19733 229.666 9.592C229.666 9.76267 229.618 9.90133 229.522 10.008C229.426 10.104 229.26 10.1627 229.026 10.184L228.546 10.232C227.831 10.296 227.298 10.552 226.946 11C226.604 11.4373 226.434 11.9547 226.434 12.552V16.44C226.434 16.6533 226.375 16.8133 226.258 16.92C226.14 17.0267 225.986 17.08 225.794 17.08C225.602 17.08 225.442 17.0267 225.314 16.92C225.196 16.8027 225.138 16.6427 225.138 16.44V9.688C225.138 9.48533 225.202 9.33067 225.33 9.224C225.458 9.10667 225.612 9.048 225.794 9.048C225.964 9.048 226.108 9.10667 226.226 9.224C226.343 9.33067 226.402 9.48 226.402 9.672V10.568C226.626 10.0987 226.94 9.74133 227.346 9.496C227.762 9.25067 228.236 9.10667 228.77 9.064L228.994 9.048ZM234.634 9.048C235.082 9.016 235.306 9.19733 235.306 9.592C235.306 9.76267 235.258 9.90133 235.162 10.008C235.066 10.104 234.901 10.1627 234.666 10.184L234.186 10.232C233.471 10.296 232.938 10.552 232.586 11C232.245 11.4373 232.074 11.9547 232.074 12.552V16.44C232.074 16.6533 232.015 16.8133 231.898 16.92C231.781 17.0267 231.626 17.08 231.434 17.08C231.242 17.08 231.082 17.0267 230.954 16.92C230.837 16.8027 230.778 16.6427 230.778 16.44V9.688C230.778 9.48533 230.842 9.33067 230.97 9.224C231.098 9.10667 231.253 9.048 231.434 9.048C231.605 9.048 231.749 9.10667 231.866 9.224C231.983 9.33067 232.042 9.48 232.042 9.672V10.568C232.266 10.0987 232.581 9.74133 232.986 9.496C233.402 9.25067 233.877 9.10667 234.41 9.064L234.634 9.048ZM239.54 9.016C241.492 9.016 242.468 10.04 242.468 12.088V16.44C242.468 16.632 242.41 16.7867 242.292 16.904C242.186 17.0213 242.036 17.08 241.844 17.08C241.652 17.08 241.498 17.0213 241.38 16.904C241.263 16.7867 241.204 16.632 241.204 16.44V15.672C241.002 16.1307 240.692 16.488 240.276 16.744C239.86 16.9893 239.38 17.112 238.836 17.112C238.335 17.112 237.871 17.0107 237.444 16.808C237.028 16.6053 236.698 16.3227 236.452 15.96C236.207 15.5973 236.084 15.1973 236.084 14.76C236.084 14.1733 236.234 13.72 236.532 13.4C236.831 13.0693 237.322 12.8347 238.004 12.696C238.687 12.5467 239.636 12.472 240.852 12.472H241.204V11.944C241.204 11.304 241.071 10.8347 240.804 10.536C240.548 10.2373 240.127 10.088 239.54 10.088C238.815 10.088 238.079 10.2853 237.332 10.68C237.044 10.8613 236.842 10.952 236.724 10.952C236.596 10.952 236.49 10.904 236.404 10.808C236.319 10.712 236.276 10.5893 236.276 10.44C236.276 10.2907 236.319 10.1627 236.404 10.056C236.5 9.93867 236.65 9.82133 236.852 9.704C237.226 9.49067 237.647 9.32533 238.116 9.208C238.596 9.08 239.071 9.016 239.54 9.016ZM239.012 16.088C239.652 16.088 240.175 15.8747 240.58 15.448C240.996 15.0107 241.204 14.4507 241.204 13.768V13.304H240.916C239.978 13.304 239.263 13.3467 238.772 13.432C238.282 13.5067 237.93 13.64 237.716 13.832C237.514 14.0133 237.412 14.2853 237.412 14.648C237.412 15.064 237.562 15.4107 237.86 15.688C238.17 15.9547 238.554 16.088 239.012 16.088ZM249.622 17.08C249.43 17.08 249.27 17.0267 249.142 16.92C249.024 16.8027 248.966 16.6427 248.966 16.44V9.688C248.966 9.48533 249.024 9.33067 249.142 9.224C249.27 9.10667 249.43 9.048 249.622 9.048C249.814 9.048 249.968 9.10667 250.086 9.224C250.203 9.33067 250.262 9.48533 250.262 9.688V16.44C250.262 16.6533 250.203 16.8133 250.086 16.92C249.968 17.0267 249.814 17.08 249.622 17.08ZM249.622 7.368C249.366 7.368 249.158 7.29333 248.998 7.144C248.838 6.99467 248.758 6.79733 248.758 6.552C248.758 6.31733 248.838 6.12533 248.998 5.976C249.158 5.82667 249.366 5.752 249.622 5.752C249.878 5.752 250.086 5.82667 250.246 5.976C250.406 6.12533 250.486 6.31733 250.486 6.552C250.486 6.79733 250.406 6.99467 250.246 7.144C250.086 7.29333 249.878 7.368 249.622 7.368ZM256.604 9.016C257.287 9.016 257.89 9.18667 258.412 9.528C258.935 9.86933 259.34 10.3493 259.628 10.968C259.916 11.576 260.06 12.2853 260.06 13.096C260.06 13.9067 259.916 14.616 259.628 15.224C259.34 15.8213 258.935 16.2853 258.412 16.616C257.9 16.9467 257.298 17.112 256.604 17.112C255.996 17.112 255.463 16.9787 255.004 16.712C254.556 16.4453 254.215 16.0667 253.98 15.576V19.336C253.98 19.528 253.922 19.6773 253.804 19.784C253.698 19.9013 253.543 19.96 253.34 19.96C253.138 19.96 252.978 19.9013 252.86 19.784C252.743 19.6667 252.684 19.5173 252.684 19.336V9.688C252.684 9.496 252.743 9.34133 252.86 9.224C252.978 9.10667 253.138 9.048 253.34 9.048C253.543 9.048 253.698 9.10667 253.804 9.224C253.922 9.34133 253.98 9.496 253.98 9.688V10.552C254.215 10.0613 254.556 9.68267 255.004 9.416C255.463 9.14933 255.996 9.016 256.604 9.016ZM256.348 16.04C257.106 16.04 257.692 15.784 258.108 15.272C258.524 14.76 258.732 14.0347 258.732 13.096C258.732 12.1573 258.524 11.4267 258.108 10.904C257.692 10.3707 257.106 10.104 256.348 10.104C255.591 10.104 255.004 10.36 254.588 10.872C254.183 11.384 253.98 12.1147 253.98 13.064C253.98 14.0133 254.183 14.7493 254.588 15.272C255.004 15.784 255.591 16.04 256.348 16.04ZM264.621 17.112C264.13 17.112 263.661 17.0533 263.213 16.936C262.776 16.8187 262.386 16.6533 262.045 16.44C261.853 16.312 261.714 16.1947 261.629 16.088C261.554 15.9707 261.517 15.832 261.517 15.672C261.517 15.5333 261.554 15.4213 261.629 15.336C261.714 15.24 261.821 15.192 261.949 15.192C262.077 15.192 262.264 15.272 262.509 15.432C262.829 15.624 263.144 15.7787 263.453 15.896C263.773 16.0027 264.168 16.056 264.637 16.056C265.213 16.056 265.661 15.9547 265.981 15.752C266.301 15.5493 266.461 15.256 266.461 14.872C266.461 14.6373 266.402 14.4507 266.285 14.312C266.168 14.1627 265.965 14.0347 265.677 13.928C265.389 13.8107 264.968 13.6933 264.413 13.576C263.474 13.3733 262.802 13.1013 262.397 12.76C261.992 12.4187 261.789 11.9547 261.789 11.368C261.789 10.9093 261.917 10.504 262.173 10.152C262.429 9.8 262.781 9.52267 263.229 9.32C263.688 9.11733 264.205 9.016 264.781 9.016C265.197 9.016 265.597 9.07467 265.981 9.192C266.376 9.29867 266.722 9.45333 267.021 9.656C267.384 9.912 267.565 10.1787 267.565 10.456C267.565 10.5947 267.522 10.712 267.437 10.808C267.352 10.904 267.25 10.952 267.133 10.952C267.005 10.952 266.813 10.8613 266.557 10.68C266.258 10.488 265.976 10.3387 265.709 10.232C265.442 10.1253 265.112 10.072 264.717 10.072C264.216 10.072 263.81 10.184 263.501 10.408C263.202 10.632 263.053 10.9307 263.053 11.304C263.053 11.5387 263.106 11.7307 263.213 11.88C263.33 12.0187 263.517 12.1467 263.773 12.264C264.04 12.3707 264.418 12.4773 264.909 12.584C265.634 12.744 266.194 12.92 266.589 13.112C266.994 13.304 267.282 13.5387 267.453 13.816C267.624 14.0933 267.709 14.4453 267.709 14.872C267.709 15.544 267.426 16.088 266.861 16.504C266.296 16.9093 265.549 17.112 264.621 17.112ZM275.604 9.048C275.807 9.048 275.962 9.10667 276.068 9.224C276.186 9.34133 276.244 9.496 276.244 9.688V16.456C276.244 16.6373 276.186 16.7867 276.068 16.904C275.962 17.0213 275.807 17.08 275.604 17.08C275.412 17.08 275.258 17.0267 275.14 16.92C275.034 16.8027 274.98 16.6533 274.98 16.472V15.672C274.735 16.1413 274.388 16.4987 273.94 16.744C273.503 16.9893 273.007 17.112 272.452 17.112C271.524 17.112 270.826 16.856 270.356 16.344C269.887 15.8213 269.652 15.0533 269.652 14.04V9.688C269.652 9.496 269.711 9.34133 269.828 9.224C269.946 9.10667 270.106 9.048 270.308 9.048C270.511 9.048 270.666 9.10667 270.772 9.224C270.89 9.34133 270.948 9.496 270.948 9.688V14.008C270.948 14.7013 271.087 15.2133 271.364 15.544C271.642 15.864 272.079 16.024 272.676 16.024C273.359 16.024 273.908 15.8053 274.324 15.368C274.74 14.92 274.948 14.3333 274.948 13.608V9.688C274.948 9.496 275.007 9.34133 275.124 9.224C275.242 9.10667 275.402 9.048 275.604 9.048ZM287.325 9.016C289.053 9.016 289.917 10.0453 289.917 12.104V16.44C289.917 16.6427 289.858 16.8027 289.741 16.92C289.624 17.0267 289.469 17.08 289.277 17.08C289.085 17.08 288.925 17.0267 288.797 16.92C288.68 16.8027 288.621 16.6427 288.621 16.44V12.136C288.621 11.4213 288.493 10.904 288.237 10.584C287.981 10.264 287.581 10.104 287.037 10.104C286.386 10.104 285.874 10.3227 285.501 10.76C285.128 11.1973 284.941 11.7893 284.941 12.536V16.44C284.941 16.6427 284.877 16.8027 284.749 16.92C284.632 17.0267 284.477 17.08 284.285 17.08C284.093 17.08 283.938 17.0267 283.821 16.92C283.704 16.8027 283.645 16.6427 283.645 16.44V12.136C283.645 11.4213 283.517 10.904 283.261 10.584C283.005 10.264 282.6 10.104 282.045 10.104C281.405 10.104 280.893 10.3227 280.509 10.76C280.136 11.1973 279.949 11.7893 279.949 12.536V16.44C279.949 16.6427 279.89 16.8027 279.773 16.92C279.656 17.0267 279.501 17.08 279.309 17.08C279.117 17.08 278.957 17.0267 278.829 16.92C278.712 16.8027 278.653 16.6427 278.653 16.44V9.688C278.653 9.496 278.712 9.34133 278.829 9.224C278.957 9.10667 279.117 9.048 279.309 9.048C279.49 9.048 279.64 9.10667 279.757 9.224C279.874 9.33067 279.933 9.48 279.933 9.672V10.44C280.168 9.98133 280.493 9.62933 280.909 9.384C281.325 9.13867 281.805 9.016 282.349 9.016C283.565 9.016 284.36 9.528 284.733 10.552C284.957 10.0827 285.298 9.70933 285.757 9.432C286.216 9.15467 286.738 9.016 287.325 9.016ZM292.886 15.272C293.153 15.272 293.366 15.3787 293.526 15.592C293.697 15.7947 293.782 16.104 293.782 16.52C293.782 17.3627 293.51 18.072 292.966 18.648C292.859 18.7653 292.737 18.824 292.598 18.824C292.491 18.824 292.395 18.7813 292.31 18.696C292.225 18.6213 292.182 18.5307 292.182 18.424C292.182 18.3067 292.225 18.2053 292.31 18.12C292.587 17.832 292.763 17.4747 292.838 17.048C292.603 17.0267 292.406 16.9413 292.246 16.792C292.097 16.632 292.022 16.4293 292.022 16.184C292.022 15.9173 292.102 15.6987 292.262 15.528C292.433 15.3573 292.641 15.272 292.886 15.272ZM305.979 9.048C306.182 9.048 306.337 9.10667 306.443 9.224C306.561 9.34133 306.619 9.496 306.619 9.688V16.456C306.619 16.6373 306.561 16.7867 306.443 16.904C306.337 17.0213 306.182 17.08 305.979 17.08C305.787 17.08 305.633 17.0267 305.515 16.92C305.409 16.8027 305.355 16.6533 305.355 16.472V15.672C305.11 16.1413 304.763 16.4987 304.315 16.744C303.878 16.9893 303.382 17.112 302.827 17.112C301.899 17.112 301.201 16.856 300.731 16.344C300.262 15.8213 300.027 15.0533 300.027 14.04V9.688C300.027 9.496 300.086 9.34133 300.203 9.224C300.321 9.10667 300.481 9.048 300.683 9.048C300.886 9.048 301.041 9.10667 301.147 9.224C301.265 9.34133 301.323 9.496 301.323 9.688V14.008C301.323 14.7013 301.462 15.2133 301.739 15.544C302.017 15.864 302.454 16.024 303.051 16.024C303.734 16.024 304.283 15.8053 304.699 15.368C305.115 14.92 305.323 14.3333 305.323 13.608V9.688C305.323 9.496 305.382 9.34133 305.499 9.224C305.617 9.10667 305.777 9.048 305.979 9.048ZM312.628 16.056C313.001 16.088 313.188 16.2587 313.188 16.568C313.188 16.7493 313.119 16.888 312.98 16.984C312.852 17.0693 312.655 17.1013 312.388 17.08L311.956 17.048C311.103 16.984 310.473 16.728 310.068 16.28C309.663 15.832 309.46 15.1547 309.46 14.248V10.232H308.388C308.207 10.232 308.063 10.1893 307.956 10.104C307.86 10.008 307.812 9.88533 307.812 9.736C307.812 9.576 307.86 9.448 307.956 9.352C308.063 9.256 308.207 9.208 308.388 9.208H309.46V7.4C309.46 7.19733 309.519 7.04267 309.636 6.936C309.753 6.81867 309.913 6.76 310.116 6.76C310.308 6.76 310.463 6.81867 310.58 6.936C310.697 7.04267 310.756 7.19733 310.756 7.4V9.208H312.532C312.703 9.208 312.836 9.256 312.932 9.352C313.039 9.448 313.092 9.576 313.092 9.736C313.092 9.88533 313.039 10.008 312.932 10.104C312.836 10.1893 312.703 10.232 312.532 10.232H310.756V14.312C310.756 14.8987 310.873 15.3253 311.108 15.592C311.353 15.848 311.716 15.992 312.196 16.024L312.628 16.056ZM117.856 41.08C117.664 41.08 117.504 41.0267 117.376 40.92C117.259 40.8027 117.2 40.6427 117.2 40.44V33.688C117.2 33.4853 117.259 33.3307 117.376 33.224C117.504 33.1067 117.664 33.048 117.856 33.048C118.048 33.048 118.203 33.1067 118.32 33.224C118.437 33.3307 118.496 33.4853 118.496 33.688V40.44C118.496 40.6533 118.437 40.8133 118.32 40.92C118.203 41.0267 118.048 41.08 117.856 41.08ZM117.856 31.368C117.6 31.368 117.392 31.2933 117.232 31.144C117.072 30.9947 116.992 30.7973 116.992 30.552C116.992 30.3173 117.072 30.1253 117.232 29.976C117.392 29.8267 117.6 29.752 117.856 29.752C118.112 29.752 118.32 29.8267 118.48 29.976C118.64 30.1253 118.72 30.3173 118.72 30.552C118.72 30.7973 118.64 30.9947 118.48 31.144C118.32 31.2933 118.112 31.368 117.856 31.368ZM124.839 33.016C126.705 33.016 127.639 34.0453 127.639 36.104V40.44C127.639 40.6427 127.58 40.8027 127.463 40.92C127.356 41.0267 127.201 41.08 126.999 41.08C126.796 41.08 126.636 41.0267 126.519 40.92C126.401 40.8027 126.343 40.6427 126.343 40.44V36.184C126.343 35.4587 126.199 34.9307 125.911 34.6C125.633 34.2693 125.185 34.104 124.567 34.104C123.852 34.104 123.281 34.3227 122.855 34.76C122.428 35.1973 122.215 35.7893 122.215 36.536V40.44C122.215 40.6427 122.156 40.8027 122.039 40.92C121.932 41.0267 121.777 41.08 121.575 41.08C121.372 41.08 121.212 41.0267 121.095 40.92C120.977 40.8027 120.919 40.6427 120.919 40.44V33.688C120.919 33.496 120.977 33.3413 121.095 33.224C121.212 33.1067 121.372 33.048 121.575 33.048C121.767 33.048 121.916 33.1067 122.023 33.224C122.14 33.3413 122.199 33.4907 122.199 33.672V34.488C122.455 34.008 122.812 33.6453 123.271 33.4C123.729 33.144 124.252 33.016 124.839 33.016ZM133.613 40.056C133.986 40.088 134.173 40.2587 134.173 40.568C134.173 40.7493 134.103 40.888 133.965 40.984C133.837 41.0693 133.639 41.1013 133.373 41.08L132.941 41.048C132.087 40.984 131.458 40.728 131.053 40.28C130.647 39.832 130.445 39.1547 130.445 38.248V34.232H129.373C129.191 34.232 129.047 34.1893 128.941 34.104C128.845 34.008 128.796 33.8853 128.796 33.736C128.796 33.576 128.845 33.448 128.941 33.352C129.047 33.256 129.191 33.208 129.373 33.208H130.445V31.4C130.445 31.1973 130.503 31.0427 130.621 30.936C130.738 30.8187 130.898 30.76 131.101 30.76C131.293 30.76 131.447 30.8187 131.565 30.936C131.682 31.0427 131.741 31.1973 131.741 31.4V33.208H133.516C133.687 33.208 133.821 33.256 133.917 33.352C134.023 33.448 134.077 33.576 134.077 33.736C134.077 33.8853 134.023 34.008 133.917 34.104C133.821 34.1893 133.687 34.232 133.516 34.232H131.741V38.312C131.741 38.8987 131.858 39.3253 132.093 39.592C132.338 39.848 132.701 39.992 133.181 40.024L133.613 40.056ZM141.482 39.192C141.599 39.192 141.701 39.24 141.786 39.336C141.871 39.432 141.914 39.5547 141.914 39.704C141.914 39.9707 141.727 40.216 141.354 40.44C140.97 40.664 140.565 40.8347 140.138 40.952C139.711 41.0587 139.295 41.112 138.89 41.112C137.685 41.112 136.73 40.7547 136.026 40.04C135.333 39.3253 134.986 38.3387 134.986 37.08C134.986 36.28 135.141 35.576 135.45 34.968C135.759 34.3493 136.191 33.8693 136.746 33.528C137.311 33.1867 137.951 33.016 138.666 33.016C139.679 33.016 140.485 33.3467 141.082 34.008C141.679 34.6693 141.978 35.5653 141.978 36.696C141.978 36.9093 141.935 37.064 141.85 37.16C141.765 37.256 141.626 37.304 141.434 37.304H136.282C136.378 39.1387 137.247 40.056 138.89 40.056C139.306 40.056 139.663 40.0027 139.962 39.896C140.261 39.7787 140.581 39.624 140.922 39.432C141.199 39.272 141.386 39.192 141.482 39.192ZM138.682 34.024C137.999 34.024 137.45 34.2373 137.034 34.664C136.629 35.0907 136.389 35.6933 136.314 36.472H140.842C140.821 35.6827 140.623 35.08 140.25 34.664C139.877 34.2373 139.354 34.024 138.682 34.024ZM147.744 33.048C148.192 33.016 148.416 33.1973 148.416 33.592C148.416 33.7627 148.368 33.9013 148.272 34.008C148.176 34.104 148.01 34.1627 147.776 34.184L147.296 34.232C146.581 34.296 146.048 34.552 145.696 35C145.354 35.4373 145.184 35.9547 145.184 36.552V40.44C145.184 40.6533 145.125 40.8133 145.008 40.92C144.89 41.0267 144.736 41.08 144.544 41.08C144.352 41.08 144.192 41.0267 144.064 40.92C143.946 40.8027 143.888 40.6427 143.888 40.44V33.688C143.888 33.4853 143.952 33.3307 144.08 33.224C144.208 33.1067 144.362 33.048 144.544 33.048C144.714 33.048 144.858 33.1067 144.976 33.224C145.093 33.3307 145.152 33.48 145.152 33.672V34.568C145.376 34.0987 145.69 33.7413 146.096 33.496C146.512 33.2507 146.986 33.1067 147.52 33.064L147.744 33.048ZM155.628 29.64C155.831 29.64 155.991 29.6987 156.108 29.816C156.225 29.9333 156.284 30.0827 156.284 30.264V40.44C156.284 40.632 156.225 40.7867 156.108 40.904C155.991 41.0213 155.831 41.08 155.628 41.08C155.425 41.08 155.265 41.0213 155.148 40.904C155.041 40.7867 154.988 40.632 154.988 40.44V39.576C154.753 40.0667 154.407 40.4453 153.948 40.712C153.5 40.9787 152.972 41.112 152.364 41.112C151.681 41.112 151.079 40.9413 150.556 40.6C150.033 40.2587 149.628 39.784 149.34 39.176C149.052 38.5573 148.908 37.8427 148.908 37.032C148.908 36.232 149.052 35.528 149.34 34.92C149.628 34.312 150.033 33.8427 150.556 33.512C151.079 33.1813 151.681 33.016 152.364 33.016C152.972 33.016 153.5 33.1493 153.948 33.416C154.407 33.6827 154.753 34.0613 154.988 34.552V30.264C154.988 30.072 155.041 29.9227 155.148 29.816C155.265 29.6987 155.425 29.64 155.628 29.64ZM152.62 40.04C153.377 40.04 153.959 39.784 154.364 39.272C154.78 38.7493 154.988 38.0133 154.988 37.064C154.988 36.1147 154.78 35.384 154.364 34.872C153.959 34.36 153.377 34.104 152.62 34.104C151.863 34.104 151.271 34.36 150.844 34.872C150.428 35.384 150.22 36.104 150.22 37.032C150.22 37.9813 150.428 38.7227 150.844 39.256C151.271 39.7787 151.863 40.04 152.62 40.04ZM164.604 33.048C164.807 33.048 164.962 33.1067 165.068 33.224C165.186 33.3413 165.244 33.496 165.244 33.688V40.456C165.244 40.6373 165.186 40.7867 165.068 40.904C164.962 41.0213 164.807 41.08 164.604 41.08C164.412 41.08 164.258 41.0267 164.14 40.92C164.034 40.8027 163.98 40.6533 163.98 40.472V39.672C163.735 40.1413 163.388 40.4987 162.94 40.744C162.503 40.9893 162.007 41.112 161.452 41.112C160.524 41.112 159.826 40.856 159.356 40.344C158.887 39.8213 158.652 39.0533 158.652 38.04V33.688C158.652 33.496 158.711 33.3413 158.828 33.224C158.946 33.1067 159.106 33.048 159.308 33.048C159.511 33.048 159.666 33.1067 159.772 33.224C159.89 33.3413 159.948 33.496 159.948 33.688V38.008C159.948 38.7013 160.087 39.2133 160.364 39.544C160.642 39.864 161.079 40.024 161.676 40.024C162.359 40.024 162.908 39.8053 163.324 39.368C163.74 38.92 163.948 38.3333 163.948 37.608V33.688C163.948 33.496 164.007 33.3413 164.124 33.224C164.242 33.1067 164.402 33.048 164.604 33.048ZM176.325 33.016C178.053 33.016 178.917 34.0453 178.917 36.104V40.44C178.917 40.6427 178.858 40.8027 178.741 40.92C178.624 41.0267 178.469 41.08 178.277 41.08C178.085 41.08 177.925 41.0267 177.797 40.92C177.68 40.8027 177.621 40.6427 177.621 40.44V36.136C177.621 35.4213 177.493 34.904 177.237 34.584C176.981 34.264 176.581 34.104 176.037 34.104C175.386 34.104 174.874 34.3227 174.501 34.76C174.128 35.1973 173.941 35.7893 173.941 36.536V40.44C173.941 40.6427 173.877 40.8027 173.749 40.92C173.632 41.0267 173.477 41.08 173.285 41.08C173.093 41.08 172.938 41.0267 172.821 40.92C172.704 40.8027 172.645 40.6427 172.645 40.44V36.136C172.645 35.4213 172.517 34.904 172.261 34.584C172.005 34.264 171.6 34.104 171.045 34.104C170.405 34.104 169.893 34.3227 169.509 34.76C169.136 35.1973 168.949 35.7893 168.949 36.536V40.44C168.949 40.6427 168.89 40.8027 168.773 40.92C168.656 41.0267 168.501 41.08 168.309 41.08C168.117 41.08 167.957 41.0267 167.829 40.92C167.712 40.8027 167.653 40.6427 167.653 40.44V33.688C167.653 33.496 167.712 33.3413 167.829 33.224C167.957 33.1067 168.117 33.048 168.309 33.048C168.49 33.048 168.64 33.1067 168.757 33.224C168.874 33.3307 168.933 33.48 168.933 33.672V34.44C169.168 33.9813 169.493 33.6293 169.909 33.384C170.325 33.1387 170.805 33.016 171.349 33.016C172.565 33.016 173.36 33.528 173.733 34.552C173.957 34.0827 174.298 33.7093 174.757 33.432C175.216 33.1547 175.738 33.016 176.325 33.016ZM189.003 40.056C189.376 40.088 189.563 40.2587 189.563 40.568C189.563 40.7493 189.494 40.888 189.355 40.984C189.227 41.0693 189.03 41.1013 188.763 41.08L188.331 41.048C187.478 40.984 186.848 40.728 186.443 40.28C186.038 39.832 185.835 39.1547 185.835 38.248V34.232H184.763C184.582 34.232 184.438 34.1893 184.331 34.104C184.235 34.008 184.187 33.8853 184.187 33.736C184.187 33.576 184.235 33.448 184.331 33.352C184.438 33.256 184.582 33.208 184.763 33.208H185.835V31.4C185.835 31.1973 185.894 31.0427 186.011 30.936C186.128 30.8187 186.288 30.76 186.491 30.76C186.683 30.76 186.838 30.8187 186.955 30.936C187.072 31.0427 187.131 31.1973 187.131 31.4V33.208H188.907C189.078 33.208 189.211 33.256 189.307 33.352C189.414 33.448 189.467 33.576 189.467 33.736C189.467 33.8853 189.414 34.008 189.307 34.104C189.211 34.1893 189.078 34.232 188.907 34.232H187.131V38.312C187.131 38.8987 187.248 39.3253 187.483 39.592C187.728 39.848 188.091 39.992 188.571 40.024L189.003 40.056ZM196.873 39.192C196.99 39.192 197.091 39.24 197.177 39.336C197.262 39.432 197.305 39.5547 197.305 39.704C197.305 39.9707 197.118 40.216 196.745 40.44C196.361 40.664 195.955 40.8347 195.529 40.952C195.102 41.0587 194.686 41.112 194.281 41.112C193.075 41.112 192.121 40.7547 191.417 40.04C190.723 39.3253 190.377 38.3387 190.377 37.08C190.377 36.28 190.531 35.576 190.841 34.968C191.15 34.3493 191.582 33.8693 192.137 33.528C192.702 33.1867 193.342 33.016 194.057 33.016C195.07 33.016 195.875 33.3467 196.473 34.008C197.07 34.6693 197.369 35.5653 197.369 36.696C197.369 36.9093 197.326 37.064 197.241 37.16C197.155 37.256 197.017 37.304 196.825 37.304H191.673C191.769 39.1387 192.638 40.056 194.281 40.056C194.697 40.056 195.054 40.0027 195.353 39.896C195.651 39.7787 195.971 39.624 196.313 39.432C196.59 39.272 196.777 39.192 196.873 39.192ZM194.073 34.024C193.39 34.024 192.841 34.2373 192.425 34.664C192.019 35.0907 191.779 35.6933 191.705 36.472H196.233C196.211 35.6827 196.014 35.08 195.641 34.664C195.267 34.2373 194.745 34.024 194.073 34.024ZM199.934 41.08C199.742 41.08 199.582 41.0267 199.454 40.92C199.337 40.8027 199.278 40.6427 199.278 40.44V30.28C199.278 30.0773 199.337 29.9227 199.454 29.816C199.582 29.6987 199.742 29.64 199.934 29.64C200.115 29.64 200.265 29.6987 200.382 29.816C200.51 29.9227 200.574 30.0773 200.574 30.28V40.44C200.574 40.6427 200.51 40.8027 200.382 40.92C200.265 41.0267 200.115 41.08 199.934 41.08ZM203.653 41.08C203.461 41.08 203.301 41.0267 203.173 40.92C203.056 40.8027 202.997 40.6427 202.997 40.44V30.28C202.997 30.0773 203.056 29.9227 203.173 29.816C203.301 29.6987 203.461 29.64 203.653 29.64C203.834 29.64 203.984 29.6987 204.101 29.816C204.229 29.9227 204.293 30.0773 204.293 30.28V40.44C204.293 40.6427 204.229 40.8027 204.101 40.92C203.984 41.0267 203.834 41.08 203.653 41.08ZM212.636 33.048C212.838 33.048 212.993 33.1067 213.1 33.224C213.217 33.3413 213.276 33.496 213.276 33.688V40.456C213.276 40.6373 213.217 40.7867 213.1 40.904C212.993 41.0213 212.838 41.08 212.636 41.08C212.444 41.08 212.289 41.0267 212.172 40.92C212.065 40.8027 212.012 40.6533 212.012 40.472V39.672C211.766 40.1413 211.42 40.4987 210.972 40.744C210.534 40.9893 210.038 41.112 209.484 41.112C208.556 41.112 207.857 40.856 207.388 40.344C206.918 39.8213 206.684 39.0533 206.684 38.04V33.688C206.684 33.496 206.742 33.3413 206.86 33.224C206.977 33.1067 207.137 33.048 207.34 33.048C207.542 33.048 207.697 33.1067 207.804 33.224C207.921 33.3413 207.98 33.496 207.98 33.688V38.008C207.98 38.7013 208.118 39.2133 208.396 39.544C208.673 39.864 209.11 40.024 209.708 40.024C210.39 40.024 210.94 39.8053 211.356 39.368C211.772 38.92 211.98 38.3333 211.98 37.608V33.688C211.98 33.496 212.038 33.3413 212.156 33.224C212.273 33.1067 212.433 33.048 212.636 33.048ZM218.308 41.112C217.818 41.112 217.348 41.0533 216.9 40.936C216.463 40.8187 216.074 40.6533 215.732 40.44C215.54 40.312 215.402 40.1947 215.316 40.088C215.242 39.9707 215.204 39.832 215.204 39.672C215.204 39.5333 215.242 39.4213 215.316 39.336C215.402 39.24 215.508 39.192 215.636 39.192C215.764 39.192 215.951 39.272 216.196 39.432C216.516 39.624 216.831 39.7787 217.14 39.896C217.46 40.0027 217.855 40.056 218.324 40.056C218.9 40.056 219.348 39.9547 219.668 39.752C219.988 39.5493 220.148 39.256 220.148 38.872C220.148 38.6373 220.09 38.4507 219.972 38.312C219.855 38.1627 219.652 38.0347 219.364 37.928C219.076 37.8107 218.655 37.6933 218.1 37.576C217.162 37.3733 216.49 37.1013 216.084 36.76C215.679 36.4187 215.476 35.9547 215.476 35.368C215.476 34.9093 215.604 34.504 215.86 34.152C216.116 33.8 216.468 33.5227 216.916 33.32C217.375 33.1173 217.892 33.016 218.468 33.016C218.884 33.016 219.284 33.0747 219.668 33.192C220.063 33.2987 220.41 33.4533 220.708 33.656C221.071 33.912 221.252 34.1787 221.252 34.456C221.252 34.5947 221.21 34.712 221.124 34.808C221.039 34.904 220.938 34.952 220.82 34.952C220.692 34.952 220.5 34.8613 220.244 34.68C219.946 34.488 219.663 34.3387 219.396 34.232C219.13 34.1253 218.799 34.072 218.404 34.072C217.903 34.072 217.498 34.184 217.188 34.408C216.89 34.632 216.74 34.9307 216.74 35.304C216.74 35.5387 216.794 35.7307 216.9 35.88C217.018 36.0187 217.204 36.1467 217.46 36.264C217.727 36.3707 218.106 36.4773 218.596 36.584C219.322 36.744 219.882 36.92 220.276 37.112C220.682 37.304 220.97 37.5387 221.14 37.816C221.311 38.0933 221.396 38.4453 221.396 38.872C221.396 39.544 221.114 40.088 220.548 40.504C219.983 40.9093 219.236 41.112 218.308 41.112ZM223.934 41.08C223.678 41.08 223.464 41 223.294 40.84C223.123 40.6693 223.038 40.4507 223.038 40.184C223.038 39.9173 223.123 39.6987 223.294 39.528C223.464 39.3573 223.678 39.272 223.934 39.272C224.179 39.272 224.382 39.3573 224.542 39.528C224.712 39.6987 224.798 39.9173 224.798 40.184C224.798 40.4507 224.712 40.6693 224.542 40.84C224.382 41 224.179 41.08 223.934 41.08ZM231.939 41C231.736 41 231.571 40.9413 231.443 40.824C231.326 40.7067 231.267 40.552 231.267 40.36V30.36C231.267 30.168 231.326 30.0133 231.443 29.896C231.571 29.7787 231.736 29.72 231.939 29.72H235.059C236.862 29.72 238.254 30.2107 239.235 31.192C240.227 32.1627 240.723 33.5493 240.723 35.352C240.723 37.1547 240.227 38.5467 239.235 39.528C238.243 40.5093 236.851 41 235.059 41H231.939ZM234.979 39.88C237.902 39.88 239.363 38.3707 239.363 35.352C239.363 32.344 237.902 30.84 234.979 30.84H232.579V39.88H234.979ZM246.135 41.112C245.399 41.112 244.748 40.9467 244.183 40.616C243.628 40.2853 243.196 39.816 242.887 39.208C242.588 38.5893 242.439 37.8747 242.439 37.064C242.439 36.2533 242.588 35.544 242.887 34.936C243.196 34.3173 243.628 33.8427 244.183 33.512C244.748 33.1813 245.399 33.016 246.135 33.016C246.871 33.016 247.522 33.1813 248.087 33.512C248.652 33.8427 249.084 34.3173 249.383 34.936C249.692 35.544 249.847 36.2533 249.847 37.064C249.847 37.8747 249.692 38.5893 249.383 39.208C249.084 39.816 248.652 40.2853 248.087 40.616C247.522 40.9467 246.871 41.112 246.135 41.112ZM246.135 40.04C246.903 40.04 247.49 39.7893 247.895 39.288C248.311 38.776 248.519 38.0347 248.519 37.064C248.519 36.1147 248.311 35.384 247.895 34.872C247.479 34.3493 246.892 34.088 246.135 34.088C245.378 34.088 244.791 34.3493 244.375 34.872C243.959 35.384 243.751 36.1147 243.751 37.064C243.751 38.024 243.954 38.76 244.359 39.272C244.775 39.784 245.367 40.04 246.135 40.04ZM255.698 33.016C257.565 33.016 258.498 34.0453 258.498 36.104V40.44C258.498 40.6427 258.439 40.8027 258.322 40.92C258.215 41.0267 258.061 41.08 257.858 41.08C257.655 41.08 257.495 41.0267 257.378 40.92C257.261 40.8027 257.202 40.6427 257.202 40.44V36.184C257.202 35.4587 257.058 34.9307 256.77 34.6C256.493 34.2693 256.045 34.104 255.426 34.104C254.711 34.104 254.141 34.3227 253.714 34.76C253.287 35.1973 253.074 35.7893 253.074 36.536V40.44C253.074 40.6427 253.015 40.8027 252.898 40.92C252.791 41.0267 252.637 41.08 252.434 41.08C252.231 41.08 252.071 41.0267 251.954 40.92C251.837 40.8027 251.778 40.6427 251.778 40.44V33.688C251.778 33.496 251.837 33.3413 251.954 33.224C252.071 33.1067 252.231 33.048 252.434 33.048C252.626 33.048 252.775 33.1067 252.882 33.224C252.999 33.3413 253.058 33.4907 253.058 33.672V34.488C253.314 34.008 253.671 33.6453 254.13 33.4C254.589 33.144 255.111 33.016 255.698 33.016ZM266.904 39.192C267.021 39.192 267.123 39.24 267.208 39.336C267.293 39.432 267.336 39.5547 267.336 39.704C267.336 39.9707 267.149 40.216 266.776 40.44C266.392 40.664 265.987 40.8347 265.56 40.952C265.133 41.0587 264.717 41.112 264.312 41.112C263.107 41.112 262.152 40.7547 261.448 40.04C260.755 39.3253 260.408 38.3387 260.408 37.08C260.408 36.28 260.563 35.576 260.872 34.968C261.181 34.3493 261.613 33.8693 262.168 33.528C262.733 33.1867 263.373 33.016 264.088 33.016C265.101 33.016 265.907 33.3467 266.504 34.008C267.101 34.6693 267.4 35.5653 267.4 36.696C267.4 36.9093 267.357 37.064 267.272 37.16C267.187 37.256 267.048 37.304 266.856 37.304H261.704C261.8 39.1387 262.669 40.056 264.312 40.056C264.728 40.056 265.085 40.0027 265.384 39.896C265.683 39.7787 266.003 39.624 266.344 39.432C266.621 39.272 266.808 39.192 266.904 39.192ZM264.104 34.024C263.421 34.024 262.872 34.2373 262.456 34.664C262.051 35.0907 261.811 35.6933 261.736 36.472H266.264C266.243 35.6827 266.045 35.08 265.672 34.664C265.299 34.2373 264.776 34.024 264.104 34.024ZM272.525 41.112C271.8 41.112 271.155 40.9467 270.589 40.616C270.035 40.2853 269.603 39.816 269.293 39.208C268.995 38.6 268.845 37.896 268.845 37.096C268.845 36.296 269 35.5867 269.309 34.968C269.629 34.3493 270.072 33.8693 270.637 33.528C271.203 33.1867 271.853 33.016 272.589 33.016C272.995 33.016 273.395 33.0747 273.789 33.192C274.195 33.2987 274.547 33.4587 274.845 33.672C275.037 33.8 275.171 33.928 275.245 34.056C275.331 34.1733 275.373 34.3067 275.373 34.456C275.373 34.6053 275.331 34.728 275.245 34.824C275.171 34.92 275.069 34.968 274.941 34.968C274.867 34.968 274.787 34.9467 274.701 34.904C274.616 34.8613 274.541 34.8187 274.477 34.776C274.424 34.7333 274.387 34.7067 274.365 34.696C274.088 34.5147 273.821 34.3707 273.565 34.264C273.32 34.1573 273.016 34.104 272.653 34.104C271.875 34.104 271.267 34.3707 270.829 34.904C270.403 35.4267 270.189 36.1573 270.189 37.096C270.189 38.0347 270.403 38.76 270.829 39.272C271.267 39.784 271.875 40.04 272.653 40.04C273.016 40.04 273.325 39.9867 273.581 39.88C273.848 39.7733 274.115 39.6293 274.381 39.448C274.499 39.3733 274.611 39.3093 274.717 39.256C274.824 39.2027 274.915 39.176 274.989 39.176C275.107 39.176 275.203 39.224 275.277 39.32C275.363 39.416 275.405 39.5387 275.405 39.688C275.405 39.8267 275.368 39.9547 275.293 40.072C275.219 40.1787 275.08 40.3013 274.877 40.44C274.579 40.6427 274.216 40.808 273.789 40.936C273.373 41.0533 272.952 41.112 272.525 41.112ZM287.347 33.048C287.549 33.048 287.709 33.1067 287.827 33.224C287.944 33.3413 288.003 33.496 288.003 33.688V43.336C288.003 43.5173 287.944 43.6667 287.827 43.784C287.709 43.9013 287.549 43.96 287.347 43.96C287.144 43.96 286.984 43.9013 286.867 43.784C286.76 43.6773 286.707 43.528 286.707 43.336V39.576C286.472 40.0667 286.125 40.4453 285.667 40.712C285.219 40.9787 284.691 41.112 284.083 41.112C283.389 41.112 282.781 40.9467 282.259 40.616C281.747 40.2853 281.347 39.8213 281.059 39.224C280.771 38.616 280.627 37.9067 280.627 37.096C280.627 36.2853 280.771 35.576 281.059 34.968C281.347 34.3493 281.752 33.8693 282.275 33.528C282.797 33.1867 283.4 33.016 284.083 33.016C284.691 33.016 285.219 33.1493 285.667 33.416C286.125 33.6827 286.472 34.0613 286.707 34.552V33.688C286.707 33.496 286.76 33.3413 286.867 33.224C286.984 33.1067 287.144 33.048 287.347 33.048ZM284.339 40.04C285.096 40.04 285.677 39.784 286.083 39.272C286.499 38.7493 286.707 38.0133 286.707 37.064C286.707 36.1147 286.499 35.384 286.083 34.872C285.677 34.36 285.096 34.104 284.339 34.104C283.581 34.104 282.989 34.3707 282.563 34.904C282.147 35.4267 281.939 36.1573 281.939 37.096C281.939 38.0347 282.147 38.76 282.563 39.272C282.989 39.784 283.581 40.04 284.339 40.04ZM296.323 33.048C296.526 33.048 296.68 33.1067 296.787 33.224C296.904 33.3413 296.963 33.496 296.963 33.688V40.456C296.963 40.6373 296.904 40.7867 296.787 40.904C296.68 41.0213 296.526 41.08 296.323 41.08C296.131 41.08 295.976 41.0267 295.859 40.92C295.752 40.8027 295.699 40.6533 295.699 40.472V39.672C295.454 40.1413 295.107 40.4987 294.659 40.744C294.222 40.9893 293.726 41.112 293.171 41.112C292.243 41.112 291.544 40.856 291.075 40.344C290.606 39.8213 290.371 39.0533 290.371 38.04V33.688C290.371 33.496 290.43 33.3413 290.547 33.224C290.664 33.1067 290.824 33.048 291.027 33.048C291.23 33.048 291.384 33.1067 291.491 33.224C291.608 33.3413 291.667 33.496 291.667 33.688V38.008C291.667 38.7013 291.806 39.2133 292.083 39.544C292.36 39.864 292.798 40.024 293.395 40.024C294.078 40.024 294.627 39.8053 295.043 39.368C295.459 38.92 295.667 38.3333 295.667 37.608V33.688C295.667 33.496 295.726 33.3413 295.843 33.224C295.96 33.1067 296.12 33.048 296.323 33.048ZM300.028 41.08C299.836 41.08 299.676 41.0267 299.548 40.92C299.431 40.8027 299.372 40.6427 299.372 40.44V33.688C299.372 33.4853 299.431 33.3307 299.548 33.224C299.676 33.1067 299.836 33.048 300.028 33.048C300.22 33.048 300.375 33.1067 300.492 33.224C300.609 33.3307 300.668 33.4853 300.668 33.688V40.44C300.668 40.6533 300.609 40.8133 300.492 40.92C300.375 41.0267 300.22 41.08 300.028 41.08ZM300.028 31.368C299.772 31.368 299.564 31.2933 299.404 31.144C299.244 30.9947 299.164 30.7973 299.164 30.552C299.164 30.3173 299.244 30.1253 299.404 29.976C299.564 29.8267 299.772 29.752 300.028 29.752C300.284 29.752 300.492 29.8267 300.652 29.976C300.812 30.1253 300.892 30.3173 300.892 30.552C300.892 30.7973 300.812 30.9947 300.652 31.144C300.492 31.2933 300.284 31.368 300.028 31.368ZM305.715 41.112C305.224 41.112 304.755 41.0533 304.307 40.936C303.869 40.8187 303.48 40.6533 303.139 40.44C302.947 40.312 302.808 40.1947 302.723 40.088C302.648 39.9707 302.611 39.832 302.611 39.672C302.611 39.5333 302.648 39.4213 302.723 39.336C302.808 39.24 302.915 39.192 303.043 39.192C303.171 39.192 303.357 39.272 303.603 39.432C303.923 39.624 304.237 39.7787 304.547 39.896C304.867 40.0027 305.261 40.056 305.731 40.056C306.307 40.056 306.755 39.9547 307.075 39.752C307.395 39.5493 307.555 39.256 307.555 38.872C307.555 38.6373 307.496 38.4507 307.379 38.312C307.261 38.1627 307.059 38.0347 306.771 37.928C306.483 37.8107 306.061 37.6933 305.507 37.576C304.568 37.3733 303.896 37.1013 303.491 36.76C303.085 36.4187 302.883 35.9547 302.883 35.368C302.883 34.9093 303.011 34.504 303.267 34.152C303.523 33.8 303.875 33.5227 304.323 33.32C304.781 33.1173 305.299 33.016 305.875 33.016C306.291 33.016 306.691 33.0747 307.075 33.192C307.469 33.2987 307.816 33.4533 308.115 33.656C308.477 33.912 308.659 34.1787 308.659 34.456C308.659 34.5947 308.616 34.712 308.531 34.808C308.445 34.904 308.344 34.952 308.227 34.952C308.099 34.952 307.907 34.8613 307.651 34.68C307.352 34.488 307.069 34.3387 306.803 34.232C306.536 34.1253 306.205 34.072 305.811 34.072C305.309 34.072 304.904 34.184 304.595 34.408C304.296 34.632 304.147 34.9307 304.147 35.304C304.147 35.5387 304.2 35.7307 304.307 35.88C304.424 36.0187 304.611 36.1467 304.867 36.264C305.133 36.3707 305.512 36.4773 306.003 36.584C306.728 36.744 307.288 36.92 307.683 37.112C308.088 37.304 308.376 37.5387 308.547 37.816C308.717 38.0933 308.803 38.4453 308.803 38.872C308.803 39.544 308.52 40.088 307.955 40.504C307.389 40.9093 306.643 41.112 305.715 41.112ZM311.34 41.08C311.084 41.08 310.871 41 310.7 40.84C310.529 40.6693 310.444 40.4507 310.444 40.184C310.444 39.9173 310.529 39.6987 310.7 39.528C310.871 39.3573 311.084 39.272 311.34 39.272C311.585 39.272 311.788 39.3573 311.948 39.528C312.119 39.6987 312.204 39.9173 312.204 40.184C312.204 40.4507 312.119 40.6693 311.948 40.84C311.788 41 311.585 41.08 311.34 41.08ZM314.996 41.08C314.74 41.08 314.527 41 314.356 40.84C314.186 40.6693 314.1 40.4507 314.1 40.184C314.1 39.9173 314.186 39.6987 314.356 39.528C314.527 39.3573 314.74 39.272 314.996 39.272C315.242 39.272 315.444 39.3573 315.604 39.528C315.775 39.6987 315.86 39.9173 315.86 40.184C315.86 40.4507 315.775 40.6693 315.604 40.84C315.444 41 315.242 41.08 314.996 41.08ZM318.653 41.08C318.397 41.08 318.183 41 318.013 40.84C317.842 40.6693 317.757 40.4507 317.757 40.184C317.757 39.9173 317.842 39.6987 318.013 39.528C318.183 39.3573 318.397 39.272 318.653 39.272C318.898 39.272 319.101 39.3573 319.261 39.528C319.431 39.6987 319.517 39.9173 319.517 40.184C319.517 40.4507 319.431 40.6693 319.261 40.84C319.101 41 318.898 41.08 318.653 41.08Z" fill="#191F33"/>
<path d="M117.806 75C117.629 75 117.484 74.9487 117.372 74.846C117.269 74.7433 117.218 74.608 117.218 74.44V65.69C117.218 65.522 117.269 65.3867 117.372 65.284C117.484 65.1813 117.629 65.13 117.806 65.13H120.536C122.113 65.13 123.331 65.5593 124.19 66.418C125.058 67.2673 125.492 68.4807 125.492 70.058C125.492 71.6353 125.058 72.8533 124.19 73.712C123.322 74.5707 122.104 75 120.536 75H117.806ZM120.466 74.02C123.023 74.02 124.302 72.6993 124.302 70.058C124.302 67.426 123.023 66.11 120.466 66.11H118.366V74.02H120.466ZM132.678 73.418C132.78 73.418 132.869 73.46 132.944 73.544C133.018 73.628 133.056 73.7353 133.056 73.866C133.056 74.0993 132.892 74.314 132.566 74.51C132.23 74.706 131.875 74.8553 131.502 74.958C131.128 75.0513 130.764 75.098 130.41 75.098C129.355 75.098 128.52 74.7853 127.904 74.16C127.297 73.5347 126.994 72.6713 126.994 71.57C126.994 70.87 127.129 70.254 127.4 69.722C127.67 69.1807 128.048 68.7607 128.534 68.462C129.028 68.1633 129.588 68.014 130.214 68.014C131.1 68.014 131.805 68.3033 132.328 68.882C132.85 69.4607 133.112 70.2447 133.112 71.234C133.112 71.4207 133.074 71.556 133 71.64C132.925 71.724 132.804 71.766 132.636 71.766H128.128C128.212 73.3713 128.972 74.174 130.41 74.174C130.774 74.174 131.086 74.1273 131.348 74.034C131.609 73.9313 131.889 73.796 132.188 73.628C132.43 73.488 132.594 73.418 132.678 73.418ZM130.228 68.896C129.63 68.896 129.15 69.0827 128.786 69.456C128.431 69.8293 128.221 70.3567 128.156 71.038H132.118C132.099 70.3473 131.926 69.82 131.6 69.456C131.273 69.0827 130.816 68.896 130.228 68.896ZM137.596 75.098C136.962 75.098 136.397 74.9533 135.902 74.664C135.417 74.3747 135.039 73.964 134.768 73.432C134.507 72.9 134.376 72.284 134.376 71.584C134.376 70.884 134.512 70.2633 134.782 69.722C135.062 69.1807 135.45 68.7607 135.944 68.462C136.439 68.1633 137.008 68.014 137.652 68.014C138.007 68.014 138.357 68.0653 138.702 68.168C139.057 68.2613 139.365 68.4013 139.626 68.588C139.794 68.7 139.911 68.812 139.976 68.924C140.051 69.0267 140.088 69.1433 140.088 69.274C140.088 69.4047 140.051 69.512 139.976 69.596C139.911 69.68 139.822 69.722 139.71 69.722C139.645 69.722 139.575 69.7033 139.5 69.666C139.426 69.6287 139.36 69.5913 139.304 69.554C139.258 69.5167 139.225 69.4933 139.206 69.484C138.964 69.3253 138.73 69.1993 138.506 69.106C138.292 69.0127 138.026 68.966 137.708 68.966C137.027 68.966 136.495 69.1993 136.112 69.666C135.739 70.1233 135.552 70.7627 135.552 71.584C135.552 72.4053 135.739 73.04 136.112 73.488C136.495 73.936 137.027 74.16 137.708 74.16C138.026 74.16 138.296 74.1133 138.52 74.02C138.754 73.9267 138.987 73.8007 139.22 73.642C139.323 73.5767 139.421 73.5207 139.514 73.474C139.608 73.4273 139.687 73.404 139.752 73.404C139.855 73.404 139.939 73.446 140.004 73.53C140.079 73.614 140.116 73.7213 140.116 73.852C140.116 73.9733 140.084 74.0853 140.018 74.188C139.953 74.2813 139.832 74.3887 139.654 74.51C139.393 74.6873 139.076 74.832 138.702 74.944C138.338 75.0467 137.97 75.098 137.596 75.098ZM150.929 74.034C151.097 74.034 151.228 74.076 151.321 74.16C151.414 74.244 151.461 74.3607 151.461 74.51C151.461 74.6687 151.414 74.79 151.321 74.874C151.237 74.958 151.106 75 150.929 75H146.295C146.118 75 145.982 74.958 145.889 74.874C145.805 74.79 145.763 74.6687 145.763 74.51C145.763 74.3607 145.81 74.244 145.903 74.16C145.996 74.076 146.127 74.034 146.295 74.034H148.031V66.53L146.505 67.524C146.43 67.5707 146.356 67.594 146.281 67.594C146.15 67.594 146.034 67.5333 145.931 67.412C145.838 67.2907 145.791 67.16 145.791 67.02C145.791 66.824 145.866 66.684 146.015 66.6L148.143 65.214C148.302 65.1113 148.465 65.06 148.633 65.06C148.792 65.06 148.922 65.1113 149.025 65.214C149.128 65.3167 149.179 65.4613 149.179 65.648V74.034H150.929ZM157.014 68.812C157.639 68.812 158.185 68.9427 158.652 69.204C159.128 69.4653 159.492 69.834 159.744 70.31C160.005 70.7767 160.136 71.318 160.136 71.934C160.136 72.55 159.996 73.1007 159.716 73.586C159.436 74.062 159.044 74.4353 158.54 74.706C158.045 74.9673 157.471 75.098 156.818 75.098C156.239 75.098 155.674 74.9953 155.124 74.79C154.573 74.5847 154.106 74.3047 153.724 73.95C153.574 73.81 153.5 73.6513 153.5 73.474C153.5 73.334 153.537 73.2173 153.612 73.124C153.686 73.0307 153.775 72.984 153.878 72.984C154.008 72.984 154.139 73.0353 154.27 73.138C154.68 73.474 155.091 73.726 155.502 73.894C155.912 74.0527 156.342 74.132 156.79 74.132C157.48 74.132 158.022 73.936 158.414 73.544C158.806 73.152 159.002 72.62 159.002 71.948C159.002 71.2947 158.806 70.7673 158.414 70.366C158.022 69.9647 157.494 69.764 156.832 69.764C155.982 69.764 155.292 70.0907 154.76 70.744C154.629 70.884 154.47 70.954 154.284 70.954C154.153 70.954 154.041 70.9167 153.948 70.842C153.864 70.758 153.822 70.646 153.822 70.506V65.676C153.822 65.5173 153.868 65.3867 153.962 65.284C154.064 65.1813 154.204 65.13 154.382 65.13H159.31C159.478 65.13 159.608 65.172 159.702 65.256C159.804 65.34 159.856 65.4567 159.856 65.606C159.856 65.7553 159.804 65.872 159.702 65.956C159.608 66.04 159.478 66.082 159.31 66.082H154.956V69.596C155.217 69.344 155.52 69.1527 155.866 69.022C156.22 68.882 156.603 68.812 157.014 68.812ZM162.412 73.488C162.645 73.488 162.832 73.5813 162.972 73.768C163.121 73.9453 163.196 74.216 163.196 74.58C163.196 75.3173 162.958 75.938 162.482 76.442C162.389 76.5447 162.281 76.596 162.16 76.596C162.067 76.596 161.983 76.5587 161.908 76.484C161.833 76.4187 161.796 76.3393 161.796 76.246C161.796 76.1433 161.833 76.0547 161.908 75.98C162.151 75.728 162.305 75.4153 162.37 75.042C162.165 75.0233 161.992 74.9487 161.852 74.818C161.721 74.678 161.656 74.5007 161.656 74.286C161.656 74.0527 161.726 73.8613 161.866 73.712C162.015 73.5627 162.197 73.488 162.412 73.488ZM174.751 74.034C174.919 74.034 175.049 74.076 175.143 74.16C175.236 74.244 175.283 74.3607 175.283 74.51C175.283 74.8367 175.105 75 174.751 75H169.263C169.104 75 168.973 74.9533 168.871 74.86C168.768 74.7573 168.717 74.636 168.717 74.496C168.717 74.3187 168.782 74.1647 168.913 74.034L172.287 70.324C172.753 69.8013 173.089 69.3347 173.295 68.924C173.509 68.504 173.617 68.084 173.617 67.664C173.617 67.1227 173.458 66.7073 173.141 66.418C172.833 66.1287 172.394 65.984 171.825 65.984C171.377 65.984 170.947 66.068 170.537 66.236C170.126 66.3947 169.715 66.642 169.305 66.978C169.165 67.09 169.034 67.146 168.913 67.146C168.81 67.146 168.721 67.0993 168.647 67.006C168.572 66.9033 168.535 66.782 168.535 66.642C168.535 66.446 168.609 66.2873 168.759 66.166C169.141 65.8113 169.608 65.5313 170.159 65.326C170.709 65.1207 171.274 65.018 171.853 65.018C172.739 65.018 173.444 65.2513 173.967 65.718C174.499 66.1847 174.765 66.8147 174.765 67.608C174.765 68.1773 174.634 68.7233 174.373 69.246C174.121 69.7687 173.701 70.352 173.113 70.996L170.313 74.034H174.751ZM180.233 75.112C179.104 75.112 178.245 74.6827 177.657 73.824C177.069 72.9653 176.775 71.7147 176.775 70.072C176.775 68.42 177.069 67.1647 177.657 66.306C178.245 65.4473 179.104 65.018 180.233 65.018C181.363 65.018 182.221 65.4473 182.809 66.306C183.397 67.1553 183.691 68.406 183.691 70.058C183.691 71.71 183.397 72.9653 182.809 73.824C182.221 74.6827 181.363 75.112 180.233 75.112ZM180.233 74.146C181.017 74.146 181.596 73.8147 181.969 73.152C182.343 72.4893 182.529 71.458 182.529 70.058C182.529 68.6487 182.343 67.6173 181.969 66.964C181.605 66.3107 181.027 65.984 180.233 65.984C179.449 65.984 178.871 66.3153 178.497 66.978C178.124 67.6313 177.937 68.658 177.937 70.058C177.937 71.458 178.124 72.4893 178.497 73.152C178.871 73.8147 179.449 74.146 180.233 74.146ZM191.54 74.034C191.708 74.034 191.838 74.076 191.932 74.16C192.025 74.244 192.072 74.3607 192.072 74.51C192.072 74.8367 191.894 75 191.54 75H186.052C185.893 75 185.762 74.9533 185.66 74.86C185.557 74.7573 185.506 74.636 185.506 74.496C185.506 74.3187 185.571 74.1647 185.702 74.034L189.076 70.324C189.542 69.8013 189.878 69.3347 190.084 68.924C190.298 68.504 190.406 68.084 190.406 67.664C190.406 67.1227 190.247 66.7073 189.93 66.418C189.622 66.1287 189.183 65.984 188.614 65.984C188.166 65.984 187.736 66.068 187.326 66.236C186.915 66.3947 186.504 66.642 186.094 66.978C185.954 67.09 185.823 67.146 185.702 67.146C185.599 67.146 185.51 67.0993 185.436 67.006C185.361 66.9033 185.324 66.782 185.324 66.642C185.324 66.446 185.398 66.2873 185.548 66.166C185.93 65.8113 186.397 65.5313 186.948 65.326C187.498 65.1207 188.063 65.018 188.642 65.018C189.528 65.018 190.233 65.2513 190.756 65.718C191.288 66.1847 191.554 66.8147 191.554 67.608C191.554 68.1773 191.423 68.7233 191.162 69.246C190.91 69.7687 190.49 70.352 189.902 70.996L187.102 74.034H191.54ZM199.71 74.034C199.878 74.034 200.009 74.076 200.102 74.16C200.196 74.244 200.242 74.3607 200.242 74.51C200.242 74.6687 200.196 74.79 200.102 74.874C200.018 74.958 199.888 75 199.71 75H195.076C194.899 75 194.764 74.958 194.67 74.874C194.586 74.79 194.544 74.6687 194.544 74.51C194.544 74.3607 194.591 74.244 194.684 74.16C194.778 74.076 194.908 74.034 195.076 74.034H196.812V66.53L195.286 67.524C195.212 67.5707 195.137 67.594 195.062 67.594C194.932 67.594 194.815 67.5333 194.712 67.412C194.619 67.2907 194.572 67.16 194.572 67.02C194.572 66.824 194.647 66.684 194.796 66.6L196.924 65.214C197.083 65.1113 197.246 65.06 197.414 65.06C197.573 65.06 197.704 65.1113 197.806 65.214C197.909 65.3167 197.96 65.4613 197.96 65.648V74.034H199.71Z" fill="#767E94"/>
<path d="M213.668 73.768C213.22 73.768 212.8 73.6607 212.408 73.446C212.016 73.222 211.703 72.9233 211.47 72.55C211.246 72.1673 211.134 71.7473 211.134 71.29C211.134 70.8607 211.241 70.4547 211.456 70.072C211.68 69.6893 211.983 69.3813 212.366 69.148C212.758 68.9147 213.192 68.798 213.668 68.798C214.116 68.798 214.531 68.91 214.914 69.134C215.306 69.3487 215.619 69.6473 215.852 70.03C216.085 70.4033 216.202 70.8233 216.202 71.29C216.202 71.738 216.085 72.1533 215.852 72.536C215.628 72.9093 215.32 73.208 214.928 73.432C214.545 73.656 214.125 73.768 213.668 73.768Z" fill="#767E94"/>
<path d="M233.462 71.906C233.63 71.906 233.761 71.9527 233.854 72.046C233.947 72.13 233.994 72.242 233.994 72.382C233.994 72.6993 233.817 72.858 233.462 72.858H232.412V74.482C232.412 74.6687 232.356 74.8133 232.244 74.916C232.141 75.0187 232.006 75.07 231.838 75.07C231.67 75.07 231.535 75.0187 231.432 74.916C231.329 74.8133 231.278 74.6687 231.278 74.482V72.858H227.134C226.966 72.858 226.835 72.8113 226.742 72.718C226.649 72.6247 226.602 72.508 226.602 72.368C226.602 72.2373 226.653 72.0927 226.756 71.934L231.334 65.312C231.465 65.144 231.633 65.06 231.838 65.06C231.997 65.06 232.132 65.1113 232.244 65.214C232.356 65.3167 232.412 65.4613 232.412 65.648V71.906H233.462ZM227.904 71.906H231.278V67.048L227.904 71.906ZM241.437 65.13C241.605 65.13 241.731 65.1767 241.815 65.27C241.908 65.354 241.955 65.466 241.955 65.606C241.955 65.7367 241.913 65.8813 241.829 66.04L237.181 74.79C237.069 74.9953 236.905 75.098 236.691 75.098C236.541 75.098 236.406 75.0467 236.285 74.944C236.173 74.8413 236.117 74.7153 236.117 74.566C236.117 74.4633 236.149 74.3607 236.215 74.258L240.583 66.096H235.753C235.585 66.096 235.454 66.054 235.361 65.97C235.277 65.886 235.235 65.7693 235.235 65.62C235.235 65.4613 235.277 65.34 235.361 65.256C235.454 65.172 235.585 65.13 235.753 65.13H241.437ZM251.802 75.112C250.869 75.112 250.062 74.9113 249.38 74.51C248.699 74.0993 248.172 73.516 247.798 72.76C247.434 71.9947 247.252 71.094 247.252 70.058C247.252 69.0313 247.434 68.14 247.798 67.384C248.172 66.6187 248.699 66.0353 249.38 65.634C250.062 65.2233 250.869 65.018 251.802 65.018C252.428 65.018 253.016 65.1207 253.566 65.326C254.126 65.522 254.612 65.8067 255.022 66.18C255.172 66.32 255.246 66.4833 255.246 66.67C255.246 66.8007 255.209 66.9173 255.134 67.02C255.06 67.1133 254.971 67.16 254.868 67.16C254.756 67.16 254.621 67.1087 254.462 67.006C253.986 66.6327 253.552 66.3713 253.16 66.222C252.778 66.0727 252.334 65.998 251.83 65.998C250.748 65.998 249.912 66.3527 249.324 67.062C248.746 67.762 248.456 68.7607 248.456 70.058C248.456 71.3647 248.746 72.3727 249.324 73.082C249.912 73.782 250.748 74.132 251.83 74.132C252.325 74.132 252.768 74.0573 253.16 73.908C253.552 73.7587 253.986 73.4973 254.462 73.124C254.621 73.0213 254.756 72.97 254.868 72.97C254.971 72.97 255.06 73.0167 255.134 73.11C255.209 73.2033 255.246 73.32 255.246 73.46C255.246 73.6467 255.172 73.81 255.022 73.95C254.612 74.3233 254.126 74.6127 253.566 74.818C253.016 75.014 252.428 75.112 251.802 75.112ZM259.614 75.098C258.97 75.098 258.401 74.9533 257.906 74.664C257.421 74.3747 257.043 73.964 256.772 73.432C256.511 72.8907 256.38 72.2653 256.38 71.556C256.38 70.8467 256.511 70.226 256.772 69.694C257.043 69.1527 257.421 68.7373 257.906 68.448C258.401 68.1587 258.97 68.014 259.614 68.014C260.258 68.014 260.828 68.1587 261.322 68.448C261.817 68.7373 262.195 69.1527 262.456 69.694C262.727 70.226 262.862 70.8467 262.862 71.556C262.862 72.2653 262.727 72.8907 262.456 73.432C262.195 73.964 261.817 74.3747 261.322 74.664C260.828 74.9533 260.258 75.098 259.614 75.098ZM259.614 74.16C260.286 74.16 260.8 73.9407 261.154 73.502C261.518 73.054 261.7 72.4053 261.7 71.556C261.7 70.7253 261.518 70.086 261.154 69.638C260.79 69.1807 260.277 68.952 259.614 68.952C258.952 68.952 258.438 69.1807 258.074 69.638C257.71 70.086 257.528 70.7253 257.528 71.556C257.528 72.396 257.706 73.04 258.06 73.488C258.424 73.936 258.942 74.16 259.614 74.16ZM272.14 68.014C273.652 68.014 274.408 68.9147 274.408 70.716V74.51C274.408 74.6873 274.357 74.8273 274.254 74.93C274.151 75.0233 274.016 75.07 273.848 75.07C273.68 75.07 273.54 75.0233 273.428 74.93C273.325 74.8273 273.274 74.6873 273.274 74.51V70.744C273.274 70.1187 273.162 69.666 272.938 69.386C272.714 69.106 272.364 68.966 271.888 68.966C271.319 68.966 270.871 69.1573 270.544 69.54C270.217 69.9227 270.054 70.4407 270.054 71.094V74.51C270.054 74.6873 269.998 74.8273 269.886 74.93C269.783 75.0233 269.648 75.07 269.48 75.07C269.312 75.07 269.177 75.0233 269.074 74.93C268.971 74.8273 268.92 74.6873 268.92 74.51V70.744C268.92 70.1187 268.808 69.666 268.584 69.386C268.36 69.106 268.005 68.966 267.52 68.966C266.96 68.966 266.512 69.1573 266.176 69.54C265.849 69.9227 265.686 70.4407 265.686 71.094V74.51C265.686 74.6873 265.635 74.8273 265.532 74.93C265.429 75.0233 265.294 75.07 265.126 75.07C264.958 75.07 264.818 75.0233 264.706 74.93C264.603 74.8273 264.552 74.6873 264.552 74.51V68.602C264.552 68.434 264.603 68.2987 264.706 68.196C264.818 68.0933 264.958 68.042 265.126 68.042C265.285 68.042 265.415 68.0933 265.518 68.196C265.621 68.2893 265.672 68.42 265.672 68.588V69.26C265.877 68.8587 266.162 68.5507 266.526 68.336C266.89 68.1213 267.31 68.014 267.786 68.014C268.85 68.014 269.545 68.462 269.872 69.358C270.068 68.9473 270.367 68.6207 270.768 68.378C271.169 68.1353 271.627 68.014 272.14 68.014ZM284.062 68.014C285.574 68.014 286.33 68.9147 286.33 70.716V74.51C286.33 74.6873 286.278 74.8273 286.176 74.93C286.073 75.0233 285.938 75.07 285.77 75.07C285.602 75.07 285.462 75.0233 285.35 74.93C285.247 74.8273 285.196 74.6873 285.196 74.51V70.744C285.196 70.1187 285.084 69.666 284.86 69.386C284.636 69.106 284.286 68.966 283.81 68.966C283.24 68.966 282.792 69.1573 282.466 69.54C282.139 69.9227 281.976 70.4407 281.976 71.094V74.51C281.976 74.6873 281.92 74.8273 281.808 74.93C281.705 75.0233 281.57 75.07 281.402 75.07C281.234 75.07 281.098 75.0233 280.996 74.93C280.893 74.8273 280.842 74.6873 280.842 74.51V70.744C280.842 70.1187 280.73 69.666 280.506 69.386C280.282 69.106 279.927 68.966 279.442 68.966C278.882 68.966 278.434 69.1573 278.098 69.54C277.771 69.9227 277.608 70.4407 277.608 71.094V74.51C277.608 74.6873 277.556 74.8273 277.454 74.93C277.351 75.0233 277.216 75.07 277.048 75.07C276.88 75.07 276.74 75.0233 276.628 74.93C276.525 74.8273 276.474 74.6873 276.474 74.51V68.602C276.474 68.434 276.525 68.2987 276.628 68.196C276.74 68.0933 276.88 68.042 277.048 68.042C277.206 68.042 277.337 68.0933 277.44 68.196C277.542 68.2893 277.594 68.42 277.594 68.588V69.26C277.799 68.8587 278.084 68.5507 278.448 68.336C278.812 68.1213 279.232 68.014 279.708 68.014C280.772 68.014 281.467 68.462 281.794 69.358C281.99 68.9473 282.288 68.6207 282.69 68.378C283.091 68.1353 283.548 68.014 284.062 68.014ZM293.674 73.418C293.776 73.418 293.865 73.46 293.94 73.544C294.014 73.628 294.052 73.7353 294.052 73.866C294.052 74.0993 293.888 74.314 293.562 74.51C293.226 74.706 292.871 74.8553 292.498 74.958C292.124 75.0513 291.76 75.098 291.406 75.098C290.351 75.098 289.516 74.7853 288.9 74.16C288.293 73.5347 287.99 72.6713 287.99 71.57C287.99 70.87 288.125 70.254 288.396 69.722C288.666 69.1807 289.044 68.7607 289.53 68.462C290.024 68.1633 290.584 68.014 291.21 68.014C292.096 68.014 292.801 68.3033 293.324 68.882C293.846 69.4607 294.108 70.2447 294.108 71.234C294.108 71.4207 294.07 71.556 293.996 71.64C293.921 71.724 293.8 71.766 293.632 71.766H289.124C289.208 73.3713 289.968 74.174 291.406 74.174C291.77 74.174 292.082 74.1273 292.344 74.034C292.605 73.9313 292.885 73.796 293.184 73.628C293.426 73.488 293.59 73.418 293.674 73.418ZM291.224 68.896C290.626 68.896 290.146 69.0827 289.782 69.456C289.427 69.8293 289.217 70.3567 289.152 71.038H293.114C293.095 70.3473 292.922 69.82 292.596 69.456C292.269 69.0827 291.812 68.896 291.224 68.896ZM299.209 68.014C300.842 68.014 301.659 68.9147 301.659 70.716V74.51C301.659 74.6873 301.607 74.8273 301.505 74.93C301.411 75.0233 301.276 75.07 301.099 75.07C300.921 75.07 300.781 75.0233 300.679 74.93C300.576 74.8273 300.525 74.6873 300.525 74.51V70.786C300.525 70.1513 300.399 69.6893 300.147 69.4C299.904 69.1107 299.512 68.966 298.971 68.966C298.345 68.966 297.846 69.1573 297.473 69.54C297.099 69.9227 296.913 70.4407 296.913 71.094V74.51C296.913 74.6873 296.861 74.8273 296.759 74.93C296.665 75.0233 296.53 75.07 296.353 75.07C296.175 75.07 296.035 75.0233 295.933 74.93C295.83 74.8273 295.779 74.6873 295.779 74.51V68.602C295.779 68.434 295.83 68.2987 295.933 68.196C296.035 68.0933 296.175 68.042 296.353 68.042C296.521 68.042 296.651 68.0933 296.745 68.196C296.847 68.2987 296.899 68.4293 296.899 68.588V69.302C297.123 68.882 297.435 68.5647 297.837 68.35C298.238 68.126 298.695 68.014 299.209 68.014ZM306.886 74.174C307.212 74.202 307.376 74.3513 307.376 74.622C307.376 74.7807 307.315 74.902 307.194 74.986C307.082 75.0607 306.909 75.0887 306.676 75.07L306.298 75.042C305.551 74.986 305 74.762 304.646 74.37C304.291 73.978 304.114 73.3853 304.114 72.592V69.078H303.176C303.017 69.078 302.891 69.0407 302.798 68.966C302.714 68.882 302.672 68.7747 302.672 68.644C302.672 68.504 302.714 68.392 302.798 68.308C302.891 68.224 303.017 68.182 303.176 68.182H304.114V66.6C304.114 66.4227 304.165 66.2873 304.268 66.194C304.37 66.0913 304.51 66.04 304.688 66.04C304.856 66.04 304.991 66.0913 305.094 66.194C305.196 66.2873 305.248 66.4227 305.248 66.6V68.182H306.802C306.951 68.182 307.068 68.224 307.152 68.308C307.245 68.392 307.292 68.504 307.292 68.644C307.292 68.7747 307.245 68.882 307.152 68.966C307.068 69.0407 306.951 69.078 306.802 69.078H305.248V72.648C305.248 73.1613 305.35 73.5347 305.556 73.768C305.77 73.992 306.088 74.118 306.508 74.146L306.886 74.174ZM310.789 75.098C310.36 75.098 309.949 75.0467 309.557 74.944C309.175 74.8413 308.834 74.6967 308.535 74.51C308.367 74.398 308.246 74.2953 308.171 74.202C308.106 74.0993 308.073 73.978 308.073 73.838C308.073 73.7167 308.106 73.6187 308.171 73.544C308.246 73.46 308.339 73.418 308.451 73.418C308.563 73.418 308.727 73.488 308.941 73.628C309.221 73.796 309.497 73.9313 309.767 74.034C310.047 74.1273 310.393 74.174 310.803 74.174C311.307 74.174 311.699 74.0853 311.979 73.908C312.259 73.7307 312.399 73.474 312.399 73.138C312.399 72.9327 312.348 72.7693 312.245 72.648C312.143 72.5173 311.965 72.4053 311.713 72.312C311.461 72.2093 311.093 72.1067 310.607 72.004C309.786 71.8267 309.198 71.5887 308.843 71.29C308.489 70.9913 308.311 70.5853 308.311 70.072C308.311 69.6707 308.423 69.316 308.647 69.008C308.871 68.7 309.179 68.4573 309.571 68.28C309.973 68.1027 310.425 68.014 310.929 68.014C311.293 68.014 311.643 68.0653 311.979 68.168C312.325 68.2613 312.628 68.3967 312.889 68.574C313.207 68.798 313.365 69.0313 313.365 69.274C313.365 69.3953 313.328 69.498 313.253 69.582C313.179 69.666 313.09 69.708 312.987 69.708C312.875 69.708 312.707 69.6287 312.483 69.47C312.222 69.302 311.975 69.1713 311.741 69.078C311.508 68.9847 311.219 68.938 310.873 68.938C310.435 68.938 310.08 69.036 309.809 69.232C309.548 69.428 309.417 69.6893 309.417 70.016C309.417 70.2213 309.464 70.3893 309.557 70.52C309.66 70.6413 309.823 70.7533 310.047 70.856C310.281 70.9493 310.612 71.0427 311.041 71.136C311.676 71.276 312.166 71.43 312.511 71.598C312.866 71.766 313.118 71.9713 313.267 72.214C313.417 72.4567 313.491 72.7647 313.491 73.138C313.491 73.726 313.244 74.202 312.749 74.566C312.255 74.9207 311.601 75.098 310.789 75.098Z" fill="#767E94"/>
</svg>
