<svg width="172" height="64" viewBox="0 0 172 64" fill="none" xmlns="http://www.w3.org/2000/svg">
<rect width="172" height="64" rx="5" fill="black"/>
<rect width="172" height="64" rx="5" fill="white" fill-opacity="0.5"/>
<path d="M46.2686 37.08C46.0233 37.08 45.826 37.0053 45.6766 36.856C45.5273 36.7067 45.4526 36.504 45.4526 36.248V26.52C45.4526 26.2747 45.522 26.0827 45.6606 25.944C45.81 25.7947 46.0126 25.72 46.2686 25.72H50.1246C51.3193 25.72 52.2473 26.0133 52.9086 26.6C53.57 27.1867 53.9006 28.0187 53.9006 29.096C53.9006 30.1627 53.57 30.9947 52.9086 31.592C52.2473 32.1893 51.3193 32.488 50.1246 32.488H47.1006V36.248C47.1006 36.504 47.026 36.7067 46.8766 36.856C46.738 37.0053 46.5353 37.08 46.2686 37.08ZM49.9486 31.16C51.5273 31.16 52.3166 30.472 52.3166 29.096C52.3166 27.7307 51.5273 27.048 49.9486 27.048H47.1006V31.16H49.9486ZM59.6379 29.032C60.1499 29 60.4059 29.2187 60.4059 29.688C60.4059 29.9227 60.3472 30.0987 60.2299 30.216C60.1125 30.3333 59.9099 30.4027 59.6219 30.424L59.1419 30.472C58.4699 30.536 57.9685 30.7707 57.6379 31.176C57.3179 31.5813 57.1579 32.072 57.1579 32.648V36.312C57.1579 36.568 57.0832 36.76 56.9339 36.888C56.7845 37.016 56.5925 37.08 56.3579 37.08C56.1232 37.08 55.9259 37.016 55.7659 36.888C55.6165 36.76 55.5419 36.568 55.5419 36.312V29.8C55.5419 29.5547 55.6165 29.368 55.7659 29.24C55.9259 29.1013 56.1232 29.032 56.3579 29.032C56.5712 29.032 56.7472 29.1013 56.8859 29.24C57.0352 29.368 57.1099 29.5493 57.1099 29.784V30.552C57.3232 30.0827 57.6325 29.7253 58.0379 29.48C58.4432 29.2347 58.9019 29.0907 59.4139 29.048L59.6379 29.032ZM64.637 37.112C63.869 37.112 63.1917 36.9467 62.605 36.616C62.029 36.2853 61.581 35.816 61.261 35.208C60.9517 34.5893 60.797 33.8747 60.797 33.064C60.797 32.2427 60.9517 31.528 61.261 30.92C61.581 30.3013 62.029 29.8267 62.605 29.496C63.1917 29.1653 63.869 29 64.637 29C65.405 29 66.077 29.1653 66.653 29.496C67.2397 29.8267 67.6877 30.3013 67.997 30.92C68.317 31.528 68.477 32.2427 68.477 33.064C68.477 33.8747 68.317 34.5893 67.997 35.208C67.6877 35.816 67.2397 36.2853 66.653 36.616C66.077 36.9467 65.405 37.112 64.637 37.112ZM64.637 35.832C65.3517 35.832 65.8957 35.5973 66.269 35.128C66.653 34.6587 66.845 33.9707 66.845 33.064C66.845 32.168 66.653 31.4853 66.269 31.016C65.885 30.536 65.341 30.296 64.637 30.296C63.933 30.296 63.389 30.536 63.005 31.016C62.621 31.4853 62.429 32.168 62.429 33.064C62.429 33.9707 62.6157 34.6587 62.989 35.128C63.373 35.5973 63.9223 35.832 64.637 35.832ZM74.069 35.848C74.3037 35.8693 74.469 35.9333 74.565 36.04C74.6717 36.136 74.725 36.2747 74.725 36.456C74.725 36.6693 74.6397 36.8347 74.469 36.952C74.309 37.0587 74.069 37.1013 73.749 37.08L73.317 37.048C72.453 36.984 71.8077 36.7227 71.381 36.264C70.9543 35.7947 70.741 35.1067 70.741 34.2V30.44H69.781C69.3117 30.44 69.077 30.232 69.077 29.816C69.077 29.624 69.1357 29.4747 69.253 29.368C69.381 29.2507 69.557 29.192 69.781 29.192H70.741V27.544C70.741 27.2987 70.8103 27.1067 70.949 26.968C71.0983 26.8293 71.2957 26.76 71.541 26.76C71.7863 26.76 71.9837 26.8293 72.133 26.968C72.2823 27.1067 72.357 27.2987 72.357 27.544V29.192H73.941C74.165 29.192 74.3357 29.2507 74.453 29.368C74.581 29.4747 74.645 29.624 74.645 29.816C74.645 30.0187 74.581 30.1733 74.453 30.28C74.3357 30.3867 74.165 30.44 73.941 30.44H72.357V34.312C72.357 34.8133 72.4583 35.1813 72.661 35.416C72.8743 35.6507 73.1943 35.784 73.621 35.816L74.069 35.848ZM81.9336 29.032C82.179 29.032 82.371 29.1013 82.5096 29.24C82.659 29.3787 82.7336 29.5707 82.7336 29.816V36.328C82.7336 36.552 82.659 36.7333 82.5096 36.872C82.3603 37.0107 82.163 37.08 81.9176 37.08C81.6936 37.08 81.5123 37.016 81.3736 36.888C81.235 36.7493 81.1656 36.568 81.1656 36.344V35.736C80.9203 36.184 80.579 36.5253 80.1416 36.76C79.715 36.9947 79.235 37.112 78.7016 37.112C76.803 37.112 75.8536 36.0667 75.8536 33.976V29.816C75.8536 29.5707 75.923 29.3787 76.0616 29.24C76.211 29.1013 76.4136 29.032 76.6696 29.032C76.915 29.032 77.107 29.1013 77.2456 29.24C77.395 29.3787 77.4696 29.5707 77.4696 29.816V33.96C77.4696 34.5893 77.5976 35.0533 77.8536 35.352C78.1096 35.6507 78.5043 35.8 79.0376 35.8C79.667 35.8 80.1683 35.5973 80.5416 35.192C80.9256 34.7867 81.1176 34.248 81.1176 33.576V29.816C81.1176 29.5813 81.1923 29.3947 81.3416 29.256C81.491 29.1067 81.6883 29.032 81.9336 29.032ZM88.339 37.112C87.5817 37.112 86.915 36.9467 86.339 36.616C85.7737 36.2853 85.331 35.816 85.011 35.208C84.7017 34.6 84.547 33.896 84.547 33.096C84.547 32.2853 84.707 31.5707 85.027 30.952C85.3577 30.3333 85.8163 29.8533 86.403 29.512C86.9897 29.1707 87.6617 29 88.419 29C88.8243 29 89.2297 29.0587 89.635 29.176C90.051 29.2933 90.419 29.4533 90.739 29.656C91.0803 29.8907 91.251 30.1627 91.251 30.472C91.251 30.6533 91.203 30.808 91.107 30.936C91.011 31.0533 90.8883 31.112 90.739 31.112C90.643 31.112 90.547 31.0907 90.451 31.048C90.355 30.9947 90.2323 30.92 90.083 30.824C89.8163 30.6533 89.5657 30.5253 89.331 30.44C89.107 30.344 88.835 30.296 88.515 30.296C87.7897 30.296 87.2243 30.5413 86.819 31.032C86.4243 31.5227 86.227 32.2053 86.227 33.08C86.227 33.9547 86.4243 34.632 86.819 35.112C87.2137 35.5813 87.7737 35.816 88.499 35.816C88.819 35.816 89.1017 35.768 89.347 35.672C89.5923 35.576 89.843 35.448 90.099 35.288C90.2163 35.2133 90.3337 35.1493 90.451 35.096C90.5683 35.0427 90.675 35.016 90.771 35.016C90.9203 35.016 91.043 35.08 91.139 35.208C91.235 35.3253 91.283 35.4747 91.283 35.656C91.283 35.8053 91.2403 35.944 91.155 36.072C91.0803 36.1893 90.947 36.312 90.755 36.44C90.435 36.6533 90.0617 36.8187 89.635 36.936C89.2083 37.0533 88.7763 37.112 88.339 37.112ZM96.5846 35.848C96.8193 35.8693 96.9846 35.9333 97.0806 36.04C97.1873 36.136 97.2406 36.2747 97.2406 36.456C97.2406 36.6693 97.1553 36.8347 96.9846 36.952C96.8246 37.0587 96.5846 37.1013 96.2646 37.08L95.8326 37.048C94.9686 36.984 94.3233 36.7227 93.8966 36.264C93.47 35.7947 93.2566 35.1067 93.2566 34.2V30.44H92.2966C91.8273 30.44 91.5926 30.232 91.5926 29.816C91.5926 29.624 91.6513 29.4747 91.7686 29.368C91.8966 29.2507 92.0726 29.192 92.2966 29.192H93.2566V27.544C93.2566 27.2987 93.326 27.1067 93.4646 26.968C93.614 26.8293 93.8113 26.76 94.0566 26.76C94.302 26.76 94.4993 26.8293 94.6486 26.968C94.798 27.1067 94.8726 27.2987 94.8726 27.544V29.192H96.4566C96.6806 29.192 96.8513 29.2507 96.9686 29.368C97.0966 29.4747 97.1606 29.624 97.1606 29.816C97.1606 30.0187 97.0966 30.1733 96.9686 30.28C96.8513 30.3867 96.6806 30.44 96.4566 30.44H94.8726V34.312C94.8726 34.8133 94.974 35.1813 95.1766 35.416C95.39 35.6507 95.71 35.784 96.1366 35.816L96.5846 35.848ZM99.2173 37.08C98.9826 37.08 98.7853 37.016 98.6253 36.888C98.4759 36.76 98.4013 36.568 98.4013 36.312V29.816C98.4013 29.56 98.4759 29.368 98.6253 29.24C98.7853 29.1013 98.9826 29.032 99.2173 29.032C99.4519 29.032 99.6439 29.1013 99.7933 29.24C99.9426 29.368 100.017 29.56 100.017 29.816V36.312C100.017 36.568 99.9426 36.76 99.7933 36.888C99.6439 37.016 99.4519 37.08 99.2173 37.08ZM99.2173 27.464C98.9079 27.464 98.6626 27.3787 98.4813 27.208C98.2999 27.0373 98.2093 26.8133 98.2093 26.536C98.2093 26.2587 98.2999 26.04 98.4813 25.88C98.6626 25.7093 98.9079 25.624 99.2173 25.624C99.5159 25.624 99.7559 25.7093 99.9373 25.88C100.129 26.04 100.225 26.2587 100.225 26.536C100.225 26.8133 100.135 27.0373 99.9533 27.208C99.7719 27.3787 99.5266 27.464 99.2173 27.464ZM107.828 29.512C107.892 29.352 107.983 29.2347 108.1 29.16C108.228 29.0853 108.362 29.048 108.5 29.048C108.703 29.048 108.879 29.1173 109.028 29.256C109.188 29.3947 109.268 29.56 109.268 29.752C109.268 29.8587 109.247 29.96 109.204 30.056L106.148 36.536C106.074 36.7067 105.956 36.84 105.796 36.936C105.647 37.0213 105.487 37.064 105.316 37.064C105.146 37.064 104.98 37.0213 104.82 36.936C104.671 36.84 104.559 36.7067 104.484 36.536L101.428 30.056C101.386 29.9707 101.364 29.8693 101.364 29.752C101.364 29.56 101.45 29.3947 101.62 29.256C101.791 29.1173 101.983 29.048 102.196 29.048C102.506 29.048 102.735 29.1973 102.884 29.496L105.364 35L107.828 29.512ZM111.639 37.08C111.404 37.08 111.207 37.016 111.047 36.888C110.898 36.76 110.823 36.568 110.823 36.312V29.816C110.823 29.56 110.898 29.368 111.047 29.24C111.207 29.1013 111.404 29.032 111.639 29.032C111.874 29.032 112.066 29.1013 112.215 29.24C112.364 29.368 112.439 29.56 112.439 29.816V36.312C112.439 36.568 112.364 36.76 112.215 36.888C112.066 37.016 111.874 37.08 111.639 37.08ZM111.639 27.464C111.33 27.464 111.084 27.3787 110.903 27.208C110.722 27.0373 110.631 26.8133 110.631 26.536C110.631 26.2587 110.722 26.04 110.903 25.88C111.084 25.7093 111.33 25.624 111.639 25.624C111.938 25.624 112.178 25.7093 112.359 25.88C112.551 26.04 112.647 26.2587 112.647 26.536C112.647 26.8133 112.556 27.0373 112.375 27.208C112.194 27.3787 111.948 27.464 111.639 27.464ZM118.741 35.848C118.976 35.8693 119.141 35.9333 119.237 36.04C119.344 36.136 119.397 36.2747 119.397 36.456C119.397 36.6693 119.312 36.8347 119.141 36.952C118.981 37.0587 118.741 37.1013 118.421 37.08L117.989 37.048C117.125 36.984 116.48 36.7227 116.053 36.264C115.626 35.7947 115.413 35.1067 115.413 34.2V30.44H114.453C113.984 30.44 113.749 30.232 113.749 29.816C113.749 29.624 113.808 29.4747 113.925 29.368C114.053 29.2507 114.229 29.192 114.453 29.192H115.413V27.544C115.413 27.2987 115.482 27.1067 115.621 26.968C115.77 26.8293 115.968 26.76 116.213 26.76C116.458 26.76 116.656 26.8293 116.805 26.968C116.954 27.1067 117.029 27.2987 117.029 27.544V29.192H118.613C118.837 29.192 119.008 29.2507 119.125 29.368C119.253 29.4747 119.317 29.624 119.317 29.816C119.317 30.0187 119.253 30.1733 119.125 30.28C119.008 30.3867 118.837 30.44 118.613 30.44H117.029V34.312C117.029 34.8133 117.13 35.1813 117.333 35.416C117.546 35.6507 117.866 35.784 118.293 35.816L118.741 35.848ZM126.219 29.512C126.283 29.352 126.374 29.2347 126.491 29.16C126.619 29.0853 126.752 29.048 126.891 29.048C127.094 29.048 127.27 29.1173 127.419 29.256C127.579 29.3947 127.659 29.56 127.659 29.752C127.659 29.8587 127.638 29.96 127.595 30.056L123.147 39.496C123.083 39.6453 122.987 39.7573 122.859 39.832C122.742 39.9173 122.614 39.96 122.475 39.96C122.283 39.96 122.107 39.896 121.947 39.768C121.798 39.64 121.723 39.48 121.723 39.288C121.723 39.2027 121.75 39.096 121.803 38.968L122.907 36.616L119.819 30.056C119.776 29.9707 119.755 29.8747 119.755 29.768C119.755 29.5653 119.84 29.3947 120.011 29.256C120.182 29.1173 120.374 29.048 120.587 29.048C120.907 29.048 121.136 29.1973 121.275 29.496L123.755 35L126.219 29.512Z" fill="white"/>
</svg>
