<svg width="172" height="64" viewBox="0 0 172 64" fill="none" xmlns="http://www.w3.org/2000/svg">
<rect width="172" height="64" rx="5" fill="black"/>
<rect width="172" height="64" rx="5" fill="white" fill-opacity="0.5"/>
<path d="M49.3187 36.04C49.372 36.168 49.3987 36.2747 49.3987 36.36C49.3987 36.5627 49.3134 36.7333 49.1427 36.872C48.9827 37.0107 48.8014 37.08 48.5987 37.08C48.46 37.08 48.3267 37.0427 48.1987 36.968C48.0814 36.8827 47.9907 36.7653 47.9267 36.616L46.8707 34.216H41.0147L39.9587 36.616C39.8947 36.7653 39.7987 36.8827 39.6707 36.968C39.5427 37.0427 39.4094 37.08 39.2707 37.08C39.0574 37.08 38.8654 37.0107 38.6947 36.872C38.5347 36.7333 38.4547 36.5627 38.4547 36.36C38.4547 36.2747 38.4814 36.168 38.5347 36.04L43.0467 26.168C43.1214 25.9973 43.2387 25.864 43.3987 25.768C43.5694 25.672 43.7454 25.624 43.9267 25.624C44.108 25.624 44.2787 25.672 44.4387 25.768C44.6094 25.864 44.732 25.9973 44.8067 26.168L49.3187 36.04ZM41.6067 32.904H46.2947L43.9427 27.608L41.6067 32.904ZM55.0207 29.032C55.5327 29 55.7887 29.2187 55.7887 29.688C55.7887 29.9227 55.73 30.0987 55.6127 30.216C55.4954 30.3333 55.2927 30.4027 55.0047 30.424L54.5247 30.472C53.8527 30.536 53.3514 30.7707 53.0207 31.176C52.7007 31.5813 52.5407 32.072 52.5407 32.648V36.312C52.5407 36.568 52.466 36.76 52.3167 36.888C52.1674 37.016 51.9754 37.08 51.7407 37.08C51.506 37.08 51.3087 37.016 51.1487 36.888C50.9994 36.76 50.9247 36.568 50.9247 36.312V29.8C50.9247 29.5547 50.9994 29.368 51.1487 29.24C51.3087 29.1013 51.506 29.032 51.7407 29.032C51.954 29.032 52.13 29.1013 52.2687 29.24C52.418 29.368 52.4927 29.5493 52.4927 29.784V30.552C52.706 30.0827 53.0154 29.7253 53.4207 29.48C53.826 29.2347 54.2847 29.0907 54.7967 29.048L55.0207 29.032ZM61.2799 35.848C61.5146 35.8693 61.6799 35.9333 61.7759 36.04C61.8826 36.136 61.9359 36.2747 61.9359 36.456C61.9359 36.6693 61.8506 36.8347 61.6799 36.952C61.5199 37.0587 61.2799 37.1013 60.9599 37.08L60.5279 37.048C59.6639 36.984 59.0186 36.7227 58.5919 36.264C58.1653 35.7947 57.9519 35.1067 57.9519 34.2V30.44H56.9919C56.5226 30.44 56.2879 30.232 56.2879 29.816C56.2879 29.624 56.3466 29.4747 56.4639 29.368C56.5919 29.2507 56.7679 29.192 56.9919 29.192H57.9519V27.544C57.9519 27.2987 58.0213 27.1067 58.1599 26.968C58.3093 26.8293 58.5066 26.76 58.7519 26.76C58.9973 26.76 59.1946 26.8293 59.3439 26.968C59.4933 27.1067 59.5679 27.2987 59.5679 27.544V29.192H61.1519C61.3759 29.192 61.5466 29.2507 61.6639 29.368C61.7919 29.4747 61.8559 29.624 61.8559 29.816C61.8559 30.0187 61.7919 30.1733 61.6639 30.28C61.5466 30.3867 61.3759 30.44 61.1519 30.44H59.5679V34.312C59.5679 34.8133 59.6693 35.1813 59.8719 35.416C60.0853 35.6507 60.4053 35.784 60.8319 35.816L61.2799 35.848ZM76.6273 35.992C76.766 36.1307 76.8353 36.2853 76.8353 36.456C76.8353 36.6373 76.766 36.7973 76.6273 36.936C76.4886 37.064 76.3286 37.128 76.1473 37.128C75.966 37.128 75.806 37.0587 75.6673 36.92L74.2593 35.496C73.7686 36.0187 73.214 36.4187 72.5953 36.696C71.9766 36.9733 71.326 37.112 70.6433 37.112C69.9286 37.112 69.2886 36.9893 68.7233 36.744C68.158 36.4987 67.7153 36.152 67.3953 35.704C67.086 35.2453 66.9313 34.7173 66.9313 34.12C66.9313 33.4267 67.1393 32.808 67.5553 32.264C67.9713 31.72 68.6113 31.2027 69.4753 30.712C69.038 30.2427 68.7126 29.8107 68.4993 29.416C68.286 29.0107 68.1793 28.5893 68.1793 28.152C68.1793 27.3733 68.4513 26.7547 68.9953 26.296C69.5393 25.8373 70.238 25.608 71.0913 25.608C71.902 25.608 72.5473 25.8213 73.0273 26.248C73.5073 26.664 73.7473 27.2347 73.7473 27.96C73.7473 28.5467 73.5713 29.0693 73.2193 29.528C72.878 29.976 72.3286 30.4293 71.5713 30.888L74.0833 33.432C74.4246 32.728 74.6326 31.88 74.7073 30.888C74.718 30.664 74.7926 30.4933 74.9313 30.376C75.0806 30.248 75.246 30.184 75.4273 30.184C75.6193 30.184 75.7793 30.2533 75.9073 30.392C76.046 30.52 76.1046 30.7013 76.0833 30.936C75.9873 32.2587 75.646 33.416 75.0593 34.408L76.6273 35.992ZM71.1073 26.776C70.6806 26.776 70.334 26.904 70.0673 27.16C69.8113 27.4053 69.6833 27.736 69.6833 28.152C69.6833 28.4507 69.7633 28.7387 69.9233 29.016C70.0833 29.2827 70.3446 29.6133 70.7073 30.008C71.326 29.624 71.758 29.288 72.0033 29C72.2593 28.7013 72.3873 28.376 72.3873 28.024C72.3873 27.6507 72.27 27.352 72.0353 27.128C71.8006 26.8933 71.4913 26.776 71.1073 26.776ZM70.7233 35.848C71.214 35.848 71.6833 35.7413 72.1313 35.528C72.59 35.3147 72.9953 35 73.3473 34.584L70.3553 31.592C69.694 31.9867 69.2193 32.376 68.9313 32.76C68.654 33.1333 68.5153 33.56 68.5153 34.04C68.5153 34.6053 68.7126 35.048 69.1073 35.368C69.5126 35.688 70.0513 35.848 70.7233 35.848ZM87.3724 37.128C86.2951 37.128 85.3564 36.8987 84.5564 36.44C83.7564 35.9707 83.1431 35.304 82.7164 34.44C82.2898 33.5653 82.0764 32.536 82.0764 31.352C82.0764 30.1787 82.2898 29.16 82.7164 28.296C83.1431 27.4213 83.7564 26.7547 84.5564 26.296C85.3564 25.8267 86.2951 25.592 87.3724 25.592C88.0764 25.592 88.7431 25.704 89.3724 25.928C90.0018 26.1413 90.5511 26.456 91.0204 26.872C91.2231 27.032 91.3244 27.2453 91.3244 27.512C91.3244 27.704 91.2711 27.8693 91.1644 28.008C91.0578 28.136 90.9298 28.2 90.7804 28.2C90.5991 28.2 90.4231 28.1307 90.2524 27.992C89.7404 27.608 89.2711 27.3413 88.8444 27.192C88.4284 27.032 87.9538 26.952 87.4204 26.952C86.2471 26.952 85.3458 27.3307 84.7164 28.088C84.0871 28.8453 83.7724 29.9333 83.7724 31.352C83.7724 32.7813 84.0871 33.8747 84.7164 34.632C85.3458 35.3893 86.2471 35.768 87.4204 35.768C87.9324 35.768 88.3964 35.688 88.8124 35.528C89.2391 35.368 89.7191 35.1013 90.2524 34.728C90.4658 34.5893 90.6418 34.52 90.7804 34.52C90.9298 34.52 91.0578 34.5893 91.1644 34.728C91.2711 34.856 91.3244 35.016 91.3244 35.208C91.3244 35.4747 91.2231 35.688 91.0204 35.848C90.5511 36.264 90.0018 36.584 89.3724 36.808C88.7431 37.0213 88.0764 37.128 87.3724 37.128ZM98.9883 29.032C99.2336 29.032 99.4256 29.1013 99.5643 29.24C99.7136 29.3787 99.7883 29.5707 99.7883 29.816V36.328C99.7883 36.552 99.7136 36.7333 99.5643 36.872C99.415 37.0107 99.2176 37.08 98.9723 37.08C98.7483 37.08 98.567 37.016 98.4283 36.888C98.2896 36.7493 98.2203 36.568 98.2203 36.344V35.736C97.975 36.184 97.6336 36.5253 97.1963 36.76C96.7696 36.9947 96.2896 37.112 95.7563 37.112C93.8576 37.112 92.9083 36.0667 92.9083 33.976V29.816C92.9083 29.5707 92.9776 29.3787 93.1163 29.24C93.2656 29.1013 93.4683 29.032 93.7243 29.032C93.9696 29.032 94.1616 29.1013 94.3003 29.24C94.4496 29.3787 94.5243 29.5707 94.5243 29.816V33.96C94.5243 34.5893 94.6523 35.0533 94.9083 35.352C95.1643 35.6507 95.559 35.8 96.0923 35.8C96.7216 35.8 97.223 35.5973 97.5963 35.192C97.9803 34.7867 98.1723 34.248 98.1723 33.576V29.816C98.1723 29.5813 98.247 29.3947 98.3963 29.256C98.5456 29.1067 98.743 29.032 98.9883 29.032ZM102.866 37.08C102.631 37.08 102.434 37.016 102.274 36.888C102.124 36.76 102.05 36.568 102.05 36.312V26.424C102.05 26.168 102.124 25.976 102.274 25.848C102.434 25.7093 102.631 25.64 102.866 25.64C103.1 25.64 103.292 25.7093 103.442 25.848C103.591 25.976 103.666 26.168 103.666 26.424V36.312C103.666 36.568 103.591 36.76 103.442 36.888C103.292 37.016 103.1 37.08 102.866 37.08ZM109.967 35.848C110.202 35.8693 110.367 35.9333 110.463 36.04C110.57 36.136 110.623 36.2747 110.623 36.456C110.623 36.6693 110.538 36.8347 110.367 36.952C110.207 37.0587 109.967 37.1013 109.647 37.08L109.215 37.048C108.351 36.984 107.706 36.7227 107.279 36.264C106.853 35.7947 106.639 35.1067 106.639 34.2V30.44H105.679C105.21 30.44 104.975 30.232 104.975 29.816C104.975 29.624 105.034 29.4747 105.151 29.368C105.279 29.2507 105.455 29.192 105.679 29.192H106.639V27.544C106.639 27.2987 106.709 27.1067 106.847 26.968C106.997 26.8293 107.194 26.76 107.439 26.76C107.685 26.76 107.882 26.8293 108.031 26.968C108.181 27.1067 108.255 27.2987 108.255 27.544V29.192H109.839C110.063 29.192 110.234 29.2507 110.351 29.368C110.479 29.4747 110.543 29.624 110.543 29.816C110.543 30.0187 110.479 30.1733 110.351 30.28C110.234 30.3867 110.063 30.44 109.839 30.44H108.255V34.312C108.255 34.8133 108.357 35.1813 108.559 35.416C108.773 35.6507 109.093 35.784 109.519 35.816L109.967 35.848ZM117.832 29.032C118.077 29.032 118.269 29.1013 118.408 29.24C118.557 29.3787 118.632 29.5707 118.632 29.816V36.328C118.632 36.552 118.557 36.7333 118.408 36.872C118.259 37.0107 118.061 37.08 117.816 37.08C117.592 37.08 117.411 37.016 117.272 36.888C117.133 36.7493 117.064 36.568 117.064 36.344V35.736C116.819 36.184 116.477 36.5253 116.04 36.76C115.613 36.9947 115.133 37.112 114.6 37.112C112.701 37.112 111.752 36.0667 111.752 33.976V29.816C111.752 29.5707 111.821 29.3787 111.96 29.24C112.109 29.1013 112.312 29.032 112.568 29.032C112.813 29.032 113.005 29.1013 113.144 29.24C113.293 29.3787 113.368 29.5707 113.368 29.816V33.96C113.368 34.5893 113.496 35.0533 113.752 35.352C114.008 35.6507 114.403 35.8 114.936 35.8C115.565 35.8 116.067 35.5973 116.44 35.192C116.824 34.7867 117.016 34.248 117.016 33.576V29.816C117.016 29.5813 117.091 29.3947 117.24 29.256C117.389 29.1067 117.587 29.032 117.832 29.032ZM124.989 29.032C125.501 29 125.757 29.2187 125.757 29.688C125.757 29.9227 125.699 30.0987 125.581 30.216C125.464 30.3333 125.261 30.4027 124.973 30.424L124.493 30.472C123.821 30.536 123.32 30.7707 122.989 31.176C122.669 31.5813 122.509 32.072 122.509 32.648V36.312C122.509 36.568 122.435 36.76 122.285 36.888C122.136 37.016 121.944 37.08 121.709 37.08C121.475 37.08 121.277 37.016 121.117 36.888C120.968 36.76 120.893 36.568 120.893 36.312V29.8C120.893 29.5547 120.968 29.368 121.117 29.24C121.277 29.1013 121.475 29.032 121.709 29.032C121.923 29.032 122.099 29.1013 122.237 29.24C122.387 29.368 122.461 29.5493 122.461 29.784V30.552C122.675 30.0827 122.984 29.7253 123.389 29.48C123.795 29.2347 124.253 29.0907 124.765 29.048L124.989 29.032ZM132.709 35.032C132.858 35.032 132.981 35.0907 133.077 35.208C133.173 35.3253 133.221 35.4747 133.221 35.656C133.221 35.9653 133.029 36.2267 132.645 36.44C132.271 36.6533 131.861 36.8187 131.413 36.936C130.975 37.0533 130.554 37.112 130.149 37.112C128.911 37.112 127.935 36.7547 127.221 36.04C126.506 35.3147 126.149 34.328 126.149 33.08C126.149 32.28 126.303 31.5707 126.613 30.952C126.933 30.3333 127.375 29.8533 127.941 29.512C128.517 29.1707 129.167 29 129.893 29C130.938 29 131.765 29.336 132.373 30.008C132.981 30.68 133.285 31.5867 133.285 32.728C133.285 33.1547 133.093 33.368 132.709 33.368H127.765C127.871 35.0213 128.666 35.848 130.149 35.848C130.543 35.848 130.885 35.7947 131.173 35.688C131.461 35.5813 131.765 35.4427 132.085 35.272C132.117 35.2507 132.202 35.208 132.341 35.144C132.49 35.0693 132.613 35.032 132.709 35.032ZM129.925 30.184C129.306 30.184 128.81 30.3813 128.437 30.776C128.063 31.1707 127.839 31.7253 127.765 32.44H131.893C131.861 31.7147 131.674 31.16 131.333 30.776C131.002 30.3813 130.533 30.184 129.925 30.184Z" fill="white"/>
</svg>
