<svg width="172" height="64" viewBox="0 0 172 64" fill="none" xmlns="http://www.w3.org/2000/svg">
<rect width="172" height="64" rx="5" fill="black"/>
<rect width="172" height="64" rx="5" fill="white" fill-opacity="0.5"/>
<path d="M61.6161 31.192C62.2667 31.3733 62.7681 31.6987 63.1201 32.168C63.4827 32.6373 63.6641 33.224 63.6641 33.928C63.6641 34.8987 63.3281 35.656 62.6561 36.2C61.9947 36.7333 61.0667 37 59.8721 37H55.7921C55.5361 37 55.3334 36.9307 55.1841 36.792C55.0454 36.6427 54.9761 36.4453 54.9761 36.2V26.52C54.9761 26.2747 55.0454 26.0827 55.1841 25.944C55.3334 25.7947 55.5361 25.72 55.7921 25.72H59.6961C60.8587 25.72 61.7654 25.9813 62.4161 26.504C63.0774 27.016 63.4081 27.736 63.4081 28.664C63.4081 29.2613 63.2481 29.7787 62.9281 30.216C62.6187 30.6533 62.1814 30.9787 61.6161 31.192ZM56.5921 30.6H59.4401C61.0187 30.6 61.8081 30.0027 61.8081 28.808C61.8081 28.2107 61.6107 27.768 61.2161 27.48C60.8321 27.192 60.2401 27.048 59.4401 27.048H56.5921V30.6ZM59.6961 35.672C60.5174 35.672 61.1201 35.5227 61.5041 35.224C61.8881 34.9253 62.0801 34.4613 62.0801 33.832C62.0801 33.192 61.8827 32.7173 61.4881 32.408C61.1041 32.088 60.5067 31.928 59.6961 31.928H56.5921V35.672H59.6961ZM71.6758 29.032C71.9211 29.032 72.1131 29.1013 72.2518 29.24C72.4011 29.3787 72.4758 29.5707 72.4758 29.816V36.328C72.4758 36.552 72.4011 36.7333 72.2518 36.872C72.1025 37.0107 71.9051 37.08 71.6598 37.08C71.4358 37.08 71.2545 37.016 71.1158 36.888C70.9771 36.7493 70.9078 36.568 70.9078 36.344V35.736C70.6625 36.184 70.3211 36.5253 69.8838 36.76C69.4571 36.9947 68.9771 37.112 68.4438 37.112C66.5451 37.112 65.5958 36.0667 65.5958 33.976V29.816C65.5958 29.5707 65.6651 29.3787 65.8038 29.24C65.9531 29.1013 66.1558 29.032 66.4118 29.032C66.6571 29.032 66.8491 29.1013 66.9878 29.24C67.1371 29.3787 67.2118 29.5707 67.2118 29.816V33.96C67.2118 34.5893 67.3398 35.0533 67.5958 35.352C67.8518 35.6507 68.2465 35.8 68.7798 35.8C69.4091 35.8 69.9105 35.5973 70.2838 35.192C70.6678 34.7867 70.8598 34.248 70.8598 33.576V29.816C70.8598 29.5813 70.9345 29.3947 71.0838 29.256C71.2331 29.1067 71.4305 29.032 71.6758 29.032ZM77.4572 37.112C76.3692 37.112 75.4785 36.888 74.7852 36.44C74.5932 36.3227 74.4545 36.2 74.3692 36.072C74.2945 35.944 74.2572 35.8 74.2572 35.64C74.2572 35.4693 74.3052 35.3253 74.4012 35.208C74.4972 35.0907 74.6199 35.032 74.7692 35.032C74.9079 35.032 75.1265 35.1173 75.4252 35.288C75.7452 35.4587 76.0545 35.5973 76.3532 35.704C76.6625 35.8107 77.0465 35.864 77.5052 35.864C78.0172 35.864 78.4172 35.7733 78.7052 35.592C78.9932 35.4107 79.1372 35.1547 79.1372 34.824C79.1372 34.6107 79.0785 34.44 78.9612 34.312C78.8545 34.184 78.6625 34.072 78.3852 33.976C78.1079 33.8693 77.6972 33.7573 77.1532 33.64C76.2145 33.4373 75.5372 33.1653 75.1212 32.824C74.7159 32.472 74.5132 31.9973 74.5132 31.4C74.5132 30.9413 74.6465 30.5307 74.9132 30.168C75.1799 29.7947 75.5479 29.5067 76.0172 29.304C76.4865 29.1013 77.0199 29 77.6172 29C78.0439 29 78.4599 29.0587 78.8652 29.176C79.2705 29.2827 79.6279 29.4427 79.9372 29.656C80.2892 29.8907 80.4652 30.1627 80.4652 30.472C80.4652 30.6427 80.4119 30.7867 80.3052 30.904C80.2092 31.0213 80.0919 31.08 79.9532 31.08C79.8572 31.08 79.7612 31.0587 79.6652 31.016C79.5692 30.9733 79.4412 30.904 79.2812 30.808C78.9932 30.6373 78.7212 30.504 78.4652 30.408C78.2199 30.312 77.9105 30.264 77.5372 30.264C77.0892 30.264 76.7265 30.36 76.4492 30.552C76.1825 30.744 76.0492 31.0053 76.0492 31.336C76.0492 31.6347 76.1719 31.8693 76.4172 32.04C76.6732 32.2 77.1479 32.3547 77.8412 32.504C78.5559 32.6533 79.1159 32.824 79.5212 33.016C79.9265 33.208 80.2145 33.448 80.3852 33.736C80.5665 34.0133 80.6572 34.3707 80.6572 34.808C80.6572 35.5013 80.3639 36.0613 79.7772 36.488C79.2012 36.904 78.4279 37.112 77.4572 37.112ZM83.2719 37.08C83.0373 37.08 82.8399 37.016 82.6799 36.888C82.5306 36.76 82.4559 36.568 82.4559 36.312V29.816C82.4559 29.56 82.5306 29.368 82.6799 29.24C82.8399 29.1013 83.0373 29.032 83.2719 29.032C83.5066 29.032 83.6986 29.1013 83.8479 29.24C83.9973 29.368 84.0719 29.56 84.0719 29.816V36.312C84.0719 36.568 83.9973 36.76 83.8479 36.888C83.6986 37.016 83.5066 37.08 83.2719 37.08ZM83.2719 27.464C82.9626 27.464 82.7173 27.3787 82.5359 27.208C82.3546 27.0373 82.2639 26.8133 82.2639 26.536C82.2639 26.2587 82.3546 26.04 82.5359 25.88C82.7173 25.7093 82.9626 25.624 83.2719 25.624C83.5706 25.624 83.8106 25.7093 83.9919 25.88C84.1839 26.04 84.2799 26.2587 84.2799 26.536C84.2799 26.8133 84.1893 27.0373 84.0079 27.208C83.8266 27.3787 83.5813 27.464 83.2719 27.464ZM90.5389 29C92.4056 29 93.3389 30.0507 93.3389 32.152V36.312C93.3389 36.5573 93.2643 36.7493 93.1149 36.888C92.9763 37.016 92.7789 37.08 92.5229 37.08C92.2776 37.08 92.0803 37.0107 91.9309 36.872C91.7923 36.7333 91.7229 36.5467 91.7229 36.312V32.232C91.7229 31.5707 91.5896 31.0853 91.3229 30.776C91.0669 30.4667 90.6616 30.312 90.1069 30.312C89.4563 30.312 88.9336 30.5147 88.5389 30.92C88.1443 31.3253 87.9469 31.8693 87.9469 32.552V36.312C87.9469 36.5467 87.8723 36.7333 87.7229 36.872C87.5843 37.0107 87.3923 37.08 87.1469 37.08C86.9016 37.08 86.7043 37.0107 86.5549 36.872C86.4056 36.7333 86.3309 36.5467 86.3309 36.312V29.8C86.3309 29.576 86.4056 29.3947 86.5549 29.256C86.7149 29.1067 86.9123 29.032 87.1469 29.032C87.3816 29.032 87.5683 29.1013 87.7069 29.24C87.8456 29.3787 87.9149 29.56 87.9149 29.784V30.44C88.1709 29.9707 88.5283 29.6133 88.9869 29.368C89.4456 29.1227 89.9629 29 90.5389 29ZM101.662 35.032C101.811 35.032 101.934 35.0907 102.03 35.208C102.126 35.3253 102.174 35.4747 102.174 35.656C102.174 35.9653 101.982 36.2267 101.598 36.44C101.224 36.6533 100.814 36.8187 100.366 36.936C99.9284 37.0533 99.507 37.112 99.1017 37.112C97.8644 37.112 96.8884 36.7547 96.1737 36.04C95.459 35.3147 95.1017 34.328 95.1017 33.08C95.1017 32.28 95.2564 31.5707 95.5657 30.952C95.8857 30.3333 96.3284 29.8533 96.8937 29.512C97.4697 29.1707 98.1204 29 98.8457 29C99.891 29 100.718 29.336 101.326 30.008C101.934 30.68 102.238 31.5867 102.238 32.728C102.238 33.1547 102.046 33.368 101.662 33.368H96.7177C96.8244 35.0213 97.619 35.848 99.1017 35.848C99.4964 35.848 99.8377 35.7947 100.126 35.688C100.414 35.5813 100.718 35.4427 101.038 35.272C101.07 35.2507 101.155 35.208 101.294 35.144C101.443 35.0693 101.566 35.032 101.662 35.032ZM98.8777 30.184C98.259 30.184 97.763 30.3813 97.3897 30.776C97.0164 31.1707 96.7924 31.7253 96.7177 32.44H100.846C100.814 31.7147 100.627 31.16 100.286 30.776C99.955 30.3813 99.4857 30.184 98.8777 30.184ZM106.738 37.112C105.65 37.112 104.76 36.888 104.066 36.44C103.874 36.3227 103.736 36.2 103.65 36.072C103.576 35.944 103.538 35.8 103.538 35.64C103.538 35.4693 103.586 35.3253 103.682 35.208C103.778 35.0907 103.901 35.032 104.05 35.032C104.189 35.032 104.408 35.1173 104.706 35.288C105.026 35.4587 105.336 35.5973 105.634 35.704C105.944 35.8107 106.328 35.864 106.786 35.864C107.298 35.864 107.698 35.7733 107.986 35.592C108.274 35.4107 108.418 35.1547 108.418 34.824C108.418 34.6107 108.36 34.44 108.242 34.312C108.136 34.184 107.944 34.072 107.666 33.976C107.389 33.8693 106.978 33.7573 106.434 33.64C105.496 33.4373 104.818 33.1653 104.402 32.824C103.997 32.472 103.794 31.9973 103.794 31.4C103.794 30.9413 103.928 30.5307 104.194 30.168C104.461 29.7947 104.829 29.5067 105.298 29.304C105.768 29.1013 106.301 29 106.898 29C107.325 29 107.741 29.0587 108.146 29.176C108.552 29.2827 108.909 29.4427 109.218 29.656C109.57 29.8907 109.746 30.1627 109.746 30.472C109.746 30.6427 109.693 30.7867 109.586 30.904C109.49 31.0213 109.373 31.08 109.234 31.08C109.138 31.08 109.042 31.0587 108.946 31.016C108.85 30.9733 108.722 30.904 108.562 30.808C108.274 30.6373 108.002 30.504 107.746 30.408C107.501 30.312 107.192 30.264 106.818 30.264C106.37 30.264 106.008 30.36 105.73 30.552C105.464 30.744 105.33 31.0053 105.33 31.336C105.33 31.6347 105.453 31.8693 105.698 32.04C105.954 32.2 106.429 32.3547 107.122 32.504C107.837 32.6533 108.397 32.824 108.802 33.016C109.208 33.208 109.496 33.448 109.666 33.736C109.848 34.0133 109.938 34.3707 109.938 34.808C109.938 35.5013 109.645 36.0613 109.058 36.488C108.482 36.904 107.709 37.112 106.738 37.112ZM114.457 37.112C113.369 37.112 112.479 36.888 111.785 36.44C111.593 36.3227 111.455 36.2 111.369 36.072C111.295 35.944 111.257 35.8 111.257 35.64C111.257 35.4693 111.305 35.3253 111.401 35.208C111.497 35.0907 111.62 35.032 111.769 35.032C111.908 35.032 112.127 35.1173 112.425 35.288C112.745 35.4587 113.055 35.5973 113.353 35.704C113.663 35.8107 114.047 35.864 114.505 35.864C115.017 35.864 115.417 35.7733 115.705 35.592C115.993 35.4107 116.137 35.1547 116.137 34.824C116.137 34.6107 116.079 34.44 115.961 34.312C115.855 34.184 115.663 34.072 115.385 33.976C115.108 33.8693 114.697 33.7573 114.153 33.64C113.215 33.4373 112.537 33.1653 112.121 32.824C111.716 32.472 111.513 31.9973 111.513 31.4C111.513 30.9413 111.647 30.5307 111.913 30.168C112.18 29.7947 112.548 29.5067 113.017 29.304C113.487 29.1013 114.02 29 114.617 29C115.044 29 115.46 29.0587 115.865 29.176C116.271 29.2827 116.628 29.4427 116.937 29.656C117.289 29.8907 117.465 30.1627 117.465 30.472C117.465 30.6427 117.412 30.7867 117.305 30.904C117.209 31.0213 117.092 31.08 116.953 31.08C116.857 31.08 116.761 31.0587 116.665 31.016C116.569 30.9733 116.441 30.904 116.281 30.808C115.993 30.6373 115.721 30.504 115.465 30.408C115.22 30.312 114.911 30.264 114.537 30.264C114.089 30.264 113.727 30.36 113.449 30.552C113.183 30.744 113.049 31.0053 113.049 31.336C113.049 31.6347 113.172 31.8693 113.417 32.04C113.673 32.2 114.148 32.3547 114.841 32.504C115.556 32.6533 116.116 32.824 116.521 33.016C116.927 33.208 117.215 33.448 117.385 33.736C117.567 34.0133 117.657 34.3707 117.657 34.808C117.657 35.5013 117.364 36.0613 116.777 36.488C116.201 36.904 115.428 37.112 114.457 37.112Z" fill="white"/>
</svg>
