<svg width="172" height="64" viewBox="0 0 172 64" fill="none" xmlns="http://www.w3.org/2000/svg">
<rect width="172" height="64" rx="5" fill="black"/>
<rect width="172" height="64" rx="5" fill="white" fill-opacity="0.5"/>
<path d="M49.4023 37.08C49.157 37.08 48.9543 37.0053 48.7943 36.856C48.645 36.696 48.5703 36.4933 48.5703 36.248V27.096H45.3703C44.8583 27.096 44.6023 26.8667 44.6023 26.408C44.6023 26.184 44.6663 26.0133 44.7943 25.896C44.933 25.7787 45.125 25.72 45.3703 25.72H53.4343C53.6796 25.72 53.8663 25.7787 53.9943 25.896C54.133 26.0133 54.2023 26.184 54.2023 26.408C54.2023 26.8667 53.9463 27.096 53.4343 27.096H50.2343V36.248C50.2343 36.4933 50.1596 36.696 50.0103 36.856C49.861 37.0053 49.6583 37.08 49.4023 37.08ZM60.2554 35.032C60.4048 35.032 60.5274 35.0907 60.6234 35.208C60.7194 35.3253 60.7674 35.4747 60.7674 35.656C60.7674 35.9653 60.5754 36.2267 60.1914 36.44C59.8181 36.6533 59.4074 36.8187 58.9594 36.936C58.5221 37.0533 58.1008 37.112 57.6954 37.112C56.4581 37.112 55.4821 36.7547 54.7674 36.04C54.0528 35.3147 53.6954 34.328 53.6954 33.08C53.6954 32.28 53.8501 31.5707 54.1594 30.952C54.4794 30.3333 54.9221 29.8533 55.4874 29.512C56.0634 29.1707 56.7141 29 57.4394 29C58.4848 29 59.3114 29.336 59.9194 30.008C60.5274 30.68 60.8314 31.5867 60.8314 32.728C60.8314 33.1547 60.6394 33.368 60.2554 33.368H55.3114C55.4181 35.0213 56.2128 35.848 57.6954 35.848C58.0901 35.848 58.4314 35.7947 58.7194 35.688C59.0074 35.5813 59.3114 35.4427 59.6314 35.272C59.6634 35.2507 59.7488 35.208 59.8874 35.144C60.0368 35.0693 60.1594 35.032 60.2554 35.032ZM57.4714 30.184C56.8528 30.184 56.3568 30.3813 55.9834 30.776C55.6101 31.1707 55.3861 31.7253 55.3114 32.44H59.4394C59.4074 31.7147 59.2208 31.16 58.8794 30.776C58.5488 30.3813 58.0794 30.184 57.4714 30.184ZM65.9562 37.112C65.1989 37.112 64.5322 36.9467 63.9562 36.616C63.3909 36.2853 62.9482 35.816 62.6282 35.208C62.3189 34.6 62.1642 33.896 62.1642 33.096C62.1642 32.2853 62.3242 31.5707 62.6442 30.952C62.9749 30.3333 63.4335 29.8533 64.0202 29.512C64.6069 29.1707 65.2789 29 66.0362 29C66.4415 29 66.8469 29.0587 67.2522 29.176C67.6682 29.2933 68.0362 29.4533 68.3562 29.656C68.6975 29.8907 68.8682 30.1627 68.8682 30.472C68.8682 30.6533 68.8202 30.808 68.7242 30.936C68.6282 31.0533 68.5055 31.112 68.3562 31.112C68.2602 31.112 68.1642 31.0907 68.0682 31.048C67.9722 30.9947 67.8495 30.92 67.7002 30.824C67.4335 30.6533 67.1829 30.5253 66.9482 30.44C66.7242 30.344 66.4522 30.296 66.1322 30.296C65.4069 30.296 64.8415 30.5413 64.4362 31.032C64.0415 31.5227 63.8442 32.2053 63.8442 33.08C63.8442 33.9547 64.0415 34.632 64.4362 35.112C64.8309 35.5813 65.3909 35.816 66.1162 35.816C66.4362 35.816 66.7189 35.768 66.9642 35.672C67.2095 35.576 67.4602 35.448 67.7162 35.288C67.8335 35.2133 67.9509 35.1493 68.0682 35.096C68.1855 35.0427 68.2922 35.016 68.3882 35.016C68.5375 35.016 68.6602 35.08 68.7562 35.208C68.8522 35.3253 68.9002 35.4747 68.9002 35.656C68.9002 35.8053 68.8575 35.944 68.7722 36.072C68.6975 36.1893 68.5642 36.312 68.3722 36.44C68.0522 36.6533 67.6789 36.8187 67.2522 36.936C66.8255 37.0533 66.3935 37.112 65.9562 37.112ZM74.5706 29C76.4266 29 77.3546 30.0507 77.3546 32.152V36.312C77.3546 36.5467 77.2799 36.7333 77.1306 36.872C76.9812 37.0107 76.7839 37.08 76.5386 37.08C76.2932 37.08 76.0959 37.0107 75.9466 36.872C75.8079 36.7333 75.7386 36.5467 75.7386 36.312V32.168C75.7386 31.528 75.6052 31.0587 75.3386 30.76C75.0826 30.4613 74.6772 30.312 74.1226 30.312C73.4719 30.312 72.9492 30.5147 72.5546 30.92C72.1599 31.3253 71.9626 31.8693 71.9626 32.552V36.312C71.9626 36.5467 71.8879 36.7333 71.7386 36.872C71.5999 37.0107 71.4079 37.08 71.1626 37.08C70.9172 37.08 70.7199 37.0107 70.5706 36.872C70.4212 36.7333 70.3466 36.5467 70.3466 36.312V26.408C70.3466 26.1733 70.4212 25.9867 70.5706 25.848C70.7306 25.7093 70.9332 25.64 71.1786 25.64C71.4132 25.64 71.5999 25.7093 71.7386 25.848C71.8879 25.976 71.9626 26.152 71.9626 26.376V30.376C72.2292 29.928 72.5866 29.5867 73.0346 29.352C73.4826 29.1173 73.9946 29 74.5706 29ZM83.7733 29C85.64 29 86.5733 30.0507 86.5733 32.152V36.312C86.5733 36.5573 86.4986 36.7493 86.3493 36.888C86.2106 37.016 86.0133 37.08 85.7573 37.08C85.512 37.08 85.3146 37.0107 85.1653 36.872C85.0266 36.7333 84.9573 36.5467 84.9573 36.312V32.232C84.9573 31.5707 84.824 31.0853 84.5573 30.776C84.3013 30.4667 83.896 30.312 83.3413 30.312C82.6906 30.312 82.168 30.5147 81.7733 30.92C81.3786 31.3253 81.1813 31.8693 81.1813 32.552V36.312C81.1813 36.5467 81.1066 36.7333 80.9573 36.872C80.8186 37.0107 80.6266 37.08 80.3813 37.08C80.136 37.08 79.9386 37.0107 79.7893 36.872C79.64 36.7333 79.5653 36.5467 79.5653 36.312V29.8C79.5653 29.576 79.64 29.3947 79.7893 29.256C79.9493 29.1067 80.1466 29.032 80.3813 29.032C80.616 29.032 80.8026 29.1013 80.9413 29.24C81.08 29.3787 81.1493 29.56 81.1493 29.784V30.44C81.4053 29.9707 81.7626 29.6133 82.2213 29.368C82.68 29.1227 83.1973 29 83.7733 29ZM92.1761 37.112C91.4081 37.112 90.7307 36.9467 90.1441 36.616C89.5681 36.2853 89.1201 35.816 88.8001 35.208C88.4907 34.5893 88.3361 33.8747 88.3361 33.064C88.3361 32.2427 88.4907 31.528 88.8001 30.92C89.1201 30.3013 89.5681 29.8267 90.1441 29.496C90.7307 29.1653 91.4081 29 92.1761 29C92.9441 29 93.6161 29.1653 94.1921 29.496C94.7787 29.8267 95.2267 30.3013 95.5361 30.92C95.8561 31.528 96.0161 32.2427 96.0161 33.064C96.0161 33.8747 95.8561 34.5893 95.5361 35.208C95.2267 35.816 94.7787 36.2853 94.1921 36.616C93.6161 36.9467 92.9441 37.112 92.1761 37.112ZM92.1761 35.832C92.8907 35.832 93.4347 35.5973 93.8081 35.128C94.1921 34.6587 94.3841 33.9707 94.3841 33.064C94.3841 32.168 94.1921 31.4853 93.8081 31.016C93.4241 30.536 92.8801 30.296 92.1761 30.296C91.4721 30.296 90.9281 30.536 90.5441 31.016C90.1601 31.4853 89.9681 32.168 89.9681 33.064C89.9681 33.9707 90.1547 34.6587 90.5281 35.128C90.9121 35.5973 91.4614 35.832 92.1761 35.832ZM98.6313 37.08C98.3966 37.08 98.1993 37.016 98.0393 36.888C97.89 36.76 97.8153 36.568 97.8153 36.312V26.424C97.8153 26.168 97.89 25.976 98.0393 25.848C98.1993 25.7093 98.3966 25.64 98.6313 25.64C98.866 25.64 99.058 25.7093 99.2073 25.848C99.3566 25.976 99.4313 26.168 99.4313 26.424V36.312C99.4313 36.568 99.3566 36.76 99.2073 36.888C99.058 37.016 98.866 37.08 98.6313 37.08ZM105.082 37.112C104.314 37.112 103.637 36.9467 103.05 36.616C102.474 36.2853 102.026 35.816 101.706 35.208C101.397 34.5893 101.242 33.8747 101.242 33.064C101.242 32.2427 101.397 31.528 101.706 30.92C102.026 30.3013 102.474 29.8267 103.05 29.496C103.637 29.1653 104.314 29 105.082 29C105.85 29 106.522 29.1653 107.098 29.496C107.685 29.8267 108.133 30.3013 108.442 30.92C108.762 31.528 108.922 32.2427 108.922 33.064C108.922 33.8747 108.762 34.5893 108.442 35.208C108.133 35.816 107.685 36.2853 107.098 36.616C106.522 36.9467 105.85 37.112 105.082 37.112ZM105.082 35.832C105.797 35.832 106.341 35.5973 106.714 35.128C107.098 34.6587 107.29 33.9707 107.29 33.064C107.29 32.168 107.098 31.4853 106.714 31.016C106.33 30.536 105.786 30.296 105.082 30.296C104.378 30.296 103.834 30.536 103.45 31.016C103.066 31.4853 102.874 32.168 102.874 33.064C102.874 33.9707 103.061 34.6587 103.434 35.128C103.818 35.5973 104.368 35.832 105.082 35.832ZM117.186 29.032C117.431 29.032 117.623 29.1067 117.762 29.256C117.911 29.3947 117.986 29.5813 117.986 29.816V36.376C117.986 37.5707 117.666 38.472 117.026 39.08C116.396 39.688 115.463 39.992 114.226 39.992C113.074 39.992 112.114 39.7733 111.346 39.336C110.951 39.112 110.754 38.8453 110.754 38.536C110.754 38.3547 110.802 38.2053 110.898 38.088C111.004 37.9707 111.132 37.912 111.282 37.912C111.42 37.912 111.639 37.992 111.938 38.152C112.322 38.3333 112.679 38.472 113.01 38.568C113.34 38.6747 113.735 38.728 114.194 38.728C115.666 38.728 116.402 37.9867 116.402 36.504V35.272C116.178 35.7413 115.836 36.1093 115.378 36.376C114.919 36.632 114.386 36.76 113.778 36.76C113.095 36.76 112.487 36.6 111.954 36.28C111.42 35.96 111.004 35.5067 110.706 34.92C110.418 34.3333 110.274 33.656 110.274 32.888C110.274 32.12 110.423 31.4427 110.722 30.856C111.02 30.2693 111.431 29.816 111.954 29.496C112.487 29.1653 113.095 29 113.778 29C114.375 29 114.898 29.128 115.346 29.384C115.804 29.64 116.151 30.0027 116.386 30.472V29.8C116.386 29.5653 116.455 29.3787 116.594 29.24C116.743 29.1013 116.94 29.032 117.186 29.032ZM114.162 35.48C114.855 35.48 115.399 35.2507 115.794 34.792C116.188 34.3333 116.386 33.6987 116.386 32.888C116.386 32.088 116.188 31.4587 115.794 31C115.41 30.5307 114.866 30.296 114.162 30.296C113.458 30.296 112.903 30.5253 112.498 30.984C112.103 31.4427 111.906 32.0773 111.906 32.888C111.906 33.6987 112.108 34.3333 112.514 34.792C112.919 35.2507 113.468 35.48 114.162 35.48ZM125.789 29.512C125.853 29.352 125.944 29.2347 126.061 29.16C126.189 29.0853 126.323 29.048 126.461 29.048C126.664 29.048 126.84 29.1173 126.989 29.256C127.149 29.3947 127.229 29.56 127.229 29.752C127.229 29.8587 127.208 29.96 127.165 30.056L122.717 39.496C122.653 39.6453 122.557 39.7573 122.429 39.832C122.312 39.9173 122.184 39.96 122.045 39.96C121.853 39.96 121.677 39.896 121.517 39.768C121.368 39.64 121.293 39.48 121.293 39.288C121.293 39.2027 121.32 39.096 121.373 38.968L122.477 36.616L119.389 30.056C119.347 29.9707 119.325 29.8747 119.325 29.768C119.325 29.5653 119.411 29.3947 119.581 29.256C119.752 29.1173 119.944 29.048 120.157 29.048C120.477 29.048 120.707 29.1973 120.845 29.496L123.325 35L125.789 29.512Z" fill="white"/>
</svg>
