<svg width="172" height="64" viewBox="0 0 172 64" fill="none" xmlns="http://www.w3.org/2000/svg">
<rect width="172" height="64" rx="5" fill="black"/>
<rect width="172" height="64" rx="5" fill="white" fill-opacity="0.5"/>
<path d="M69.1445 37.08C68.8992 37.08 68.6965 37.0053 68.5365 36.856C68.3872 36.696 68.3125 36.4933 68.3125 36.248V27.096H65.1125C64.6005 27.096 64.3445 26.8667 64.3445 26.408C64.3445 26.184 64.4085 26.0133 64.5365 25.896C64.6752 25.7787 64.8672 25.72 65.1125 25.72H73.1765C73.4218 25.72 73.6085 25.7787 73.7365 25.896C73.8752 26.0133 73.9445 26.184 73.9445 26.408C73.9445 26.8667 73.6885 27.096 73.1765 27.096H69.9765V36.248C69.9765 36.4933 69.9018 36.696 69.7525 36.856C69.6032 37.0053 69.4005 37.08 69.1445 37.08ZM77.9816 29.032C78.4936 29 78.7496 29.2187 78.7496 29.688C78.7496 29.9227 78.691 30.0987 78.5736 30.216C78.4563 30.3333 78.2536 30.4027 77.9656 30.424L77.4856 30.472C76.8136 30.536 76.3123 30.7707 75.9816 31.176C75.6616 31.5813 75.5016 32.072 75.5016 32.648V36.312C75.5016 36.568 75.427 36.76 75.2776 36.888C75.1283 37.016 74.9363 37.08 74.7016 37.08C74.467 37.08 74.2696 37.016 74.1096 36.888C73.9603 36.76 73.8856 36.568 73.8856 36.312V29.8C73.8856 29.5547 73.9603 29.368 74.1096 29.24C74.2696 29.1013 74.467 29.032 74.7016 29.032C74.915 29.032 75.091 29.1013 75.2296 29.24C75.379 29.368 75.4536 29.5493 75.4536 29.784V30.552C75.667 30.0827 75.9763 29.7253 76.3816 29.48C76.787 29.2347 77.2456 29.0907 77.7576 29.048L77.9816 29.032ZM82.9781 29C84.0128 29 84.7808 29.2613 85.2821 29.784C85.7941 30.3067 86.0501 31.1013 86.0501 32.168V36.312C86.0501 36.5573 85.9808 36.7493 85.8421 36.888C85.7035 37.016 85.5115 37.08 85.2661 37.08C85.0315 37.08 84.8448 37.0107 84.7061 36.872C84.5675 36.7333 84.4981 36.5467 84.4981 36.312V35.72C84.2955 36.168 83.9915 36.5147 83.5861 36.76C83.1915 36.9947 82.7275 37.112 82.1941 37.112C81.6821 37.112 81.2128 37.0107 80.7861 36.808C80.3701 36.5947 80.0395 36.3067 79.7941 35.944C79.5488 35.5813 79.4261 35.1707 79.4261 34.712C79.4155 34.136 79.5595 33.688 79.8581 33.368C80.1568 33.0373 80.6421 32.8027 81.3141 32.664C81.9861 32.5147 82.9195 32.44 84.1141 32.44H84.4821V31.976C84.4821 31.3787 84.3595 30.9467 84.1141 30.68C83.8688 30.4133 83.4741 30.28 82.9301 30.28C82.5568 30.28 82.2048 30.328 81.8741 30.424C81.5435 30.52 81.1808 30.6587 80.7861 30.84C80.4981 31 80.2955 31.08 80.1781 31.08C80.0181 31.08 79.8848 31.0213 79.7781 30.904C79.6821 30.7867 79.6341 30.6373 79.6341 30.456C79.6341 30.296 79.6768 30.1573 79.7621 30.04C79.8581 29.912 80.0075 29.7893 80.2101 29.672C80.5835 29.4693 81.0208 29.3093 81.5221 29.192C82.0235 29.064 82.5088 29 82.9781 29ZM82.4821 35.912C83.0688 35.912 83.5488 35.7147 83.9221 35.32C84.2955 34.9147 84.4821 34.3973 84.4821 33.768V33.352H84.1941C83.3621 33.352 82.7221 33.3893 82.2741 33.464C81.8261 33.5387 81.5061 33.6667 81.3141 33.848C81.1221 34.0187 81.0261 34.2693 81.0261 34.6C81.0261 34.984 81.1648 35.2987 81.4421 35.544C81.7195 35.7893 82.0661 35.912 82.4821 35.912ZM93.8126 29.512C93.8766 29.352 93.9673 29.2347 94.0846 29.16C94.2126 29.0853 94.346 29.048 94.4846 29.048C94.6873 29.048 94.8633 29.1173 95.0126 29.256C95.1726 29.3947 95.2526 29.56 95.2526 29.752C95.2526 29.8587 95.2313 29.96 95.1886 30.056L92.1326 36.536C92.058 36.7067 91.9406 36.84 91.7806 36.936C91.6313 37.0213 91.4713 37.064 91.3006 37.064C91.13 37.064 90.9646 37.0213 90.8046 36.936C90.6553 36.84 90.5433 36.7067 90.4686 36.536L87.4126 30.056C87.37 29.9707 87.3486 29.8693 87.3486 29.752C87.3486 29.56 87.434 29.3947 87.6046 29.256C87.7753 29.1173 87.9673 29.048 88.1806 29.048C88.49 29.048 88.7193 29.1973 88.8686 29.496L91.3486 35L93.8126 29.512ZM102.576 35.032C102.725 35.032 102.848 35.0907 102.944 35.208C103.04 35.3253 103.088 35.4747 103.088 35.656C103.088 35.9653 102.896 36.2267 102.512 36.44C102.138 36.6533 101.728 36.8187 101.28 36.936C100.842 37.0533 100.421 37.112 100.016 37.112C98.7784 37.112 97.8024 36.7547 97.0878 36.04C96.3731 35.3147 96.0158 34.328 96.0158 33.08C96.0158 32.28 96.1704 31.5707 96.4798 30.952C96.7998 30.3333 97.2424 29.8533 97.8078 29.512C98.3838 29.1707 99.0344 29 99.7598 29C100.805 29 101.632 29.336 102.24 30.008C102.848 30.68 103.152 31.5867 103.152 32.728C103.152 33.1547 102.96 33.368 102.576 33.368H97.6318C97.7384 35.0213 98.5331 35.848 100.016 35.848C100.41 35.848 100.752 35.7947 101.04 35.688C101.328 35.5813 101.632 35.4427 101.952 35.272C101.984 35.2507 102.069 35.208 102.208 35.144C102.357 35.0693 102.48 35.032 102.576 35.032ZM99.7918 30.184C99.1731 30.184 98.6771 30.3813 98.3038 30.776C97.9304 31.1707 97.7064 31.7253 97.6318 32.44H101.76C101.728 31.7147 101.541 31.16 101.2 30.776C100.869 30.3813 100.4 30.184 99.7918 30.184ZM105.749 37.08C105.514 37.08 105.317 37.016 105.157 36.888C105.007 36.76 104.933 36.568 104.933 36.312V26.424C104.933 26.168 105.007 25.976 105.157 25.848C105.317 25.7093 105.514 25.64 105.749 25.64C105.983 25.64 106.175 25.7093 106.325 25.848C106.474 25.976 106.549 26.168 106.549 26.424V36.312C106.549 36.568 106.474 36.76 106.325 36.888C106.175 37.016 105.983 37.08 105.749 37.08Z" fill="white"/>
</svg>
