<svg width="172" height="64" viewBox="0 0 172 64" fill="none" xmlns="http://www.w3.org/2000/svg">
<rect width="172" height="64" rx="5" fill="black"/>
<rect width="172" height="64" rx="5" fill="white" fill-opacity="0.5"/>
<path d="M69.9639 37.08C69.7186 37.08 69.5213 37.0053 69.3719 36.856C69.2226 36.696 69.1479 36.4933 69.1479 36.248V26.52C69.1479 26.2747 69.2173 26.0827 69.3559 25.944C69.5053 25.7947 69.7079 25.72 69.9639 25.72H75.6919C76.2039 25.72 76.4599 25.944 76.4599 26.392C76.4599 26.84 76.2039 27.064 75.6919 27.064H70.7799V30.6H75.3719C75.8839 30.6 76.1399 30.824 76.1399 31.272C76.1399 31.72 75.8839 31.944 75.3719 31.944H70.7799V36.248C70.7799 36.504 70.7053 36.7067 70.5559 36.856C70.4173 37.0053 70.2199 37.08 69.9639 37.08ZM81.1604 37.112C80.3924 37.112 79.7151 36.9467 79.1284 36.616C78.5524 36.2853 78.1044 35.816 77.7844 35.208C77.4751 34.5893 77.3204 33.8747 77.3204 33.064C77.3204 32.2427 77.4751 31.528 77.7844 30.92C78.1044 30.3013 78.5524 29.8267 79.1284 29.496C79.7151 29.1653 80.3924 29 81.1604 29C81.9284 29 82.6004 29.1653 83.1764 29.496C83.7631 29.8267 84.2111 30.3013 84.5204 30.92C84.8404 31.528 85.0004 32.2427 85.0004 33.064C85.0004 33.8747 84.8404 34.5893 84.5204 35.208C84.2111 35.816 83.7631 36.2853 83.1764 36.616C82.6004 36.9467 81.9284 37.112 81.1604 37.112ZM81.1604 35.832C81.8751 35.832 82.4191 35.5973 82.7924 35.128C83.1764 34.6587 83.3684 33.9707 83.3684 33.064C83.3684 32.168 83.1764 31.4853 82.7924 31.016C82.4084 30.536 81.8644 30.296 81.1604 30.296C80.4564 30.296 79.9124 30.536 79.5284 31.016C79.1444 31.4853 78.9524 32.168 78.9524 33.064C78.9524 33.9707 79.1391 34.6587 79.5124 35.128C79.8964 35.5973 80.4458 35.832 81.1604 35.832ZM90.1917 37.112C89.4237 37.112 88.7464 36.9467 88.1597 36.616C87.5837 36.2853 87.1357 35.816 86.8157 35.208C86.5064 34.5893 86.3517 33.8747 86.3517 33.064C86.3517 32.2427 86.5064 31.528 86.8157 30.92C87.1357 30.3013 87.5837 29.8267 88.1597 29.496C88.7464 29.1653 89.4237 29 90.1917 29C90.9597 29 91.6317 29.1653 92.2077 29.496C92.7944 29.8267 93.2424 30.3013 93.5517 30.92C93.8717 31.528 94.0317 32.2427 94.0317 33.064C94.0317 33.8747 93.8717 34.5893 93.5517 35.208C93.2424 35.816 92.7944 36.2853 92.2077 36.616C91.6317 36.9467 90.9597 37.112 90.1917 37.112ZM90.1917 35.832C90.9064 35.832 91.4504 35.5973 91.8237 35.128C92.2077 34.6587 92.3997 33.9707 92.3997 33.064C92.3997 32.168 92.2077 31.4853 91.8237 31.016C91.4397 30.536 90.8957 30.296 90.1917 30.296C89.4877 30.296 88.9437 30.536 88.5597 31.016C88.1757 31.4853 87.9837 32.168 87.9837 33.064C87.9837 33.9707 88.1704 34.6587 88.5437 35.128C88.9277 35.5973 89.477 35.832 90.1917 35.832ZM102.215 25.64C102.46 25.64 102.658 25.7093 102.807 25.848C102.956 25.9867 103.031 26.1733 103.031 26.408V36.296C103.031 36.5413 102.956 36.7333 102.807 36.872C102.668 37.0107 102.476 37.08 102.231 37.08C101.986 37.08 101.788 37.0107 101.639 36.872C101.5 36.7333 101.431 36.5413 101.431 36.296V35.656C101.196 36.1253 100.855 36.488 100.407 36.744C99.9589 36.9893 99.4416 37.112 98.8549 37.112C98.1829 37.112 97.5803 36.9413 97.0469 36.6C96.5243 36.2587 96.1136 35.7787 95.8149 35.16C95.5269 34.5413 95.3829 33.832 95.3829 33.032C95.3829 32.2213 95.5269 31.512 95.8149 30.904C96.1136 30.296 96.5243 29.8267 97.0469 29.496C97.5696 29.1653 98.1723 29 98.8549 29C99.4416 29 99.9536 29.128 100.391 29.384C100.839 29.6293 101.18 29.9813 101.415 30.44V26.376C101.415 26.152 101.484 25.976 101.623 25.848C101.772 25.7093 101.97 25.64 102.215 25.64ZM99.2389 35.832C99.9323 35.832 100.471 35.592 100.855 35.112C101.239 34.632 101.431 33.9493 101.431 33.064C101.431 32.1787 101.239 31.496 100.855 31.016C100.482 30.536 99.9429 30.296 99.2389 30.296C98.5349 30.296 97.9856 30.536 97.5909 31.016C97.2069 31.4853 97.0149 32.1573 97.0149 33.032C97.0149 33.9067 97.2123 34.5947 97.6069 35.096C98.0016 35.5867 98.5456 35.832 99.2389 35.832Z" fill="white"/>
</svg>
