<svg width="360" height="52" viewBox="0 0 360 52" fill="none" xmlns="http://www.w3.org/2000/svg">
<rect x="0.5" y="0.5" width="359" height="51" rx="4.5" fill="white"/>
<path d="M58.992 31.128C58.192 31.128 57.424 31.0107 56.688 30.776C55.9627 30.5307 55.3813 30.2053 54.944 29.8C54.784 29.6507 54.704 29.464 54.704 29.24C54.704 29.0907 54.7467 28.9627 54.832 28.856C54.9173 28.7387 55.0187 28.68 55.136 28.68C55.2747 28.68 55.424 28.7387 55.584 28.856C56.576 29.624 57.7067 30.008 58.976 30.008C59.8933 30.008 60.5973 29.832 61.088 29.48C61.5787 29.128 61.824 28.6267 61.824 27.976C61.824 27.6027 61.7067 27.304 61.472 27.08C61.2373 26.8453 60.928 26.6587 60.544 26.52C60.16 26.3813 59.6427 26.2373 58.992 26.088C58.1173 25.8853 57.3973 25.672 56.832 25.448C56.2773 25.224 55.824 24.904 55.472 24.488C55.1307 24.072 54.96 23.528 54.96 22.856C54.96 22.216 55.1307 21.6507 55.472 21.16C55.824 20.6587 56.3093 20.2747 56.928 20.008C57.5573 19.7307 58.272 19.592 59.072 19.592C59.8187 19.592 60.512 19.7093 61.152 19.944C61.8027 20.168 62.3467 20.4933 62.784 20.92C62.9547 21.0907 63.04 21.2773 63.04 21.48C63.04 21.6293 62.9973 21.7627 62.912 21.88C62.8267 21.9867 62.7253 22.04 62.608 22.04C62.4907 22.04 62.336 21.9813 62.144 21.864C61.6213 21.4373 61.136 21.1387 60.688 20.968C60.24 20.7973 59.7013 20.712 59.072 20.712C58.1867 20.712 57.4987 20.8987 57.008 21.272C56.5173 21.6347 56.272 22.1467 56.272 22.808C56.272 23.3733 56.4853 23.8 56.912 24.088C57.3493 24.3653 58.016 24.6107 58.912 24.824C59.8827 25.0587 60.6453 25.2773 61.2 25.48C61.7547 25.672 62.2133 25.9653 62.576 26.36C62.9493 26.7547 63.136 27.2827 63.136 27.944C63.136 28.5733 62.96 29.128 62.608 29.608C62.2667 30.088 61.7813 30.4613 61.152 30.728C60.5227 30.9947 59.8027 31.128 58.992 31.128ZM71.107 29.192C71.2243 29.192 71.3257 29.24 71.411 29.336C71.4963 29.432 71.539 29.5547 71.539 29.704C71.539 29.9707 71.3523 30.216 70.979 30.44C70.595 30.664 70.1897 30.8347 69.763 30.952C69.3363 31.0587 68.9203 31.112 68.515 31.112C67.3097 31.112 66.355 30.7547 65.651 30.04C64.9577 29.3253 64.611 28.3387 64.611 27.08C64.611 26.28 64.7657 25.576 65.075 24.968C65.3843 24.3493 65.8163 23.8693 66.371 23.528C66.9363 23.1867 67.5763 23.016 68.291 23.016C69.3043 23.016 70.1097 23.3467 70.707 24.008C71.3043 24.6693 71.603 25.5653 71.603 26.696C71.603 26.9093 71.5603 27.064 71.475 27.16C71.3897 27.256 71.251 27.304 71.059 27.304H65.907C66.003 29.1387 66.8723 30.056 68.515 30.056C68.931 30.056 69.2883 30.0027 69.587 29.896C69.8857 29.7787 70.2057 29.624 70.547 29.432C70.8243 29.272 71.011 29.192 71.107 29.192ZM68.307 24.024C67.6243 24.024 67.075 24.2373 66.659 24.664C66.2537 25.0907 66.0137 25.6933 65.939 26.472H70.467C70.4457 25.6827 70.2483 25.08 69.875 24.664C69.5017 24.2373 68.979 24.024 68.307 24.024ZM76.6965 23.016C78.6485 23.016 79.6245 24.04 79.6245 26.088V30.44C79.6245 30.632 79.5658 30.7867 79.4485 30.904C79.3418 31.0213 79.1925 31.08 79.0005 31.08C78.8085 31.08 78.6538 31.0213 78.5365 30.904C78.4192 30.7867 78.3605 30.632 78.3605 30.44V29.672C78.1578 30.1307 77.8485 30.488 77.4325 30.744C77.0165 30.9893 76.5365 31.112 75.9925 31.112C75.4912 31.112 75.0272 31.0107 74.6005 30.808C74.1845 30.6053 73.8538 30.3227 73.6085 29.96C73.3632 29.5973 73.2405 29.1973 73.2405 28.76C73.2405 28.1733 73.3898 27.72 73.6885 27.4C73.9872 27.0693 74.4778 26.8347 75.1605 26.696C75.8432 26.5467 76.7925 26.472 78.0085 26.472H78.3605V25.944C78.3605 25.304 78.2272 24.8347 77.9605 24.536C77.7045 24.2373 77.2832 24.088 76.6965 24.088C75.9712 24.088 75.2352 24.2853 74.4885 24.68C74.2005 24.8613 73.9978 24.952 73.8805 24.952C73.7525 24.952 73.6458 24.904 73.5605 24.808C73.4752 24.712 73.4325 24.5893 73.4325 24.44C73.4325 24.2907 73.4752 24.1627 73.5605 24.056C73.6565 23.9387 73.8058 23.8213 74.0085 23.704C74.3818 23.4907 74.8032 23.3253 75.2725 23.208C75.7525 23.08 76.2272 23.016 76.6965 23.016ZM76.1685 30.088C76.8085 30.088 77.3312 29.8747 77.7365 29.448C78.1525 29.0107 78.3605 28.4507 78.3605 27.768V27.304H78.0725C77.1338 27.304 76.4192 27.3467 75.9285 27.432C75.4378 27.5067 75.0858 27.64 74.8725 27.832C74.6698 28.0133 74.5685 28.2853 74.5685 28.648C74.5685 29.064 74.7178 29.4107 75.0165 29.688C75.3258 29.9547 75.7098 30.088 76.1685 30.088ZM85.8529 23.048C86.3009 23.016 86.5249 23.1973 86.5249 23.592C86.5249 23.7627 86.4769 23.9013 86.3809 24.008C86.2849 24.104 86.1195 24.1627 85.8849 24.184L85.4049 24.232C84.6902 24.296 84.1569 24.552 83.8049 25C83.4635 25.4373 83.2929 25.9547 83.2929 26.552V30.44C83.2929 30.6533 83.2342 30.8133 83.1169 30.92C82.9995 31.0267 82.8449 31.08 82.6529 31.08C82.4609 31.08 82.3009 31.0267 82.1729 30.92C82.0555 30.8027 81.9969 30.6427 81.9969 30.44V23.688C81.9969 23.4853 82.0609 23.3307 82.1889 23.224C82.3169 23.1067 82.4715 23.048 82.6529 23.048C82.8235 23.048 82.9675 23.1067 83.0849 23.224C83.2022 23.3307 83.2609 23.48 83.2609 23.672V24.568C83.4849 24.0987 83.7995 23.7413 84.2049 23.496C84.6209 23.2507 85.0955 23.1067 85.6289 23.064L85.8529 23.048ZM90.6973 31.112C89.9719 31.112 89.3266 30.9467 88.7613 30.616C88.2066 30.2853 87.7746 29.816 87.4653 29.208C87.1666 28.6 87.0173 27.896 87.0173 27.096C87.0173 26.296 87.1719 25.5867 87.4813 24.968C87.8013 24.3493 88.2439 23.8693 88.8093 23.528C89.3746 23.1867 90.0253 23.016 90.7613 23.016C91.1666 23.016 91.5666 23.0747 91.9613 23.192C92.3666 23.2987 92.7186 23.4587 93.0173 23.672C93.2093 23.8 93.3426 23.928 93.4173 24.056C93.5026 24.1733 93.5453 24.3067 93.5453 24.456C93.5453 24.6053 93.5026 24.728 93.4173 24.824C93.3426 24.92 93.2413 24.968 93.1133 24.968C93.0386 24.968 92.9586 24.9467 92.8733 24.904C92.7879 24.8613 92.7133 24.8187 92.6493 24.776C92.5959 24.7333 92.5586 24.7067 92.5373 24.696C92.2599 24.5147 91.9933 24.3707 91.7373 24.264C91.4919 24.1573 91.1879 24.104 90.8253 24.104C90.0466 24.104 89.4386 24.3707 89.0013 24.904C88.5746 25.4267 88.3613 26.1573 88.3613 27.096C88.3613 28.0347 88.5746 28.76 89.0013 29.272C89.4386 29.784 90.0466 30.04 90.8253 30.04C91.1879 30.04 91.4973 29.9867 91.7533 29.88C92.0199 29.7733 92.2866 29.6293 92.5533 29.448C92.6706 29.3733 92.7826 29.3093 92.8893 29.256C92.9959 29.2027 93.0866 29.176 93.1613 29.176C93.2786 29.176 93.3746 29.224 93.4493 29.32C93.5346 29.416 93.5773 29.5387 93.5773 29.688C93.5773 29.8267 93.5399 29.9547 93.4653 30.072C93.3906 30.1787 93.2519 30.3013 93.0493 30.44C92.7506 30.6427 92.3879 30.808 91.9613 30.936C91.5453 31.0533 91.1239 31.112 90.6973 31.112ZM99.0735 23.016C99.9908 23.016 100.684 23.2773 101.154 23.8C101.623 24.312 101.858 25.08 101.858 26.104V30.44C101.858 30.6427 101.799 30.8027 101.682 30.92C101.564 31.0267 101.41 31.08 101.218 31.08C101.015 31.08 100.855 31.0267 100.738 30.92C100.62 30.8027 100.562 30.6427 100.562 30.44V26.136C100.562 25.4427 100.418 24.9307 100.13 24.6C99.8522 24.2693 99.4042 24.104 98.7855 24.104C98.0708 24.104 97.5002 24.3227 97.0735 24.76C96.6468 25.1973 96.4335 25.7893 96.4335 26.536V30.44C96.4335 30.6427 96.3748 30.8027 96.2575 30.92C96.1508 31.0267 95.9962 31.08 95.7935 31.08C95.5908 31.08 95.4308 31.0267 95.3135 30.92C95.1962 30.8027 95.1375 30.6427 95.1375 30.44V20.264C95.1375 20.0827 95.1962 19.9333 95.3135 19.816C95.4415 19.6987 95.6015 19.64 95.7935 19.64C95.9962 19.64 96.1508 19.6987 96.2575 19.816C96.3748 19.9227 96.4335 20.072 96.4335 20.264V24.456C96.6895 23.9867 97.0468 23.6293 97.5055 23.384C97.9642 23.1387 98.4868 23.016 99.0735 23.016Z" fill="#939AAD"/>
<path d="M29 33C33.4183 33 37 29.4183 37 25C37 20.5817 33.4183 17 29 17C24.5817 17 21 20.5817 21 25C21 29.4183 24.5817 33 29 33Z" stroke="#00AAFF" stroke-width="1.6" stroke-linecap="round" stroke-linejoin="round"/>
<path d="M39.0004 35.0004L34.6504 30.6504" stroke="#00AAFF" stroke-width="1.6" stroke-linecap="round" stroke-linejoin="round"/>
<rect x="0.5" y="0.5" width="359" height="51" rx="4.5" stroke="#EBEEF7"/>
</svg>
