<svg width="326" height="144" viewBox="0 0 326 144" fill="none" xmlns="http://www.w3.org/2000/svg">
<rect width="75" height="40" rx="20" fill="white"/>
<path d="M20.784 25.08C20.5813 25.08 20.416 25.0213 20.288 24.904C20.1707 24.776 20.112 24.6107 20.112 24.408V14.84H16.672C16.48 14.84 16.3307 14.792 16.224 14.696C16.1173 14.6 16.064 14.4613 16.064 14.28C16.064 14.0987 16.1173 13.96 16.224 13.864C16.3307 13.768 16.48 13.72 16.672 13.72H24.88C25.072 13.72 25.2213 13.768 25.328 13.864C25.4347 13.96 25.488 14.0987 25.488 14.28C25.488 14.4613 25.4347 14.6 25.328 14.696C25.2213 14.792 25.072 14.84 24.88 14.84H21.44V24.408C21.44 24.6107 21.3813 24.776 21.264 24.904C21.1467 25.0213 20.9867 25.08 20.784 25.08ZM29.3998 17.048C29.8478 17.016 30.0718 17.1973 30.0718 17.592C30.0718 17.7627 30.0238 17.9013 29.9278 18.008C29.8318 18.104 29.6664 18.1627 29.4318 18.184L28.9518 18.232C28.2371 18.296 27.7038 18.552 27.3518 19C27.0104 19.4373 26.8398 19.9547 26.8398 20.552V24.44C26.8398 24.6533 26.7811 24.8133 26.6638 24.92C26.5464 25.0267 26.3918 25.08 26.1998 25.08C26.0078 25.08 25.8478 25.0267 25.7198 24.92C25.6024 24.8027 25.5438 24.6427 25.5438 24.44V17.688C25.5438 17.4853 25.6078 17.3307 25.7358 17.224C25.8638 17.1067 26.0184 17.048 26.1998 17.048C26.3704 17.048 26.5144 17.1067 26.6318 17.224C26.7491 17.3307 26.8078 17.48 26.8078 17.672V18.568C27.0318 18.0987 27.3464 17.7413 27.7518 17.496C28.1678 17.2507 28.6424 17.1067 29.1758 17.064L29.3998 17.048ZM34.3059 17.016C36.2579 17.016 37.2339 18.04 37.2339 20.088V24.44C37.2339 24.632 37.1752 24.7867 37.0579 24.904C36.9512 25.0213 36.8019 25.08 36.6099 25.08C36.4179 25.08 36.2632 25.0213 36.1459 24.904C36.0285 24.7867 35.9699 24.632 35.9699 24.44V23.672C35.7672 24.1307 35.4579 24.488 35.0419 24.744C34.6259 24.9893 34.1459 25.112 33.6019 25.112C33.1005 25.112 32.6365 25.0107 32.2099 24.808C31.7939 24.6053 31.4632 24.3227 31.2179 23.96C30.9725 23.5973 30.8499 23.1973 30.8499 22.76C30.8499 22.1733 30.9992 21.72 31.2979 21.4C31.5965 21.0693 32.0872 20.8347 32.7699 20.696C33.4525 20.5467 34.4019 20.472 35.6179 20.472H35.9699V19.944C35.9699 19.304 35.8365 18.8347 35.5699 18.536C35.3139 18.2373 34.8925 18.088 34.3059 18.088C33.5805 18.088 32.8445 18.2853 32.0979 18.68C31.8099 18.8613 31.6072 18.952 31.4899 18.952C31.3619 18.952 31.2552 18.904 31.1699 18.808C31.0845 18.712 31.0419 18.5893 31.0419 18.44C31.0419 18.2907 31.0845 18.1627 31.1699 18.056C31.2659 17.9387 31.4152 17.8213 31.6179 17.704C31.9912 17.4907 32.4125 17.3253 32.8819 17.208C33.3619 17.08 33.8365 17.016 34.3059 17.016ZM33.7779 24.088C34.4179 24.088 34.9405 23.8747 35.3459 23.448C35.7619 23.0107 35.9699 22.4507 35.9699 21.768V21.304H35.6819C34.7432 21.304 34.0285 21.3467 33.5379 21.432C33.0472 21.5067 32.6952 21.64 32.4819 21.832C32.2792 22.0133 32.1779 22.2853 32.1779 22.648C32.1779 23.064 32.3272 23.4107 32.6259 23.688C32.9352 23.9547 33.3192 24.088 33.7779 24.088ZM45.2223 17.448C45.3396 17.192 45.5263 17.064 45.7823 17.064C45.9423 17.064 46.0863 17.1173 46.2143 17.224C46.3423 17.3307 46.4062 17.464 46.4062 17.624C46.4062 17.72 46.3849 17.8053 46.3423 17.88L43.2223 24.6C43.1583 24.7387 43.0623 24.8507 42.9343 24.936C42.8063 25.0107 42.6676 25.048 42.5182 25.048C42.3796 25.048 42.2463 25.0107 42.1183 24.936C41.9903 24.8507 41.8889 24.7387 41.8143 24.6L38.7103 17.88C38.6676 17.8053 38.6463 17.7253 38.6463 17.64C38.6463 17.48 38.7156 17.3413 38.8543 17.224C39.0036 17.1067 39.1636 17.048 39.3343 17.048C39.4409 17.048 39.5423 17.08 39.6383 17.144C39.7449 17.208 39.8249 17.2987 39.8783 17.416L42.5503 23.416L45.2223 17.448ZM53.7633 23.192C53.8806 23.192 53.9819 23.24 54.0673 23.336C54.1526 23.432 54.1953 23.5547 54.1953 23.704C54.1953 23.9707 54.0086 24.216 53.6353 24.44C53.2513 24.664 52.8459 24.8347 52.4193 24.952C51.9926 25.0587 51.5766 25.112 51.1713 25.112C49.9659 25.112 49.0113 24.7547 48.3073 24.04C47.6139 23.3253 47.2673 22.3387 47.2673 21.08C47.2673 20.28 47.4219 19.576 47.7313 18.968C48.0406 18.3493 48.4726 17.8693 49.0273 17.528C49.5926 17.1867 50.2326 17.016 50.9473 17.016C51.9606 17.016 52.7659 17.3467 53.3633 18.008C53.9606 18.6693 54.2593 19.5653 54.2593 20.696C54.2593 20.9093 54.2166 21.064 54.1313 21.16C54.0459 21.256 53.9073 21.304 53.7153 21.304H48.5633C48.6593 23.1387 49.5286 24.056 51.1713 24.056C51.5873 24.056 51.9446 24.0027 52.2433 23.896C52.5419 23.7787 52.8619 23.624 53.2033 23.432C53.4806 23.272 53.6673 23.192 53.7633 23.192ZM50.9633 18.024C50.2806 18.024 49.7313 18.2373 49.3153 18.664C48.9099 19.0907 48.6699 19.6933 48.5953 20.472H53.1233C53.1019 19.6827 52.9046 19.08 52.5313 18.664C52.1579 18.2373 51.6353 18.024 50.9633 18.024ZM56.8248 25.08C56.6328 25.08 56.4728 25.0267 56.3448 24.92C56.2274 24.8027 56.1688 24.6427 56.1688 24.44V14.28C56.1688 14.0773 56.2274 13.9227 56.3448 13.816C56.4728 13.6987 56.6328 13.64 56.8248 13.64C57.0061 13.64 57.1554 13.6987 57.2728 13.816C57.4008 13.9227 57.4648 14.0773 57.4648 14.28V24.44C57.4648 24.6427 57.4008 24.8027 57.2728 24.92C57.1554 25.0267 57.0061 25.08 56.8248 25.08Z" fill="#464D61"/>
<rect x="87" width="112" height="40" rx="20" fill="white"/>
<path d="M114.104 24.248C114.147 24.3333 114.168 24.424 114.168 24.52C114.168 24.68 114.104 24.8133 113.976 24.92C113.859 25.0267 113.715 25.08 113.544 25.08C113.277 25.08 113.091 24.952 112.984 24.696L111.848 22.104H105.816L104.664 24.696C104.557 24.952 104.371 25.08 104.104 25.08C103.933 25.08 103.784 25.0267 103.656 24.92C103.528 24.8027 103.464 24.664 103.464 24.504C103.464 24.4187 103.485 24.3333 103.528 24.248L108.104 14.072C108.168 13.9227 108.264 13.8107 108.392 13.736C108.52 13.6613 108.659 13.624 108.808 13.624C108.968 13.624 109.112 13.6667 109.24 13.752C109.368 13.8267 109.464 13.9333 109.528 14.072L114.104 24.248ZM106.296 21.016H111.368L108.824 15.272L106.296 21.016ZM122.081 13.64C122.284 13.64 122.444 13.6987 122.561 13.816C122.678 13.9333 122.737 14.0827 122.737 14.264V24.44C122.737 24.632 122.678 24.7867 122.561 24.904C122.444 25.0213 122.284 25.08 122.081 25.08C121.878 25.08 121.718 25.0213 121.601 24.904C121.494 24.7867 121.441 24.632 121.441 24.44V23.576C121.206 24.0667 120.86 24.4453 120.401 24.712C119.953 24.9787 119.425 25.112 118.817 25.112C118.134 25.112 117.532 24.9413 117.009 24.6C116.486 24.2587 116.081 23.784 115.793 23.176C115.505 22.5573 115.361 21.8427 115.361 21.032C115.361 20.232 115.505 19.528 115.793 18.92C116.081 18.312 116.486 17.8427 117.009 17.512C117.532 17.1813 118.134 17.016 118.817 17.016C119.425 17.016 119.953 17.1493 120.401 17.416C120.86 17.6827 121.206 18.0613 121.441 18.552V14.264C121.441 14.072 121.494 13.9227 121.601 13.816C121.718 13.6987 121.878 13.64 122.081 13.64ZM119.073 24.04C119.83 24.04 120.412 23.784 120.817 23.272C121.233 22.7493 121.441 22.0133 121.441 21.064C121.441 20.1147 121.233 19.384 120.817 18.872C120.412 18.36 119.83 18.104 119.073 18.104C118.316 18.104 117.724 18.36 117.297 18.872C116.881 19.384 116.673 20.104 116.673 21.032C116.673 21.9813 116.881 22.7227 117.297 23.256C117.724 23.7787 118.316 24.04 119.073 24.04ZM130.111 25.08C129.908 25.08 129.748 25.0213 129.631 24.904C129.513 24.776 129.455 24.6107 129.455 24.408V14.36C129.455 14.168 129.513 14.0133 129.631 13.896C129.759 13.7787 129.924 13.72 130.127 13.72H133.919C135.103 13.72 136.02 14.008 136.671 14.584C137.332 15.16 137.663 15.976 137.663 17.032C137.663 18.088 137.332 18.9093 136.671 19.496C136.009 20.0827 135.092 20.376 133.919 20.376H130.767V24.408C130.767 24.6107 130.708 24.776 130.591 24.904C130.473 25.0213 130.313 25.08 130.111 25.08ZM133.791 19.288C135.508 19.288 136.367 18.536 136.367 17.032C136.367 15.5493 135.508 14.808 133.791 14.808H130.767V19.288H133.791ZM142.557 25.112C141.821 25.112 141.17 24.9467 140.605 24.616C140.05 24.2853 139.618 23.816 139.309 23.208C139.01 22.5893 138.861 21.8747 138.861 21.064C138.861 20.2533 139.01 19.544 139.309 18.936C139.618 18.3173 140.05 17.8427 140.605 17.512C141.17 17.1813 141.821 17.016 142.557 17.016C143.293 17.016 143.944 17.1813 144.509 17.512C145.074 17.8427 145.506 18.3173 145.805 18.936C146.114 19.544 146.269 20.2533 146.269 21.064C146.269 21.8747 146.114 22.5893 145.805 23.208C145.506 23.816 145.074 24.2853 144.509 24.616C143.944 24.9467 143.293 25.112 142.557 25.112ZM142.557 24.04C143.325 24.04 143.912 23.7893 144.317 23.288C144.733 22.776 144.941 22.0347 144.941 21.064C144.941 20.1147 144.733 19.384 144.317 18.872C143.901 18.3493 143.314 18.088 142.557 18.088C141.8 18.088 141.213 18.3493 140.797 18.872C140.381 19.384 140.173 20.1147 140.173 21.064C140.173 22.024 140.376 22.76 140.781 23.272C141.197 23.784 141.789 24.04 142.557 24.04ZM150.824 25.112C150.333 25.112 149.864 25.0533 149.416 24.936C148.979 24.8187 148.589 24.6533 148.248 24.44C148.056 24.312 147.917 24.1947 147.832 24.088C147.757 23.9707 147.72 23.832 147.72 23.672C147.72 23.5333 147.757 23.4213 147.832 23.336C147.917 23.24 148.024 23.192 148.152 23.192C148.28 23.192 148.467 23.272 148.712 23.432C149.032 23.624 149.347 23.7787 149.656 23.896C149.976 24.0027 150.371 24.056 150.84 24.056C151.416 24.056 151.864 23.9547 152.184 23.752C152.504 23.5493 152.664 23.256 152.664 22.872C152.664 22.6373 152.605 22.4507 152.488 22.312C152.371 22.1627 152.168 22.0347 151.88 21.928C151.592 21.8107 151.171 21.6933 150.616 21.576C149.677 21.3733 149.005 21.1013 148.6 20.76C148.195 20.4187 147.992 19.9547 147.992 19.368C147.992 18.9093 148.12 18.504 148.376 18.152C148.632 17.8 148.984 17.5227 149.432 17.32C149.891 17.1173 150.408 17.016 150.984 17.016C151.4 17.016 151.8 17.0747 152.184 17.192C152.579 17.2987 152.925 17.4533 153.224 17.656C153.587 17.912 153.768 18.1787 153.768 18.456C153.768 18.5947 153.725 18.712 153.64 18.808C153.555 18.904 153.453 18.952 153.336 18.952C153.208 18.952 153.016 18.8613 152.76 18.68C152.461 18.488 152.179 18.3387 151.912 18.232C151.645 18.1253 151.315 18.072 150.92 18.072C150.419 18.072 150.013 18.184 149.704 18.408C149.405 18.632 149.256 18.9307 149.256 19.304C149.256 19.5387 149.309 19.7307 149.416 19.88C149.533 20.0187 149.72 20.1467 149.976 20.264C150.243 20.3707 150.621 20.4773 151.112 20.584C151.837 20.744 152.397 20.92 152.792 21.112C153.197 21.304 153.485 21.5387 153.656 21.816C153.827 22.0933 153.912 22.4453 153.912 22.872C153.912 23.544 153.629 24.088 153.064 24.504C152.499 24.9093 151.752 25.112 150.824 25.112ZM159.409 24.056C159.783 24.088 159.969 24.2587 159.969 24.568C159.969 24.7493 159.9 24.888 159.761 24.984C159.633 25.0693 159.436 25.1013 159.169 25.08L158.737 25.048C157.884 24.984 157.255 24.728 156.849 24.28C156.444 23.832 156.241 23.1547 156.241 22.248V18.232H155.169C154.988 18.232 154.844 18.1893 154.737 18.104C154.641 18.008 154.593 17.8853 154.593 17.736C154.593 17.576 154.641 17.448 154.737 17.352C154.844 17.256 154.988 17.208 155.169 17.208H156.241V15.4C156.241 15.1973 156.3 15.0427 156.417 14.936C156.535 14.8187 156.695 14.76 156.897 14.76C157.089 14.76 157.244 14.8187 157.361 14.936C157.479 15.0427 157.537 15.1973 157.537 15.4V17.208H159.313C159.484 17.208 159.617 17.256 159.713 17.352C159.82 17.448 159.873 17.576 159.873 17.736C159.873 17.8853 159.82 18.008 159.713 18.104C159.617 18.1893 159.484 18.232 159.313 18.232H157.537V22.312C157.537 22.8987 157.655 23.3253 157.889 23.592C158.135 23.848 158.497 23.992 158.977 24.024L159.409 24.056ZM161.903 25.08C161.711 25.08 161.551 25.0267 161.423 24.92C161.306 24.8027 161.247 24.6427 161.247 24.44V17.688C161.247 17.4853 161.306 17.3307 161.423 17.224C161.551 17.1067 161.711 17.048 161.903 17.048C162.095 17.048 162.25 17.1067 162.367 17.224C162.484 17.3307 162.543 17.4853 162.543 17.688V24.44C162.543 24.6533 162.484 24.8133 162.367 24.92C162.25 25.0267 162.095 25.08 161.903 25.08ZM161.903 15.368C161.647 15.368 161.439 15.2933 161.279 15.144C161.119 14.9947 161.039 14.7973 161.039 14.552C161.039 14.3173 161.119 14.1253 161.279 13.976C161.439 13.8267 161.647 13.752 161.903 13.752C162.159 13.752 162.367 13.8267 162.527 13.976C162.687 14.1253 162.767 14.3173 162.767 14.552C162.767 14.7973 162.687 14.9947 162.527 15.144C162.367 15.2933 162.159 15.368 161.903 15.368ZM168.886 17.016C170.752 17.016 171.686 18.0453 171.686 20.104V24.44C171.686 24.6427 171.627 24.8027 171.51 24.92C171.403 25.0267 171.248 25.08 171.046 25.08C170.843 25.08 170.683 25.0267 170.566 24.92C170.448 24.8027 170.39 24.6427 170.39 24.44V20.184C170.39 19.4587 170.246 18.9307 169.958 18.6C169.68 18.2693 169.232 18.104 168.614 18.104C167.899 18.104 167.328 18.3227 166.902 18.76C166.475 19.1973 166.262 19.7893 166.262 20.536V24.44C166.262 24.6427 166.203 24.8027 166.086 24.92C165.979 25.0267 165.824 25.08 165.622 25.08C165.419 25.08 165.259 25.0267 165.142 24.92C165.024 24.8027 164.966 24.6427 164.966 24.44V17.688C164.966 17.496 165.024 17.3413 165.142 17.224C165.259 17.1067 165.419 17.048 165.622 17.048C165.814 17.048 165.963 17.1067 166.07 17.224C166.187 17.3413 166.246 17.4907 166.246 17.672V18.488C166.502 18.008 166.859 17.6453 167.318 17.4C167.776 17.144 168.299 17.016 168.886 17.016ZM180.379 17.048C180.582 17.048 180.742 17.1067 180.859 17.224C180.977 17.3413 181.035 17.496 181.035 17.688V24.472C181.035 25.6347 180.737 26.5093 180.139 27.096C179.542 27.6933 178.657 27.992 177.483 27.992C176.342 27.992 175.393 27.768 174.635 27.32C174.251 27.1067 174.059 26.8613 174.059 26.584C174.059 26.4347 174.097 26.312 174.171 26.216C174.257 26.12 174.363 26.072 174.491 26.072C174.598 26.072 174.79 26.1467 175.067 26.296C175.441 26.488 175.809 26.6427 176.171 26.76C176.534 26.8773 176.966 26.936 177.467 26.936C178.225 26.936 178.795 26.7333 179.179 26.328C179.563 25.9333 179.755 25.352 179.755 24.584V23.208C179.531 23.7093 179.185 24.0933 178.715 24.36C178.257 24.6267 177.713 24.76 177.083 24.76C176.401 24.76 175.793 24.6 175.259 24.28C174.737 23.96 174.326 23.5067 174.027 22.92C173.739 22.3333 173.595 21.656 173.595 20.888C173.595 20.12 173.739 19.4427 174.027 18.856C174.326 18.2693 174.737 17.816 175.259 17.496C175.793 17.176 176.401 17.016 177.083 17.016C177.702 17.016 178.241 17.1493 178.699 17.416C179.158 17.6827 179.505 18.0613 179.739 18.552V17.688C179.739 17.496 179.793 17.3413 179.899 17.224C180.017 17.1067 180.177 17.048 180.379 17.048ZM177.339 23.688C178.086 23.688 178.673 23.4427 179.099 22.952C179.526 22.4507 179.739 21.7627 179.739 20.888C179.739 20.024 179.526 19.3467 179.099 18.856C178.683 18.3547 178.097 18.104 177.339 18.104C176.582 18.104 175.985 18.3547 175.547 18.856C175.121 19.3467 174.907 20.024 174.907 20.888C174.907 21.7627 175.121 22.4507 175.547 22.952C175.985 23.4427 176.582 23.688 177.339 23.688Z" fill="#464D61"/>
<rect x="211" width="115" height="40" rx="20" fill="#00AAFF"/>
<path d="M231.832 25.08C231.587 25.08 231.384 25.0053 231.224 24.856C231.075 24.696 231 24.4933 231 24.248V15.096H227.8C227.288 15.096 227.032 14.8667 227.032 14.408C227.032 14.184 227.096 14.0133 227.224 13.896C227.363 13.7787 227.555 13.72 227.8 13.72H235.864C236.109 13.72 236.296 13.7787 236.424 13.896C236.563 14.0133 236.632 14.184 236.632 14.408C236.632 14.8667 236.376 15.096 235.864 15.096H232.664V24.248C232.664 24.4933 232.589 24.696 232.44 24.856C232.291 25.0053 232.088 25.08 231.832 25.08ZM242.685 23.032C242.834 23.032 242.957 23.0907 243.053 23.208C243.149 23.3253 243.197 23.4747 243.197 23.656C243.197 23.9653 243.005 24.2267 242.621 24.44C242.248 24.6533 241.837 24.8187 241.389 24.936C240.952 25.0533 240.53 25.112 240.125 25.112C238.888 25.112 237.912 24.7547 237.197 24.04C236.482 23.3147 236.125 22.328 236.125 21.08C236.125 20.28 236.28 19.5707 236.589 18.952C236.909 18.3333 237.352 17.8533 237.917 17.512C238.493 17.1707 239.144 17 239.869 17C240.914 17 241.741 17.336 242.349 18.008C242.957 18.68 243.261 19.5867 243.261 20.728C243.261 21.1547 243.069 21.368 242.685 21.368H237.741C237.848 23.0213 238.642 23.848 240.125 23.848C240.52 23.848 240.861 23.7947 241.149 23.688C241.437 23.5813 241.741 23.4427 242.061 23.272C242.093 23.2507 242.178 23.208 242.317 23.144C242.466 23.0693 242.589 23.032 242.685 23.032ZM239.901 18.184C239.282 18.184 238.786 18.3813 238.413 18.776C238.04 19.1707 237.816 19.7253 237.741 20.44H241.869C241.837 19.7147 241.65 19.16 241.309 18.776C240.978 18.3813 240.509 18.184 239.901 18.184ZM248.386 25.112C247.629 25.112 246.962 24.9467 246.386 24.616C245.821 24.2853 245.378 23.816 245.058 23.208C244.749 22.6 244.594 21.896 244.594 21.096C244.594 20.2853 244.754 19.5707 245.074 18.952C245.405 18.3333 245.863 17.8533 246.45 17.512C247.037 17.1707 247.709 17 248.466 17C248.871 17 249.277 17.0587 249.682 17.176C250.098 17.2933 250.466 17.4533 250.786 17.656C251.127 17.8907 251.298 18.1627 251.298 18.472C251.298 18.6533 251.25 18.808 251.154 18.936C251.058 19.0533 250.935 19.112 250.786 19.112C250.69 19.112 250.594 19.0907 250.498 19.048C250.402 18.9947 250.279 18.92 250.13 18.824C249.863 18.6533 249.613 18.5253 249.378 18.44C249.154 18.344 248.882 18.296 248.562 18.296C247.837 18.296 247.271 18.5413 246.866 19.032C246.471 19.5227 246.274 20.2053 246.274 21.08C246.274 21.9547 246.471 22.632 246.866 23.112C247.261 23.5813 247.821 23.816 248.546 23.816C248.866 23.816 249.149 23.768 249.394 23.672C249.639 23.576 249.89 23.448 250.146 23.288C250.263 23.2133 250.381 23.1493 250.498 23.096C250.615 23.0427 250.722 23.016 250.818 23.016C250.967 23.016 251.09 23.08 251.186 23.208C251.282 23.3253 251.33 23.4747 251.33 23.656C251.33 23.8053 251.287 23.944 251.202 24.072C251.127 24.1893 250.994 24.312 250.802 24.44C250.482 24.6533 250.109 24.8187 249.682 24.936C249.255 25.0533 248.823 25.112 248.386 25.112ZM257 17C258.856 17 259.784 18.0507 259.784 20.152V24.312C259.784 24.5467 259.71 24.7333 259.56 24.872C259.411 25.0107 259.214 25.08 258.968 25.08C258.723 25.08 258.526 25.0107 258.376 24.872C258.238 24.7333 258.168 24.5467 258.168 24.312V20.168C258.168 19.528 258.035 19.0587 257.768 18.76C257.512 18.4613 257.107 18.312 256.552 18.312C255.902 18.312 255.379 18.5147 254.984 18.92C254.59 19.3253 254.392 19.8693 254.392 20.552V24.312C254.392 24.5467 254.318 24.7333 254.168 24.872C254.03 25.0107 253.838 25.08 253.592 25.08C253.347 25.08 253.15 25.0107 253 24.872C252.851 24.7333 252.776 24.5467 252.776 24.312V14.408C252.776 14.1733 252.851 13.9867 253 13.848C253.16 13.7093 253.363 13.64 253.608 13.64C253.843 13.64 254.03 13.7093 254.168 13.848C254.318 13.976 254.392 14.152 254.392 14.376V18.376C254.659 17.928 255.016 17.5867 255.464 17.352C255.912 17.1173 256.424 17 257 17ZM266.203 17C268.07 17 269.003 18.0507 269.003 20.152V24.312C269.003 24.5573 268.928 24.7493 268.779 24.888C268.64 25.016 268.443 25.08 268.187 25.08C267.942 25.08 267.744 25.0107 267.595 24.872C267.456 24.7333 267.387 24.5467 267.387 24.312V20.232C267.387 19.5707 267.254 19.0853 266.987 18.776C266.731 18.4667 266.326 18.312 265.771 18.312C265.12 18.312 264.598 18.5147 264.203 18.92C263.808 19.3253 263.611 19.8693 263.611 20.552V24.312C263.611 24.5467 263.536 24.7333 263.387 24.872C263.248 25.0107 263.056 25.08 262.811 25.08C262.566 25.08 262.368 25.0107 262.219 24.872C262.07 24.7333 261.995 24.5467 261.995 24.312V17.8C261.995 17.576 262.07 17.3947 262.219 17.256C262.379 17.1067 262.576 17.032 262.811 17.032C263.046 17.032 263.232 17.1013 263.371 17.24C263.51 17.3787 263.579 17.56 263.579 17.784V18.44C263.835 17.9707 264.192 17.6133 264.651 17.368C265.11 17.1227 265.627 17 266.203 17ZM274.606 25.112C273.838 25.112 273.16 24.9467 272.574 24.616C271.998 24.2853 271.55 23.816 271.23 23.208C270.92 22.5893 270.766 21.8747 270.766 21.064C270.766 20.2427 270.92 19.528 271.23 18.92C271.55 18.3013 271.998 17.8267 272.574 17.496C273.16 17.1653 273.838 17 274.606 17C275.374 17 276.046 17.1653 276.622 17.496C277.208 17.8267 277.656 18.3013 277.966 18.92C278.286 19.528 278.446 20.2427 278.446 21.064C278.446 21.8747 278.286 22.5893 277.966 23.208C277.656 23.816 277.208 24.2853 276.622 24.616C276.046 24.9467 275.374 25.112 274.606 25.112ZM274.606 23.832C275.32 23.832 275.864 23.5973 276.238 23.128C276.622 22.6587 276.814 21.9707 276.814 21.064C276.814 20.168 276.622 19.4853 276.238 19.016C275.854 18.536 275.31 18.296 274.606 18.296C273.902 18.296 273.358 18.536 272.974 19.016C272.59 19.4853 272.398 20.168 272.398 21.064C272.398 21.9707 272.584 22.6587 272.958 23.128C273.342 23.5973 273.891 23.832 274.606 23.832ZM281.061 25.08C280.826 25.08 280.629 25.016 280.469 24.888C280.32 24.76 280.245 24.568 280.245 24.312V14.424C280.245 14.168 280.32 13.976 280.469 13.848C280.629 13.7093 280.826 13.64 281.061 13.64C281.296 13.64 281.488 13.7093 281.637 13.848C281.786 13.976 281.861 14.168 281.861 14.424V24.312C281.861 24.568 281.786 24.76 281.637 24.888C281.488 25.016 281.296 25.08 281.061 25.08ZM287.512 25.112C286.744 25.112 286.067 24.9467 285.48 24.616C284.904 24.2853 284.456 23.816 284.136 23.208C283.827 22.5893 283.672 21.8747 283.672 21.064C283.672 20.2427 283.827 19.528 284.136 18.92C284.456 18.3013 284.904 17.8267 285.48 17.496C286.067 17.1653 286.744 17 287.512 17C288.28 17 288.952 17.1653 289.528 17.496C290.115 17.8267 290.563 18.3013 290.872 18.92C291.192 19.528 291.352 20.2427 291.352 21.064C291.352 21.8747 291.192 22.5893 290.872 23.208C290.563 23.816 290.115 24.2853 289.528 24.616C288.952 24.9467 288.28 25.112 287.512 25.112ZM287.512 23.832C288.227 23.832 288.771 23.5973 289.144 23.128C289.528 22.6587 289.72 21.9707 289.72 21.064C289.72 20.168 289.528 19.4853 289.144 19.016C288.76 18.536 288.216 18.296 287.512 18.296C286.808 18.296 286.264 18.536 285.88 19.016C285.496 19.4853 285.304 20.168 285.304 21.064C285.304 21.9707 285.491 22.6587 285.864 23.128C286.248 23.5973 286.797 23.832 287.512 23.832ZM299.615 17.032C299.861 17.032 300.053 17.1067 300.191 17.256C300.341 17.3947 300.415 17.5813 300.415 17.816V24.376C300.415 25.5707 300.095 26.472 299.455 27.08C298.826 27.688 297.893 27.992 296.655 27.992C295.503 27.992 294.543 27.7733 293.775 27.336C293.381 27.112 293.183 26.8453 293.183 26.536C293.183 26.3547 293.231 26.2053 293.327 26.088C293.434 25.9707 293.562 25.912 293.711 25.912C293.85 25.912 294.069 25.992 294.367 26.152C294.751 26.3333 295.109 26.472 295.439 26.568C295.77 26.6747 296.165 26.728 296.623 26.728C298.095 26.728 298.831 25.9867 298.831 24.504V23.272C298.607 23.7413 298.266 24.1093 297.807 24.376C297.349 24.632 296.815 24.76 296.207 24.76C295.525 24.76 294.917 24.6 294.383 24.28C293.85 23.96 293.434 23.5067 293.135 22.92C292.847 22.3333 292.703 21.656 292.703 20.888C292.703 20.12 292.853 19.4427 293.151 18.856C293.45 18.2693 293.861 17.816 294.383 17.496C294.917 17.1653 295.525 17 296.207 17C296.805 17 297.327 17.128 297.775 17.384C298.234 17.64 298.581 18.0027 298.815 18.472V17.8C298.815 17.5653 298.885 17.3787 299.023 17.24C299.173 17.1013 299.37 17.032 299.615 17.032ZM296.591 23.48C297.285 23.48 297.829 23.2507 298.223 22.792C298.618 22.3333 298.815 21.6987 298.815 20.888C298.815 20.088 298.618 19.4587 298.223 19C297.839 18.5307 297.295 18.296 296.591 18.296C295.887 18.296 295.333 18.5253 294.927 18.984C294.533 19.4427 294.335 20.0773 294.335 20.888C294.335 21.6987 294.538 22.3333 294.943 22.792C295.349 23.2507 295.898 23.48 296.591 23.48ZM308.219 17.512C308.283 17.352 308.374 17.2347 308.491 17.16C308.619 17.0853 308.752 17.048 308.891 17.048C309.094 17.048 309.27 17.1173 309.419 17.256C309.579 17.3947 309.659 17.56 309.659 17.752C309.659 17.8587 309.638 17.96 309.595 18.056L305.147 27.496C305.083 27.6453 304.987 27.7573 304.859 27.832C304.742 27.9173 304.614 27.96 304.475 27.96C304.283 27.96 304.107 27.896 303.947 27.768C303.798 27.64 303.723 27.48 303.723 27.288C303.723 27.2027 303.75 27.096 303.803 26.968L304.907 24.616L301.819 18.056C301.776 17.9707 301.755 17.8747 301.755 17.768C301.755 17.5653 301.84 17.3947 302.011 17.256C302.182 17.1173 302.374 17.048 302.587 17.048C302.907 17.048 303.136 17.1973 303.275 17.496L305.755 23L308.219 17.512Z" fill="white"/>
<rect y="52" width="80" height="40" rx="20" fill="white"/>
<path d="M27.408 65.64C27.6107 65.64 27.7653 65.704 27.872 65.832C27.9893 65.9493 28.048 66.1093 28.048 66.312V76.44C28.048 76.632 27.9947 76.7867 27.888 76.904C27.7813 77.0213 27.632 77.08 27.44 77.08C27.248 77.08 27.104 77.0213 27.008 76.904C26.912 76.7867 26.864 76.632 26.864 76.44V68.264L23.392 74.92C23.2427 75.2293 23.024 75.384 22.736 75.384C22.4587 75.384 22.24 75.2293 22.08 74.92L18.592 68.344V76.44C18.592 76.632 18.5387 76.7867 18.432 76.904C18.336 77.0213 18.192 77.08 18 77.08C17.808 77.08 17.6587 77.0213 17.552 76.904C17.4453 76.7867 17.392 76.632 17.392 76.44V66.312C17.392 66.1093 17.4507 65.9493 17.568 65.832C17.6853 65.704 17.8453 65.64 18.048 65.64C18.3147 65.64 18.528 65.7947 18.688 66.104L22.752 73.896L26.768 66.104C26.8533 65.9333 26.944 65.816 27.04 65.752C27.1467 65.6773 27.2693 65.64 27.408 65.64ZM33.8851 77.112C33.1491 77.112 32.4985 76.9467 31.9331 76.616C31.3785 76.2853 30.9465 75.816 30.6371 75.208C30.3385 74.5893 30.1891 73.8747 30.1891 73.064C30.1891 72.2533 30.3385 71.544 30.6371 70.936C30.9465 70.3173 31.3785 69.8427 31.9331 69.512C32.4985 69.1813 33.1491 69.016 33.8851 69.016C34.6211 69.016 35.2718 69.1813 35.8371 69.512C36.4025 69.8427 36.8345 70.3173 37.1331 70.936C37.4425 71.544 37.5971 72.2533 37.5971 73.064C37.5971 73.8747 37.4425 74.5893 37.1331 75.208C36.8345 75.816 36.4025 76.2853 35.8371 76.616C35.2718 76.9467 34.6211 77.112 33.8851 77.112ZM33.8851 76.04C34.6531 76.04 35.2398 75.7893 35.6451 75.288C36.0611 74.776 36.2691 74.0347 36.2691 73.064C36.2691 72.1147 36.0611 71.384 35.6451 70.872C35.2291 70.3493 34.6425 70.088 33.8851 70.088C33.1278 70.088 32.5411 70.3493 32.1251 70.872C31.7091 71.384 31.5011 72.1147 31.5011 73.064C31.5011 74.024 31.7038 74.76 32.1091 75.272C32.5251 75.784 33.1171 76.04 33.8851 76.04ZM43.4481 69.016C45.3148 69.016 46.2481 70.0453 46.2481 72.104V76.44C46.2481 76.6427 46.1895 76.8027 46.0721 76.92C45.9655 77.0267 45.8108 77.08 45.6081 77.08C45.4055 77.08 45.2455 77.0267 45.1281 76.92C45.0108 76.8027 44.9521 76.6427 44.9521 76.44V72.184C44.9521 71.4587 44.8081 70.9307 44.5201 70.6C44.2428 70.2693 43.7948 70.104 43.1761 70.104C42.4615 70.104 41.8908 70.3227 41.4641 70.76C41.0375 71.1973 40.8241 71.7893 40.8241 72.536V76.44C40.8241 76.6427 40.7655 76.8027 40.6481 76.92C40.5415 77.0267 40.3868 77.08 40.1841 77.08C39.9815 77.08 39.8215 77.0267 39.7041 76.92C39.5868 76.8027 39.5281 76.6427 39.5281 76.44V69.688C39.5281 69.496 39.5868 69.3413 39.7041 69.224C39.8215 69.1067 39.9815 69.048 40.1841 69.048C40.3761 69.048 40.5255 69.1067 40.6321 69.224C40.7495 69.3413 40.8081 69.4907 40.8081 69.672V70.488C41.0641 70.008 41.4215 69.6453 41.8801 69.4C42.3388 69.144 42.8615 69.016 43.4481 69.016ZM54.6539 75.192C54.7712 75.192 54.8725 75.24 54.9579 75.336C55.0432 75.432 55.0859 75.5547 55.0859 75.704C55.0859 75.9707 54.8992 76.216 54.5259 76.44C54.1419 76.664 53.7365 76.8347 53.3099 76.952C52.8832 77.0587 52.4672 77.112 52.0619 77.112C50.8565 77.112 49.9019 76.7547 49.1979 76.04C48.5045 75.3253 48.1579 74.3387 48.1579 73.08C48.1579 72.28 48.3125 71.576 48.6219 70.968C48.9312 70.3493 49.3632 69.8693 49.9179 69.528C50.4832 69.1867 51.1232 69.016 51.8379 69.016C52.8512 69.016 53.6565 69.3467 54.2539 70.008C54.8512 70.6693 55.1499 71.5653 55.1499 72.696C55.1499 72.9093 55.1072 73.064 55.0219 73.16C54.9365 73.256 54.7979 73.304 54.6059 73.304H49.4539C49.5499 75.1387 50.4192 76.056 52.0619 76.056C52.4779 76.056 52.8352 76.0027 53.1339 75.896C53.4325 75.7787 53.7525 75.624 54.0939 75.432C54.3712 75.272 54.5579 75.192 54.6539 75.192ZM51.8539 70.024C51.1712 70.024 50.6219 70.2373 50.2059 70.664C49.8005 71.0907 49.5605 71.6933 49.4859 72.472H54.0139C53.9925 71.6827 53.7952 71.08 53.4219 70.664C53.0485 70.2373 52.5259 70.024 51.8539 70.024ZM62.5816 69.448C62.699 69.192 62.8856 69.064 63.1416 69.064C63.3016 69.064 63.4456 69.1173 63.5736 69.224C63.7016 69.3307 63.7656 69.464 63.7656 69.624C63.7656 69.72 63.7443 69.8053 63.7016 69.88L59.2056 79.576C59.1523 79.6933 59.0723 79.784 58.9656 79.848C58.8696 79.912 58.7683 79.944 58.6616 79.944C58.5016 79.944 58.3576 79.8907 58.2296 79.784C58.1123 79.688 58.0536 79.56 58.0536 79.4C58.0536 79.3147 58.075 79.2293 58.1176 79.144L59.2376 76.728L56.0696 69.88C56.027 69.8053 56.0056 69.7253 56.0056 69.64C56.0056 69.48 56.075 69.3413 56.2136 69.224C56.363 69.1067 56.523 69.048 56.6936 69.048C56.8003 69.048 56.9016 69.08 56.9976 69.144C57.1043 69.208 57.1843 69.2987 57.2376 69.416L59.9096 75.416L62.5816 69.448Z" fill="#464D61"/>
<rect x="92" y="52" width="124" height="40" rx="20" fill="white"/>
<path d="M110.048 77.08C109.845 77.08 109.685 77.0213 109.568 76.904C109.451 76.776 109.392 76.6107 109.392 76.408V66.36C109.392 66.168 109.451 66.0133 109.568 65.896C109.696 65.7787 109.861 65.72 110.064 65.72H113.856C115.04 65.72 115.957 66.008 116.608 66.584C117.269 67.16 117.6 67.976 117.6 69.032C117.6 70.088 117.269 70.9093 116.608 71.496C115.947 72.0827 115.029 72.376 113.856 72.376H110.704V76.408C110.704 76.6107 110.645 76.776 110.528 76.904C110.411 77.0213 110.251 77.08 110.048 77.08ZM113.728 71.288C115.445 71.288 116.304 70.536 116.304 69.032C116.304 67.5493 115.445 66.808 113.728 66.808H110.704V71.288H113.728ZM123.212 69.048C123.66 69.016 123.884 69.1973 123.884 69.592C123.884 69.7627 123.836 69.9013 123.74 70.008C123.644 70.104 123.479 70.1627 123.244 70.184L122.764 70.232C122.05 70.296 121.516 70.552 121.164 71C120.823 71.4373 120.652 71.9547 120.652 72.552V76.44C120.652 76.6533 120.594 76.8133 120.476 76.92C120.359 77.0267 120.204 77.08 120.012 77.08C119.82 77.08 119.66 77.0267 119.532 76.92C119.415 76.8027 119.356 76.6427 119.356 76.44V69.688C119.356 69.4853 119.42 69.3307 119.548 69.224C119.676 69.1067 119.831 69.048 120.012 69.048C120.183 69.048 120.327 69.1067 120.444 69.224C120.562 69.3307 120.62 69.48 120.62 69.672V70.568C120.844 70.0987 121.159 69.7413 121.564 69.496C121.98 69.2507 122.455 69.1067 122.988 69.064L123.212 69.048ZM128.073 77.112C127.337 77.112 126.686 76.9467 126.121 76.616C125.566 76.2853 125.134 75.816 124.825 75.208C124.526 74.5893 124.377 73.8747 124.377 73.064C124.377 72.2533 124.526 71.544 124.825 70.936C125.134 70.3173 125.566 69.8427 126.121 69.512C126.686 69.1813 127.337 69.016 128.073 69.016C128.809 69.016 129.459 69.1813 130.025 69.512C130.59 69.8427 131.022 70.3173 131.321 70.936C131.63 71.544 131.785 72.2533 131.785 73.064C131.785 73.8747 131.63 74.5893 131.321 75.208C131.022 75.816 130.59 76.2853 130.025 76.616C129.459 76.9467 128.809 77.112 128.073 77.112ZM128.073 76.04C128.841 76.04 129.427 75.7893 129.833 75.288C130.249 74.776 130.457 74.0347 130.457 73.064C130.457 72.1147 130.249 71.384 129.833 70.872C129.417 70.3493 128.83 70.088 128.073 70.088C127.315 70.088 126.729 70.3493 126.313 70.872C125.897 71.384 125.689 72.1147 125.689 73.064C125.689 74.024 125.891 74.76 126.297 75.272C126.713 75.784 127.305 76.04 128.073 76.04ZM139.972 65.64C140.174 65.64 140.334 65.6987 140.452 65.816C140.569 65.9333 140.628 66.0827 140.628 66.264V76.44C140.628 76.632 140.569 76.7867 140.452 76.904C140.334 77.0213 140.174 77.08 139.972 77.08C139.769 77.08 139.609 77.0213 139.492 76.904C139.385 76.7867 139.332 76.632 139.332 76.44V75.576C139.097 76.0667 138.75 76.4453 138.292 76.712C137.844 76.9787 137.316 77.112 136.708 77.112C136.025 77.112 135.422 76.9413 134.9 76.6C134.377 76.2587 133.972 75.784 133.684 75.176C133.396 74.5573 133.252 73.8427 133.252 73.032C133.252 72.232 133.396 71.528 133.684 70.92C133.972 70.312 134.377 69.8427 134.9 69.512C135.422 69.1813 136.025 69.016 136.708 69.016C137.316 69.016 137.844 69.1493 138.292 69.416C138.75 69.6827 139.097 70.0613 139.332 70.552V66.264C139.332 66.072 139.385 65.9227 139.492 65.816C139.609 65.6987 139.769 65.64 139.972 65.64ZM136.964 76.04C137.721 76.04 138.302 75.784 138.708 75.272C139.124 74.7493 139.332 74.0133 139.332 73.064C139.332 72.1147 139.124 71.384 138.708 70.872C138.302 70.36 137.721 70.104 136.964 70.104C136.206 70.104 135.614 70.36 135.188 70.872C134.772 71.384 134.564 72.104 134.564 73.032C134.564 73.9813 134.772 74.7227 135.188 75.256C135.614 75.7787 136.206 76.04 136.964 76.04ZM148.948 69.048C149.151 69.048 149.305 69.1067 149.412 69.224C149.529 69.3413 149.588 69.496 149.588 69.688V76.456C149.588 76.6373 149.529 76.7867 149.412 76.904C149.305 77.0213 149.151 77.08 148.948 77.08C148.756 77.08 148.601 77.0267 148.484 76.92C148.377 76.8027 148.324 76.6533 148.324 76.472V75.672C148.079 76.1413 147.732 76.4987 147.284 76.744C146.847 76.9893 146.351 77.112 145.796 77.112C144.868 77.112 144.169 76.856 143.7 76.344C143.231 75.8213 142.996 75.0533 142.996 74.04V69.688C142.996 69.496 143.055 69.3413 143.172 69.224C143.289 69.1067 143.449 69.048 143.652 69.048C143.855 69.048 144.009 69.1067 144.116 69.224C144.233 69.3413 144.292 69.496 144.292 69.688V74.008C144.292 74.7013 144.431 75.2133 144.708 75.544C144.985 75.864 145.423 76.024 146.02 76.024C146.703 76.024 147.252 75.8053 147.668 75.368C148.084 74.92 148.292 74.3333 148.292 73.608V69.688C148.292 69.496 148.351 69.3413 148.468 69.224C148.585 69.1067 148.745 69.048 148.948 69.048ZM155.213 77.112C154.488 77.112 153.842 76.9467 153.277 76.616C152.722 76.2853 152.29 75.816 151.981 75.208C151.682 74.6 151.533 73.896 151.533 73.096C151.533 72.296 151.688 71.5867 151.997 70.968C152.317 70.3493 152.76 69.8693 153.325 69.528C153.89 69.1867 154.541 69.016 155.277 69.016C155.682 69.016 156.082 69.0747 156.477 69.192C156.882 69.2987 157.234 69.4587 157.533 69.672C157.725 69.8 157.858 69.928 157.933 70.056C158.018 70.1733 158.061 70.3067 158.061 70.456C158.061 70.6053 158.018 70.728 157.933 70.824C157.858 70.92 157.757 70.968 157.629 70.968C157.554 70.968 157.474 70.9467 157.389 70.904C157.304 70.8613 157.229 70.8187 157.165 70.776C157.112 70.7333 157.074 70.7067 157.053 70.696C156.776 70.5147 156.509 70.3707 156.253 70.264C156.008 70.1573 155.704 70.104 155.341 70.104C154.562 70.104 153.954 70.3707 153.517 70.904C153.09 71.4267 152.877 72.1573 152.877 73.096C152.877 74.0347 153.09 74.76 153.517 75.272C153.954 75.784 154.562 76.04 155.341 76.04C155.704 76.04 156.013 75.9867 156.269 75.88C156.536 75.7733 156.802 75.6293 157.069 75.448C157.186 75.3733 157.298 75.3093 157.405 75.256C157.512 75.2027 157.602 75.176 157.677 75.176C157.794 75.176 157.89 75.224 157.965 75.32C158.05 75.416 158.093 75.5387 158.093 75.688C158.093 75.8267 158.056 75.9547 157.981 76.072C157.906 76.1787 157.768 76.3013 157.565 76.44C157.266 76.6427 156.904 76.808 156.477 76.936C156.061 77.0533 155.64 77.112 155.213 77.112ZM163.269 76.056C163.642 76.088 163.829 76.2587 163.829 76.568C163.829 76.7493 163.759 76.888 163.621 76.984C163.493 77.0693 163.295 77.1013 163.029 77.08L162.597 77.048C161.743 76.984 161.114 76.728 160.709 76.28C160.303 75.832 160.101 75.1547 160.101 74.248V70.232H159.029C158.847 70.232 158.703 70.1893 158.597 70.104C158.501 70.008 158.453 69.8853 158.453 69.736C158.453 69.576 158.501 69.448 158.597 69.352C158.703 69.256 158.847 69.208 159.029 69.208H160.101V67.4C160.101 67.1973 160.159 67.0427 160.277 66.936C160.394 66.8187 160.554 66.76 160.757 66.76C160.949 66.76 161.103 66.8187 161.221 66.936C161.338 67.0427 161.397 67.1973 161.397 67.4V69.208H163.173C163.343 69.208 163.477 69.256 163.573 69.352C163.679 69.448 163.733 69.576 163.733 69.736C163.733 69.8853 163.679 70.008 163.573 70.104C163.477 70.1893 163.343 70.232 163.173 70.232H161.397V74.312C161.397 74.8987 161.514 75.3253 161.749 75.592C161.994 75.848 162.357 75.992 162.837 76.024L163.269 76.056ZM165.762 77.08C165.57 77.08 165.41 77.0267 165.282 76.92C165.165 76.8027 165.106 76.6427 165.106 76.44V69.688C165.106 69.4853 165.165 69.3307 165.282 69.224C165.41 69.1067 165.57 69.048 165.762 69.048C165.954 69.048 166.109 69.1067 166.226 69.224C166.344 69.3307 166.402 69.4853 166.402 69.688V76.44C166.402 76.6533 166.344 76.8133 166.226 76.92C166.109 77.0267 165.954 77.08 165.762 77.08ZM165.762 67.368C165.506 67.368 165.298 67.2933 165.138 67.144C164.978 66.9947 164.898 66.7973 164.898 66.552C164.898 66.3173 164.978 66.1253 165.138 65.976C165.298 65.8267 165.506 65.752 165.762 65.752C166.018 65.752 166.226 65.8267 166.386 65.976C166.546 66.1253 166.626 66.3173 166.626 66.552C166.626 66.7973 166.546 66.9947 166.386 67.144C166.226 67.2933 166.018 67.368 165.762 67.368ZM172.55 76.056C172.923 76.088 173.11 76.2587 173.11 76.568C173.11 76.7493 173.041 76.888 172.902 76.984C172.774 77.0693 172.577 77.1013 172.31 77.08L171.878 77.048C171.025 76.984 170.395 76.728 169.99 76.28C169.585 75.832 169.382 75.1547 169.382 74.248V70.232H168.31C168.129 70.232 167.985 70.1893 167.878 70.104C167.782 70.008 167.734 69.8853 167.734 69.736C167.734 69.576 167.782 69.448 167.878 69.352C167.985 69.256 168.129 69.208 168.31 69.208H169.382V67.4C169.382 67.1973 169.441 67.0427 169.558 66.936C169.675 66.8187 169.835 66.76 170.038 66.76C170.23 66.76 170.385 66.8187 170.502 66.936C170.619 67.0427 170.678 67.1973 170.678 67.4V69.208H172.454C172.625 69.208 172.758 69.256 172.854 69.352C172.961 69.448 173.014 69.576 173.014 69.736C173.014 69.8853 172.961 70.008 172.854 70.104C172.758 70.1893 172.625 70.232 172.454 70.232H170.678V74.312C170.678 74.8987 170.795 75.3253 171.03 75.592C171.275 75.848 171.638 75.992 172.118 76.024L172.55 76.056ZM180.097 69.448C180.215 69.192 180.401 69.064 180.657 69.064C180.817 69.064 180.961 69.1173 181.089 69.224C181.217 69.3307 181.281 69.464 181.281 69.624C181.281 69.72 181.26 69.8053 181.217 69.88L178.097 76.6C178.033 76.7387 177.937 76.8507 177.809 76.936C177.681 77.0107 177.543 77.048 177.393 77.048C177.255 77.048 177.121 77.0107 176.993 76.936C176.865 76.8507 176.764 76.7387 176.689 76.6L173.585 69.88C173.543 69.8053 173.521 69.7253 173.521 69.64C173.521 69.48 173.591 69.3413 173.729 69.224C173.879 69.1067 174.039 69.048 174.209 69.048C174.316 69.048 174.417 69.08 174.513 69.144C174.62 69.208 174.7 69.2987 174.753 69.416L177.425 75.416L180.097 69.448ZM183.559 77.08C183.367 77.08 183.207 77.0267 183.079 76.92C182.962 76.8027 182.903 76.6427 182.903 76.44V69.688C182.903 69.4853 182.962 69.3307 183.079 69.224C183.207 69.1067 183.367 69.048 183.559 69.048C183.751 69.048 183.906 69.1067 184.023 69.224C184.14 69.3307 184.199 69.4853 184.199 69.688V76.44C184.199 76.6533 184.14 76.8133 184.023 76.92C183.906 77.0267 183.751 77.08 183.559 77.08ZM183.559 67.368C183.303 67.368 183.095 67.2933 182.935 67.144C182.775 66.9947 182.695 66.7973 182.695 66.552C182.695 66.3173 182.775 66.1253 182.935 65.976C183.095 65.8267 183.303 65.752 183.559 65.752C183.815 65.752 184.023 65.8267 184.183 65.976C184.343 66.1253 184.423 66.3173 184.423 66.552C184.423 66.7973 184.343 66.9947 184.183 67.144C184.023 67.2933 183.815 67.368 183.559 67.368ZM190.347 76.056C190.72 76.088 190.907 76.2587 190.907 76.568C190.907 76.7493 190.838 76.888 190.699 76.984C190.571 77.0693 190.374 77.1013 190.107 77.08L189.675 77.048C188.822 76.984 188.192 76.728 187.787 76.28C187.382 75.832 187.179 75.1547 187.179 74.248V70.232H186.107C185.926 70.232 185.782 70.1893 185.675 70.104C185.579 70.008 185.531 69.8853 185.531 69.736C185.531 69.576 185.579 69.448 185.675 69.352C185.782 69.256 185.926 69.208 186.107 69.208H187.179V67.4C187.179 67.1973 187.238 67.0427 187.355 66.936C187.472 66.8187 187.632 66.76 187.835 66.76C188.027 66.76 188.182 66.8187 188.299 66.936C188.416 67.0427 188.475 67.1973 188.475 67.4V69.208H190.251C190.422 69.208 190.555 69.256 190.651 69.352C190.758 69.448 190.811 69.576 190.811 69.736C190.811 69.8853 190.758 70.008 190.651 70.104C190.555 70.1893 190.422 70.232 190.251 70.232H188.475V74.312C188.475 74.8987 188.592 75.3253 188.827 75.592C189.072 75.848 189.435 75.992 189.915 76.024L190.347 76.056ZM197.894 69.448C198.011 69.192 198.198 69.064 198.454 69.064C198.614 69.064 198.758 69.1173 198.886 69.224C199.014 69.3307 199.078 69.464 199.078 69.624C199.078 69.72 199.057 69.8053 199.014 69.88L194.518 79.576C194.465 79.6933 194.385 79.784 194.278 79.848C194.182 79.912 194.081 79.944 193.974 79.944C193.814 79.944 193.67 79.8907 193.542 79.784C193.425 79.688 193.366 79.56 193.366 79.4C193.366 79.3147 193.387 79.2293 193.43 79.144L194.55 76.728L191.382 69.88C191.339 69.8053 191.318 69.7253 191.318 69.64C191.318 69.48 191.387 69.3413 191.526 69.224C191.675 69.1067 191.835 69.048 192.006 69.048C192.113 69.048 192.214 69.08 192.31 69.144C192.417 69.208 192.497 69.2987 192.55 69.416L195.222 75.416L197.894 69.448Z" fill="#464D61"/>
<rect x="228" y="52" width="97" height="40" rx="20" fill="white"/>
<path d="M251.792 71.208C252.443 71.3787 252.944 71.6987 253.296 72.168C253.659 72.6373 253.84 73.224 253.84 73.928C253.84 74.92 253.515 75.6827 252.864 76.216C252.213 76.7387 251.291 77 250.096 77H246.064C245.861 77 245.696 76.9413 245.568 76.824C245.451 76.7067 245.392 76.552 245.392 76.36V66.36C245.392 66.168 245.451 66.0133 245.568 65.896C245.696 65.7787 245.861 65.72 246.064 65.72H249.92C251.083 65.72 251.984 65.976 252.624 66.488C253.264 67 253.584 67.7253 253.584 68.664C253.584 69.272 253.424 69.7947 253.104 70.232C252.795 70.6693 252.357 70.9947 251.792 71.208ZM246.688 70.728H249.728C250.571 70.728 251.205 70.5573 251.632 70.216C252.069 69.8747 252.288 69.3787 252.288 68.728C252.288 67.448 251.435 66.808 249.728 66.808H246.688V70.728ZM249.968 75.912C250.853 75.912 251.504 75.752 251.92 75.432C252.347 75.1013 252.56 74.5893 252.56 73.896C252.56 72.5093 251.696 71.816 249.968 71.816H246.688V75.912H249.968ZM261.901 69.048C262.104 69.048 262.259 69.1067 262.365 69.224C262.483 69.3413 262.541 69.496 262.541 69.688V76.456C262.541 76.6373 262.483 76.7867 262.365 76.904C262.259 77.0213 262.104 77.08 261.901 77.08C261.709 77.08 261.555 77.0267 261.437 76.92C261.331 76.8027 261.277 76.6533 261.277 76.472V75.672C261.032 76.1413 260.685 76.4987 260.237 76.744C259.8 76.9893 259.304 77.112 258.749 77.112C257.821 77.112 257.123 76.856 256.653 76.344C256.184 75.8213 255.949 75.0533 255.949 74.04V69.688C255.949 69.496 256.008 69.3413 256.125 69.224C256.243 69.1067 256.403 69.048 256.605 69.048C256.808 69.048 256.963 69.1067 257.069 69.224C257.187 69.3413 257.245 69.496 257.245 69.688V74.008C257.245 74.7013 257.384 75.2133 257.661 75.544C257.939 75.864 258.376 76.024 258.973 76.024C259.656 76.024 260.205 75.8053 260.621 75.368C261.037 74.92 261.245 74.3333 261.245 73.608V69.688C261.245 69.496 261.304 69.3413 261.421 69.224C261.539 69.1067 261.699 69.048 261.901 69.048ZM267.574 77.112C267.083 77.112 266.614 77.0533 266.166 76.936C265.729 76.8187 265.339 76.6533 264.998 76.44C264.806 76.312 264.667 76.1947 264.582 76.088C264.507 75.9707 264.47 75.832 264.47 75.672C264.47 75.5333 264.507 75.4213 264.582 75.336C264.667 75.24 264.774 75.192 264.902 75.192C265.03 75.192 265.217 75.272 265.462 75.432C265.782 75.624 266.097 75.7787 266.406 75.896C266.726 76.0027 267.121 76.056 267.59 76.056C268.166 76.056 268.614 75.9547 268.934 75.752C269.254 75.5493 269.414 75.256 269.414 74.872C269.414 74.6373 269.355 74.4507 269.238 74.312C269.121 74.1627 268.918 74.0347 268.63 73.928C268.342 73.8107 267.921 73.6933 267.366 73.576C266.427 73.3733 265.755 73.1013 265.35 72.76C264.945 72.4187 264.742 71.9547 264.742 71.368C264.742 70.9093 264.87 70.504 265.126 70.152C265.382 69.8 265.734 69.5227 266.182 69.32C266.641 69.1173 267.158 69.016 267.734 69.016C268.15 69.016 268.55 69.0747 268.934 69.192C269.329 69.2987 269.675 69.4533 269.974 69.656C270.337 69.912 270.518 70.1787 270.518 70.456C270.518 70.5947 270.475 70.712 270.39 70.808C270.305 70.904 270.203 70.952 270.086 70.952C269.958 70.952 269.766 70.8613 269.51 70.68C269.211 70.488 268.929 70.3387 268.662 70.232C268.395 70.1253 268.065 70.072 267.67 70.072C267.169 70.072 266.763 70.184 266.454 70.408C266.155 70.632 266.006 70.9307 266.006 71.304C266.006 71.5387 266.059 71.7307 266.166 71.88C266.283 72.0187 266.47 72.1467 266.726 72.264C266.993 72.3707 267.371 72.4773 267.862 72.584C268.587 72.744 269.147 72.92 269.542 73.112C269.947 73.304 270.235 73.5387 270.406 73.816C270.577 74.0933 270.662 74.4453 270.662 74.872C270.662 75.544 270.379 76.088 269.814 76.504C269.249 76.9093 268.502 77.112 267.574 77.112ZM273.294 77.08C273.102 77.08 272.942 77.0267 272.814 76.92C272.696 76.8027 272.638 76.6427 272.638 76.44V69.688C272.638 69.4853 272.696 69.3307 272.814 69.224C272.942 69.1067 273.102 69.048 273.294 69.048C273.486 69.048 273.64 69.1067 273.758 69.224C273.875 69.3307 273.934 69.4853 273.934 69.688V76.44C273.934 76.6533 273.875 76.8133 273.758 76.92C273.64 77.0267 273.486 77.08 273.294 77.08ZM273.294 67.368C273.038 67.368 272.83 67.2933 272.67 67.144C272.51 66.9947 272.43 66.7973 272.43 66.552C272.43 66.3173 272.51 66.1253 272.67 65.976C272.83 65.8267 273.038 65.752 273.294 65.752C273.55 65.752 273.758 65.8267 273.918 65.976C274.078 66.1253 274.158 66.3173 274.158 66.552C274.158 66.7973 274.078 66.9947 273.918 67.144C273.758 67.2933 273.55 67.368 273.294 67.368ZM280.276 69.016C282.143 69.016 283.076 70.0453 283.076 72.104V76.44C283.076 76.6427 283.018 76.8027 282.9 76.92C282.794 77.0267 282.639 77.08 282.436 77.08C282.234 77.08 282.074 77.0267 281.956 76.92C281.839 76.8027 281.78 76.6427 281.78 76.44V72.184C281.78 71.4587 281.636 70.9307 281.348 70.6C281.071 70.2693 280.623 70.104 280.004 70.104C279.29 70.104 278.719 70.3227 278.292 70.76C277.866 71.1973 277.652 71.7893 277.652 72.536V76.44C277.652 76.6427 277.594 76.8027 277.476 76.92C277.37 77.0267 277.215 77.08 277.012 77.08C276.81 77.08 276.65 77.0267 276.532 76.92C276.415 76.8027 276.356 76.6427 276.356 76.44V69.688C276.356 69.496 276.415 69.3413 276.532 69.224C276.65 69.1067 276.81 69.048 277.012 69.048C277.204 69.048 277.354 69.1067 277.46 69.224C277.578 69.3413 277.636 69.4907 277.636 69.672V70.488C277.892 70.008 278.25 69.6453 278.708 69.4C279.167 69.144 279.69 69.016 280.276 69.016ZM291.482 75.192C291.599 75.192 291.701 75.24 291.786 75.336C291.871 75.432 291.914 75.5547 291.914 75.704C291.914 75.9707 291.727 76.216 291.354 76.44C290.97 76.664 290.565 76.8347 290.138 76.952C289.711 77.0587 289.295 77.112 288.89 77.112C287.685 77.112 286.73 76.7547 286.026 76.04C285.333 75.3253 284.986 74.3387 284.986 73.08C284.986 72.28 285.141 71.576 285.45 70.968C285.759 70.3493 286.191 69.8693 286.746 69.528C287.311 69.1867 287.951 69.016 288.666 69.016C289.679 69.016 290.485 69.3467 291.082 70.008C291.679 70.6693 291.978 71.5653 291.978 72.696C291.978 72.9093 291.935 73.064 291.85 73.16C291.765 73.256 291.626 73.304 291.434 73.304H286.282C286.378 75.1387 287.247 76.056 288.89 76.056C289.306 76.056 289.663 76.0027 289.962 75.896C290.261 75.7787 290.581 75.624 290.922 75.432C291.199 75.272 291.386 75.192 291.482 75.192ZM288.682 70.024C287.999 70.024 287.45 70.2373 287.034 70.664C286.629 71.0907 286.389 71.6933 286.314 72.472H290.842C290.821 71.6827 290.623 71.08 290.25 70.664C289.877 70.2373 289.354 70.024 288.682 70.024ZM296.512 77.112C296.021 77.112 295.552 77.0533 295.104 76.936C294.666 76.8187 294.277 76.6533 293.936 76.44C293.744 76.312 293.605 76.1947 293.52 76.088C293.445 75.9707 293.408 75.832 293.408 75.672C293.408 75.5333 293.445 75.4213 293.52 75.336C293.605 75.24 293.712 75.192 293.84 75.192C293.968 75.192 294.154 75.272 294.4 75.432C294.72 75.624 295.034 75.7787 295.344 75.896C295.664 76.0027 296.058 76.056 296.528 76.056C297.104 76.056 297.552 75.9547 297.872 75.752C298.192 75.5493 298.352 75.256 298.352 74.872C298.352 74.6373 298.293 74.4507 298.176 74.312C298.058 74.1627 297.856 74.0347 297.568 73.928C297.28 73.8107 296.858 73.6933 296.304 73.576C295.365 73.3733 294.693 73.1013 294.288 72.76C293.882 72.4187 293.68 71.9547 293.68 71.368C293.68 70.9093 293.808 70.504 294.064 70.152C294.32 69.8 294.672 69.5227 295.12 69.32C295.578 69.1173 296.096 69.016 296.672 69.016C297.088 69.016 297.488 69.0747 297.872 69.192C298.266 69.2987 298.613 69.4533 298.912 69.656C299.274 69.912 299.456 70.1787 299.456 70.456C299.456 70.5947 299.413 70.712 299.328 70.808C299.242 70.904 299.141 70.952 299.024 70.952C298.896 70.952 298.704 70.8613 298.448 70.68C298.149 70.488 297.866 70.3387 297.6 70.232C297.333 70.1253 297.002 70.072 296.608 70.072C296.106 70.072 295.701 70.184 295.392 70.408C295.093 70.632 294.944 70.9307 294.944 71.304C294.944 71.5387 294.997 71.7307 295.104 71.88C295.221 72.0187 295.408 72.1467 295.664 72.264C295.93 72.3707 296.309 72.4773 296.799 72.584C297.525 72.744 298.085 72.92 298.48 73.112C298.885 73.304 299.173 73.5387 299.344 73.816C299.514 74.0933 299.6 74.4453 299.6 74.872C299.6 75.544 299.317 76.088 298.752 76.504C298.186 76.9093 297.44 77.112 296.512 77.112ZM304.199 77.112C303.708 77.112 303.239 77.0533 302.791 76.936C302.354 76.8187 301.964 76.6533 301.623 76.44C301.431 76.312 301.292 76.1947 301.207 76.088C301.132 75.9707 301.095 75.832 301.095 75.672C301.095 75.5333 301.132 75.4213 301.207 75.336C301.292 75.24 301.399 75.192 301.527 75.192C301.655 75.192 301.842 75.272 302.087 75.432C302.407 75.624 302.722 75.7787 303.031 75.896C303.351 76.0027 303.746 76.056 304.215 76.056C304.791 76.056 305.239 75.9547 305.559 75.752C305.879 75.5493 306.039 75.256 306.039 74.872C306.039 74.6373 305.98 74.4507 305.863 74.312C305.746 74.1627 305.543 74.0347 305.255 73.928C304.967 73.8107 304.546 73.6933 303.991 73.576C303.052 73.3733 302.38 73.1013 301.975 72.76C301.57 72.4187 301.367 71.9547 301.367 71.368C301.367 70.9093 301.495 70.504 301.751 70.152C302.007 69.8 302.359 69.5227 302.807 69.32C303.266 69.1173 303.783 69.016 304.359 69.016C304.775 69.016 305.175 69.0747 305.559 69.192C305.954 69.2987 306.3 69.4533 306.599 69.656C306.962 69.912 307.143 70.1787 307.143 70.456C307.143 70.5947 307.1 70.712 307.015 70.808C306.93 70.904 306.828 70.952 306.711 70.952C306.583 70.952 306.391 70.8613 306.135 70.68C305.836 70.488 305.554 70.3387 305.287 70.232C305.02 70.1253 304.69 70.072 304.295 70.072C303.794 70.072 303.388 70.184 303.079 70.408C302.78 70.632 302.631 70.9307 302.631 71.304C302.631 71.5387 302.684 71.7307 302.791 71.88C302.908 72.0187 303.095 72.1467 303.351 72.264C303.618 72.3707 303.996 72.4773 304.487 72.584C305.212 72.744 305.772 72.92 306.167 73.112C306.572 73.304 306.86 73.5387 307.031 73.816C307.202 74.0933 307.287 74.4453 307.287 74.872C307.287 75.544 307.004 76.088 306.439 76.504C305.874 76.9093 305.127 77.112 304.199 77.112Z" fill="#464D61"/>
<rect y="104" width="56" height="40" rx="20" fill="white"/>
<path d="M27.104 128.248C27.1467 128.333 27.168 128.424 27.168 128.52C27.168 128.68 27.104 128.813 26.976 128.92C26.8587 129.027 26.7147 129.08 26.544 129.08C26.2773 129.08 26.0907 128.952 25.984 128.696L24.848 126.104H18.816L17.664 128.696C17.5573 128.952 17.3707 129.08 17.104 129.08C16.9333 129.08 16.784 129.027 16.656 128.92C16.528 128.803 16.464 128.664 16.464 128.504C16.464 128.419 16.4853 128.333 16.528 128.248L21.104 118.072C21.168 117.923 21.264 117.811 21.392 117.736C21.52 117.661 21.6587 117.624 21.808 117.624C21.968 117.624 22.112 117.667 22.24 117.752C22.368 117.827 22.464 117.933 22.528 118.072L27.104 128.248ZM19.296 125.016H24.368L21.824 119.272L19.296 125.016ZM32.681 121.048C33.129 121.016 33.353 121.197 33.353 121.592C33.353 121.763 33.305 121.901 33.209 122.008C33.113 122.104 32.9477 122.163 32.713 122.184L32.233 122.232C31.5183 122.296 30.985 122.552 30.633 123C30.2917 123.437 30.121 123.955 30.121 124.552V128.44C30.121 128.653 30.0623 128.813 29.945 128.92C29.8277 129.027 29.673 129.08 29.481 129.08C29.289 129.08 29.129 129.027 29.001 128.92C28.8837 128.803 28.825 128.643 28.825 128.44V121.688C28.825 121.485 28.889 121.331 29.017 121.224C29.145 121.107 29.2997 121.048 29.481 121.048C29.6517 121.048 29.7957 121.107 29.913 121.224C30.0303 121.331 30.089 121.48 30.089 121.672V122.568C30.313 122.099 30.6277 121.741 31.033 121.496C31.449 121.251 31.9237 121.107 32.457 121.064L32.681 121.048ZM38.6906 128.056C39.064 128.088 39.2506 128.259 39.2506 128.568C39.2506 128.749 39.1813 128.888 39.0426 128.984C38.9146 129.069 38.7173 129.101 38.4506 129.08L38.0186 129.048C37.1653 128.984 36.536 128.728 36.1306 128.28C35.7253 127.832 35.5226 127.155 35.5226 126.248V122.232H34.4506C34.2693 122.232 34.1253 122.189 34.0186 122.104C33.9226 122.008 33.8746 121.885 33.8746 121.736C33.8746 121.576 33.9226 121.448 34.0186 121.352C34.1253 121.256 34.2693 121.208 34.4506 121.208H35.5226V119.4C35.5226 119.197 35.5813 119.043 35.6986 118.936C35.816 118.819 35.976 118.76 36.1786 118.76C36.3706 118.76 36.5253 118.819 36.6426 118.936C36.76 119.043 36.8186 119.197 36.8186 119.4V121.208H38.5946C38.7653 121.208 38.8986 121.256 38.9946 121.352C39.1013 121.448 39.1546 121.576 39.1546 121.736C39.1546 121.885 39.1013 122.008 38.9946 122.104C38.8986 122.189 38.7653 122.232 38.5946 122.232H36.8186V126.312C36.8186 126.899 36.936 127.325 37.1706 127.592C37.416 127.848 37.7786 127.992 38.2586 128.024L38.6906 128.056Z" fill="#464D61"/>
<rect x="68" y="104" width="95" height="40" rx="20" fill="white"/>
<path d="M86.032 129C85.8507 129 85.696 128.947 85.568 128.84C85.4507 128.723 85.392 128.573 85.392 128.392V118.312C85.392 118.109 85.4507 117.949 85.568 117.832C85.6853 117.704 85.8453 117.64 86.048 117.64C86.2507 117.64 86.4107 117.704 86.528 117.832C86.6453 117.949 86.704 118.109 86.704 118.312V127.88H91.872C92.064 127.88 92.2133 127.928 92.32 128.024C92.4267 128.12 92.48 128.259 92.48 128.44C92.48 128.621 92.4267 128.76 92.32 128.856C92.2133 128.952 92.064 129 91.872 129H86.032ZM99.857 127.192C99.9743 127.192 100.076 127.24 100.161 127.336C100.246 127.432 100.289 127.555 100.289 127.704C100.289 127.971 100.102 128.216 99.729 128.44C99.345 128.664 98.9397 128.835 98.513 128.952C98.0863 129.059 97.6703 129.112 97.265 129.112C96.0597 129.112 95.105 128.755 94.401 128.04C93.7077 127.325 93.361 126.339 93.361 125.08C93.361 124.28 93.5157 123.576 93.825 122.968C94.1343 122.349 94.5663 121.869 95.121 121.528C95.6863 121.187 96.3263 121.016 97.041 121.016C98.0543 121.016 98.8597 121.347 99.457 122.008C100.054 122.669 100.353 123.565 100.353 124.696C100.353 124.909 100.31 125.064 100.225 125.16C100.14 125.256 100.001 125.304 99.809 125.304H94.657C94.753 127.139 95.6223 128.056 97.265 128.056C97.681 128.056 98.0383 128.003 98.337 127.896C98.6357 127.779 98.9557 127.624 99.297 127.432C99.5743 127.272 99.761 127.192 99.857 127.192ZM97.057 122.024C96.3743 122.024 95.825 122.237 95.409 122.664C95.0037 123.091 94.7637 123.693 94.689 124.472H99.217C99.1957 123.683 98.9983 123.08 98.625 122.664C98.2517 122.237 97.729 122.024 97.057 122.024ZM105.447 121.016C107.399 121.016 108.375 122.04 108.375 124.088V128.44C108.375 128.632 108.316 128.787 108.199 128.904C108.092 129.021 107.943 129.08 107.751 129.08C107.559 129.08 107.404 129.021 107.287 128.904C107.169 128.787 107.111 128.632 107.111 128.44V127.672C106.908 128.131 106.599 128.488 106.183 128.744C105.767 128.989 105.287 129.112 104.743 129.112C104.241 129.112 103.777 129.011 103.351 128.808C102.935 128.605 102.604 128.323 102.359 127.96C102.113 127.597 101.991 127.197 101.991 126.76C101.991 126.173 102.14 125.72 102.439 125.4C102.737 125.069 103.228 124.835 103.911 124.696C104.593 124.547 105.543 124.472 106.759 124.472H107.111V123.944C107.111 123.304 106.977 122.835 106.711 122.536C106.455 122.237 106.033 122.088 105.447 122.088C104.721 122.088 103.985 122.285 103.239 122.68C102.951 122.861 102.748 122.952 102.631 122.952C102.503 122.952 102.396 122.904 102.311 122.808C102.225 122.712 102.183 122.589 102.183 122.44C102.183 122.291 102.225 122.163 102.311 122.056C102.407 121.939 102.556 121.821 102.759 121.704C103.132 121.491 103.553 121.325 104.023 121.208C104.503 121.08 104.977 121.016 105.447 121.016ZM104.919 128.088C105.559 128.088 106.081 127.875 106.487 127.448C106.903 127.011 107.111 126.451 107.111 125.768V125.304H106.823C105.884 125.304 105.169 125.347 104.679 125.432C104.188 125.507 103.836 125.64 103.623 125.832C103.42 126.013 103.319 126.285 103.319 126.648C103.319 127.064 103.468 127.411 103.767 127.688C104.076 127.955 104.46 128.088 104.919 128.088ZM114.603 121.048C115.051 121.016 115.275 121.197 115.275 121.592C115.275 121.763 115.227 121.901 115.131 122.008C115.035 122.104 114.87 122.163 114.635 122.184L114.155 122.232C113.44 122.296 112.907 122.552 112.555 123C112.214 123.437 112.043 123.955 112.043 124.552V128.44C112.043 128.653 111.984 128.813 111.867 128.92C111.75 129.027 111.595 129.08 111.403 129.08C111.211 129.08 111.051 129.027 110.923 128.92C110.806 128.803 110.747 128.643 110.747 128.44V121.688C110.747 121.485 110.811 121.331 110.939 121.224C111.067 121.107 111.222 121.048 111.403 121.048C111.574 121.048 111.718 121.107 111.835 121.224C111.952 121.331 112.011 121.48 112.011 121.672V122.568C112.235 122.099 112.55 121.741 112.955 121.496C113.371 121.251 113.846 121.107 114.379 121.064L114.603 121.048ZM120.308 121.016C122.174 121.016 123.108 122.045 123.108 124.104V128.44C123.108 128.643 123.049 128.803 122.932 128.92C122.825 129.027 122.67 129.08 122.468 129.08C122.265 129.08 122.105 129.027 121.988 128.92C121.87 128.803 121.812 128.643 121.812 128.44V124.184C121.812 123.459 121.668 122.931 121.38 122.6C121.102 122.269 120.654 122.104 120.036 122.104C119.321 122.104 118.75 122.323 118.324 122.76C117.897 123.197 117.684 123.789 117.684 124.536V128.44C117.684 128.643 117.625 128.803 117.508 128.92C117.401 129.027 117.246 129.08 117.044 129.08C116.841 129.08 116.681 129.027 116.564 128.92C116.446 128.803 116.388 128.643 116.388 128.44V121.688C116.388 121.496 116.446 121.341 116.564 121.224C116.681 121.107 116.841 121.048 117.044 121.048C117.236 121.048 117.385 121.107 117.492 121.224C117.609 121.341 117.668 121.491 117.668 121.672V122.488C117.924 122.008 118.281 121.645 118.74 121.4C119.198 121.144 119.721 121.016 120.308 121.016ZM126.137 129.08C125.945 129.08 125.785 129.027 125.657 128.92C125.54 128.803 125.481 128.643 125.481 128.44V121.688C125.481 121.485 125.54 121.331 125.657 121.224C125.785 121.107 125.945 121.048 126.137 121.048C126.329 121.048 126.484 121.107 126.601 121.224C126.719 121.331 126.777 121.485 126.777 121.688V128.44C126.777 128.653 126.719 128.813 126.601 128.92C126.484 129.027 126.329 129.08 126.137 129.08ZM126.137 119.368C125.881 119.368 125.673 119.293 125.513 119.144C125.353 118.995 125.273 118.797 125.273 118.552C125.273 118.317 125.353 118.125 125.513 117.976C125.673 117.827 125.881 117.752 126.137 117.752C126.393 117.752 126.601 117.827 126.761 117.976C126.921 118.125 127.001 118.317 127.001 118.552C127.001 118.797 126.921 118.995 126.761 119.144C126.601 119.293 126.393 119.368 126.137 119.368ZM135.52 121.048C135.723 121.048 135.883 121.107 136 121.224C136.117 121.341 136.176 121.496 136.176 121.688V128.472C136.176 129.635 135.877 130.509 135.28 131.096C134.683 131.693 133.797 131.992 132.624 131.992C131.483 131.992 130.533 131.768 129.776 131.32C129.392 131.107 129.2 130.861 129.2 130.584C129.2 130.435 129.237 130.312 129.312 130.216C129.397 130.12 129.504 130.072 129.632 130.072C129.739 130.072 129.931 130.147 130.208 130.296C130.581 130.488 130.949 130.643 131.312 130.76C131.675 130.877 132.107 130.936 132.608 130.936C133.365 130.936 133.936 130.733 134.32 130.328C134.704 129.933 134.896 129.352 134.896 128.584V127.208C134.672 127.709 134.325 128.093 133.856 128.36C133.397 128.627 132.853 128.76 132.224 128.76C131.541 128.76 130.933 128.6 130.4 128.28C129.877 127.96 129.467 127.507 129.168 126.92C128.88 126.333 128.736 125.656 128.736 124.888C128.736 124.12 128.88 123.443 129.168 122.856C129.467 122.269 129.877 121.816 130.4 121.496C130.933 121.176 131.541 121.016 132.224 121.016C132.843 121.016 133.381 121.149 133.84 121.416C134.299 121.683 134.645 122.061 134.88 122.552V121.688C134.88 121.496 134.933 121.341 135.04 121.224C135.157 121.107 135.317 121.048 135.52 121.048ZM132.48 127.688C133.227 127.688 133.813 127.443 134.24 126.952C134.667 126.451 134.88 125.763 134.88 124.888C134.88 124.024 134.667 123.347 134.24 122.856C133.824 122.355 133.237 122.104 132.48 122.104C131.723 122.104 131.125 122.355 130.688 122.856C130.261 123.347 130.048 124.024 130.048 124.888C130.048 125.763 130.261 126.451 130.688 126.952C131.125 127.443 131.723 127.688 132.48 127.688ZM142.495 121.016C144.362 121.016 145.295 122.045 145.295 124.104V128.44C145.295 128.643 145.236 128.803 145.119 128.92C145.012 129.027 144.858 129.08 144.655 129.08C144.452 129.08 144.292 129.027 144.175 128.92C144.058 128.803 143.999 128.643 143.999 128.44V124.184C143.999 123.459 143.855 122.931 143.567 122.6C143.29 122.269 142.842 122.104 142.223 122.104C141.508 122.104 140.938 122.323 140.511 122.76C140.084 123.197 139.871 123.789 139.871 124.536V128.44C139.871 128.643 139.812 128.803 139.695 128.92C139.588 129.027 139.434 129.08 139.231 129.08C139.028 129.08 138.868 129.027 138.751 128.92C138.634 128.803 138.575 128.643 138.575 128.44V121.688C138.575 121.496 138.634 121.341 138.751 121.224C138.868 121.107 139.028 121.048 139.231 121.048C139.423 121.048 139.572 121.107 139.679 121.224C139.796 121.341 139.855 121.491 139.855 121.672V122.488C140.111 122.008 140.468 121.645 140.927 121.4C141.386 121.144 141.908 121.016 142.495 121.016Z" fill="#464D61"/>
</svg>
